/* XPM */
static char * image_name[]={
"32 32 180 2",
"  	c #000000",
". 	c #030303",
"X 	c #0D0D0D",
"o 	c #0F0F0F",
"O 	c #080808",
"+ 	c #262626",
"@ 	c #828282",
"# 	c #949494",
"$ 	c #8C8C8C",
"% 	c #3D3D3D",
"& 	c #404040",
"* 	c #D6D6D6",
"= 	c #EBEBEB",
"- 	c #D9D9D9",
"; 	c #DEDEDE",
": 	c #E5E5E5",
"> 	c #696969",
", 	c #050505",
"< 	c #000001",
"1 	c #0A0A0A",
"2 	c #1C1C1C",
"3 	c #141414",
"4 	c #424242",
"5 	c #B0B0B0",
"6 	c #545454",
"7 	c #525252",
"8 	c #5C5C5C",
"9 	c #616161",
"0 	c #4D4D4D",
"q 	c #737373",
"w 	c #D4D4D4",
"e 	c #004186",
"r 	c #0063CD",
"t 	c #0057B5",
"y 	c #2F2F64",
"u 	c #363636",
"i 	c #A3A3A3",
"p 	c #95B4D4",
"a 	c #ABABAB",
"s 	c #999999",
"d 	c #969696",
"f 	c #919191",
"g 	c #575757",
"h 	c #CCCCCC",
"j 	c #232375",
"k 	c #006CDF",
"l 	c #007CFF",
"z 	c #0078F9",
"x 	c #004EA0",
"c 	c #ADADAD",
"v 	c #B0E2FF",
"b 	c #B0E0E6",
"n 	c #BABABA",
"m 	c #B3B3B3",
"M 	c #6B6B6B",
"N 	c #007BFF",
"B 	c #004B9B",
"V 	c #1A1A1A",
"C 	c #384B66",
"Z 	c #1E90FF",
"A 	c #24568A",
"S 	c #292929",
"D 	c #242424",
"F 	c #454545",
"G 	c #004187",
"H 	c #0062CA",
"J 	c #0055B0",
"K 	c #004997",
"L 	c #004B9C",
"P 	c #004288",
"I 	c #1F1F1F",
"U 	c #171717",
"Y 	c #121212",
"T 	c #004894",
"R 	c #0062CB",
"E 	c #0070E9",
"W 	c #006BDC",
"Q 	c #96AEC9",
"! 	c #0F58A5",
"~ 	c #0065D1",
"^ 	c #0072EC",
"/ 	c #0064CF",
"( 	c #0056B2",
") 	c #0078F7",
"_ 	c #007AFD",
"` 	c #0061C8",
"' 	c #4955A5",
"] 	c #E3E3E3",
"[ 	c #246AB4",
"{ 	c #CFCFCF",
"} 	c #0061C9",
"| 	c #0071EA",
" .	c #0075F1",
"..	c #0079FA",
"X.	c #0078F8",
"o.	c #0067D6",
"O.	c #0069D9",
"+.	c #729FFF",
"@.	c #E6E6FA",
"#.	c #B6E2CE",
"$.	c #B8B8B8",
"%.	c #C9C9C9",
"&.	c #004C9D",
"*.	c #0074F1",
"=.	c #0058B7",
"-.	c #00438C",
";.	c #0066D4",
":.	c #007AFE",
">.	c #0075F3",
",.	c #0073EE",
"<.	c #007AFC",
"1.	c #80AEDE",
"2.	c #87CEFA",
"3.	c #95BDE8",
"4.	c #95ADC7",
"5.	c #0065D0",
"6.	c #004EA1",
"7.	c #0073EF",
"8.	c #0477F2",
"9.	c #0E7AEE",
"0.	c #0F5FB4",
"q.	c #1057A4",
"w.	c #107BEE",
"e.	c #0F7DF2",
"r.	c #0F5DB0",
"t.	c #0059B9",
"y.	c #0079FB",
"u.	c #004C9E",
"i.	c #006FE6",
"p.	c #0060C7",
"a.	c #0071E9",
"s.	c #007BFE",
"d.	c #004A9A",
"f.	c #0055B1",
"g.	c #004185",
"h.	c #004FA3",
"j.	c #0076F3",
"k.	c #0073ED",
"l.	c #006FE5",
"z.	c #0077F6",
"x.	c #0065D2",
"c.	c #006EE4",
"v.	c #0069DA",
"b.	c #0057B3",
"n.	c #0076F4",
"m.	c #0060C6",
"M.	c #0077F7",
"N.	c #0062CC",
"B.	c #005EC4",
"V.	c #005FC4",
"C.	c #0054AD",
"Z.	c #005FC5",
"A.	c #0076F5",
"S.	c #0067D5",
"D.	c #0056B1",
"F.	c #0068D8",
"G.	c #006ADB",
"H.	c #0079F9",
"J.	c #006EE3",
"K.	c #0075F2",
"L.	c #00448C",
"P.	c #0074F0",
"I.	c #005FC6",
"U.	c #004690",
"Y.	c #0077F5",
"T.	c #0052A9",
"R.	c #0054AE",
"E.	c #004793",
"W.	c #006DE0",
"Q.	c #005BBB",
"!.	c #004188",
"~.	c #005DBF",
"^.	c #0051A7",
"/.	c #006BDD",
"(.	c #004084",
").	c #0072EB",
"_.	c #006DE3",
"`.	c #222298",
"'.	c #005DC1",
"].	c #0057B4",
"                                                                ",
"                                                                ",
"                                                                ",
"                              . X o o o o o o o o o o o o O     ",
"                              + @ # # # # # # # # # # # $ % .   ",
"                              & * = - * * * * * * * * ; : > ,   ",
"                  < 1 2 3 .   4 * 5 6 7 8 > 9 6 6 7 0 q w > ,   ",
"                  o e r t y . 4 * # u @ i p a s d f g 0 h > ,   ",
"                < j k l z x X 4 * # 4 c v v v b n m M 0 h > ,   ",
"                < j k N z B X 4 * # V C Z Z Z A S D 3 F h > ,   ",
"                  o G H J y . 4 * # o 3 K H L V <     4 h > ,   ",
"              . 1 2 j P I .   4 * d 2 y j j U .     < 4 h > ,   ",
"        < , Y j T R E W j , < F - Q ! ~ ^ / j .       4 h > .   ",
"      O 2 j ( k ) N l _ ` j y ' ] v Z Z Z Z [ y D D D 8 { > ,   ",
"    , j } |  ...l N N l X.o.O.+.@.@.v v v v b #.n $.$.%.] > .   ",
"    1 &.*.=.-.;.:.N l >.,._ <.Z 1.2.2.2.2.2.2.2.2.3.4.s $ % .   ",
"    o =.k j y 5.N N N } 6.7._ 8.9.Z Z Z Z 0.q.w.Z e.r.I o ,     ",
"    Y t./ y j ^ N N y.u.j O.i.p.a.s.l N >.j V j d.f.g.1         ",
"    1 j j V h...l N ..B I j j j R s.l l j.j O , O o X <         ",
"    < , , y o.<.k.l.z.x.j X O j c.y.a.l.) } j ,                 ",
"        , j *.v.j j b.n.m.j o T M.N.j j B.M.V.y .               ",
"        o C.z 6.X . y p.X.Z.j } A.P O , j S.M.D.V <             ",
"      < y F.| j .   , j G.H.J.>.k j <   O j i.K.L.1             ",
"      , j P.I.V       1 U.Y.N <.D.Y       Y T...Z.U             ",
"      o R.A.E.O       < j W.N  .j ,       . j ^ i.j .           ",
"    < j G.i.j .         3 Q._ G.y <       < 2 / A.!.O           ",
"    , j K.~.U           X ^._ S.y           X 6.z t.3           ",
"    . j /.e O           O (.,.).j .         . j _.k j <         ",
"      Y `.y <           < U &.'.G 1           o j ].j ,         ",
"      < X O               . Y V 2 ,           < O U 3 .         ",
"                            < < < <                 <           ",
"                                                                "
};
