/* XPM */
static char * image_name[]={
"32 32 139 2",
"  	c #000000",
". 	c #030303",
"X 	c #0D0D0D",
"o 	c #0F0F0F",
"O 	c #080808",
"+ 	c #262626",
"@ 	c #828282",
"# 	c #949494",
"$ 	c #8C8C8C",
"% 	c #3D3D3D",
"& 	c #404040",
"* 	c #D6D6D6",
"= 	c #EBEBEB",
"- 	c #D9D9D9",
"; 	c #DEDEDE",
": 	c #E5E5E5",
"> 	c #696969",
", 	c #050505",
"< 	c #000001",
"1 	c #0A0A0A",
"2 	c #1C1C1C",
"3 	c #141414",
"4 	c #424242",
"5 	c #B0B0B0",
"6 	c #545454",
"7 	c #525252",
"8 	c #4D4D4D",
"9 	c #737373",
"0 	c #D4D4D4",
"q 	c #004186",
"w 	c #0063CD",
"e 	c #0057B5",
"r 	c #2F2F64",
"t 	c #363636",
"y 	c #969696",
"u 	c #919191",
"i 	c #575757",
"p 	c #CCCCCC",
"a 	c #232375",
"s 	c #006CDF",
"d 	c #007CFF",
"f 	c #0078F9",
"g 	c #004EA0",
"h 	c #9E9E9E",
"j 	c #B8B8B8",
"k 	c #B3B3B3",
"l 	c #6B6B6B",
"z 	c #007BFF",
"x 	c #004B9B",
"c 	c #1A1A1A",
"v 	c #1F1F1F",
"b 	c #242424",
"n 	c #454545",
"m 	c #004187",
"M 	c #0062CA",
"N 	c #0055B0",
"B 	c #004288",
"V 	c #121212",
"C 	c #004894",
"Z 	c #0062CB",
"A 	c #0070E9",
"S 	c #006BDC",
"D 	c #0056B2",
"F 	c #0078F7",
"G 	c #007AFD",
"H 	c #0061C7",
"J 	c #A3A3A3",
"K 	c #333333",
"L 	c #5C5C5C",
"P 	c #CFCFCF",
"I 	c #0061C9",
"U 	c #0071EA",
"Y 	c #0075F1",
"T 	c #0079FA",
"R 	c #0077F6",
"E 	c #004C9D",
"W 	c #BDBDBD",
"Q 	c #C9C9C9",
"! 	c #E3E3E3",
"~ 	c #0074F1",
"^ 	c #0058B7",
"/ 	c #00438C",
"( 	c #0066D4",
") 	c #007AFE",
"_ 	c #0075F3",
"` 	c #0073EE",
"' 	c #006FE7",
"] 	c #004996",
"[ 	c #384B66",
"{ 	c #9C9C9C",
"} 	c #0065D0",
"| 	c #006EE3",
" .	c #0074F0",
"..	c #0471E7",
"X.	c #0E65C2",
"o.	c #0059B9",
"O.	c #0064CF",
"+.	c #0072EC",
"@.	c #0079FB",
"#.	c #004C9E",
"$.	c #004A98",
"%.	c #00458F",
"&.	c #004FA3",
"*.	c #0067D6",
"=.	c #007AFC",
"-.	c #0073ED",
";.	c #006FE5",
":.	c #0065D2",
">.	c #0069DA",
",.	c #0057B3",
"<.	c #0076F4",
"1.	c #0060C6",
"2.	c #0054AD",
"3.	c #004EA1",
"4.	c #0060C7",
"5.	c #0078F8",
"6.	c #005FC5",
"7.	c #0068D8",
"8.	c #006ADB",
"9.	c #0050A7",
"0.	c #005FC6",
"q.	c #004690",
"w.	c #0077F5",
"e.	c #0069D8",
"r.	c #0054AE",
"t.	c #0076F5",
"y.	c #004793",
"u.	c #006DE0",
"i.	c #0074EF",
"p.	c #006FE6",
"a.	c #005ABA",
"s.	c #004EA2",
"d.	c #0075F2",
"f.	c #005DBF",
"g.	c #171717",
"h.	c #0064CE",
"j.	c #006BDD",
"k.	c #222298",
"l.	c #0057B4",
"                                                                ",
"                                                                ",
"                                                                ",
"                              . X o o o o o o o o o o o o O     ",
"                              + @ # # # # # # # # # # # $ % .   ",
"                              & * = - * * * * * * * * ; : > ,   ",
"                  < 1 2 3 .   4 * 5 6 7 7 6 7 7 6 7 8 9 0 > ,   ",
"                  o q w e r . 4 * # t @ # # # # y u i 8 p > ,   ",
"                < a s d f g X 4 * # & h j j j j j k l 8 p > ,   ",
"                < a s z f x X 4 * # c v b b b b b b 3 n p > ,   ",
"                  o m M N r . 4 * # o                 4 p > ,   ",
"              . 1 2 a B v .   4 * # o               < 4 p > ,   ",
"        < , V a C Z A S a ,   4 * y o                 4 p > .   ",
"      O 2 a D s F z d G H r < 4 * J K b b b b b b b b L P > ,   ",
"    , a I U Y T d z z d R E V 4 * ; W j j j j j j j j Q ! > .   ",
"    1 E ~ ^ / ( ) z d _ ` ' ] [ { h # # # # # # # # # # $ % .   ",
"    o ^ s a r } z z z I x |  ...X.r o o o o o o o o o o o ,     ",
"    V o.O.r a +.z z @.#.c a $.D %.o                             ",
"    1 a a c &.T d z T x 1 . O o X .                             ",
"    < , , r *.=.-.;.R :.a ,                                     ",
"        , a ~ >.a a ,.<.1.a ,                                   ",
"        o 2.f 3.X . r 4.5.6.a .                                 ",
"      < r 7.U a .   , a 8.f 9.o                                 ",
"      , a  .0.c       1 q.w.e.r <                               ",
"      o r.t.y.O       < a u.i.a .                               ",
"    < a 8.p.a .         3 a.f s.X                               ",
"    , a d.f.g.          O q w.h.2                               ",
"    . a j.q O           < a 7.U a .                             ",
"      V k.r <             X a l.m 1                             ",
"      < X O                 , 3 2 ,                             ",
"                                < <                             ",
"                                                                "
};
