/* XPM */
static char * image_name[]={
"32 32 114 2",
"  	c #000000",
". 	c #000001",
"X 	c #080808",
"o 	c #0F0F0F",
"O 	c #0D0D0D",
"+ 	c #050505",
"@ 	c #030303",
"# 	c #232375",
"$ 	c #00448D",
"% 	c #0054AF",
"& 	c #004FA3",
"* 	c #171717",
"= 	c #1A1A1A",
"- 	c #5C5C5C",
"; 	c #696969",
": 	c #4D4D4D",
"> 	c #0A0A0A",
", 	c #0066D3",
"< 	c #0077F6",
"1 	c #007AFD",
"2 	c #007AFC",
"3 	c #0072EB",
"4 	c #0052A8",
"5 	c #3D3D3D",
"6 	c #CCCCCC",
"7 	c #E8E8E8",
"8 	c #E0E0E0",
"9 	c #DEDEDE",
"0 	c #EBEBEB",
"q 	c #B0B0B0",
"w 	c #212121",
"e 	c #0068D8",
"r 	c #007BFE",
"t 	c #007CFF",
"y 	c #007BFF",
"u 	c #0076F3",
"i 	c #004996",
"p 	c #424242",
"a 	c #D9D9D9",
"s 	c #C7C7C7",
"d 	c #8F8F8F",
"f 	c #8C8C8C",
"g 	c #949494",
"h 	c #BDBDBD",
"j 	c #242424",
"k 	c #004D9E",
"l 	c #0079FA",
"z 	c #0067D5",
"x 	c #2F2F64",
"c 	c #D6D6D6",
"v 	c #9E9E9E",
"b 	c #C2C2C2",
"n 	c #969696",
"m 	c #C9C9C9",
"M 	c #121212",
"N 	c #005ABA",
"B 	c #0072ED",
"V 	c #9C9C9C",
"C 	c #B8B8B8",
"Z 	c #919191",
"A 	c #0055B1",
"S 	c #0071EA",
"D 	c #363636",
"F 	c #333333",
"G 	c #2E2E2E",
"H 	c #383838",
"J 	c #222298",
"K 	c #0075F3",
"L 	c #0062CB",
"P 	c #1C1C1C",
"I 	c #ABABAB",
"U 	c #7A7A7A",
"Y 	c #545454",
"T 	c #1F1F1F",
"R 	c #005CBF",
"E 	c #0070E8",
"W 	c #858585",
"Q 	c #636363",
"! 	c #262626",
"~ 	c #0053AC",
"^ 	c #006DE2",
"/ 	c #0073EF",
"( 	c #0064CD",
") 	c #7D7D7D",
"_ 	c #141414",
"` 	c #A8A8A8",
"' 	c #757575",
"] 	c #8A8A8A",
"[ 	c #828282",
"{ 	c #4F4F4F",
"} 	c #ADADAD",
"| 	c #B3B3B3",
" .	c #00438B",
"..	c #0071EB",
"X.	c #0074EF",
"o.	c #0074F0",
"O.	c #0063CD",
"+.	c #787878",
"@.	c #737373",
"#.	c #303030",
"$.	c #004895",
"%.	c #0079FB",
"&.	c #006ADB",
"*.	c #404040",
"=.	c #0069DB",
"-.	c #A3A3A3",
";.	c #BABABA",
":.	c #6E6E6E",
">.	c #0078FA",
",.	c #006ADC",
"<.	c #0059B9",
"1.	c #005BBD",
"2.	c #005BBC",
"3.	c #004EA2",
"                                                                ",
"                                                                ",
"                                                                ",
"              . X o O + .           . @ + @ + + + + + + @ .     ",
"            X # $ % & # * @         = - ; ; ; ; ; ; ; ; : o     ",
"          > # , < 1 2 3 4 = .       5 6 7 8 9 8 8 8 8 0 q w     ",
"        @ # e r t y y t u i O       p a s d f d d f g a h j     ",
"        > k l t y y t y y z x .     p c q v b b b h n m h j     ",
"        M N y y y y y t y B # @     p c q V h h h C Z s h j     ",
"        o A 1 t y y y y y S # .   . p c V D F G j j H h h j     ",
"        + J K y y y y y y L P       p c I U f Y X   j h h j     ",
"        . T R l y y y t E J X       p c I W V Q = O ! h h j     ",
"          + # ~ ^ / 3 ( # M       . p c I ) g d W Q D h h j     ",
"          . + _ # # # x > @ .     . p c ` ' ] ] [ { F h h j     ",
"        @ T # # # # # # # # O       p c } g q | W P j h h j     ",
"        X  ...X./ X.o./ X.O.T .     p c ` +.f d @.#.F h h j     ",
"        X $.%.y y y t y y &.x       p c I [ v v V d Q b h j     ",
"        X $.%.y y y y y y &.x       p c v *.p p p 5 *.h h j     ",
"        X $.l y t y y y y =.x       p c -.F j j j j p s h j     ",
"        X $.l y y t y y t &.x       p c 9 ;.C C C C b 7 C j     ",
"        X $.l y y t y y y &.x       ! [ g g g g g g g g :._     ",
"        X $.%.y t y t y t =.x       @ O o o o o o o o o > @     ",
"        X $.l y y y y t y &.x                                   ",
"        X $.l y y t y y y &.x                                   ",
"        X $.>.y y y y y y ,.x .                                 ",
"        X $.l y y t y y y &.x .                                 ",
"        X $.l y y y y y y &.x                                   ",
"        + # <.1.1.2.1.1.1.3.*                                   ",
"        . > M M M M M M M o +                                   ",
"                                                                ",
"                                                                ",
"                                                                "
};
