/* XPM */
static char * image_name[]={
"32 32 58 2",
"  	c #000000",
". 	c #000001",
"X 	c #050505",
"o 	c #212121",
"O 	c #3D3D3D",
"+ 	c #404040",
"@ 	c #2B2B2B",
"# 	c #0A0A0A",
"$ 	c #4D4D4D",
"% 	c #ABABAB",
"& 	c #D4D4D4",
"* 	c #D9D9D9",
"= 	c #BABABA",
"- 	c #666666",
"; 	c #141414",
": 	c #030303",
"> 	c #454545",
", 	c #C4C4C4",
"< 	c #FAFAFA",
"1 	c #FFFFFF",
"2 	c #FCFCFC",
"3 	c #5C5C5C",
"4 	c #080808",
"5 	c #0F0F0F",
"6 	c #8C8C8C",
"7 	c #F5F5F5",
"8 	c #A6A6A6",
"9 	c #1A1A1A",
"0 	c #1C1C1C",
"q 	c #BDBDBD",
"w 	c #242424",
"e 	c #121212",
"r 	c #999999",
"t 	c #B5B5B5",
"y 	c #5E5E5E",
"u 	c #E3E3E3",
"i 	c #E8E8E8",
"p 	c #7E7E7E",
"a 	c #858585",
"s 	c #DEDEDE",
"d 	c #171717",
"f 	c #7F7F7F",
"g 	c #828282",
"h 	c #575757",
"j 	c #333333",
"k 	c #424242",
"l 	c #3B3B3B",
"z 	c #1F1F1F",
"x 	c #A1A1A1",
"c 	c #DBDBDB",
"v 	c #DCDCDC",
"b 	c #383838",
"n 	c #B0B0B0",
"m 	c #F0F0F0",
"M 	c #CFCFCF",
"N 	c #0D0D0D",
"B 	c #4F4F4F",
"V 	c #696969",
"                                                                ",
"                                                                ",
"                                                                ",
"                              . .                               ",
"                          X o O + @ #                           ",
"                        # $ % & * = - ;                         ",
"                      : > , < 1 1 2 * 3 4                       ",
"                      5 6 7 1 1 1 1 < 8 9                       ",
"                      0 % 1 1 1 1 1 1 q w                       ",
"                      e r < 1 1 1 1 1 t o                       ",
"                      X y u 1 1 1 1 i p 5                       ",
"                        0 a * 7 7 s 6 w .                       ",
"                        . d $ f g h 0 :                         ",
"                      4 j k > $ $ > k l e                       ",
"                      z x c c c c c v q b                       ",
"                      w q 1 1 1 1 1 1 c k .                     ",
"                      w q 1 1 1 1 1 1 c k                       ",
"                      w q 1 1 1 1 1 1 c k .                     ",
"                      w q 1 1 1 1 1 1 c k                       ",
"                      w q 1 1 1 1 1 1 c k                       ",
"                      w q 1 1 1 1 1 1 c k                       ",
"                      w q 1 1 1 1 1 1 v k                       ",
"                      w q 1 1 1 1 1 1 c k                       ",
"                      w q 1 1 1 1 1 1 c k                       ",
"                      w q 1 1 1 1 1 1 c k .                     ",
"                      w q 1 1 1 1 1 1 c k                       ",
"                      w q 1 1 1 1 1 1 c k                       ",
"                      o n m m m m m m M O                       ",
"                      N B V V V V V V 3 0                       ",
"                        : X X X X X X X .                       ",
"                                                                ",
"                                                                "
};
