/* XPM */
static char * image_name[]={
"32 32 122 2",
"  	c #000000",
". 	c #000001",
"X 	c #080808",
"o 	c #0F0F0F",
"O 	c #0D0D0D",
"+ 	c #050505",
"@ 	c #030303",
"# 	c #232375",
"$ 	c #00448D",
"% 	c #0054AF",
"& 	c #004FA3",
"* 	c #171717",
"= 	c #363636",
"- 	c #595959",
"; 	c #696969",
": 	c #787878",
"> 	c #0A0A0A",
", 	c #0066D3",
"< 	c #0077F6",
"1 	c #007AFD",
"2 	c #007AFC",
"3 	c #0072EB",
"4 	c #0052A8",
"5 	c #1A1A1A",
"6 	c #121212",
"7 	c #4F4F4F",
"8 	c #999999",
"9 	c #C2C2C2",
"0 	c #C4C4C4",
"q 	c #B6E2CE",
"w 	c #B0E0E6",
"e 	c #0068D8",
"r 	c #007BFE",
"t 	c #007CFF",
"y 	c #007BFF",
"u 	c #0076F3",
"i 	c #004996",
"p 	c #1F1F1F",
"a 	c #7A7A7A",
"s 	c #D1D1D1",
"d 	c #D4D4D4",
"f 	c #8F8F8F",
"g 	c #2C6FB6",
"h 	c #1E90FF",
"j 	c #2C6BAD",
"k 	c #5C5C5C",
"l 	c #DBDBDB",
"z 	c #004D9E",
"x 	c #0079FA",
"c 	c #0067D5",
"v 	c #2F2F64",
"b 	c #737373",
"n 	c #E3E3E3",
"m 	c #DCDCDC",
"M 	c #6B6B6B",
"N 	c #006CDF",
"B 	c #0068D7",
"V 	c #E5E5E5",
"C 	c #E0E0E0",
"Z 	c #666666",
"A 	c #005ABA",
"S 	c #0072ED",
"D 	c #384B66",
"F 	c #8C8C8C",
"G 	c #F0F0F0",
"H 	c #CFCFCF",
"J 	c #4D4D4D",
"K 	c #0070E7",
"L 	c #006BDD",
"P 	c #616161",
"I 	c #DEDEDE",
"U 	c #0055B1",
"Y 	c #0071EA",
"T 	c #383838",
"R 	c #A8A8A8",
"E 	c #BDBDBD",
"W 	c #1362B7",
"Q 	c #0B7BF2",
"! 	c #0C7CF3",
"~ 	c #125EAF",
"^ 	c #C7C7C7",
"/ 	c #EBEBEB",
"( 	c #A6A6A6",
") 	c #333333",
"_ 	c #222298",
"` 	c #0075F3",
"' 	c #0062CB",
"] 	c #1C1C1C",
"[ 	c #2E2E2E",
"{ 	c #828282",
"} 	c #B8B8B8",
"| 	c #96AAC0",
" .	c #85B2E2",
"..	c #86B3E3",
"X.	c #B5B5B5",
"o.	c #005CBF",
"O.	c #0070E8",
"+.	c #878787",
"@.	c #9C9C9C",
"#.	c #B0B0B0",
"$.	c #8A8A8A",
"%.	c #0053AC",
"&.	c #006DE2",
"*.	c #0073EF",
"=.	c #0064CD",
"-.	c #141414",
";.	c #212121",
":.	c #00438B",
">.	c #0071EB",
",.	c #0074EF",
"<.	c #0074F0",
"1.	c #0063CD",
"2.	c #004895",
"3.	c #0079FB",
"4.	c #006ADB",
"5.	c #0069DB",
"6.	c #0078FA",
"7.	c #006ADC",
"8.	c #0059B9",
"9.	c #005BBD",
"0.	c #005BBC",
"q.	c #004EA2",
"                                                                ",
"                                                                ",
"                                                                ",
"              . X o O + .               @ @ X X + @             ",
"            X # $ % & # * @       @ * = - ; : : ; - = * @       ",
"          > # , < 1 2 3 4 5 .   6 7 8 9 0 q w w q 0 0 8 7 6     ",
"        @ # e r t y y t u i O p a s d f - g h h j k 8 l d : 5   ",
"        > z x t y y t y y c v b n m M 5 # N y y B v p : V C Z X ",
"        6 A y y y y y t y S D F G H J > # K y t L v O P I G : > ",
"        o U 1 t y y y y y Y # T R V E Z v W Q ! ~ v ; ^ / ( ) @ ",
"        + _ ` y y y y y y ' ] @ [ { ^ s } |  ...| X.s ^ { [ +   ",
"        . p o.x y y y t O._ X   . 6 T Z +.@.#.#.@.$.Z T 6 .     ",
"          + # %.&.*.3 =.# 6           + O -.;.;.-.O +           ",
"          . + -.# # # v > @ .                                   ",
"        @ p # # # # # # # # O                                   ",
"        X :.>.,.*.,.<.*.,.1.p .                                 ",
"        X 2.3.y y y t y y 4.v                                   ",
"        X 2.3.y y y y y y 4.v                                   ",
"        X 2.x y t y y y y 5.v                                   ",
"        X 2.x y y t y y t 4.v                                   ",
"        X 2.x y y t y y y 4.v                                   ",
"        X 2.3.y t y t y t 5.v                                   ",
"        X 2.x y y y y t y 4.v                                   ",
"        X 2.x y y t y y y 4.v                                   ",
"        X 2.6.y y y y y y 7.v .                                 ",
"        X 2.x y y t y y y 4.v .                                 ",
"        X 2.x y y y y y y 4.v                                   ",
"        + # 8.9.9.0.9.9.9.q.*                                   ",
"        . > 6 6 6 6 6 6 6 o +                                   ",
"                                                                ",
"                                                                ",
"                                                                "
};
