/* XPM */
static char * image_name[]={
"32 32 79 2",
"  	c #000000",
". 	c #000001",
"X 	c #080808",
"o 	c #171717",
"O 	c #2F2F64",
"+ 	c #1F1F1F",
"@ 	c #0F0F0F",
"# 	c #030303",
"$ 	c #222298",
"% 	c #005EC3",
"& 	c #0069D9",
"* 	c #0068D6",
"= 	c #0050A5",
"- 	c #1C1C1C",
"; 	c #0052A9",
": 	c #0073EE",
"> 	c #007BFF",
", 	c #0075F2",
"< 	c #232375",
"1 	c #050505",
"2 	c #121212",
"3 	c #004EA2",
"4 	c #0076F5",
"5 	c #0079FB",
"6 	c #004793",
"7 	c #006EE2",
"8 	c #007CFF",
"9 	c #0075F3",
"0 	c #0077F5",
"q 	c #007BFE",
"w 	c #0062CA",
"e 	c #0076F4",
"r 	c #007AFC",
"t 	c #005BBD",
"y 	c #0074F0",
"u 	c #0077F7",
"i 	c #0071EA",
"p 	c #005ABB",
"a 	c #0A0A0A",
"s 	c #004287",
"d 	c #141414",
"f 	c #0050A6",
"g 	c #006ADB",
"h 	c #006ADC",
"j 	c #0069DB",
"k 	c #0052AB",
"l 	c #006FE6",
"z 	c #0077F6",
"x 	c #00448C",
"c 	c #0054AD",
"v 	c #006CE0",
"b 	c #0077F8",
"n 	c #004C9D",
"m 	c #0D0D0D",
"M 	c #004B9B",
"N 	c #0078F8",
"B 	c #0067D6",
"V 	c #007AFB",
"C 	c #0054AE",
"Z 	c #00428A",
"A 	c #0070E8",
"S 	c #0063CD",
"D 	c #007AFD",
"F 	c #005CBE",
"G 	c #0074F1",
"H 	c #0072ED",
"J 	c #0060C6",
"K 	c #1A1A1A",
"L 	c #0072EB",
"P 	c #004187",
"I 	c #0054AF",
"U 	c #0066D2",
"Y 	c #006FE5",
"T 	c #004A99",
"R 	c #004895",
"E 	c #0071EB",
"W 	c #0073EF",
"Q 	c #0074EF",
"! 	c #0065D1",
"                                                                ",
"                                                                ",
"                                                                ",
"                                                                ",
"                                      . X o O + @ #             ",
"                                    # o $ % & * = - .           ",
"                                  # - ; : > > > , < 1           ",
"                                  2 3 4 > > > > 5 6 X           ",
"                                . < 7 8 > 8 > 8 9 < 1           ",
"                                1 $ 0 > > 8 > q w O .           ",
"                                1 < e 8 8 > r & < X             ",
"                                . O t y u i p < a               ",
"                                  1 - < s < o 1                 ",
"                            # o O O O O < O - a                 ",
"                            d f g g h g j g k o                 ",
"                          # < l > > > > > z x a                 ",
"                          2 c 5 > > > > > & < .                 ",
"                        # < v > > > 8 > b n m                   ",
"                        m M N 8 8 > 8 8 v < #                   ",
"                      . O B > > > > 8 V C 2                     ",
"                      X Z e 8 > > > 8 A < #                     ",
"                    . + S q > > 8 8 D F o                       ",
"                    1 < G > > > > 8 H < 1                       ",
"                  . o F D > 8 > > q J K .                       ",
"                  # < L > 8 > 8 > 9 P X                         ",
"                  2 I r > > > 8 > U O .                         ",
"                # < Y > > > 8 > b T a                           ",
"                m R E y y y W Q ! < #                           ",
"                X < < < < < < < < a                             ",
"                . # # # # # # # # .                             ",
"                                                                ",
"                                                                "
};
