/* XPM */
static char * image_name[]={
"32 32 233 2",
"  	c #000000",
". 	c #030303",
"X 	c #000001",
"o 	c #1C1C1C",
"O 	c #545454",
"+ 	c #5C5C5C",
"@ 	c #2B2B2B",
"# 	c #141414",
"$ 	c #6A6A8D",
"% 	c #D1D1D1",
"& 	c #E0E0E0",
"* 	c #7E88AB",
"= 	c #2F2F64",
"- 	c #171717",
"; 	c #0D0D0D",
": 	c #080808",
"> 	c #050505",
", 	c #232375",
"< 	c #054F9F",
"1 	c #1E90FF",
"2 	c #729FFF",
"3 	c #B0E2FF",
"4 	c #0770E0",
"5 	c #0061C8",
"6 	c #0053AD",
"7 	c #004691",
"8 	c #1A1A1A",
"9 	c #0F0F0F",
"0 	c #0A0A0A",
"q 	c #0059B8",
"w 	c #006FE4",
"e 	c #0078F8",
"r 	c #027CFD",
"t 	c #036FE2",
"y 	c #0073EE",
"u 	c #0077F6",
"i 	c #0074F0",
"p 	c #006EE3",
"a 	c #0064CE",
"s 	c #0058B5",
"d 	c #004A98",
"f 	c #384B66",
"g 	c #787878",
"h 	c #8F8F8F",
"j 	c #616161",
"k 	c #292929",
"l 	c #044D9B",
"z 	c #0065D1",
"x 	c #0075F1",
"c 	c #007AFC",
"v 	c #0073EF",
"b 	c #0566CD",
"n 	c #2A6BB0",
"m 	c #00448D",
"M 	c #0054AD",
"N 	c #006CDF",
"B 	c #0078F9",
"V 	c #0679F3",
"C 	c #B0E0E6",
"Z 	c #E6E6FA",
"A 	c #D4D4D4",
"S 	c #4D4D4D",
"D 	c #969696",
"F 	c #E5E5E5",
"G 	c #82B5EB",
"H 	c #007CFF",
"J 	c #005BBC",
"K 	c #1F1F1F",
"L 	c #0878EE",
"P 	c #097EFA",
"I 	c #024995",
"U 	c #0054AE",
"Y 	c #0071EA",
"T 	c #027CFE",
"R 	c #EBEBEB",
"E 	c #666666",
"W 	c #3D3D3D",
"Q 	c #FFFFFF",
"! 	c #007AFD",
"~ 	c #0068D8",
"^ 	c #00438B",
"/ 	c #006FE6",
"( 	c #0079FA",
") 	c #004895",
"_ 	c #121212",
"` 	c #0075F2",
"' 	c #007BFE",
"] 	c #87CEFA",
"[ 	c #4A4A4A",
"{ 	c #333333",
"} 	c #C7C7C7",
"| 	c #FCFCFC",
" .	c #0176F4",
"..	c #0071EB",
"X.	c #0068D6",
"o.	c #005ABB",
"O.	c #0079FB",
"+.	c #004FA3",
"@.	c #404040",
"#.	c #454545",
"$.	c #0255AF",
"%.	c #006EE4",
"&.	c #006EE5",
"*.	c #0165D1",
"=.	c #7C98D3",
"-.	c #5F929E",
";.	c #3F7EC2",
":.	c #044386",
">.	c #005EC2",
",.	c #006ADC",
"<.	c #0077F7",
"1.	c #007BFF",
"2.	c #007AFE",
"3.	c #006DE2",
"4.	c #1D65B1",
"5.	c #9C9C9C",
"6.	c #D6D6D6",
"7.	c #DBDBDB",
"8.	c #89B8EA",
"9.	c #006FE5",
"0.	c #036DDF",
"q.	c #067EFF",
"w.	c #025CBD",
"e.	c #0A4D94",
"r.	c #094E97",
"t.	c #004690",
"y.	c #005EC3",
"u.	c #037CFD",
"i.	c #0256AF",
"p.	c #0069DB",
"a.	c #222298",
"s.	c #006DE0",
"d.	c #0368D4",
"f.	c #EDEDED",
"g.	c #006BDE",
"h.	c #005ABA",
"j.	c #004996",
"k.	c #006ADB",
"l.	c #004B9C",
"z.	c #A5B8CD",
"x.	c #A8A8A8",
"c.	c #242424",
"v.	c #0050A6",
"b.	c #004998",
"n.	c #2A71BD",
"m.	c #275D97",
"M.	c #0053AC",
"N.	c #037DFF",
"B.	c #027AFA",
"V.	c #0074EF",
"C.	c #046CDB",
"Z.	c #2F4F4F",
"A.	c #376EA9",
"S.	c #3870AD",
"D.	c #8BBFF8",
"F.	c #0965C7",
"G.	c #0071E9",
"H.	c #004D9F",
"J.	c #0072ED",
"K.	c #004289",
"L.	c #0063CD",
"P.	c #067AF5",
"I.	c #0069D9",
"U.	c #004793",
"Y.	c #006DE1",
"T.	c #005CBD",
"R.	c #0075F3",
"E.	c #036CDD",
"W.	c #3E7EC2",
"Q.	c #A1A1A1",
"!.	c #38618D",
"~.	c #014B9A",
"^.	c #0072EB",
"/.	c #0058B7",
"(.	c #034892",
").	c #1F64AE",
"_.	c #124F91",
"`.	c #0268D4",
"'.	c #014893",
"].	c #005CBF",
"[.	c #0051A7",
"{.	c #005DC1",
"}.	c #007BFD",
"|.	c #0067D5",
" X	c #005DC0",
".X	c #778899",
"XX	c #227CDC",
"oX	c #027BFC",
"OX	c #0073ED",
"+X	c #005BBD",
"@X	c #004085",
"#X	c #0061C9",
"$X	c #097DF9",
"%X	c #B8B8B8",
"&X	c #212121",
"*X	c #525252",
"=X	c #0379F6",
"-X	c #0066D4",
";X	c #E8E8E8",
":X	c #067EFE",
">X	c #00448E",
",X	c #0050A7",
"<X	c #0070E7",
"1X	c #065CB9",
"2X	c #3F658F",
"3X	c #696969",
"4X	c #2E2E2E",
"5X	c #A3A3A3",
"6X	c #CCCCCC",
"7X	c #0070E8",
"8X	c #0064CF",
"9X	c #0053AB",
"0X	c #0060C6",
"qX	c #0179F9",
"wX	c #0265CE",
"eX	c #0067D4",
"rX	c #0068D7",
"tX	c #004288",
"yX	c #0059B9",
"uX	c #006BDC",
"iX	c #0074F1",
"pX	c #0076F3",
"aX	c #0365CE",
"sX	c #187FEE",
"dX	c #0057B4",
"fX	c #0050A5",
"gX	c #004186",
"hX	c #3C7DC3",
"jX	c #F8F8FF",
"kX	c #DEDEDE",
"lX	c #262626",
"zX	c #303030",
"xX	c #707070",
"                                                                ",
"                          . .                                   ",
"                      X o O + @ .                               ",
"                    . # $ % & * = - ; : . X                     ",
"              X > # , < 1 2 3 2 4 5 6 7 , , 8 9 : > . 0 9 :     ",
"      . . . 0 = , q w e r 2 3 2 t y u u i p a s d , f g h j #   ",
"  . k + j f l z x c v a b 1 2 n , , m M 5 N y u B V 2 C Z A S . ",
"  o D F F G 1 H y J , K , L P I : . : ; - = , U Y T 1 1 3 R E . ",
"  W A Q Z 2 1 ! ~ ^ = # , / ( ) :   X X . _ , J ` ' ' 1 ] % [ . ",
"  { } | Z 2  .c e ..X.o.J x O.+.# K @.#.f $.%.c O.&.*.1 2 =.o   ",
"  _ -.3 ] ;.:.+.>.,.y <.O.1.2.3.4.5.6.7.8.1 O.9.U , , 0.q.w._   ",
"  : e.1 1 r.; ; # = , t.y.u 1.u.2 Z Q Q Z 2 i., _ . = p.H J _   ",
"  > a.u ( ) :     X . : , s.! d.-.f.Q Q & j # .   X = g.' h._   ",
"  . , i ( j.:           = k.( l.= z.Z Z x.c.      . , Y c v.;   ",
"  . , v ( b.:           = k.( ) o n.2 2 m.0       . , i ( j.:   ",
"  . , v ! M.;           = k.( ) 8 J N.B.) :       . , V.( ) :   ",
"  . , V.1.J _           = C.B.I 8 J 1.( ) :       . , V.( ) :   ",
"  . , V.1.J _         . Z.2 2 A.= y.H ( ) :       . , v ( ) :   ",
"  . , V.1.J _     X : = S.D.3 2 F.G.H O.H.9 . X   . , i ( ) :   ",
"  . , J.1.J _ X : = K.L.P.2 3 2 <.! H ' I.U., = _ 0 , V.( ) :   ",
"  X , Y.' T.- 8 a.a R.e E.W.Q.!.~.p H 1.c u ^.X./.(.).1 1 _.:   ",
"  X = k.H `.'.].i ( 9.[., o K ; - {.' }.|. X,.V.e 1 2 3 ] .X#   ",
"    = XX1 2 1 oXOXs , _ .       _ +X' R.@X- = , #X$X1 2 Z %X&X  ",
"  . *XC ] 2 1 =X/., 0 .         _ J H i , > _ , -Xc oX2 7.h #   ",
"  . j ;XZ 2 :XO.%.h.>X, o 9 > X _ J ' i , , ,X<X! V.1X2X3Xk .   ",
"  . 4X5X6X=.b 9.u ! <.7X8X9X, , = 0X' qXwXeXe ( rX@X- ; :       ",
"    > c.W @ o , tXyXuXiXc c pXN aXsX1 1 1 1 V.dX, 0 X           ",
"              . : _ = , fXL.<Xe 1 ] 3 3 3 1 gX- .               ",
"                    X > ; o , U.hX& jXjXkXf 0 X                 ",
"                            . : @ Q.f.f.5XlX                    ",
"                                . zXxXxXzX>                     ",
"                                  X : : X                       "
};
