/* XPM */
static char * image_name[]={
"32 32 216 2",
"  	c #000000",
". 	c #000001",
"X 	c #050505",
"o 	c #0A0A0A",
"O 	c #121212",
"+ 	c #171717",
"@ 	c #2F2F64",
"# 	c #1A1A1A",
"$ 	c #0D0D0D",
"% 	c #080808",
"& 	c #030303",
"* 	c #1F1F1F",
"= 	c #232375",
"- 	c #004FA3",
"; 	c #005ABA",
": 	c #005CBD",
"> 	c #0061C9",
", 	c #0069D9",
"< 	c #0064CE",
"1 	c #005CBE",
"2 	c #005BBC",
"3 	c #0053AC",
"4 	c #004792",
"5 	c #1C1C1C",
"6 	c #004289",
"7 	c #0063CD",
"8 	c #0072EC",
"9 	c #0073ED",
"0 	c #006EE4",
"q 	c #006ADB",
"w 	c #0067D4",
"e 	c #006BDD",
"r 	c #0070E9",
"t 	c #0073EF",
"y 	c #0072EA",
"u 	c #004896",
"i 	c #0063CC",
"p 	c #0074F0",
"a 	c #006FE4",
"s 	c #0054AF",
"d 	c #004085",
"f 	c #0057B3",
"g 	c #006CDF",
"h 	c #0060C6",
"j 	c #0F0F0F",
"k 	c #0052A8",
"l 	c #0054AE",
"z 	c #004DA0",
"x 	c #004C9D",
"c 	c #0052AB",
"v 	c #0072EB",
"b 	c #005CBF",
"n 	c #00458E",
"m 	c #004692",
"M 	c #0064CF",
"N 	c #0059B7",
"B 	c #004691",
"V 	c #0056B2",
"C 	c #141414",
"Z 	c #006CE1",
"A 	c #0375F0",
"S 	c #077CF9",
"D 	c #0B7EF9",
"F 	c #0577F2",
"G 	c #006BDE",
"H 	c #0050A6",
"J 	c #0272EA",
"K 	c #1E90FF",
"L 	c #729FFF",
"P 	c #83BFFF",
"I 	c #097DF9",
"U 	c #0065D0",
"Y 	c #0060C7",
"T 	c #006FE6",
"R 	c #004C9C",
"E 	c #0074EF",
"W 	c #004998",
"Q 	c #0051A8",
"! 	c #0478F4",
"~ 	c #87CEFA",
"^ 	c #E6E6FA",
"/ 	c #F2F2F2",
"( 	c #B0E2FF",
") 	c #0171EA",
"_ 	c #0052A9",
"` 	c #006DE3",
"' 	c #0067D5",
"] 	c #0066D3",
"[ 	c #0071E9",
"{ 	c #1879E2",
"} 	c #91D2DE",
"| 	c #F0F8FF",
" .	c #FFFFFF",
"..	c #EBEBEB",
"X.	c #B0B0B0",
"o.	c #8C8C8C",
"O.	c #B5B5B5",
"+.	c #0479F6",
"@.	c #004997",
"#.	c #004C9E",
"$.	c #0075F2",
"%.	c #2066B1",
"&.	c #AFBAC5",
"*.	c #FAFAFA",
"=.	c #F0F0F0",
"-.	c #ABABAB",
";.	c #525252",
":.	c #333333",
">.	c #858585",
",.	c #E0E0E0",
"<.	c #B0E0E6",
"1.	c #0174EF",
"2.	c #0066D2",
"3.	c #0070E7",
"4.	c #0C6DD6",
"5.	c #5F929E",
"6.	c #A5BDD6",
"7.	c #E3E3E3",
"8.	c #EDEDED",
"9.	c #B8B8B8",
"0.	c #424242",
"q.	c #5C5C5C",
"w.	c #CFCFCF",
"e.	c #FCFCFC",
"r.	c #0477F1",
"t.	c #004DA1",
"y.	c #0075F1",
"u.	c #222298",
"i.	c #0773E6",
"p.	c #1A7BE3",
"a.	c #7C98D3",
"s.	c #A3BBD5",
"d.	c #E8E8E8",
"f.	c #BABABA",
"g.	c #CCCCCC",
"h.	c #0171E8",
"j.	c #004794",
"k.	c #004A99",
"l.	c #0073EE",
"z.	c #0065D1",
"x.	c #006FE5",
"c.	c #0375EE",
"v.	c #0B76E9",
"b.	c #026CDD",
"n.	c #0058B6",
"m.	c #004895",
"M.	c #005DC1",
"N.	c #0059B9",
"B.	c #004288",
"V.	c #0071EB",
"C.	c #00438C",
"Z.	c #0079FA",
"A.	c #00448D",
"S.	c #004EA1",
"D.	c #0174F0",
"F.	c #0160C5",
"G.	c #0060C8",
"H.	c #0054AD",
"J.	c #005EC2",
"K.	c #0056B3",
"L.	c #0067D6",
"P.	c #0061C8",
"I.	c #0A69CE",
"U.	c #0D7CF2",
"Y.	c #005FC5",
"T.	c #007BFE",
"R.	c #006DE2",
"E.	c #004FA4",
"W.	c #0051A7",
"Q.	c #384B66",
"!.	c #B3B3B3",
"~.	c #C9C9C9",
"^.	c #0179FA",
"/.	c #007AFC",
"(.	c #004186",
").	c #004793",
"_.	c #3B3B3B",
"`.	c #DEDEDE",
"'.	c #7A7A7A",
"].	c #C4C4C4",
"[.	c #0779F3",
"{.	c #00438A",
"}.	c #2E2E2E",
"|.	c #E5E5E5",
" X	c #6B6B6B",
".X	c #8F8F8F",
"XX	c #117EF2",
"oX	c #006ADC",
"OX	c #005FC4",
"+X	c #919191",
"@X	c #9E9E9E",
"#X	c #6E6E6E",
"$X	c #DCDCDC",
"%X	c #D6D6D6",
"&X	c #7D7D7D",
"*X	c #D1D1D1",
"=X	c #3E71A7",
"-X	c #005ABB",
";X	c #242424",
":X	c #A6A6A6",
">X	c #D9D9D9",
",X	c #474747",
"<X	c #9C9C9C",
"1X	c #F5F5F5",
"2X	c #C7C7C7",
"3X	c #949494",
"4X	c #A1A1A1",
"5X	c #212121",
"6X	c #292929",
"7X	c #C2C2C2",
"8X	c #ADADAD",
"9X	c #D4D4D4",
"0X	c #F7F7F7",
"qX	c #666666",
"wX	c #262626",
"eX	c #BDBDBD",
"                                                                ",
"                . X o O O + @ # O O $ % & .                     ",
"            . % * = - ; : > , < 1 2 3 4 = 5 o &                 ",
"          % * 6 7 8 9 0 q , 7 w q e r t y < u @ X               ",
"      & + = i p a s = = @ @ # 5 @ @ = d f g t h = j .           ",
"    & 5 k r 0 l = O X . . & % % X . & X O = z 0 0 x * &         ",
"  . # c v b = O & . X + = = n m = = O &   & j = M t N 5 .       ",
"  $ B 8 V * X   & C = 2 Z A S D F G H @ %     % = f 8 x O .     ",
"& = , q = &   & 5 - J K K L L P L K I U = C &   & @ Y T = o     ",
"$ R E W $     + Q ! K ~ ^ ^ / / ^ ( L K ) _ @ X   X = ` ' = &   ",
"* ] ' @ .   X = [ { } |  ...X.o.O...^ ~ K +.1 * .   j @.E Q j   ",
"= [ 1 O     o #.$.%.&.*. .=.-.;.:.>.,.| <.K 1.= X   . @ 2.q = . ",
"= 3.b O     X = 8 4.5.6.<.7.8.9.0.q.w.e.^ L r.= X     $ t.y.u.X ",
"* 2.' @ &   . + _ p i.p.K a.s.d.f.g.^ ( L K h.= C X   & = 9 j.% ",
"$ k.l.l 5 & . & 5 @.z.q x.c.a.d.*.^ L K v.b.r G n.= j & = v m.% ",
". @ M.t N.= 5 $ X $ 5 @ B.V.L ^  .^ K Y = @ C.g Z.a A.+ = 9 j.% ",
"  X = V [ v M S.= @ C # #.D.L ^  .^ K F.@ O 5 = G.Z.V.H.J.v = X ",
"    & + = K., 8 [ L.M.P.[ I.a./ *.| L U.Y.; V = = ] T.p R.Q # . ",
"        X O @ = E.Y , 2.W.Q.!.=.~.8.^ K ^./.p (.j ).l.Q = C &   ",
"            . X $ + @ 5 j _.w.`.'.].=.a.[.Y {.* j u 0 = & .     ",
"                          }.].|. X.X/ ~ XXB 5 @ u.oXOX5 .       ",
"                          O +X=.@X#X7.( K q M.z.0 Y = X         ",
"                          & ;.$X%X&X*X`.=X-XM ; {.@ %           ",
"                            ;X9...:X>X>X,XC # O % .             ",
"                            O <X1X7./ 2X}.                      ",
"                            j 3X*. .*.4X+                       ",
"                            C @X*. ... X%                       ",
"                            5X9. . .*X_..                       ",
"                            6X7X .e.8X*                         ",
"                            _.9X .0Xo.j                         ",
"                            _.9X ...qXX                         ",
"                            wXeX .g._.                          "
};
