/* XPM */
static char * image_name[]={
"32 32 193 2",
"  	c #000000",
". 	c #000001",
"X 	c #030303",
"o 	c #050505",
"O 	c #333333",
"+ 	c #4D4D4D",
"@ 	c #1A1A1A",
"# 	c #1C1C1C",
"$ 	c #9E9E9E",
"% 	c #D6D6D6",
"& 	c #696969",
"* 	c #080808",
"= 	c #292929",
"- 	c #C2C2C2",
"; 	c #FAFAFA",
": 	c #919191",
"> 	c #0F0F0F",
", 	c #1F1F1F",
"< 	c #363636",
"1 	c #171717",
"2 	c #242424",
"3 	c #BDBDBD",
"4 	c #949494",
"5 	c #8C8C8C",
"6 	c #C9C9C9",
"7 	c #7D7D7D",
"8 	c #A1A1A1",
"9 	c #545454",
"0 	c #A6A6A6",
"q 	c #DCDCDC",
"w 	c #616161",
"e 	c #0A0A0A",
"r 	c #A8A8A8",
"t 	c #E8E8E8",
"y 	c #7A7A7A",
"u 	c #F2F2F2",
"i 	c #EBEBEB",
"p 	c #D1D1D1",
"a 	c #404040",
"s 	c #474747",
"d 	c #707070",
"f 	c #2B2B2B",
"g 	c #737373",
"h 	c #E3E3E3",
"j 	c #F5F5F5",
"k 	c #6E6E6E",
"l 	c #DBDBDB",
"z 	c #F0F0F0",
"x 	c #828282",
"c 	c #0D0D0D",
"v 	c #141414",
"b 	c #2F2F64",
"n 	c #2E2E2E",
"m 	c #BFBFBF",
"M 	c #3D3D3D",
"N 	c #5C5C5C",
"B 	c #232375",
"V 	c #004D9F",
"C 	c #005EC2",
"Z 	c #0067D6",
"A 	c #0069DA",
"S 	c #0064CE",
"D 	c #0053AB",
"F 	c #212121",
"G 	c #004FA4",
"H 	c #006EE4",
"J 	c #0079FA",
"K 	c #007AFE",
"L 	c #0079FB",
"P 	c #007AFD",
"I 	c #007AFC",
"U 	c #0074EF",
"Y 	c #005EC1",
"T 	c #005CBF",
"R 	c #0078F7",
"E 	c #0079FC",
"W 	c #006FE6",
"Q 	c #005DC0",
"! 	c #004998",
"~ 	c #0055B0",
"^ 	c #0068D8",
"/ 	c #0076F4",
"( 	c #006ADB",
") 	c #303030",
"_ 	c #0051A8",
"` 	c #0078F8",
"' 	c #0077F6",
"] 	c #005CBE",
"[ 	c #004B9A",
"{ 	c #0072EB",
"} 	c #0064CF",
"| 	c #121212",
" .	c #C7C7C7",
"..	c #B8B8B8",
"X.	c #8F8F8F",
"o.	c #636363",
"O.	c #0071E9",
"+.	c #0058B7",
"@.	c #004793",
"#.	c #0074F0",
"$.	c #0077F7",
"%.	c #004B9B",
"&.	c #A3A3A3",
"*.	c #C4C4C4",
"=.	c #BABABA",
"-.	c #525252",
";.	c #F7F7F7",
":.	c #262626",
">.	c #0054AE",
",.	c #006DE2",
"<.	c #005DBF",
"1.	c #454545",
"2.	c #FCFCFC",
"3.	c #E0E0E0",
"4.	c #424242",
"5.	c #8A8A8A",
"6.	c #ABABAB",
"7.	c #0066D3",
"8.	c #007BFE",
"9.	c #005BBB",
"0.	c #222298",
"q.	c #0073EE",
"w.	c #2F4F4F",
"e.	c #B5B5B5",
"r.	c #6B6B6B",
"t.	c #3B3B3B",
"y.	c #0070E7",
"u.	c #004A99",
"i.	c #B3B3B3",
"p.	c #666666",
"a.	c #0073ED",
"s.	c #004289",
"d.	c #00458E",
"f.	c #CFCFCF",
"g.	c #00458F",
"h.	c #004DA0",
"j.	c #E5E5E5",
"k.	c #0075F1",
"l.	c #005EC3",
"z.	c #D9D9D9",
"x.	c #007BFD",
"c.	c #024388",
"v.	c #0075F2",
"b.	c #4A4A4A",
"n.	c #D4D4D4",
"m.	c #004692",
"M.	c #0052A8",
"N.	c #9C9C9C",
"B.	c #858585",
"V.	c #005ABB",
"C.	c #0054AC",
"Z.	c #384B66",
"A.	c #034891",
"S.	c #0071EA",
"D.	c #969696",
"F.	c #0065D0",
"G.	c #044C98",
"H.	c #E6E6FA",
"J.	c #7C98D3",
"K.	c #0474ED",
"L.	c #007BFF",
"P.	c #0070E9",
"I.	c #7E7E7E",
"U.	c #878787",
"Y.	c #0062CC",
"T.	c #1E90FF",
"R.	c #93ACC8",
"E.	c #91D2DE",
"W.	c #017CFE",
"Q.	c #ADADAD",
"!.	c #B0B0B0",
"~.	c #026EE2",
"^.	c #729FFF",
"/.	c #5F929E",
"(.	c #0D7DF4",
").	c #0077F5",
"_.	c #00448E",
"`.	c #B6E2CE",
"'.	c #B0E0E6",
"].	c #0275EF",
"[.	c #004D9E",
"{.	c #0B75E6",
"}.	c #5470AA",
"|.	c #F0F8FF",
" X	c #0571E5",
".X	c #B0E2FF",
"XX	c #87CEFA",
"oX	c #015CBD",
"OX	c #00438B",
"+X	c #006CE0",
"@X	c #0465CD",
"#X	c #014289",
"$X	c #034994",
"                              . X                               ",
"                            o O + @                             ",
"                            # $ % & *                           ",
"                            = - ; : >             .             ",
"          X , < 1           2 3 ; 4 >         X , O >           ",
"          1 5 6 7 1         2 3 ; 4 >       X O 8 - 9 o         ",
"          # 0 ; q w e       # r t y e       , 4 u i & *         ",
"          * 9 p ; - a X     * s d f .     > g h j r f .         ",
"            > k l z x c X e v b b # > o . n m ; 3 M X           ",
"              v & r N 1 B V C Z A S D B @ 2 5 r + *             ",
"                c F b G H J K L J P I U Y B F # *               ",
"                X b T R E W Q V ! ~ ^ / I ( B *                 ",
"X 1 ) 2 > o   . v _ ` ' ] B v e * > b [ { P } b X   X e 1 n f c ",
"| 7  ...X.o.= * B O.L +.b o         . | @.#.$.%.c > s y &.*.=.-.",
"# &.j ; ;.t 4 :.>.P ,.B X             . @ <.P Z b 1. .u 2.2.3.o.",
"* 4.5.6.*.p 5 b 7.8.9.v   e ) :.*       o 0./ q.B w.e.p m &.r., ",
"  X c @ f t.F B y.J u.*   f r i.p.= o   X B a.` s.> n t.:.1 *   ",
"            X B a.` d.*   @ x f.3.6.< . X B a.` g.* .           ",
"            . B ,.L h.e   X n X.i j.N X * 0./ k.B X             ",
"              1 l.8.} b X :.4 z.j.8 n X @ T x.( b .             ",
"        X @ O :.c.v.$.>., b.n.; *.9 c | m.#.J M.1 :.= > X       ",
"    X @ -.N.6 B.b V.L / C.b 7  .j.e.Z.A.S.8.^ B ) r 3 x a | .   ",
"  X O D.l ;.z 4 @ B F.x.U G.b x j.H.J.K.L.P.0.e < - ; u f.7 @   ",
"  c I.z ;.p U.O X * B Y.` T.R.l t E.T.W.,.s.| . > 9 Q.j.; p a . ",
"  * N !.D.b.| .     o B ~.^.H.2.n./.(.)._.> .     * 2 o.&.4 =   ",
"    c , v X           1 C T.^.`.j.'.T.].B X           * @ 1 X   ",
"                      e [.J {.}.n.|.^. XB .                     ",
"                      X B ,.L T..XXXT.oX1                       ",
"                        > OX+XT.^.T.@XB o                       ",
"                        . > B #X$X0.b *                         ",
"                            X o * o .                           ",
"                                                                "
};
