/* XPM */
static char * image_name[]={
"32 32 196 2",
"  	c #000000",
". 	c #030303",
"X 	c #050505",
"o 	c #000001",
"O 	c #232375",
"+ 	c #0D0D0D",
"@ 	c #0F0F0F",
"# 	c #0458B2",
"$ 	c #0E6DD2",
"% 	c #2F2F64",
"& 	c #080808",
"* 	c #121212",
"= 	c #276FBD",
"- 	c #80B7F0",
"; 	c #A3A3A3",
": 	c #949494",
"> 	c #8C8C8C",
", 	c #3D3D3D",
"< 	c #004FA3",
"1 	c #5773B8",
"2 	c #E6E6FA",
"3 	c #EDEDED",
"4 	c #D9D9D9",
"5 	c #D6D6D6",
"6 	c #E3E3E3",
"7 	c #E0E0E0",
"8 	c #DEDEDE",
"9 	c #E5E5E5",
"0 	c #696969",
"q 	c #0069D9",
"w 	c #0061C7",
"e 	c #5470AA",
"r 	c #B0B0B0",
"t 	c #545454",
"y 	c #525252",
"u 	c #636363",
"i 	c #7C98D3",
"p 	c #729FFF",
"a 	c #4F4F4F",
"s 	c #737373",
"d 	c #D4D4D4",
"f 	c #00448D",
"g 	c #0070E7",
"h 	c #004EA2",
"j 	c #969696",
"k 	c #383838",
"l 	c #828282",
"z 	c #87CEFA",
"x 	c #A1A1A1",
"c 	c #575757",
"v 	c #4D4D4D",
"b 	c #CCCCCC",
"n 	c #171717",
"m 	c #0050A6",
"M 	c #005BBC",
"N 	c #1A1A1A",
"B 	c #004289",
"V 	c #95B0CD",
"C 	c #9EB9D6",
"Z 	c #B6E2CE",
"A 	c #BABABA",
"S 	c #B0E0E6",
"D 	c #B3B3B3",
"F 	c #6B6B6B",
"G 	c #005CBD",
"H 	c #0178F7",
"J 	c #1E90FF",
"K 	c #2463A6",
"L 	c #242424",
"P 	c #141414",
"I 	c #454545",
"U 	c #004793",
"Y 	c #0078F9",
"T 	c #006FE6",
"R 	c #005EC3",
"E 	c #4169E1",
"W 	c #95BDE8",
"Q 	c #1075E1",
"! 	c #0078F8",
"~ 	c #0074EF",
"^ 	c #0051A9",
"/ 	c #1C1C1C",
"( 	c #424242",
") 	c #00458F",
"_ 	c #0072EC",
"` 	c #0074F0",
"' 	c #0057B5",
"] 	c #9E9E9E",
"[ 	c #0071EB",
"{ 	c #0076F4",
"} 	c #004B9C",
"| 	c #6E6E6E",
" .	c #0A0A0A",
"..	c #006DE2",
"X.	c #0075F2",
"o.	c #004B9B",
"O.	c #006EE3",
"+.	c #7E88AB",
"@.	c #1F1F1F",
"#.	c #005FC5",
"$.	c #0070E8",
"%.	c #0063CE",
"&.	c #0054AD",
"*.	c #0079FA",
"=.	c #005EC2",
"-.	c #333333",
";.	c #2477D1",
":.	c #2468B2",
">.	c #303030",
",.	c #2E2E2E",
"<.	c #255384",
"1.	c #004DA0",
"2.	c #0060C7",
"3.	c #006ADC",
"4.	c #474747",
"5.	c #DCDCDC",
"6.	c #C2C2C2",
"7.	c #B0E2FF",
"8.	c #B7BEC5",
"9.	c #B8BFC6",
"0.	c #708090",
"q.	c #292929",
"w.	c #FFFFFF",
"e.	c #FCFCFC",
"r.	c #CFCFCF",
"t.	c #999999",
"y.	c #94BEEB",
"u.	c #95AAC1",
"i.	c #0062CA",
"p.	c #F2F2F2",
"a.	c #FAFAFA",
"s.	c #D1D1D1",
"d.	c #666666",
"f.	c #262626",
"g.	c #106CCF",
"h.	c #107CF0",
"j.	c #0073EF",
"k.	c #EBEBEB",
"l.	c #9C9C9C",
"z.	c #0069D8",
"x.	c #0073EE",
"c.	c #363636",
"v.	c #707070",
"b.	c #0061C9",
"n.	c #0077F5",
"m.	c #004690",
"M.	c #E8E8E8",
"N.	c #7D7D7D",
"B.	c #004C9E",
"V.	c #004FA4",
"C.	c #0062CB",
"Z.	c #004EA1",
"A.	c #004188",
"S.	c #006BDE",
"D.	c #384B66",
"F.	c #6A6A8D",
"G.	c #006DE1",
"H.	c #004187",
"J.	c #004288",
"K.	c #0063CD",
"L.	c #0054AE",
"P.	c #006CE0",
"I.	c #005FC4",
"U.	c #005ABB",
"Y.	c #0079F9",
"T.	c #066FE1",
"R.	c #F7F7F7",
"E.	c #F5F5F5",
"W.	c #C4C4C4",
"Q.	c #5F929E",
"!.	c #076FDE",
"~.	c #005BBB",
"^.	c #0059B7",
"/.	c #006BDD",
"(.	c #0060C6",
").	c #87AFD9",
"_.	c #F0F8FF",
"`.	c #86BFFB",
"'.	c #0E7DF5",
"].	c #075FBE",
"[.	c #0555AA",
"{.	c #B8BFC7",
"}.	c #878787",
"|.	c #3F6996",
" X	c #066FDF",
".X	c #1872D3",
"XX	c #0064CF",
"oX	c #005ABA",
"OX	c #0077F6",
"+X	c #0051A7",
"@X	c #0056B1",
"#X	c #004186",
"$X	c #0074F1",
"%X	c #0071EA",
"&X	c #0061C8",
"*X	c #0068D8",
"                                                                ",
"                              . X o                             ",
"                            X O O +                             ",
"                            @ # $ % @ @ @ @ @ @ @ @ @ @ @ &     ",
"            X @ &           * = - ; : : : : : : : : : : > , .   ",
"          o % < O X         * 1 2 3 4 5 5 5 4 6 2 7 5 8 9 0 X   ",
"          o O q w % .       + e 2 r t y y t u i p e a s d 0 X   ",
"            + f g h @     . & y 4 j k l : j ; z z x c v b 0 X   ",
"            o n m M N X n O B e 6 V e C Z A S Z A D F v b 0 X   ",
"              . n % N O G g H p 2 z J J K % % % L L P I b 0 X   ",
"                o P U g Y T R E 6 W Q ! ~ ^ / .       ( b 0 X   ",
"  o X . o       @ ) _ ` ' O n v 4 ] % < [ { } @     o ( b | X   ",
"  + O O /  .o . O ..X.o.n .   ( 5 j * P U ` O.O . o & a d +.N o ",
"o @.#.$.%.U n * &.*.=./ o     ( 5 ; -.L % ;.J :.>.,.<.i 2 i O . ",
"  + O 1.2.=.O % 3.~ O X     . 4.5.6 6.A A S 7.S 8.9.S 2 2 0.n o ",
"    .  .n / + O _ 3.%   & q.y : 3 w.e.r.t.x y.z u.j : : > % .   ",
"            . O ~ i.N . I D 6 p.w.a.s.d.n f.g.h.O * @ @ @ X     ",
"            . O j.i.N  .s k.w.w.w.3 l.,.o % z.x.O .             ",
"            o O g ..O . c.; 3 w.w.a.7 v.+ O $...O o             ",
"    o X + N n @.b.n.m.+ ,.l.k.w.w.e.M.N./ B.Y R N * / @ X o     ",
"  o n O V.C.Z.N A.X.S.D.F.k.w.w.w.M.l.% O G.X.H.* J.K.L.O @..   ",
"  X O P.O.I.O  ./ U.Y.T.i 5 R.w.w.E.W.Q.!.Y ~./ X O ^./.T o.+   ",
"  . % O O n & o . O (.Y.J ).M.w.w.w._.`.'.M O .   X P O O O X   ",
"    . X .         X O ].p 2 R.E.k.7 7.p [.@..         o X .     ",
"                    . O i 2 {.}.u |.J  XO .                     ",
"                      @..XJ D.@ & O ` XXN                       ",
"                      * oXOXo.N / +X! @X@                       ",
"                      & #X$X%X(.&Xj.g O X                       ",
"                      o N 1.S.x.x.*XJ.@ o                       ",
"                        . @ O O O % + o                         ",
"                            o . . o                             ",
"                                                                "
};
