/* XPM */
static char * image_name[]={
"32 32 176 2",
"  	c #000000",
". 	c #030303",
"X 	c #000001",
"o 	c #080808",
"O 	c #232375",
"+ 	c #171717",
"@ 	c #050505",
"# 	c #1A1A1A",
"$ 	c #2F2F64",
"% 	c #005DC1",
"& 	c #0074EF",
"* 	c #006EE4",
"= 	c #00438B",
"- 	c #141414",
"; 	c #0F0F0F",
": 	c #004EA2",
"> 	c #006ADB",
", 	c #006CE0",
"< 	c #0077F6",
"1 	c #007BFF",
"2 	c #007AFD",
"3 	c #0071EA",
"4 	c #006ADC",
"5 	c #0067D6",
"6 	c #222298",
"7 	c #0050A5",
"8 	c #006DE0",
"9 	c #006BDE",
"0 	c #006BDC",
"q 	c #006CDF",
"w 	c #006BDD",
"e 	c #0072EB",
"r 	c #0073EE",
"t 	c #00458E",
"y 	c #0051A9",
"u 	c #004D9E",
"i 	c #004C9D",
"p 	c #0052AB",
"a 	c #004691",
"s 	c #0051A8",
"d 	c #0062CA",
"f 	c #00438C",
"g 	c #006FE6",
"h 	c #00448C",
"j 	c #0063CD",
"k 	c #0071EB",
"l 	c #0056B1",
"z 	c #0057B3",
"x 	c #006EE5",
"c 	c #004895",
"v 	c #0079FA",
"b 	c #005BBC",
"n 	c #005BBD",
"m 	c #0069DB",
"M 	c #004996",
"N 	c #0078FA",
"B 	c #005CBD",
"V 	c #0074F0",
"C 	c #0077F5",
"Z 	c #0073EF",
"A 	c #004896",
"S 	c #0076F5",
"D 	c #0078F9",
"F 	c #0056B2",
"G 	c #005CBF",
"H 	c #0D0D0D",
"J 	c #054D9A",
"K 	c #0177F6",
"L 	c #0954A4",
"P 	c #0064CF",
"I 	c #0A0A0A",
"U 	c #4D4D4D",
"Y 	c #3179C6",
"T 	c #0279F7",
"R 	c #047BFA",
"E 	c #7C98D3",
"W 	c #5F929E",
"Q 	c #127CED",
"! 	c #4A4A4A",
"~ 	c #B5BDC5",
"^ 	c #729FFF",
"/ 	c #067CFB",
"( 	c #155EAC",
") 	c #384B66",
"_ 	c #036DDE",
"` 	c #057CFB",
"' 	c #B0E2FF",
"] 	c #1E90FF",
"[ 	c #0477F3",
"{ 	c #1E5188",
"} 	c #2E2E2E",
"| 	c #ADADAD",
" .	c #E5E5E5",
"..	c #067DFD",
"X.	c #097AF3",
"o.	c #0055B1",
"O.	c #047CFC",
"+.	c #999999",
"@.	c #5C5C5C",
"#.	c #242424",
"$.	c #8C8C8C",
"%.	c #E8E8E8",
"&.	c #266EBB",
"*.	c #067EFF",
"=.	c #027CFF",
"-.	c #017CFF",
";.	c #027BFC",
":.	c #077AF6",
">.	c #5773B8",
",.	c #A6A6A6",
"<.	c #C2C2C2",
"1.	c #A8A8A8",
"2.	c #6B6B6B",
"3.	c #303030",
"4.	c #DEDEDE",
"5.	c #C7C7C7",
"6.	c #044284",
"7.	c #0068D7",
"8.	c #0A74E5",
"9.	c #036DDF",
"0.	c #212121",
"q.	c #575757",
"w.	c #ABABAB",
"e.	c #DCDCDC",
"r.	c #BDBDBD",
"t.	c #7D7D7D",
"y.	c #3D3D3D",
"u.	c #4F4F4F",
"i.	c #CCCCCC",
"p.	c #696969",
"a.	c #7E88AB",
"s.	c #B0E0E6",
"d.	c #616161",
"f.	c #F0F0F0",
"g.	c #F2F2F2",
"h.	c #D1D1D1",
"j.	c #878787",
"k.	c #2B2B2B",
"l.	c #333333",
"z.	c #B5B5B5",
"x.	c #EBEBEB",
"c.	c #919191",
"v.	c #1C1C1C",
"b.	c #1F1F1F",
"n.	c #2F4F4F",
"m.	c #A1A1A1",
"M.	c #E3E3E3",
"N.	c #FAFAFA",
"B.	c #FCFCFC",
"V.	c #C4C4C4",
"C.	c #545454",
"Z.	c #5E5E5E",
"A.	c #949494",
"S.	c #D9D9D9",
"D.	c #B8B8B8",
"F.	c #858585",
"G.	c #525252",
"H.	c #262626",
"J.	c #EDEDED",
"K.	c #787878",
"L.	c #A3A3A3",
"P.	c #F5F5F5",
"I.	c #E0E0E0",
"U.	c #BFBFBF",
"Y.	c #292929",
"T.	c #737373",
"R.	c #F7F7F7",
"E.	c #CFCFCF",
"W.	c #D4D4D4",
"Q.	c #3B3B3B",
"!.	c #404040",
"~.	c #121212",
"^.	c #383838",
"/.	c #B0B0B0",
"(.	c #707070",
").	c #363636",
"                                                                ",
"                                                                ",
"                                                                ",
"                                                                ",
"                              . . . X                           ",
"                    X       o O O O + X       X                 ",
"                  @ # $ $ $ O % & * = $ $ $ $ - .               ",
"                  ; : > > > , < 1 2 3 4 > > 5 6 o               ",
"                  ; 7 8 9 0 , , 4 9 8 q w e r t o               ",
"                  o O y 6 O u i O 6 p a O s d O .               ",
"                  o f g h O j j O h k l $ z x O .               ",
"                  o c < c O > > O c v b $ n & O .               ",
"                  o c < c O m > O M N B $ b V O .               ",
"                  o c C M O > > O M v n $ b Z O .               ",
"                  o c < A O > > O c v b $ n Z O .               ",
"                  o c S c O > 4 O c D F $ G Z O .               ",
"                  H J C c O > > O c K L $ P V O .               ",
"                I U Y T c O > > O c R E W Q V O .               ",
"              @ ! ~ ^ / ( ) _ > O c ` ^ ' ] [ { # .             ",
"            X } |  .^ ..] ] X.* 6 o.O.^ ^ ] ] E +.@.#.o X       ",
"            # $.%.| &.v *.] =.v g V -.] ] ;.:.>.,.<.1.2.3.H .   ",
"          H 2.4.5.! 6.7.4 m 4 8.] ] ] ] 9.> j O 0.q.w.e.r.t.y.H ",
"        o u.i.4.p.; - $ $ $ ) a.s.' ' a.) $ $ 0.3.d.| f.g.h.j.k.",
"      . l.z.x.c.v.I b.n.2.m.i.M.N.B.V.C.#.3.Z.A.V.e.S.D.F.G.H.I ",
"      b.A.J.<.@.! K.| h.S.i.L.w.f.P.m.p.A.V.4.I.U.j.G.Y.H .     ",
"    ; T.M.R.E.U.W.S.V.m.2.Q.Y.c.P.N.I.I.I.V.A.Z.} H .           ",
"  o C.E.B.P.4.<.A.Z.l.+ o . !.i.R. .V.A.Z.3.~.@                 ",
". ^./.S.D.F.C.} ~..       H (.D.A.Z.3.~..                       ",
"I U (.u.Y.; .             I ).3.~..                             ",
". ; I .                     .                                   ",
"                                                                ",
"                                                                "
};
