/* XPM */
static char * image_name[]={
"32 32 100 2",
"  	c #000000",
". 	c #030303",
"X 	c #080808",
"o 	c #050505",
"O 	c #171717",
"+ 	c #363636",
"@ 	c #595959",
"# 	c #696969",
"$ 	c #787878",
"% 	c #121212",
"& 	c #4F4F4F",
"* 	c #999999",
"= 	c #C2C2C2",
"- 	c #C4C4C4",
"; 	c #B6E2CE",
": 	c #B0E0E6",
"> 	c #1F1F1F",
", 	c #7A7A7A",
"< 	c #D1D1D1",
"1 	c #D4D4D4",
"2 	c #8F8F8F",
"3 	c #2C6FB6",
"4 	c #1E90FF",
"5 	c #2C6BAD",
"6 	c #5C5C5C",
"7 	c #DBDBDB",
"8 	c #1A1A1A",
"9 	c #0D0D0D",
"0 	c #737373",
"q 	c #E3E3E3",
"w 	c #DCDCDC",
"e 	c #6B6B6B",
"r 	c #232375",
"t 	c #006CDF",
"y 	c #007BFF",
"u 	c #0068D7",
"i 	c #2F2F64",
"p 	c #E5E5E5",
"a 	c #E0E0E0",
"s 	c #666666",
"d 	c #8A8A8A",
"f 	c #F0F0F0",
"g 	c #CFCFCF",
"h 	c #4D4D4D",
"j 	c #0A0A0A",
"k 	c #0070E7",
"l 	c #007CFF",
"z 	c #006BDD",
"x 	c #616161",
"c 	c #DEDEDE",
"v 	c #A8A8A8",
"b 	c #BDBDBD",
"n 	c #1362B7",
"m 	c #0B7BF2",
"M 	c #0C7CF3",
"N 	c #125EAF",
"B 	c #C7C7C7",
"V 	c #EBEBEB",
"C 	c #A6A6A6",
"Z 	c #333333",
"A 	c #2E2E2E",
"S 	c #828282",
"D 	c #B8B8B8",
"F 	c #96AAC0",
"G 	c #85B2E2",
"H 	c #86B3E3",
"J 	c #B5B5B5",
"K 	c #000001",
"L 	c #383838",
"P 	c #878787",
"I 	c #9C9C9C",
"U 	c #B0B0B0",
"Y 	c #141414",
"T 	c #212121",
"R 	c #0F0F0F",
"E 	c #3D3D3D",
"W 	c #969696",
"Q 	c #949494",
"! 	c #262626",
"~ 	c #FAFAFA",
"^ 	c #D6D6D6",
"/ 	c #404040",
"( 	c #FFFFFF",
") 	c #424242",
"_ 	c #636363",
"` 	c #2B2B2B",
"' 	c #00438C",
"] 	c #004895",
"[ 	c #004896",
"{ 	c #222298",
"} 	c #0071EA",
"| 	c #0078FA",
" .	c #0079FA",
"..	c #0079FB",
"X.	c #0074EF",
"o.	c #006ADB",
"O.	c #006DE0",
"+.	c #0073EF",
"@.	c #0074F0",
"#.	c #0064CE",
"                                                                ",
"                                                                ",
"                                                                ",
"                                        . . X X o .             ",
"                                  . O + @ # $ $ # @ + O .       ",
"                                % & * = - ; : : ; - - * & %     ",
"                              > , < 1 2 @ 3 4 4 5 6 * 7 1 $ 8   ",
"                            9 0 q w e 8 r t y y u i > $ p a s X ",
"                            % d f g h j r k y l z i 9 x c f $ j ",
"                            . + v p b s i n m M N i # B V C Z . ",
"                              . A S B < D F G H F J < B S A o   ",
"                                K % L s P I U U I d s L % K     ",
"                                      o 9 Y T T Y 9 o           ",
"                                                                ",
"                                                                ",
"                                                                ",
"        o R R R R R R R R R R R R R R R R R R 9 .               ",
"      . E d W Q Q Q Q Q Q Q Q Q Q Q Q Q Q W Q S !               ",
"      o # V ~ ~ ~ ~ ~ ~ ~ ~ ~ ~ ~ ~ ~ ~ ~ ~ ~ ^ /               ",
"      o # f ( ( ( ( ( ( ( ( ( ( ( ( ( ( ( ( ( 7 )               ",
"      o _ a f f f f f f f f f f f f f f f f f g E               ",
"      K ` _ # # # # # # # # # # # # # # # # # 6 8               ",
"        o 9 9 9 9 9 9 9 9 9 9 9 9 9 9 9 9 9 9 j .               ",
"      K > ' ] ] ] ] ] ] ] ] [ ] ] ] ] ] ] ] ] { Y               ",
"      . r } | | |  .|  . ... ... . .|  . ... .u i K             ",
"      . r X.l y y l y y y y y l y l y l l y y o.i               ",
"      . r O.X.X.X.+.@.+.X.+.@.+.+.X.@.@.X.X.@.#.>               ",
"      K O r r r r r r r r r r r r r r r r r r r 9               ",
"        K . . . . . . . . . . . . . . . . . . . K               ",
"                                                                ",
"                                                                ",
"                                                                "
};
