/* XPM */
static char * image_name[]={
"32 32 105 2",
"  	c #000000",
". 	c #000001",
"X 	c #030303",
"o 	c #171717",
"O 	c #0D0D0D",
"+ 	c #696969",
"@ 	c #6E6E6E",
"# 	c #1F1F1F",
"$ 	c #0F0F0F",
"% 	c #949494",
"& 	c #E0E0E0",
"* 	c #9C9C9C",
"= 	c #404040",
"- 	c #0A0A0A",
"; 	c #FAFAFA",
": 	c #F5F5F5",
"> 	c #C2C2C2",
", 	c #636363",
"< 	c #1A1A1A",
"1 	c #FFFFFF",
"2 	c #FCFCFC",
"3 	c #DEDEDE",
"4 	c #8C8C8C",
"5 	c #303030",
"6 	c #080808",
"7 	c #F0F0F0",
"8 	c #B3B3B3",
"9 	c #525252",
"0 	c #121212",
"q 	c #004FA3",
"w 	c #004B9B",
"e 	c #1C1C1C",
"r 	c #050505",
"t 	c #D1D1D1",
"y 	c #787878",
"u 	c #262626",
"i 	c #005BBC",
"p 	c #0076F5",
"a 	c #005CBE",
"s 	c #232375",
"d 	c #EBEBEB",
"f 	c #A6A6A6",
"g 	c #424242",
"h 	c #005BBD",
"j 	c #007BFF",
"k 	c #007AFC",
"l 	c #006ADB",
"z 	c #004186",
"x 	c #969696",
"c 	c #F7F7F7",
"v 	c #C7C7C7",
"b 	c #454545",
"n 	c #242424",
"m 	c #007BFE",
"M 	c #0073EE",
"N 	c #0D61BB",
"B 	c #7C98D3",
"V 	c #F0F8FF",
"C 	c #919191",
"Z 	c #363636",
"A 	c #9E9E9E",
"S 	c #007CFF",
"D 	c #037BFB",
"F 	c #1E90FF",
"G 	c #87CEFA",
"H 	c #E6E6FA",
"J 	c #F2F2F2",
"K 	c #B5B5B5",
"L 	c #575757",
"P 	c #141414",
"I 	c #BDBDBD",
"U 	c #6A6A8D",
"Y 	c #1B71CD",
"T 	c #027CFE",
"R 	c #017CFF",
"E 	c #729FFF",
"W 	c #B0E2FF",
"Q 	c #D9D9D9",
"! 	c #828282",
"~ 	c #292929",
"^ 	c #E5E5E5",
"/ 	c #077FFF",
"( 	c #A8A8A8",
") 	c #4A4A4A",
"_ 	c #037DFF",
"` 	c #F8F8FF",
"' 	c #E3E3E3",
"] 	c #2B2B2B",
"[ 	c #B6E2CE",
"{ 	c #037CFF",
"} 	c #C9C9C9",
"| 	c #B8B8B8",
" .	c #2F4F4F",
"..	c #0761C2",
"X.	c #007AFE",
"o.	c #0677EF",
"O.	c #0078F9",
"+.	c #0064CF",
"@.	c #0F4988",
"#.	c #A1A1A1",
"$.	c #0074EF",
"%.	c #0053AD",
"&.	c #0059B9",
"*.	c #BFBFBF",
"=.	c #3D3D3D",
"                                                                ",
"                        .                                       ",
"                      X o O                                     ",
"                      O + @ # X                                 ",
"                      $ % & * = -                               ",
"                      $ % ; : > , < X                           ",
"          . .         $ % ; 1 2 3 4 5 6                         ",
"          6 # $ .     $ % ; 1 1 1 7 8 9 $                       ",
"          0 q w e r   $ % ; 1 1 1 1 ; t y u X                   ",
"          0 i p a s - $ % ; 1 1 1 1 1 1 d f g O                 ",
"  X r     0 h j k l z u x ; 1 1 1 1 1 1 1 c v + < X             ",
"  0 b n X 0 i j j m M N B V 1 1 1 1 1 1 1 1 2 & C Z 6           ",
"  n f A = e i j S j j D F G H 2 1 1 1 1 1 1 1 1 J K L P         ",
"  n I : > U Y T j j S j R F E W V 1 1 1 1 1 1 1 1 ; Q ! ~ r     ",
"  n I 1 2 ^ G F / j j S j j F F G H 1 1 1 1 1 1 1 1 1 d ( ) O   ",
"  n I 1 1 1 V W F R S j j j j _ F G V 1 1 1 1 1 1 1 1 1 ; I g X ",
"  n I 1 1 2 H E F R S j j j j F E W ` 1 1 1 1 1 1 1 1 2 ' % ] . ",
"  n I 1 J [ E F j j j j j { F E H ` 1 1 1 1 1 1 1 1 ; } @ # X   ",
"  n | 3 C  ...j S j j j F F G V 1 1 1 1 1 1 1 1 1 d ( ) O       ",
"  # ! , < P i j j S X.o.E W V 1 1 1 1 1 1 1 1 ; Q ! ~ r         ",
"  6 # -   0 i m j O.+.@.#.; 1 1 1 1 1 1 1 1 J K L P .           ",
"          0 h m $.%.s o x ; 1 1 1 1 1 1 2 & C Z r               ",
"          0 &.l z o X $ % ; 1 1 1 1 1 : v + e X                 ",
"          $ s s - .   $ % ; 1 1 1 1 d f g O                     ",
"          X O r       $ % ; 1 1 ; t y u X                       ",
"                      $ % ; 1 7 8 9 $ .                         ",
"                      $ % c 3 4 5 6                             ",
"                      $ 4 *., < .                               ",
"                      6 b =.-                                   ",
"                        r X                                     ",
"                                                                ",
"                                                                "
};
