/* XPM */
static char * image_name[]={
"32 32 98 2",
"  	c #000000",
". 	c #000001",
"X 	c #0A0A0A",
"o 	c #262626",
"O 	c #3D3D3D",
"+ 	c #333333",
"@ 	c #1A1A1A",
"# 	c #080808",
"$ 	c #030303",
"% 	c #121212",
"& 	c #3B3B3B",
"* 	c #737373",
"= 	c #ABABAB",
"- 	c #9FB9D6",
"; 	c #9EB4CB",
": 	c #969696",
"> 	c #6E6E6E",
", 	c #454545",
"< 	c #1F1F1F",
"1 	c #050505",
"2 	c #1C1C1C",
"3 	c #4D4D4D",
"4 	c #878787",
"5 	c #A1B5CA",
"6 	c #8DBCEE",
"7 	c #729FFF",
"8 	c #1E90FF",
"9 	c #90BEEF",
"0 	c #A1BBD8",
"q 	c #A1A1A1",
"w 	c #787878",
"e 	c #4F4F4F",
"r 	c #292929",
"t 	c #0D0D0D",
"y 	c #616161",
"u 	c #999999",
"i 	c #9FBBD9",
"p 	c #057EFF",
"a 	c #007BFF",
"s 	c #017CFF",
"d 	c #077FFF",
"f 	c #88BCF3",
"g 	c #91D2DE",
"h 	c #708090",
"j 	c #595959",
"k 	c #303030",
"l 	c #575757",
"z 	c #B5B5B5",
"x 	c #D9D9D9",
"c 	c #87CEFA",
"v 	c #027CFF",
"b 	c #A2B2C4",
"n 	c #8F8F8F",
"m 	c #636363",
"M 	c #0F0F0F",
"N 	c #919191",
"B 	c #F2F2F2",
"V 	c #E6E6FA",
"C 	c #077EFF",
"Z 	c #A7BACF",
"A 	c #9C9C9C",
"S 	c #424242",
"D 	c #949494",
"F 	c #B0E2FF",
"G 	c #017BFF",
"H 	c #007CFF",
"J 	c #F0F0F0",
"K 	c #BABABA",
"L 	c #242424",
"P 	c #047EFF",
"I 	c #037DFF",
"U 	c #83BFFF",
"Y 	c #F0F8FF",
"T 	c #047DFF",
"R 	c #8C8C8C",
"E 	c #DCDCDC",
"W 	c #4A4A4A",
"Q 	c #9E9E9E",
"! 	c #B6E2CE",
"~ 	c #B0E0E6",
"^ 	c #6B6B6B",
"/ 	c #C7C7C7",
"( 	c #087FFF",
") 	c #D1D1D1",
"_ 	c #171717",
"` 	c #CCCCCC",
"' 	c #212121",
"] 	c #5E5E5E",
"[ 	c #B6BDC4",
"{ 	c #D4D4D4",
"} 	c #83BFFE",
"| 	c #D6D6D6",
" .	c #EDEDED",
"..	c #8A8A8A",
"X.	c #404040",
"o.	c #141414",
"O.	c #5C5C5C",
"+.	c #B3B3B3",
"                                                                ",
"                                                                ",
"                                                                ",
"                                                                ",
"                                                                ",
"                                                                ",
"                . X o O + @ # .                                 ",
"            $ % & * = - ; : > , < X $                           ",
"        1 2 3 4 5 6 7 8 8 7 9 0 q w e r t $                     ",
"    X r y u i 7 7 8 p a s d 8 8 7 f g = h j k % 1 .             ",
"  # l z x c 7 8 v a a a a a a a p 8 8 7 7 g b n m & @ # $       ",
"  M N B V V c 7 8 8 C s a a a a a a a v 8 8 7 7 g Z A * S X     ",
"  M D F 7 c F V V c 7 8 8 8 G a a H a H H a v 8 8 c V J = <     ",
"  M N c 8 8 8 7 c F V V c 7 7 8 8 v a a H d 8 7 c V V V K L     ",
"  M D c 8 a H P 8 8 7 c F V V F 7 7 8 8 8 7 F V F c 7 7 z L     ",
"  M D c 8 a a a a a I 8 8 7 U F V V F c F V F 7 8 8 d 7 z L     ",
"  M N c 8 s H a a a H a a v 8 8 7 7 F Y V 7 8 8 a a T 7 z L     ",
"  M R E 7 8 8 8 s a a a a a H a s 8 8 V c 8 H a a a p 7 z L     ",
"  1 W Q ! ~ c 7 7 8 8 s a a a H H a 8 F c 8 a H a d 8 c z L     ",
"    1 @ & ^ Q / x F 7 7 8 8 s a a a 8 F c 8 s ( 8 7 F ) R _     ",
"          # _ & ^ Q ! ~ F 7 7 8 8 v 8 F c 8 8 7 F ` u l ' $     ",
"                # _ + ] D [ { F c 7 7 V F } ~ ! N e @ $         ",
"                      1 % k ] D ! | V Y  .! ..X.o.$             ",
"                            1 % k O.D +.R X.% $                 ",
"                                  $ % < % $                     ",
"                                                                ",
"                                                                ",
"                                                                ",
"                                                                ",
"                                                                ",
"                                                                ",
"                                                                "
};
