/* XPM */
static char * image_name[]={
"32 32 95 2",
"  	c #000000",
". 	c #000001",
"X 	c #030303",
"o 	c #080808",
"O 	c #141414",
"+ 	c #212121",
"@ 	c #262626",
"# 	c #363636",
"$ 	c #404040",
"% 	c #424242",
"& 	c #3B3B3B",
"* 	c #292929",
"= 	c #242424",
"- 	c #171717",
"; 	c #0A0A0A",
": 	c #0D0D0D",
"> 	c #2B2B2B",
", 	c #525252",
"< 	c #787878",
"1 	c #9C9C9C",
"2 	c #B5B5B5",
"3 	c #BDBDBD",
"4 	c #CCCCCC",
"5 	c #D9D9D9",
"6 	c #DBDBDB",
"7 	c #D1D1D1",
"8 	c #B8B8B8",
"9 	c #A1A1A1",
"0 	c #7D7D7D",
"q 	c #595959",
"w 	c #303030",
"e 	c #0F0F0F",
"r 	c #3D3D3D",
"t 	c #E0E0E0",
"y 	c #E8E8E8",
"u 	c #C7C7C7",
"i 	c #DCDCDC",
"p 	c #FCFCFC",
"a 	c #FFFFFF",
"s 	c #EBEBEB",
"d 	c #C2C2C2",
"f 	c #C4C4C4",
"g 	c #E5E5E5",
"h 	c #E3E3E3",
"j 	c #878787",
"k 	c #121212",
"l 	c #F0F0F0",
"z 	c #EDEDED",
"x 	c #8A8A8A",
"c 	c #4D4D4D",
"v 	c #A3A3A3",
"b 	c #4A4A4A",
"n 	c #BFBFBF",
"m 	c #F2F2F2",
"M 	c #CFCFCF",
"N 	c #383838",
"B 	c #FAFAFA",
"V 	c #D4D4D4",
"C 	c #858585",
"Z 	c #050505",
"A 	c #E6E6FA",
"S 	c #B0E2FF",
"D 	c #6E6E6E",
"F 	c #F7F7F7",
"G 	c #666666",
"H 	c #6B6B6B",
"J 	c #545454",
"K 	c #87CEFA",
"L 	c #1E90FF",
"P 	c #729FFF",
"I 	c #F0F8FF",
"U 	c #A8A8A8",
"Y 	c #1A1A1A",
"T 	c #B3B3B3",
"R 	c #F5F5F5",
"E 	c #A6A6A6",
"W 	c #8F8F8F",
"Q 	c #067EFF",
"! 	c #919191",
"~ 	c #696969",
"^ 	c #454545",
"/ 	c #1C1C1C",
"( 	c #BABABA",
") 	c #474747",
"_ 	c #1F1F1F",
"` 	c #ABABAB",
"' 	c #757575",
"] 	c #D6D6D6",
"[ 	c #B0B0B0",
"{ 	c #9E9E9E",
"} 	c #828282",
"| 	c #2E2E2E",
" .	c #636363",
"..	c #999999",
"X.	c #616161",
"                                                                ",
"                                                                ",
"                                                                ",
"                                                                ",
"                                                                ",
"                                                                ",
"                                                                ",
"                                                                ",
"                                                                ",
"                            .     .                             ",
"                  X o O + @ # $ % & * = - ; X                   ",
"            . : > , < 1 2 3 4 5 6 7 3 8 9 0 q w e X             ",
"        . e r 0 3 t y 6 u 8 i p a s d f 5 g h f j $ k .         ",
"      o w 0 4 l z u x c % j h p p l v c b 0 n z m M j N ;       ",
"    k q 8 z B V C # k Z c V A S S A g D ; : w 0 M F m d G -     ",
"  e H V B B n J k .   : j m K L L P I U Y     k c T R p 6 < - . ",
"  Y x s a R E w Z     : W m K L Q P I 2 +     X = ! l a m 1 =   ",
"  X * W h B s U c k X Z ~ y A P P S R ! k X k ^ 1 g p h 1 # Z   ",
"    . / G ( z R 7 x ) _ # ` m I A F u , _ $ x M R l d H _ X     ",
"        o w ' 3 y l ] [ x { g a a l T W E 7 z s d } N ;         ",
"          . ; |  ...( V t h s R m s h t ] n ..~ w : .           ",
"                Z k @ $ X.~ H < < H ~ X.% * O o                 ",
"                      . X Z Z o o Z X X                         ",
"                                                                ",
"                                                                ",
"                                                                ",
"                                                                ",
"                                                                ",
"                                                                ",
"                                                                ",
"                                                                ",
"                                                                "
};
