/* XPM */
static char * image_name[]={
"32 32 146 2",
"  	c #000000",
". 	c #000001",
"X 	c #0A0A0A",
"o 	c #1F1F1F",
"O 	c #3B3B3B",
"+ 	c #242424",
"@ 	c #030303",
"# 	c #171717",
"$ 	c #454545",
"% 	c #787878",
"& 	c #ADADAD",
"* 	c #CCCCCC",
"= 	c #7D7D7D",
"- 	c #0D0D0D",
"; 	c #050505",
": 	c #1A1A1A",
"> 	c #575757",
", 	c #F0F0F0",
"< 	c #FCFCFC",
"1 	c #FFFFFF",
"2 	c #C2C2C2",
"3 	c #2E2E2E",
"4 	c #303030",
"5 	c #919191",
"6 	c #6B6B6B",
"7 	c #141414",
"8 	c #545454",
"9 	c #E0E0E0",
"0 	c #F5F5F5",
"q 	c #DEDEDE",
"w 	c #C7C7C7",
"e 	c #9E9E9E",
"r 	c #A8A8A8",
"t 	c #EDEDED",
"y 	c #DBDBDB",
"u 	c #757575",
"i 	c #707070",
"p 	c #E5E5E5",
"a 	c #FAFAFA",
"s 	c #8C8C8C",
"d 	c #080808",
"f 	c #121212",
"g 	c #6E6E6E",
"h 	c #D9D9D9",
"j 	c #3D3D3D",
"k 	c #474747",
"l 	c #737373",
"z 	c #7A7A7A",
"x 	c #D1D1D1",
"c 	c #E8E8E8",
"v 	c #969696",
"b 	c #F7F7F7",
"n 	c #F2F2F2",
"m 	c #E3E3E3",
"M 	c #595959",
"N 	c #262626",
"B 	c #BABABA",
"V 	c #DCDCDC",
"C 	c #949494",
"Z 	c #B8B8B8",
"A 	c #404040",
"S 	c #D6D6D6",
"D 	c #BDBDBD",
"F 	c #5C5C5C",
"G 	c #A3A3A3",
"H 	c #636363",
"J 	c #363636",
"K 	c #828282",
"L 	c #292929",
"P 	c #2B2B2B",
"I 	c #ABABAB",
"U 	c #1C1C1C",
"Y 	c #4D4D4D",
"T 	c #5E5E5E",
"R 	c #858585",
"E 	c #616161",
"W 	c #333333",
"Q 	c #BFBFBF",
"! 	c #BABFC5",
"~ 	c #7C98D3",
"^ 	c #2F2F64",
"/ 	c #232375",
"( 	c #5470AA",
") 	c #0B6BD1",
"_ 	c #0B73E1",
"` 	c #04448A",
"' 	c #00458F",
"] 	c #004289",
"[ 	c #0057B4",
"{ 	c #0071EA",
"} 	c #0053AC",
"| 	c #0079FB",
" .	c #007BFE",
"..	c #0074F1",
"X.	c #0078F9",
"o.	c #0078F7",
"O.	c #0075F2",
"+.	c #0079FA",
"@.	c #007BFF",
"#.	c #0076F5",
"$.	c #0056B1",
"%.	c #383838",
"&.	c #C4C4C4",
"*.	c #EBEBEB",
"=.	c #B0E0E6",
"-.	c #1E90FF",
";.	c #007CFF",
":.	c #0077F7",
">.	c #0051A8",
",.	c #666666",
"<.	c #AFBECE",
"1.	c #2C79CC",
"2.	c #006CDF",
"3.	c #0F0F0F",
"4.	c #A6A6A6",
"5.	c #A1A1A1",
"6.	c #0066D4",
"7.	c #007AFC",
"8.	c #0052A8",
"9.	c #0067D4",
"0.	c #006BDC",
"q.	c #006EE5",
"w.	c #0069DA",
"e.	c #0055B0",
"r.	c #005EC3",
"t.	c #0058B6",
"y.	c #0063CC",
"u.	c #007AFD",
"i.	c #0072EC",
"p.	c #0074F0",
"a.	c #004DA0",
"s.	c #005FC4",
"d.	c #00448D",
"f.	c #0073ED",
"g.	c #004288",
"h.	c #0076F4",
"j.	c #004C9E",
"k.	c #0060C6",
"l.	c #007AFB",
"z.	c #0075F3",
"x.	c #006EE4",
"c.	c #006DE1",
"v.	c #006FE5",
"b.	c #004895",
"n.	c #004794",
"m.	c #006DE0",
"                                                                ",
"                      .                                         ",
"              . X o O + @                                       ",
"          . # $ % & * = -     ; : -                             ",
"          ; > * , < 1 2 > 3 # 4 5 6 7                           ",
"          @ 8 9 1 1 1 0 q w e r t y u o .                       ",
"          7 i p 1 1 1 1 1 1 a a 1 1 p s o .                     ",
"    ; d f g h < 1 1 1 1 1 1 1 1 1 1 < w j @                     ",
"  ; k l z x 1 1 1 1 1 1 1 1 1 1 1 1 c % f                       ",
"  7 v t , a 1 1 1 1 b , n < 1 1 1 1 m M @                       ",
"  N B 1 1 1 1 1 1 V C g % Z 0 1 1 1 b 5 f                       ",
"  A S 1 1 1 1 1 c % # ; d j Z a 1 1 1 D 3 d .                   ",
"; F m < 1 1 1 1 w 3       X % n 1 1 1 c G H :                   ",
"@ J K * a 1 1 1 2 L       d i , 1 1 1 1 a D P                   ",
"  @ f % , 1 1 1 q F d   . + G a 1 1 1 1 < I U                   ",
"    @ Y q 1 1 1 a 2 T 3 j s c 1 1 1 1 1 0 R -                   ",
"      N Z < 1 1 1 a m w x , 1 1 1 1 b n p E ;       . ; .       ",
"      W Q < 1 1 1 1 1 1 1 1 1 1 1 a ! ~ ~ ^ ; d ; ; U / U @     ",
"    d H p 1 1 1 1 1 1 1 1 1 1 1 a * ( ) _ ` / ' ] / [ { } U @   ",
"    @ J I 0 1 1 1 1 1 1 1 1 1 1 h ( ) |  .....X.o.O.+.@.#.$.^ ; ",
"      ; %.I n 9 &.V *.n < 1 1 1 =.-.| @.@.@.@.;.;.@.@.;.@.:.>.f ",
"        ; J s g 4 k ,.s p 1 a *.<.1.#.;.@.@.@.@.@.@.@.;. .2./ d ",
"          @ 7 3.  . ; L 4.w 5.6 %.^ 6. .@.@.;.@.@.;.;.;.7.8.3.  ",
"                      d 4 4 # d   U 9.@.@.@.| 0.q. .@.@.7.} -   ",
"                        .         ^ w.@.@.;.#.e.r.7.@.@. .t.3.  ",
"                                  : y.;.;.@.u.i.p. .;.@.| a.X   ",
"                                . : s. .@.@.@.;.@.@.@.@.7.$.7 . ",
"                                3.d.f.;.@.@.;.@.@.;.@.@.@.i.g.- ",
"                              . # t.| @.@.@.@.@.@.@.;.@.@.h.j.3.",
"                                ; / k.l.@.z.x.i.{ c.O.@.#.} U @ ",
"                                  ; / k.v.b./ / / / n.m.} U @   ",
"                                    ; / / f . @ @ . f / : @     "
};
