/* XPM */
static char * image_name[]={
"32 32 70 2",
"  	c #000000",
". 	c #000001",
"X 	c #1C1C1C",
"o 	c #3D3D3D",
"O 	c #424242",
"+ 	c #383838",
"@ 	c #121212",
"# 	c #080808",
"$ 	c #666666",
"% 	c #CFCFCF",
"& 	c #DBDBDB",
"* 	c #DCDCDC",
"= 	c #BDBDBD",
"- 	c #0D0D0D",
"; 	c #8F8F8F",
": 	c #FAFAFA",
"> 	c #F0F0F0",
", 	c #E3E3E3",
"< 	c #0F0F0F",
"1 	c #969696",
"2 	c #F5F5F5",
"3 	c #B0B0B0",
"4 	c #545454",
"5 	c #525252",
"6 	c #787878",
"7 	c #949494",
"8 	c #999999",
"9 	c #4D4D4D",
"0 	c #8C8C8C",
"q 	c #828282",
"w 	c #696969",
"e 	c #757575",
"r 	c #E5E5E5",
"t 	c #D4D4D4",
"y 	c #171717",
"u 	c #474747",
"i 	c #242424",
"p 	c #232375",
"a 	c #2F2F64",
"s 	c #005CBE",
"d 	c #0063CC",
"f 	c #0062CC",
"g 	c #0062CB",
"h 	c #0055AF",
"j 	c #1A1A1A",
"k 	c #030303",
"l 	c #8A8A8A",
"z 	c #7F7F7F",
"x 	c #292929",
"c 	c #5C5C5C",
"v 	c #ABABAB",
"b 	c #B8B8B8",
"n 	c #9C9C9C",
"m 	c #303030",
"M 	c #2B2B2B",
"N 	c #384B66",
"B 	c #212121",
"V 	c #0A0A0A",
"C 	c #0061C7",
"Z 	c #454545",
"A 	c #4F4F4F",
"S 	c #6E6E6E",
"D 	c #575757",
"F 	c #878787",
"G 	c #1F1F1F",
"H 	c #F7F7F7",
"J 	c #919191",
"K 	c #D6D6D6",
"L 	c #404040",
"P 	c #262626",
"                                                                ",
"                                                                ",
"                                                                ",
"                      .   .   . .       .       .               ",
"            . X o O O O O O O O O O O O O O O O + @             ",
"            # $ % & * & & & & & & & * & & & & * = +             ",
"            - ; : > * * & & & & & & * * & * , : * O             ",
"            < 1 2 3 4 5 5 5 5 5 5 5 5 5 5 5 6 , * O             ",
"            < 7 2 8 9 0 7 7 1 7 7 7 1 1 7 q w * * O             ",
"            < 7 2 8 e r 2 2 2 2 2 2 2 2 2 t q * & O             ",
"            < 7 2 8 9 0 7 7 7 7 7 7 7 1 1 q w * & O             ",
"            < 7 2 7 y @ @ @ @ @ @ @ < < < - u & & O .           ",
"            < 7 2 1 i p p p p p p p -       O & & O             ",
"            < 7 2 1 a s d f f g g h j       O & & O .           ",
"            < 7 2 1 i a a a a a a a y < - k O & & O             ",
"            < 7 2 8 9 l 7 7 7 7 7 7 7 7 z x O & & O             ",
"            < 7 2 8 c v b b b b b b b b n m O * & O             ",
"            < 7 2 1 M N N N N N N N N a B V O & & O .           ",
"            < 7 2 1 a s g g f d d g C p #   O * & O             ",
"            < 7 2 1 a p N N N N N N N a @ - Z & & O             ",
"            < 7 2 8 A ; 1 1 8 1 1 1 8 1 7 S D & & O             ",
"            < 7 2 8 c v b b b b b b b b b F c & & O             ",
"            < 7 2 1 G B i i i i i i i i i j u & & O .           ",
"            < 7 2 n G < < < < < < < < < < < 9 * & O             ",
"            < 7 H t n 7 7 1 7 7 7 7 7 7 7 1 3 > & O             ",
"            < J 2 : 2 2 2 2 2 2 2 2 2 2 2 2 2 : K L .           ",
"            # D J 7 7 7 7 7 7 7 7 7 7 7 7 7 7 1 q P             ",
"              # < < < < < < < < < < < < < < < < - k             ",
"                                                                ",
"                                                                ",
"                                                                ",
"                                                                "
};
