/* XPM */
static char * image_name[]={
"32 32 105 2",
"  	c #000000",
". 	c #030303",
"X 	c #141414",
"o 	c #242424",
"O 	c #1F1F1F",
"+ 	c #0F0F0F",
"@ 	c #0D0D0D",
"# 	c #737373",
"$ 	c #B8B8B8",
"% 	c #BDBDBD",
"& 	c #B3B3B3",
"* 	c #8F8F8F",
"= 	c #525252",
"- 	c #FFFFFF",
"; 	c #F5F5F5",
": 	c #F0F0F0",
"> 	c #F2F2F2",
", 	c #FCFCFC",
"< 	c #F7F7F7",
"1 	c #C9C9C9",
"2 	c #424242",
"3 	c #000001",
"4 	c #EDEDED",
"5 	c #999999",
"6 	c #6B6B6B",
"7 	c #828282",
"8 	c #D6D6D6",
"9 	c #666666",
"0 	c #050505",
"q 	c #121212",
"w 	c #3B3B3B",
"e 	c #3D3D3D",
"r 	c #1C1C1C",
"t 	c #171717",
"y 	c #303030",
"u 	c #E3E3E3",
"i 	c #616161",
"p 	c #2E2E2E",
"a 	c #5C5C5C",
"s 	c #E8E8E8",
"d 	c #5E5E5E",
"f 	c #383838",
"g 	c #C7C7C7",
"h 	c #232375",
"j 	c #0066D3",
"k 	c #004C9C",
"l 	c #404040",
"z 	c #D9D9D9",
"x 	c #CFCFCF",
"c 	c #C2C2C2",
"v 	c #FAFAFA",
"b 	c #636363",
"n 	c #DEDEDE",
"m 	c #E5E5E5",
"M 	c #2F2F64",
"N 	c #0D54A1",
"B 	c #0077F6",
"V 	c #004C9E",
"C 	c #474747",
"Z 	c #C4C4C4",
"A 	c #A6A6A6",
"S 	c #ABABAB",
"D 	c #CCCCCC",
"F 	c #1A1A1A",
"G 	c #4D4D4D",
"H 	c #1A62AF",
"J 	c #0074F0",
"K 	c #222298",
"L 	c #EBEBEB",
"P 	c #919191",
"I 	c #D4D4D4",
"U 	c #D1D1D1",
"Y 	c #DBDBDB",
"T 	c #9C9C9C",
"R 	c #ADADAD",
"E 	c #8A8A8A",
"W 	c #6A6A8D",
"Q 	c #09519E",
"! 	c #006EE3",
"~ 	c #292929",
"^ 	c #696969",
"/ 	c #DCDCDC",
"( 	c #363636",
") 	c #787878",
"_ 	c #004FA4",
"` 	c #7D7D7D",
"' 	c #B0B0B0",
"] 	c #A8A8A8",
"[ 	c #9E9E9E",
"{ 	c #8C8C8C",
"} 	c #969696",
"| 	c #080808",
" .	c #B5B5B5",
"..	c #0064CE",
"X.	c #0066D2",
"o.	c #6E6E6E",
"O.	c #595959",
"+.	c #A1A1A1",
"@.	c #A3A3A3",
"#.	c #949494",
"$.	c #004EA2",
"%.	c #004FA2",
"&.	c #212121",
"*.	c #4F4F4F",
"=.	c #333333",
"                                                                ",
"                                                                ",
"                                                                ",
"                                                                ",
"                                                                ",
"                                                                ",
"                                                                ",
"                                                                ",
"                                                                ",
". X o o o o o O + .                                             ",
"@ # $ % % % % & * = @                                           ",
"O & - - ; : > , < 1 2 .                                     3 3 ",
"o % - 4 5 6 7 8 - 4 9 0                   q w e r 3     3 + O t ",
"y 1 - u i p a 1 - s d . 3         3     3 f % g = .     0 h j k ",
"l z - ; x c z < v g b 2 f r O w 2 e p y f d n m d 0 q w M N B V ",
"C n - v ; , - > 1 Z g Z 1 A S D g x Z g c c > < 5 F G c 5 H J K ",
"d L - 8 P D , : I L D * U < Y & T u - s * R v - g l E u W Q ! h ",
"6 : , R ~ ^ m - , , n c u v / R & 4 - g ( ) > - u 7 Z c f h _ F ",
"` ; v 5 q o ' v - v D ] g ; > [ { s - c 2 } < v > U u 7 r h h t ",
"P v v * @ | 6 L - v D A D > ;  .& > - m ] 8 v z s v D l M ..X.M ",
"o.$ & O.0 3 p 5 % % $ & +.5 & 5 ) @.% $ 5 +.$ 5 x < #.X t $.%.t ",
"X o &.@ 3   0 F o o o o t q O t @ r o o t o a 7 Y I *.. 0 + + 0 ",
"                                          r E c c # X           ",
"                                          | y 2 =.q 3           ",
"                                                                ",
"                                                                ",
"                                                                ",
"                                                                ",
"                                                                ",
"                                                                ",
"                                                                ",
"                                                                "
};
