/* XPM */
static char * image_name[]={
"32 32 232 2",
"  	c #000000",
". 	c #030303",
"X 	c #141414",
"o 	c #1C1C1C",
"O 	c #0A0A0A",
"+ 	c #2F2F64",
"@ 	c #005EC2",
"# 	c #0068D7",
"$ 	c #004C9B",
"% 	c #171717",
"& 	c #000001",
"* 	c #0064D0",
"= 	c #006EE4",
"- 	c #0065D2",
"; 	c #0072EE",
": 	c #005DC0",
"> 	c #005DC2",
", 	c #0071EA",
"< 	c #232375",
"1 	c #1A1A1A",
"2 	c #0050A4",
"3 	c #0074EF",
"4 	c #454545",
"5 	c #666666",
"6 	c #696969",
"7 	c #5C5C5C",
"8 	c #292929",
"9 	c #050505",
"0 	c #0F0F0F",
"q 	c #222298",
"w 	c #0074F4",
"e 	c #0056B4",
"r 	c #0D0D0D",
"t 	c #121212",
"y 	c #0050A7",
"u 	c #0073F0",
"i 	c #004A9A",
"p 	c #080808",
"a 	c #3B3B3B",
"s 	c #A3A3A3",
"d 	c #E0E0E0",
"f 	c #F2F2F2",
"g 	c #F5F5F5",
"h 	c #EDEDED",
"j 	c #BABABA",
"k 	c #333333",
"l 	c #0059B9",
"z 	c #0072EB",
"x 	c #0076F7",
"c 	c #0072EA",
"v 	c #005FC9",
"b 	c #424242",
"n 	c #CCCCCC",
"m 	c #F7F7F7",
"M 	c #E3E3E3",
"N 	c #DCDCDC",
"B 	c #FCFCFC",
"V 	c #FFFFFF",
"C 	c #DEDEDE",
"Z 	c #474747",
"A 	c #006EE3",
"S 	c #0075F2",
"D 	c #0067D8",
"F 	c #004D9F",
"G 	c #0058B6",
"H 	c #1F1F1F",
"J 	c #B5B5B5",
"K 	c #B6E2CE",
"L 	c #999999",
"P 	c #D4D4D4",
"I 	c #636363",
"U 	c #004A99",
"Y 	c #005AB8",
"T 	c #006ADF",
"R 	c #0077F5",
"E 	c #0061C9",
"W 	c #5E5E5E",
"Q 	c #F0F0F0",
"! 	c #CFCFCF",
"~ 	c #4F4F4F",
"^ 	c #B8B8B8",
"/ 	c #ABABAB",
"( 	c #006EE2",
") 	c #004694",
"_ 	c #0060C7",
"` 	c #0076F4",
"' 	c #0068DA",
"] 	c #0052AA",
"[ 	c #949494",
"{ 	c #FAFAFA",
"} 	c #828282",
"| 	c #303030",
" .	c #EBEBEB",
"..	c #545454",
"X.	c #525252",
"o.	c #0060C6",
"O.	c #004B9A",
"+.	c #006BDE",
"@.	c #0067D4",
"#.	c #A8A8A8",
"$.	c #E8E8E8",
"%.	c #D9D9D9",
"&.	c #00458F",
"*.	c #0076F6",
"=.	c #005BBD",
"-.	c #006BDD",
";.	c #0064CD",
":.	c #262626",
">.	c #C2C2C2",
",.	c #595959",
"<.	c #B0B0B0",
"1.	c #006FE7",
"2.	c #005BBA",
"3.	c #0075F1",
"4.	c #00448D",
"5.	c #C4C4C4",
"6.	c #787878",
"7.	c #C9C9C9",
"8.	c #2B2B2B",
"9.	c #0077F7",
"0.	c #0054AE",
"q.	c #006AD9",
"w.	c #0073EC",
"e.	c #005ABB",
"r.	c #6A6A8D",
"t.	c #4D4D4D",
"y.	c #8A8A8A",
"u.	c #7A7A7A",
"i.	c #004EA2",
"p.	c #005DC3",
"a.	c #0061CA",
"s.	c #0055AE",
"d.	c #005FC1",
"f.	c #0676F0",
"g.	c #729FFF",
"h.	c #B0E0E6",
"j.	c #242424",
"k.	c #9B7071",
"l.	c #8F8F8F",
"z.	c #E5E5E5",
"x.	c #ADADAD",
"c.	c #212121",
"v.	c #006CE1",
"b.	c #0066D3",
"n.	c #006DE1",
"m.	c #0077F6",
"M.	c #0071E9",
"N.	c #0070E7",
"B.	c #5773B8",
"V.	c #1E90FF",
"C.	c #1B78DC",
"Z.	c #D6D6D6",
"A.	c #8C8C8C",
"S.	c #0072ED",
"D.	c #0058B5",
"F.	c #006ADD",
"G.	c #0070E8",
"H.	c #004188",
"J.	c #0268D3",
"K.	c #7C98D3",
"L.	c #509F69",
"P.	c #BD52BD",
"I.	c #6E6E6E",
"U.	c #383838",
"Y.	c #004FA5",
"T.	c #0077F8",
"R.	c #004B9E",
"E.	c #186CC8",
"W.	c #0D62BC",
"Q.	c #0A7FFD",
"!.	c #89A5C4",
"~.	c #0069D9",
"^.	c #0668D0",
"/.	c #969696",
"(.	c #2E2E2E",
").	c #087EFE",
"_.	c #0766CB",
"`.	c #0061C7",
"'.	c #0074F1",
"].	c #4A4A4A",
"[.	c #85ADD7",
"{.	c #0B7FFE",
"}.	c #0B5BB2",
"|.	c #96B3D1",
" X	c #0A67CD",
".X	c #004692",
"XX	c #0078FA",
"oX	c #007BFE",
"OX	c #006FE5",
"+X	c #036CDD",
"@X	c #E6E6FA",
"#X	c #005DC4",
"$X	c #0064CF",
"%X	c #0074F0",
"&X	c #0054B1",
"*X	c #384B66",
"=X	c #005EC3",
"-X	c #9C9C9C",
";X	c #87CEFA",
":X	c #0176F3",
">X	c #0051A6",
",X	c #0078F6",
"<X	c #005EC5",
"1X	c #305B89",
"2X	c #006ADA",
"3X	c #0050A6",
"4X	c #0075F0",
"5X	c #0068D8",
"6X	c #0067D7",
"7X	c #004EA4",
"8X	c #006FE6",
"9X	c #005FC2",
"0X	c #006CE0",
"qX	c #6B6B6B",
"wX	c #005ABA",
"eX	c #005BBE",
"rX	c #7E7E7E",
"tX	c #919191",
"yX	c #737373",
"uX	c #005FC4",
"iX	c #004794",
"pX	c #005ABC",
"aX	c #9E9E9E",
"sX	c #0067D6",
"dX	c #004893",
"fX	c #004999",
"gX	c #0076F5",
"hX	c #0075F6",
"jX	c #006DE4",
"kX	c #7D7D7D",
"lX	c #0051A8",
"zX	c #0052AB",
"                      . X o O                                   ",
"                    . + @ # $ % &                               ",
"                  . + * = - ; : o .                             ",
"                  X > , < 1 2 3 @ 1       . X 4 5 6 7 8 9       ",
"              . 0 q w e r & t y u i p   9 a s d f g h j k       ",
"            p < l z x < .   & < c v t . b n m M N B V C Z       ",
"          p < A S D F X . r + G S i p H J g K L d m P I 0       ",
"        p < A u U 1 O . < Y T R E 1 & W Q ! ~ ^ f / a p         ",
"      . < ( 3 ) r     X _ ` ' ] + . p [ { } | n  .~ & . 1 ..X.t ",
"      % o.` O.r       + +.@.+ O &   0 #.m 6 t s m [ H 4 / $.%.b ",
"    p &.*.=.X         H -.;.%       :.>.h ,.. ..M $.<.%.B V  .~ ",
"    o ' 1.< &         0 2.3.4.0 . 1 [ Q 5.8   0 6.d m M M V 7.8.",
"  . < 9.0.O & p t X O 9 < q.w.e.< r.Q %.t.9     t X.y.L d f u.p ",
"  0 =.3.< p < i.p.a.s.< 0 < d.u f.g.h.5 r j.6 k.k.l.<.z.g x.c.  ",
"  + v.b.H < n.m.M.n.3.N.< O c.B.V.V.C.+ k <.f V B V g Z.A.8 &   ",
"  < S.D.< F.G.&.< + H.c F.+ W C h.V.*.J.K.Q >.} L.P.I.U.0       ",
"  < S.2.Y.T.R.O   & O i.9.E.K Q [ + W.Q.V.!.| . &               ",
"  + ( ~.b.T.<       & c.^.V.g./.H (.#.g.)._.H &                 ",
"  X `.` 3.'.<       p ].[.V.{.}.+ J g |. X*.@ o &               ",
"  9 .XXXoXOX+     & a ! Q K.+XS g.@X! Z c.p.*.#Xo &             ",
"    + $X%X&X0   & (.^ g ^ k *XV.V.g.*X9 & o =XR #Xo .           ",
"    9 o < X . . (.J m ! a o -X;XV.:X>Xt & . o =X,X<X+ 9         ",
"            & (.J g ! Z c.[ Q n 1X2XS 3XX & . o l 4X5X< O       ",
"            8 J g ! Z c.[ Q M W O < 6X'.l o . . X 7X'.8X< p     ",
"          % L g ! 4 H [ Q M 6 0   9 + =X9.9Xo &   0 q 0X0X+     ",
"          ,. .P Z X 6.h M qX0       & o #Xx wXX & & X eXz <     ",
"          rXB tX1 qXM  .yXr           & o uX3 7X0 r iX; pXt     ",
"          qXf ! aXM Q tX%               . + sX%XdXfXu v.< &     ",
"          :.x.Q B $.l.o                   9 < ~.gXhXjX< p       ",
"          . c.I kXX.X                       9 < lXzX< p         ",
"                                              & p p &           ",
"                                                                "
};
