/* XPM */
static char * image_name[]={
"32 32 90 2",
"  	c #000000",
". 	c #000001",
"X 	c #121212",
"o 	c #1F1F1F",
"O 	c #171717",
"+ 	c #080808",
"@ 	c #0F0F0F",
"# 	c #636363",
"$ 	c #7A7A7A",
"% 	c #666666",
"& 	c #4D4D4D",
"* 	c #030303",
"= 	c #1A1A1A",
"- 	c #8F8F8F",
"; 	c #9C9C9C",
": 	c #737373",
"> 	c #6B6B6B",
", 	c #383838",
"< 	c #0A0A0A",
"1 	c #696969",
"2 	c #6E6E6E",
"3 	c #6A6A8D",
"4 	c #575757",
"5 	c #454545",
"6 	c #525252",
"7 	c #141414",
"8 	c #050505",
"9 	c #595959",
"0 	c #474747",
"q 	c #757575",
"w 	c #212121",
"e 	c #333333",
"r 	c #2B2B2B",
"t 	c #3B3B3B",
"y 	c #707070",
"u 	c #363636",
"i 	c #242424",
"p 	c #5C5C5C",
"a 	c #878787",
"s 	c #A1A1A1",
"d 	c #616161",
"f 	c #A3A3A3",
"g 	c #303030",
"h 	c #708090",
"j 	c #545454",
"k 	c #5E5E5E",
"l 	c #787878",
"z 	c #2F4F4F",
"x 	c #2E2E2E",
"c 	c #424242",
"v 	c #1C1C1C",
"b 	c #0D0D0D",
"n 	c #2F2F64",
"m 	c #1D5B90",
"M 	c #3F719D",
"N 	c #778899",
"B 	c #292929",
"V 	c #262626",
"C 	c #384B66",
"Z 	c #306796",
"A 	c #7C98D3",
"S 	c #5F929E",
"D 	c #969696",
"F 	c #ABABAB",
"G 	c #A6A6A6",
"H 	c #949494",
"J 	c #206097",
"K 	c #AFBDCB",
"L 	c #DCDCDC",
"P 	c #B8B8B8",
"I 	c #858585",
"U 	c #175080",
"Y 	c #1D5D93",
"T 	c #3879B0",
"R 	c #7E88AB",
"E 	c #919191",
"W 	c #8C8C8C",
"Q 	c #286395",
"! 	c #3F719C",
"~ 	c #8A8A8A",
"^ 	c #5470AA",
"/ 	c #4F4F4F",
"( 	c #CCCCCC",
") 	c #98BDDF",
"_ 	c #85A5C2",
"` 	c #B0B0B0",
"' 	c #C7C7C7",
"] 	c #A8A8A8",
"[ 	c #B4B9C0",
"{ 	c #4A4A4A",
"                        . X o O +                               ",
"                        @ # $ % & o *                           ",
"                        = - ; : % > , <                         ",
"                        @ 1 2 3 4 5 : 6 7                       ",
"                        8 6 9 0 q w e : 9 7                     ",
"                        . r > t y u * i % 9 7                   ",
"                          < p 2 $ t . * w 1 4 7                 ",
"                            r a s t     . w 2 d 7               ",
"                            + # f r       * g h j <             ",
"                            + k l X         * u $ z 8           ",
"                          * x h c *           + 0 3 g *         ",
"                          v q % @               @ d : =         ",
"                . + + . 7 % l w                   o y 6 +       ",
"              . b n n v p h g *         * 8 * .   * e l e *     ",
"            . 7 n n m M N 5 w w w o B , 5 p j t r O b 4 > 7     ",
"          . X V C C Z A S 3 D F G D G H 1 a s l > 1 z g : c *   ",
"          < n C C J A A A A K L P I H D k u y 3 t t # 6 4 # X   ",
"          * o U Y T A A A R E - I a W 3 W d e y 2 B v 6 > : B   ",
"            * n Q A A A ! n = @ X B # W $ ~ 5 o 9 y t r : W c * ",
"            . r S A A ^ V 8         b j ~ h 3 = @ z > p l G / * ",
"          * i h ( ) _ n *             7 q I E t . 8 w 0 % > V   ",
"        * i l ` ' D h =               * & I W 4 *     8 b b *   ",
"      8 e $ D ] [ 3 2 @                 z - h 9 8               ",
"  . X 5 W ; I # H 3 y X               . c ~ a p 8               ",
"b n : W H W 5 = l h 3 V               + p h - & *               ",
"i 2 > y l , + 8 4 ~ $ j <           . B $ l W r                 ",
"+ O u q u 8     i h 3 l { X *     + B 1 q W % b                 ",
"  * { p <       8 0 W 3 $ 1 5 t n 4 $ q h I V .                 ",
"  * V r *         < { W h 3 3 3 3 3 3 W I e *                   ",
"    * *             < t q - - - - E W % V *                     ",
"                      * 7 e 6 d p 5 V <                         ",
"                            * 8 * .                             "
};
