/* XPM */
static char * image_name[]={
"32 32 137 2",
"  	c #000000",
". 	c #000001",
"X 	c #030303",
"o 	c #050505",
"O 	c #1A1A1A",
"+ 	c #5C5C5C",
"@ 	c #696969",
"# 	c #4D4D4D",
"$ 	c #0F0F0F",
"% 	c #3D3D3D",
"& 	c #CCCCCC",
"* 	c #E8E8E8",
"= 	c #E0E0E0",
"- 	c #DEDEDE",
"; 	c #EBEBEB",
": 	c #B0B0B0",
"> 	c #212121",
", 	c #080808",
"< 	c #383838",
"1 	c #636363",
"2 	c #2B2B2B",
"3 	c #424242",
"4 	c #D9D9D9",
"5 	c #C7C7C7",
"6 	c #8F8F8F",
"7 	c #8C8C8C",
"8 	c #949494",
"9 	c #BDBDBD",
"0 	c #242424",
"q 	c #3B3B3B",
"w 	c #BABABA",
"e 	c #A6A6A6",
"r 	c #292929",
"t 	c #0D0D0D",
"y 	c #D6D6D6",
"u 	c #9E9E9E",
"i 	c #C2C2C2",
"p 	c #969696",
"a 	c #C9C9C9",
"s 	c #0A0A0A",
"d 	c #7D7D7D",
"f 	c #F2F2F2",
"g 	c #FFFFFF",
"h 	c #5E5E5E",
"j 	c #232375",
"k 	c #004FA3",
"l 	c #004690",
"z 	c #2F2F64",
"x 	c #9C9C9C",
"c 	c #B8B8B8",
"v 	c #919191",
"b 	c #7A7A7A",
"n 	c #616161",
"m 	c #0068D7",
"M 	c #007AFC",
"N 	c #0077F6",
"B 	c #005ABB",
"V 	c #363636",
"C 	c #333333",
"Z 	c #2E2E2E",
"A 	c #262626",
"S 	c #545454",
"D 	c #575757",
"F 	c #EDEDED",
"G 	c #A3A3A3",
"H 	c #00448D",
"J 	c #0078F9",
"K 	c #007BFF",
"L 	c #0070E8",
"P 	c #454545",
"I 	c #ABABAB",
"U 	c #E3E3E3",
"Y 	c #DBDBDB",
"T 	c #0074F0",
"R 	c #007BFE",
"E 	c #858585",
"W 	c #F0F0F0",
"Q 	c #004EA2",
"! 	c #0067D5",
"~ 	c #0060C7",
"^ 	c #F7F7F7",
"/ 	c #171717",
"( 	c #004186",
") 	c #0055AF",
"_ 	c #00438A",
"` 	c #141414",
"' 	c #4955A5",
"] 	c #A8A8A8",
"[ 	c #757575",
"{ 	c #8A8A8A",
"} 	c #828282",
"| 	c #4F4F4F",
" .	c #F5F5F5",
"..	c #303030",
"X.	c #004691",
"o.	c #729FFF",
"O.	c #E6E6FA",
"+.	c #B3B3B3",
"@.	c #1C1C1C",
"#.	c #525252",
"$.	c #121212",
"%.	c #0059B9",
"&.	c #007CFF",
"*.	c #0061C8",
"=.	c #6A6A8D",
"-.	c #737373",
";.	c #0079FA",
":.	c #0064CF",
">.	c #ACB9C8",
",.	c #0058B5",
"<.	c #004187",
"1.	c #006FE5",
"2.	c #A1A1A1",
"3.	c #404040",
"4.	c #5470AA",
"5.	c #005DC1",
"6.	c #0076F4",
"7.	c #0051A7",
"8.	c #004288",
"9.	c #0060C8",
"0.	c #474747",
"q.	c #0076F5",
"w.	c #006FE6",
"e.	c #006EE5",
"r.	c #6E6E6E",
"t.	c #0075F2",
"y.	c #006DE1",
"u.	c #222298",
"i.	c #0071EA",
"p.	c #0057B3",
"a.	c #004998",
"s.	c #0067D6",
"d.	c #007AFD",
"f.	c #0079FB",
"g.	c #1F1F1F",
"h.	c #0054AD",
"j.	c #0050A5",
"                                                                ",
"                                                                ",
"                                                                ",
"                                    . X o X o o o o o o X .     ",
"                                    O + @ @ @ @ @ @ @ @ # $     ",
"              . X X .               % & * = - = = = = ; : >     ",
"            , < 1 + 2 o             3 4 5 6 7 6 6 7 8 4 9 0     ",
"          X q w ; * e r   X t , .   3 y : u i i i 9 p a 9 0     ",
"          s d f g g * h t j k l z o 3 y : x 9 9 9 c v 5 9 0     ",
"        X t b f g g * n j m M N B O 3 y x V C Z 0 0 < 9 9 0     ",
"    X A S # D w F * G C H J K K L j P y I b 7 S ,   0 9 9 0     ",
"  . C e U Y v D @ n 2 s j T K R m z P y I E x 1 O t A 9 9 0     ",
"  s b W g g - S , o , $ z Q ! ~ j t P y I d 8 6 E 1 V 9 9 0     ",
"  t E ^ g g * + o / ( ) _ j z O ` z ' - ] [ { { } | C 9 9 0     ",
"  X # & ^  .c ..s X.T R T X.s , j m o.O.: 8 : +.E @.0 9 9 0     ",
"    $ #.7 E P , $.%.&.K K %.$.O *.R o.O.+.=.7 6 -...C 9 9 0     ",
"      o t t X   t k ;.K J Q t @.:.K o.O.>.{ u u x 6 1 i 9 0     ",
"        . o o . X z ,.m ,.z X s <.1.o.O.2.3 3 3 3 % 3.9 9 0     ",
"      o z j j O X X ` z z z O s $.j 4.= G C 0 0 0 0 3 5 9 0     ",
"    . z 5.6.T 7.` .   $ 8.:.9.j s X 0.y - w c c c c i * c 0     ",
"    o ( q.&.K w.j X X j e.K &.m z . A } 8 8 8 8 8 8 8 8 r.`     ",
"    o j t.K &.y.j . o u.N K K i.j X X t $ $ $ $ $ $ $ $ s X     ",
"    . @.p.L y.a.$.  X j s.d.f.~ g..                             ",
"      X / j j $..     s j h.j.j ,                               ",
"          . .           o $ t X                                 ",
"                                                                ",
"                                                                ",
"                                                                ",
"                                                                ",
"                                                                ",
"                                                                ",
"                                                                "
};
