/* XPM */
static char * image_name[]={
"32 32 128 2",
"  	c #000000",
". 	c #000001",
"X 	c #121212",
"o 	c #363636",
"O 	c #171717",
"+ 	c #030303",
"@ 	c #080808",
"# 	c #212121",
"$ 	c #3B3B3B",
"% 	c #292929",
"& 	c #0A0A0A",
"* 	c #666666",
"= 	c #C7C7C7",
"- 	c #CCCCCC",
"; 	c #949494",
": 	c #404040",
"> 	c #0D0D0D",
", 	c #1A1A1A",
"< 	c #5E5E5E",
"1 	c #ADADAD",
"2 	c #D4D4D4",
"3 	c #B0B0B0",
"4 	c #383838",
"5 	c #1F1F1F",
"6 	c #FCFCFC",
"7 	c #FFFFFF",
"8 	c #F5F5F5",
"9 	c #141414",
"0 	c #242424",
"q 	c #8A8A8A",
"w 	c #DEDEDE",
"e 	c #FAFAFA",
"r 	c #F0F0F0",
"t 	c #757575",
"y 	c #BDBDBD",
"u 	c #E3E3E3",
"i 	c #EDEDED",
"p 	c #D9D9D9",
"a 	c #707070",
"s 	c #8F8F8F",
"d 	c #E5E5E5",
"f 	c #E8E8E8",
"g 	c #0F0F0F",
"h 	c #F7F7F7",
"j 	c #595959",
"k 	c #787878",
"l 	c #C2C2C2",
"z 	c #D1D1D1",
"x 	c #8C8C8C",
"c 	c #ABABAB",
"v 	c #636363",
"b 	c #696969",
"n 	c #CFCFCF",
"m 	c #616161",
"M 	c #050505",
"N 	c #3D3D3D",
"B 	c #A3A3A3",
"V 	c #B8B8B8",
"C 	c #7D7D7D",
"Z 	c #9C9C9C",
"A 	c #737373",
"S 	c #D6D6D6",
"D 	c #4A4A4A",
"F 	c #DCDCDC",
"G 	c #525252",
"H 	c #BFBFBF",
"J 	c #A1A1A1",
"K 	c #262626",
"L 	c #999999",
"P 	c #303030",
"I 	c #A6A6A6",
"U 	c #B5B5B5",
"Y 	c #858585",
"T 	c #C4C4C4",
"R 	c #828282",
"E 	c #2E2E2E",
"W 	c #B3B3B3",
"Q 	c #5C5C5C",
"! 	c #9E9E9E",
"~ 	c #BABABA",
"^ 	c #A8A8A8",
"/ 	c #6B6B6B",
"( 	c #5F929E",
") 	c #7E88AB",
"_ 	c #778899",
"` 	c #DBDBDB",
"' 	c #C9C9C9",
"] 	c #1F5A9A",
"[ 	c #0468D3",
"{ 	c #0572E6",
"} 	c #0666CC",
"| 	c #3A6A9D",
" .	c #4F4F4F",
"..	c #B6E2CE",
"X.	c #4955A5",
"o.	c #036BDA",
"O.	c #007BFF",
"+.	c #007AFD",
"@.	c #0C66C7",
"#.	c #919191",
"$.	c #424242",
"%.	c #384B66",
"&.	c #0072ED",
"*.	c #0169D9",
"=.	c #1C1C1C",
"-.	c #016AD9",
";.	c #007BFE",
":.	c #0767CC",
">.	c #6A6A8D",
",.	c #333333",
"<.	c #EBEBEB",
"1.	c #454545",
"2.	c #125194",
"3.	c #0067D5",
"4.	c #0071E9",
"5.	c #0062CB",
"6.	c #295C92",
"7.	c #474747",
"8.	c #F2F2F2",
"9.	c #6E6E6E",
"0.	c #245182",
"q.	c #4D4D4D",
"w.	c #E0E0E0",
"e.	c #969696",
"r.	c #7F7F7F",
"t.	c #7A7A7A",
"y.	c #545454",
"u.	c #575757",
"                                                                ",
"                                                                ",
"                    .                                           ",
"                X o o O +               @ # $ % @               ",
"              & * = - ; : >         . , < 1 2 3 4 .             ",
"              5 1 6 7 8 = * 9     . 0 q w e 7 r t @             ",
"              0 y 7 8 u i p a 9 . 0 s d f f e e ; g             ",
"              0 y h 3 j k l z a o x 2 c v b n h s >             ",
"              , c d m M > N B - V = C % M O Z i A @             ",
"              g q S D     + o V i s ,     g ; F G +             ",
"              + < 2 m +   M D H S J K .   X L l P               ",
"                o l q , O $ I U Y T R % 9 E W J O               ",
"        . @ O P Q = n L ! T u n V F F ~ L I u ^ D % X +         ",
"      g 4 / J l - 2 f ~ ~ p L ( ) _ 1 ` 3 n u n - y ; Q 0 @     ",
"  + # k ' f F I / j W I ^ ! ] [ { } | W L V s  .C ~ f u 3 Q X   ",
"  , q f 7 S * 5 @ > t S ..X.o.O.O.+.@._ p T : + > P #.i e p * & ",
"  $ z 7 e I ,     . $.z c %.&.O.O.O.*.%.n I ,     . $ - 7 6 c =.",
"  % W h 6 l $.&   M Q ` y %.-.O.O.;.:.>.p y ,.  + 9 * w 7 <.R X ",
"  @ 1.I u r l k $ P L U U _ 2.3.4.5.6.c 3 y t % 7.x p 8.p q 0 . ",
"    M 0 m J - S T V ` ^ I ' 9.%.0.%.x - ; l n W ' 2 y q q.O +   ",
"        M , o Q q 2 w.~ T F p 1 ! ~ F S y = <.H t  .% X +       ",
"            . + ,.V e.o N m l W r.' B  .$ 7.y e.O +             ",
"              +  .n 9.M   > b l l W : +   9 ! U K               ",
"              @ t.p y.+     E ~ r s 9     g ; S D .             ",
"              O J w.u.+ + 5 k n p H u.X   X e.f / M             ",
"              # ~ 8 ; ,.1.e.n s u.1 ' C 4 1.~ 8 q >             ",
"              0 y 7 f T 2 w s 0 M 7.~ u - n 8.e ; g             ",
"              # U 7 7 6 u x 0 .   @ N c 8.7 7 h q >             ",
"              g C w.f y / 5 .       + ,.s 2 <.z y.+             ",
"              . 5 j Q P &             + O 1.v q.X               ",
"                  + +                     . M +                 ",
"                                                                "
};
