/* XPM */
static char * image_name[]={
"32 32 147 2",
"  	c #000000",
". 	c #030303",
"X 	c #000001",
"o 	c #171717",
"O 	c #232375",
"+ 	c #2F2F64",
"@ 	c #080808",
"# 	c #0F0F0F",
"$ 	c #121212",
"% 	c #0059B8",
"& 	c #0070E8",
"* 	c #0073EE",
"= 	c #0066D2",
"- 	c #004792",
"; 	c #006CE0",
": 	c #006DE1",
"> 	c #004EA1",
", 	c #0052AB",
"< 	c #0078F9",
"1 	c #007BFF",
"2 	c #007AFD",
"3 	c #007CFF",
"4 	c #0074F0",
"5 	c #222298",
"6 	c #050505",
"7 	c #1F1F1F",
"8 	c #0067D5",
"9 	c #0079FA",
"0 	c #007BFE",
"q 	c #0055B1",
"w 	c #1C1C1C",
"e 	c #0065D2",
"r 	c #004187",
"t 	c #0077F6",
"y 	c #0055AF",
"u 	c #004DA0",
"i 	c #0079FB",
"p 	c #006FE6",
"a 	c #004FA4",
"s 	c #0068D7",
"d 	c #0056B1",
"f 	c #005BBB",
"g 	c #0069D9",
"h 	c #0061C8",
"j 	c #0D0D0D",
"k 	c #0059B9",
"l 	c #005BBC",
"z 	c #005BBD",
"x 	c #00438B",
"c 	c #006ADB",
"v 	c #006ADC",
"b 	c #0063CE",
"n 	c #004895",
"m 	c #0078FA",
"M 	c #0074EF",
"N 	c #0073EF",
"B 	c #005CBD",
"V 	c #09519E",
"C 	c #1A1A1A",
"Z 	c #787878",
"A 	c #7C98D3",
"S 	c #037CFE",
"D 	c #0A74E5",
"F 	c #525252",
"G 	c #D1D1D1",
"H 	c #729FFF",
"J 	c #057DFF",
"K 	c #2E2E2E",
"L 	c #7E88AB",
"P 	c #1E90FF",
"I 	c #0579F5",
"U 	c #285B92",
"Y 	c #212121",
"T 	c #9C9C9C",
"R 	c #E6E6FA",
"E 	c #0476EF",
"W 	c #0376F2",
"Q 	c #186DC9",
"! 	c #2B2B2B",
"~ 	c #8C8C8C",
"^ 	c #B0E0E6",
"/ 	c #1073DD",
"( 	c #545454",
") 	c #636363",
"_ 	c #DBDBDB",
"` 	c #DEDEDE",
"' 	c #6A6A8D",
"] 	c #384B66",
"[ 	c #5470AA",
"{ 	c #A3A3A3",
"} 	c #6B6B6B",
"| 	c #303030",
" .	c #B6E2CE",
"..	c #C4C4C4",
"X.	c #D9D9D9",
"o.	c #F5F5F5",
"O.	c #B3B3B3",
"+.	c #242424",
"@.	c #ABABAB",
"#.	c #DCDCDC",
"$.	c #BDBDBD",
"%.	c #7D7D7D",
"&.	c #3D3D3D",
"*.	c #4F4F4F",
"=.	c #CCCCCC",
"-.	c #696969",
";.	c #474747",
":.	c #9E9E9E",
">.	c #EDEDED",
",.	c #FFFFFF",
"<.	c #616161",
"1.	c #ADADAD",
"2.	c #F0F0F0",
"3.	c #F2F2F2",
"4.	c #878787",
"5.	c #333333",
"6.	c #B5B5B5",
"7.	c #EBEBEB",
"8.	c #919191",
"9.	c #0A0A0A",
"0.	c #A1A1A1",
"q.	c #E3E3E3",
"w.	c #FAFAFA",
"e.	c #FCFCFC",
"r.	c #5E5E5E",
"t.	c #949494",
"y.	c #B8B8B8",
"u.	c #858585",
"i.	c #262626",
"p.	c #C2C2C2",
"a.	c #5C5C5C",
"s.	c #4A4A4A",
"d.	c #E0E0E0",
"f.	c #BFBFBF",
"g.	c #292929",
"h.	c #737373",
"j.	c #F7F7F7",
"k.	c #CFCFCF",
"l.	c #D4D4D4",
"z.	c #3B3B3B",
"x.	c #404040",
"c.	c #E5E5E5",
"v.	c #383838",
"b.	c #B0B0B0",
"n.	c #707070",
"m.	c #4D4D4D",
"M.	c #363636",
"                                                                ",
"                                            . . X               ",
"                    X . X               . o O O + @             ",
"                X # O O O $ .         . + % & * = O @           ",
"              X $ - ; * : > o X       $ , < 1 1 2 = + X         ",
"              . O & 3 1 1 4 5 6     X 7 8 1 1 3 3 * O .         ",
"              @ - 9 1 3 1 0 q #     X w e 3 1 1 3 & O .         ",
"              @ r t 3 1 1 2 y #       # u t 1 1 i % o X         ",
"              X O e 2 3 0 p O 6       . 7 a 8 s d O .           ",
"                @ O f g h O #         X j + O O + $ .           ",
"                @ + O 5 O O j X       6 O k l z l x j           ",
"                w l c v c b O .       @ n 9 1 1 0 l $           ",
"                + c 1 3 1 4 O .       @ n m 3 1 1 z $           ",
"                + c 3 1 3 M O .       @ n 9 1 1 1 z $           ",
"                + c 1 3 1 M O .       @ n 9 1 1 0 z $           ",
"                + c 3 1 1 N O .       @ n i 1 1 1 B $           ",
"                + c 3 1 1 N O .     . o V m 3 3 0 l $           ",
"                + c 1 1 1 N O .     C Z A S 3 1 1 l $           ",
"              6 + D 1 1 1 N O .   . F G H J 1 3 1 l $           ",
"            X K L P 1 1 3 I U Y . C T R H E 4 W P Q ! @ X       ",
"            C ~ ^ P c c c / A T ( ) _ ` ' O O ] [ A { } | j .   ",
"          j } `  .] + + + + } ..X._ o.O.+.. . 6 w ( @.#.$.%.&.j ",
"        @ *.=.` -.j   X @ C ;.:.>.,.o.:.+.  6 $ | <.1.2.3.G 4.! ",
"      . 5.6.7.8.w 9.7 &.} 0.=.q.w.e...( +.| r.t...#.X.y.u.F i.9.",
"      7 t.>.p.a.s.Z 1.G X.=.{ @.2.o.0.-.t...` d.f.4.F g.j .     ",
"    # h.q.j.k.f.l.X...0.} z.g.8.o.w.d.d.d...t.r.K j .           ",
"  @ ( k.e.o.` p.t.r.5.o @ . x.=.j.c...t.r.| $ 6                 ",
". v.b.X.y.u.( K $ .       j n.y.t.r.| $ .                       ",
"9.m.n.*.g.# .             9.M.| $ .                             ",
". # 9..                     .                                   ",
"                                                                ",
"                                                                "
};
