/* XPM */
static char * image_name[]={
"32 32 128 2",
"  	c #000000",
". 	c #030303",
"X 	c #000001",
"o 	c #171717",
"O 	c #232375",
"+ 	c #2F2F64",
"@ 	c #080808",
"# 	c #0059B8",
"$ 	c #0070E8",
"% 	c #0073EE",
"& 	c #0066D2",
"* 	c #121212",
"= 	c #0052AB",
"- 	c #0078F9",
"; 	c #007BFF",
": 	c #007AFD",
"> 	c #1F1F1F",
", 	c #0067D5",
"< 	c #007CFF",
"1 	c #1C1C1C",
"2 	c #0065D2",
"3 	c #0F0F0F",
"4 	c #004DA0",
"5 	c #0077F6",
"6 	c #0079FB",
"7 	c #004FA4",
"8 	c #0068D7",
"9 	c #0056B1",
"0 	c #0D0D0D",
"q 	c #050505",
"w 	c #0059B9",
"e 	c #005BBC",
"r 	c #005BBD",
"t 	c #00438B",
"y 	c #004895",
"u 	c #0079FA",
"i 	c #007BFE",
"p 	c #0078FA",
"a 	c #005CBD",
"s 	c #09519E",
"d 	c #0A0A0A",
"f 	c #4A4A4A",
"g 	c #595959",
"h 	c #242424",
"j 	c #1A1A1A",
"k 	c #787878",
"l 	c #7C98D3",
"z 	c #037CFE",
"x 	c #C4C4C4",
"c 	c #DEDEDE",
"v 	c #ABABAB",
"b 	c #636363",
"n 	c #525252",
"m 	c #D1D1D1",
"M 	c #729FFF",
"N 	c #057DFF",
"B 	c #2E2E2E",
"V 	c #ADADAD",
"C 	c #E8E8E8",
"Z 	c #B0B0B0",
"A 	c #CFCFCF",
"S 	c #616161",
"D 	c #9C9C9C",
"F 	c #E6E6FA",
"G 	c #0476EF",
"H 	c #0074F0",
"J 	c #0376F2",
"K 	c #1E90FF",
"L 	c #186DC9",
"P 	c #2B2B2B",
"I 	c #8C8C8C",
"U 	c #A6A6A6",
"Y 	c #292929",
"T 	c #737373",
"R 	c #BABABA",
"E 	c #9E9E9E",
"W 	c #545454",
"Q 	c #DBDBDB",
"! 	c #6A6A8D",
"~ 	c #384B66",
"^ 	c #5470AA",
"/ 	c #A3A3A3",
"( 	c #6B6B6B",
") 	c #303030",
"_ 	c #C7C7C7",
"` 	c #424242",
"' 	c #D9D9D9",
"] 	c #F5F5F5",
"[ 	c #B3B3B3",
"{ 	c #DCDCDC",
"} 	c #BDBDBD",
"| 	c #7D7D7D",
" .	c #3D3D3D",
"..	c #4F4F4F",
"X.	c #CCCCCC",
"o.	c #696969",
"O.	c #474747",
"+.	c #EDEDED",
"@.	c #FFFFFF",
"#.	c #F0F0F0",
"$.	c #F2F2F2",
"%.	c #878787",
"&.	c #333333",
"*.	c #B5B5B5",
"=.	c #EBEBEB",
"-.	c #919191",
";.	c #A1A1A1",
":.	c #E3E3E3",
">.	c #FAFAFA",
",.	c #FCFCFC",
"<.	c #5E5E5E",
"1.	c #949494",
"2.	c #B8B8B8",
"3.	c #858585",
"4.	c #262626",
"5.	c #C2C2C2",
"6.	c #5C5C5C",
"7.	c #E0E0E0",
"8.	c #BFBFBF",
"9.	c #F7F7F7",
"0.	c #D4D4D4",
"q.	c #3B3B3B",
"w.	c #404040",
"e.	c #E5E5E5",
"r.	c #383838",
"t.	c #707070",
"y.	c #4D4D4D",
"u.	c #363636",
"                                                                ",
"                                            . . X               ",
"                                        . o O O + @             ",
"                                      . + # $ % & O @           ",
"                                      * = - ; ; : & + X         ",
"                                    X > , ; ; < < % O .         ",
"                                    X 1 2 < ; ; < $ O .         ",
"                                      3 4 5 ; ; 6 # o X         ",
"                                      . > 7 , 8 9 O .           ",
"                                      X 0 + O O + * .           ",
"                                      q O w e r e t 0           ",
"                                      @ y u ; ; i e *           ",
"                                      @ y p < ; ; r *           ",
"                                      @ y u ; ; ; r *           ",
"                                      @ y u ; ; i r *           ",
"                                      @ y 6 ; ; ; a *           ",
"                  q q               . o s p < < i e *           ",
"                d f g h @           j k l z < ; ; e *           ",
"              q f x c v b h @     . n m M N ; < ; e *           ",
"            X B V C V Z A v S > . j D F M G H J K L P @ X       ",
"            j I C U B Y T R m E W b Q c ! O O ~ ^ l / ( ) 0 .   ",
"          0 ( c _ ` .   0 ) k x ' Q ] [ h . . q 1 W v { } |  .0 ",
"        @ ..X.c o.0   X @ j O.E +.@.] E h   q * ) S V #.$.m %.P ",
"      . &.*.=.-.1 d >  .( ;.X.:.>.,.x W h ) <.1.x { ' 2.3.n 4.d ",
"      > 1.+.5.6.f k V m ' X./ v #.] ;.o.1.x c 7.8.%.n Y 0 .     ",
"    3 T :.9.A 8.0.' x ;.( q.Y -.] >.7.7.7.x 1.<.B 0 .           ",
"  @ W A ,.] c 5.1.<.&.o @ . w.X.9.e.x 1.<.) * q                 ",
". r.Z ' 2.3.W B * .       0 t.2.1.<.) * .                       ",
"d y.t...Y 3 .             d u.) * .                             ",
". 3 d .                     .                                   ",
"                                                                ",
"                                                                "
};
