/* XPM */
static char * image_name[]={
"32 32 135 2",
"  	c #000000",
". 	c #000001",
"X 	c #030303",
"o 	c #050505",
"O 	c #1A1A1A",
"+ 	c #5C5C5C",
"@ 	c #696969",
"# 	c #4D4D4D",
"$ 	c #0F0F0F",
"% 	c #3D3D3D",
"& 	c #CCCCCC",
"* 	c #E8E8E8",
"= 	c #E0E0E0",
"- 	c #DEDEDE",
"; 	c #EBEBEB",
": 	c #B0B0B0",
"> 	c #212121",
", 	c #424242",
"< 	c #D9D9D9",
"1 	c #C7C7C7",
"2 	c #8F8F8F",
"3 	c #8C8C8C",
"4 	c #949494",
"5 	c #BDBDBD",
"6 	c #242424",
"7 	c #0D0D0D",
"8 	c #D6D6D6",
"9 	c #9E9E9E",
"0 	c #C2C2C2",
"q 	c #969696",
"w 	c #C9C9C9",
"e 	c #080808",
"r 	c #232375",
"t 	c #004A99",
"y 	c #2F2F64",
"u 	c #9C9C9C",
"i 	c #B8B8B8",
"p 	c #919191",
"a 	c #0A0A0A",
"s 	c #0064CF",
"d 	c #0066D3",
"f 	c #121212",
"g 	c #363636",
"h 	c #333333",
"j 	c #2E2E2E",
"k 	c #383838",
"l 	c #0068D8",
"z 	c #0068D7",
"x 	c #004996",
"c 	c #0063CE",
"v 	c #ABABAB",
"b 	c #7A7A7A",
"n 	c #545454",
"m 	c #004389",
"M 	c #006BDC",
"N 	c #0060C7",
"B 	c #1C1C1C",
"V 	c #0053AB",
"C 	c #006FE7",
"Z 	c #0053AC",
"A 	c #ADADAD",
"S 	c #A8A8A8",
"D 	c #636363",
"F 	c #262626",
"G 	c #141414",
"H 	c #004590",
"J 	c #006EE4",
"K 	c #005FC5",
"L 	c #0054AD",
"P 	c #006EE3",
"I 	c #004FA4",
"U 	c #ABBFD5",
"Y 	c #7C98D3",
"T 	c #858585",
"R 	c #0050A5",
"E 	c #0055B1",
"W 	c #005DC1",
"Q 	c #006EE2",
"! 	c #004690",
"~ 	c #454545",
"^ 	c #B0E2FF",
"/ 	c #729FFF",
"( 	c #A3A3A3",
") 	c #8A8A8A",
"_ 	c #828282",
"` 	c #4F4F4F",
"' 	c #171717",
"] 	c #0052A9",
"[ 	c #0070E9",
"{ 	c #0054AC",
"} 	c #0060C6",
"| 	c #006DE0",
" .	c #00448D",
"..	c #5E5E5E",
"X.	c #B0E0E6",
"o.	c #93B9E3",
"O.	c #B1BCC8",
"+.	c #B3B3B3",
"@.	c #004B9B",
"#.	c #0066D4",
"$.	c #004C9E",
"%.	c #E6E6FA",
"&.	c #6A6A8D",
"*.	c #737373",
"=.	c #303030",
"-.	c #0059B8",
";.	c #0067D5",
":.	c #00458F",
">.	c #004792",
",.	c #005FC4",
"<.	c #4955A5",
"1.	c #404040",
"2.	c #006DE1",
"3.	c #0056B2",
"4.	c #474747",
"5.	c #004997",
"6.	c #006CE0",
"7.	c #005BBC",
"8.	c #004A98",
"9.	c #4A4A4A",
"0.	c #BABABA",
"q.	c #0052AB",
"w.	c #0070E7",
"e.	c #1F1F1F",
"r.	c #005EC3",
"t.	c #384B66",
"y.	c #6E6E6E",
"u.	c #0051A8",
"i.	c #0054AE",
"p.	c #006FE5",
"a.	c #00438B",
"s.	c #006DE2",
"d.	c #0069D8",
"f.	c #0066D2",
"g.	c #004085",
"                                                                ",
"                                                                ",
"                                                                ",
"                                    . X o X o o o o o o X .     ",
"                                    O + @ @ @ @ @ @ @ @ # $     ",
"                                    % & * = - = = = = ; : >     ",
"                      .             , < 1 2 3 2 2 3 4 < 5 6     ",
"                    o 7 o           , 8 : 9 0 0 0 5 q w 5 6     ",
"                  e r t y X . X .   , 8 : u 5 5 5 i p 1 5 6     ",
"                a r s d r o f r f . , 8 u g h j 6 6 k 5 5 6     ",
"            . 7 r l z r 7 O x c r o , 8 v b 3 n e   6 5 5 6     ",
"          . f m M N r 7 B V C Z B X , 8 A q S D O 7 F 5 5 6     ",
"        X G H J K r a y L P I B X . , < U Y S 2 T D g 5 5 6     ",
"      X B R P E y a r W Q ! G X   . ~ < ^ / ( ) _ ` h 5 5 6     ",
"    . ' ] [ { B 7 r } |  .' $ o   a ..= X.o.O.+.T B 6 5 5 6     ",
"    . O L @.O a r #.l r O r $.y $ r Y %.: &.3 2 *.=.h 5 5 6     ",
"      o ' $ X O -.d r G r l ;.r :.M / %.v _ 9 9 u 2 D 0 5 6     ",
"        .     e r r O r l c >.R P ,.<.< 9 1., , , % 1.5 5 6     ",
"                X G :.P K r t 2.3.y 4.8 ( h 6 6 6 6 , 1 5 6     ",
"              X O 5.6.7.r 7 r 8.r y 9.8 - 0.i i i i 0 * i 6     ",
"            X B q.w.Z e.X   a r Z r.t._ 4 4 4 4 4 4 4 4 y.G     ",
"          . ' u.P I B X   o y i.p.u.B $ $ $ $ $ $ $ $ $ a X     ",
"          . G @.a.G X   o r W s.>.' X                           ",
"            X f 7 .   e r K |  .f .                             ",
"                    a r #.d.r $ .                               ",
"                . 7 r d.z r a                                   ",
"                X r f.N r a                                     ",
"                . O g.r o                                       ",
"                  X e X                                         ",
"                                                                ",
"                                                                ",
"                                                                "
};
