/* XPM */
static char * image_name[]={
"32 32 141 2",
"  	c #000000",
". 	c #080808",
"X 	c #2F2F64",
"o 	c #0D0D0D",
"O 	c #030303",
"+ 	c #0F0F0F",
"@ 	c #004288",
"# 	c #1C1C1C",
"$ 	c #000001",
"% 	c #141414",
"& 	c #1F1F1F",
"* 	c #050505",
"= 	c #1A1A1A",
"- 	c #0056B3",
"; 	c #232375",
": 	c #333333",
"> 	c #3B3B3B",
", 	c #004793",
"< 	c #0066D2",
"1 	c #2E2E2E",
"2 	c #8A8A8A",
"3 	c #4A4A4A",
"4 	c #004895",
"5 	c #0052AA",
"6 	c #0070E8",
"7 	c #004792",
"8 	c #242424",
"9 	c #919191",
"0 	c #ABABAB",
"q 	c #262626",
"w 	c #0069DA",
"e 	c #004C9E",
"r 	c #121212",
"t 	c #00438A",
"y 	c #0076F5",
"u 	c #0054AD",
"i 	c #171717",
"p 	c #828282",
"a 	c #DEDEDE",
"s 	c #858585",
"d 	c #005FC5",
"f 	c #0072EB",
"g 	c #00448D",
"h 	c #004EA1",
"j 	c #0077F7",
"k 	c #005FC4",
"l 	c #707070",
"z 	c #DBDBDB",
"x 	c #4D4D4D",
"c 	c #0A0A0A",
"v 	c #004692",
"b 	c #0078F8",
"n 	c #006CE0",
"m 	c #474747",
"M 	c #CFCFCF",
"N 	c #FAFAFA",
"B 	c #ADADAD",
"V 	c #212121",
"C 	c #222298",
"Z 	c #0063CC",
"A 	c #0055AF",
"S 	c #2B2B2B",
"D 	c #383838",
"F 	c #999999",
"G 	c #D1D1D1",
"H 	c #757575",
"J 	c #525252",
"K 	c #7D7D7D",
"L 	c #6B6B6B",
"P 	c #0060C8",
"I 	c #005BBD",
"U 	c #004186",
"Y 	c #454545",
"T 	c #BABABA",
"R 	c #B3B3B3",
"E 	c #8C8C8C",
"W 	c #545454",
"Q 	c #363636",
"! 	c #303030",
"~ 	c #B8B8B8",
"^ 	c #0068D7",
"/ 	c #0075F2",
"( 	c #004EA2",
") 	c #708090",
"_ 	c #CCCCCC",
"` 	c #F2F2F2",
"' 	c #FCFCFC",
"] 	c #FFFFFF",
"[ 	c #F7F7F7",
"{ 	c #D9D9D9",
"} 	c #969696",
"| 	c #D6D6D6",
" .	c #F0F0F0",
"..	c #E3E3E3",
"X.	c #8F8F8F",
"o.	c #292929",
"O.	c #0076F3",
"+.	c #004D9F",
"@.	c #878787",
"#.	c #EBEBEB",
"$.	c #A8A8A8",
"%.	c #7A7A7A",
"&.	c #004A98",
"*.	c #666666",
"=.	c #BDBDBD",
"-.	c #C7C7C7",
";.	c #737373",
":.	c #0050A5",
">.	c #0060C6",
",.	c #006ADC",
"<.	c #0071EA",
"1.	c #006FE6",
"2.	c #424242",
"3.	c #EDEDED",
"4.	c #D4D4D4",
"5.	c #E0E0E0",
"6.	c #B0B0B0",
"7.	c #595959",
"8.	c #00428A",
"9.	c #0053AC",
"0.	c #006ADB",
"q.	c #2F4F4F",
"w.	c #C9C9C9",
"e.	c #949494",
"r.	c #6E6E6E",
"t.	c #575757",
"y.	c #696969",
"u.	c #5C5C5C",
"i.	c #636363",
"p.	c #E8E8E8",
"a.	c #5E5E5E",
"s.	c #B5B5B5",
"d.	c #BFBFBF",
"f.	c #E5E5E5",
"g.	c #3D3D3D",
"h.	c #A1A1A1",
"j.	c #9C9C9C",
"k.	c #C2C2C2",
"l.	c #A3A3A3",
"z.	c #A6A6A6",
"x.	c #787878",
"                            . X o                               ",
"              O O           + @ #           O . $               ",
"            $ % & *         = - ; $       O : > .               ",
"              = , X O     $ X < ; O     O 1 2 3 O               ",
"              o 4 5 # $   O ; 6 7 .   $ 8 9 0 q                 ",
"              O ; w e r $ * t y u o   i p a s +                 ",
"                i d f g + o h j k i r l a z x O                 ",
"  * + c O       c v b n ; + ; 4 ; % m M N B &       O + V + $   ",
"  c ; C ; i . $ $ ; Z A X r V S 8 % D F G H c O o q J K L & $   ",
"  $ r C P I U ; r r ; q Y p 0 T R E W Q x ! & Y K ~ M F Q *     ",
"    $ o ; ^ / n ( i q ) _ ` ' ] ] [ { } > & s |  ...X.o.O       ",
"        c ; P O.+.q @.#.] ] ] ] ] ] ] ` $.> %.#.{ H & $         ",
"          * ; &.X J { ] ] ] ] ] ] ] ] ] #.H > 9 *.%             ",
"          O c + = F [ ] ] ] ] ] ] ] ] ] ] =.: & i * O           ",
"O . o i X ; ; & ! -.] ] ] ] ] ] ] ] ] ] ] ..J o.;.L x Q V r . O ",
"; C :.>.,.<.1.; 2.{ ] ] ] ] ] ] ] ] ] ] ] 3.*.m 4.3.5._ 6.@.7.& ",
"& ; 8.9.k w 0.; q.| ] ] ] ] ] ] ] ] ] ] ] #.*.Y w.a w.R e.r.3 i ",
"$ O . o % X ; i o.=.] ] ] ] ] ] ] ] ] ] ] a 3 & t.3 ! & r . O   ",
"            + S 8 @.` ] ] ] ] ] ] ] ] ] N 6.! S = O             ",
"          % y.6.u.m w.' ] ] ] ] ] ] ] ] ..i.Y $.p 8 $           ",
"      O V K z [ $.: r.{ N ] ] ] ] ] ] p.E ! 2 ` #.9 1 *         ",
"    O o.X...#.-.s q & a.s.p.[ N N  .-.;.o.# r.d.f.p.$.g..       ",
"  * Q e.d.h.y.: r o.y.m > i.2 e.X.r.2.g.y.g.r 1 a.e.=.$.x c     ",
"  i a.r.g.= .   O a.z -.u.r o.: 1 % 2.s...s o   O r : *.i.=     ",
"  . % c $       i j.[ { 7.V 2 =.j.! g.k.N T q         . r .     ",
"                > M 5.;.% i l.' k.S c t.G a W O                 ",
"              . L { 2 =   c s ` z.i   + r.4.9 r                 ",
"              = F F q O   * *.f.2 o     i %.B !                 ",
"            $ > s Q O     $ 3 _ L *     $ V x.3 O               ",
"            O o.1 O         ! $.x O       O 8 1 O               ",
"              * O           # %.:           O O                 ",
"                            c Q %                               "
};
