/* XPM */
static char * image_name[]={
"32 32 114 2",
"  	c #000001",
". 	c #030303",
"X 	c #000000",
"o 	c #0D0D0D",
"O 	c #3B3B3B",
"+ 	c #262626",
"@ 	c #999999",
"# 	c #A8A8A8",
"$ 	c #707070",
"% 	c #8F8F8F",
"& 	c #303030",
"* 	c #A1A1A1",
"= 	c #BABABA",
"- 	c #363636",
"; 	c #B5B5B5",
": 	c #636363",
"> 	c #787878",
", 	c #292929",
"< 	c #949494",
"1 	c #6E6E6E",
"2 	c #080808",
"3 	c #A3A3A3",
"4 	c #4A4A4A",
"5 	c #8C8C8C",
"6 	c #B3B3B3",
"7 	c #0A0A0A",
"8 	c #708090",
"9 	c #A6A6A6",
"0 	c #0F0F0F",
"q 	c #050505",
"w 	c #1C1C1C",
"e 	c #858585",
"r 	c #6A6A8D",
"t 	c #474747",
"y 	c #383838",
"u 	c #B8B8B8",
"i 	c #9C9C9C",
"p 	c #D6D6D6",
"a 	c #1F1F1F",
"s 	c #828282",
"d 	c #D1D1D1",
"f 	c #8A8A8A",
"g 	c #B0B0B0",
"h 	c #5C5C5C",
"j 	c #333333",
"k 	c #B6E2CE",
"l 	c #1A1A1A",
"z 	c #D4D4D4",
"x 	c #2F2F64",
"c 	c #171717",
"v 	c #6B6B6B",
"b 	c #878787",
"n 	c #919191",
"m 	c #1B5789",
"M 	c #1A619F",
"N 	c #ADADAD",
"B 	c #141414",
"V 	c #1F6DAD",
"C 	c #125187",
"Z 	c #7C98D3",
"A 	c #7E88AB",
"S 	c #212121",
"D 	c #525252",
"F 	c #616161",
"G 	c #1B6AAC",
"H 	c #3B6F9F",
"J 	c #729FFF",
"K 	c #32BFC1",
"L 	c #8EAEC7",
"P 	c #C7C7C7",
"I 	c #F0F8FF",
"U 	c #D9D9D9",
"Y 	c #F0F0F0",
"T 	c #ABABAB",
"R 	c #5E5E5E",
"E 	c #454545",
"W 	c #9E9E9E",
"Q 	c #4D4D4D",
"! 	c #206AA9",
"~ 	c #384B66",
"^ 	c #1F5E94",
"/ 	c #20B2AA",
"( 	c #BABFC3",
") 	c #575757",
"_ 	c #1463A5",
"` 	c #2E2E2E",
"' 	c #3D3D3D",
"] 	c #7A7A7A",
"[ 	c #737373",
"{ 	c #2B6CA6",
"} 	c #5F929E",
"| 	c #BABDC2",
" .	c #E3E3E3",
"..	c #87CEFA",
"X.	c #345C80",
"o.	c #121212",
"O.	c #CCCCCC",
"+.	c #00562D",
"@.	c #B5BAC0",
"#.	c #CFCFCF",
"$.	c #AEBECD",
"%.	c #9AAFC2",
"&.	c #DBDBDB",
"*.	c #696969",
"=.	c #B8BCC5",
"-.	c #666666",
";.	c #242424",
":.	c #C9C9C9",
">.	c #595959",
",.	c #545454",
"<.	c #757575",
"1.	c #4F4F4F",
"2.	c #BDBDBD",
"3.	c #BBBCC0",
"                  .   X   X X X X   X       X                   ",
"X X X X X X X X X X   X X o O + . X X X X X   X X X X X X X X X ",
"X X X X X X X X   X X     @ # $ % & X X X X X X X X X X X X X X ",
"X X X X X X X X X   X X   * = $ - ; : X   X X X X X X X X X X X ",
"X X X X X X X X   X   X   > , < 1 2 < 3 . X   X X X X X X X X X ",
"X X X X X X X X     X X X 4 5 2 6 7 X 8 9 0 X X X X X X X X X X ",
"X X X X X X X X   X X X X q 6 w e & X X r ; 7   X X X X X X X X ",
"X X X X X X X X X X X X X   t 5 r y   X X $ u 7 X X X X X X X X ",
"X X   X X     X X   X   X   X i p a X X X X s i     X X     X X ",
"X   X X X X X X X X X   X X X O d . X X       i % X   X   X X X ",
"  X X X X X X     X X X X     f r X X   X X X 7 g h X X X X   X ",
"X X X X         X X     X X j k o X X X X X X X l z & X X   X X ",
"X X X       X X X X X X   w p y   X X X   X X   X x = 2   X   X ",
"  X X     X X X   l c   0 u v   X X   X X X   X X   b n   X X X ",
"X X X   X X X   q m M + N 8   X X   X   X     X X X q u & X X X ",
"X X     X X   B V x C Z A S D : F D $ e n ; * b > j X - 3 . X X ",
"X X   X X   x x x G H J K L P I U g Y T l R p E F 9 8 7 W Q X   ",
"X     X X X x ! ~ ^ J J / Z p Y k % E 5 6 q t ( w   ) 9 x n   X ",
"X X X X     X ~ _ Z J / J A 4 ` ' ] = [ s N   E = Q   E 8 8 c X ",
"    X   X X X X { J } J ~ .   X   X l | h * 1   S g > 7 f 9 `   ",
"  X X X   X   E  .J ..X.  X       X   o.P R O.7     h % u d o.X ",
"X   X     X +.@.#.$.%.o       X X   X X e 8 6 O   X X 2 O S   X ",
"      X X E O.< &.D 5 X X   X X X   X X E i b F X X X X   X X X ",
"X X X X *.=.* b 9 h e   X   X X   X X   j @ 8 -.  X X X X   X X ",
"X   ;.n u * @ . n R <   X X X   X   X X R 5 3 Q X X X X X X X X ",
"o.# :.v 3 f X   $ r < O     X X X     X T -.O.l X X X X X X X X ",
"2 t o.> 8   X X a O.>.g 0 X X X X X X F f > 3   X X X X X X X X ",
"    y = X X X X   r W ,.3 ' . X X c <.9 1.#.w X X X X X X X X X ",
"X   1.1   X X X X   < ; D 8 W < i @ *.-.U E   X X X X X X X X X ",
"X X X q     X   X X   > 2.f [ <.<.<.9 3.-   X X X X X X X X X X ",
"X X   X     X   X X X   c <.N ; ; * 4   X X X   X X X X X X X X ",
"  X X X X X   X X X X X X X X     X   X X X X   X X X X X X X X "
};
