/* XPM */
static char * image_name[]={
"32 32 122 2",
"  	c #000000",
". 	c #000001",
"X 	c #030303",
"o 	c #0D0D0D",
"O 	c #1C1C1C",
"+ 	c #363636",
"@ 	c #424242",
"# 	c #3D3D3D",
"$ 	c #2B2B2B",
"% 	c #171717",
"& 	c #080808",
"* 	c #242424",
"= 	c #525252",
"- 	c #828282",
"; 	c #ADADAD",
": 	c #CCCCCC",
"> 	c #D9D9D9",
", 	c #DBDBDB",
"< 	c #D6D6D6",
"1 	c #C2C2C2",
"2 	c #A1A1A1",
"3 	c #757575",
"4 	c #404040",
"5 	c #050505",
"6 	c #292929",
"7 	c #696969",
"8 	c #B0B0B0",
"9 	c #DEDEDE",
"0 	c #F2F2F2",
"q 	c #F5F5F5",
"w 	c #EBEBEB",
"e 	c #E0E0E0",
"r 	c #F0F0F0",
"t 	c #D1D1D1",
"y 	c #999999",
"u 	c #121212",
"i 	c #545454",
"p 	c #E8E8E8",
"a 	c #B3B3B3",
"s 	c #858585",
"d 	c #616161",
"f 	c #474747",
"g 	c #4D4D4D",
"h 	c #707070",
"j 	c #949494",
"k 	c #919191",
"l 	c #212121",
"z 	c #7A7A7A",
"x 	c #9C9C9C",
"c 	c #262626",
"v 	c #2F2F64",
"b 	c #1A1A1A",
"n 	c #0A0A0A",
"m 	c #2E2E2E",
"M 	c #666666",
"N 	c #5C5C5C",
"B 	c #8F8F8F",
"V 	c #575757",
"C 	c #1F1F1F",
"Z 	c #232375",
"A 	c #0064CF",
"S 	c #006ADB",
"D 	c #005DC1",
"F 	c #0F0F0F",
"G 	c #C9C9C9",
"H 	c #D4D4D4",
"J 	c #004EA1",
"K 	c #0063CD",
"L 	c #222298",
"P 	c #006BDD",
"I 	c #006ADC",
"U 	c #0064CE",
"Y 	c #004EA2",
"T 	c #0061C8",
"R 	c #004289",
"E 	c #4A4A4A",
"W 	c #CFCFCF",
"Q 	c #878787",
"! 	c #0061C9",
"~ 	c #0077F6",
"^ 	c #006EE3",
"/ 	c #141414",
"( 	c #0051A8",
") 	c #0072EC",
"_ 	c #0074F1",
"` 	c #0052AA",
"' 	c #333333",
"] 	c #0050A5",
"[ 	c #0054AD",
"{ 	c #005ABA",
"} 	c #A8A8A8",
"| 	c #00438B",
" .	c #C7C7C7",
"..	c #BABABA",
"X.	c #787878",
"o.	c #737373",
"O.	c #0072EB",
"+.	c #005BBC",
"@.	c #3B3B3B",
"#.	c #969696",
"$.	c #EDEDED",
"%.	c #B8B8B8",
"&.	c #0068D8",
"*.	c #0071EA",
"=.	c #4F4F4F",
"-.	c #BDBDBD",
";.	c #7E7E7E",
":.	c #5E5E5E",
">.	c #6E6E6E",
",.	c #E5E5E5",
"<.	c #E3E3E3",
"1.	c #0058B6",
"2.	c #004D9E",
"3.	c #7D7D7D",
"4.	c #0056B2",
"5.	c #454545",
"6.	c #DCDCDC",
"7.	c #0066D3",
"8.	c #006FE7",
"9.	c #BFBFBF",
"0.	c #0063CE",
"q.	c #636363",
"                                                                ",
"                                                                ",
"                                                                ",
"                                                                ",
"                                                                ",
"                                    .                           ",
"                        X o O + @ @ @ @ # $ % & X               ",
"                    & * = - ; : > , , , < 1 2 3 4 % X           ",
"                5 6 7 8 9 0 q w 9 , , , e r q r t y = % X       ",
"              u i ; p q e a s d f @ @ @ g h j 1 p q > k # &     ",
"          . l z < q , x i c o 5 o O v b n & u m M 8 w 0 1 N u   ",
"        . * B p w ; V C u v u 5 Z A S D Z 5 b b F 6 3 G q H d n ",
"      . l B w p B $ F Z J K Z n L P I U Z F Y T R C u E 8 W d & ",
"      u z p p Q l X v ! ~ ^ L n % Z v v o / ( ) _ ` / 5 ' g /   ",
"    & V < w B * o & % ] [ Z / F C 6 m c % o b Z { L n   X X     ",
"    m a q } $ % | Z o / / O g Q 8 1  ...2 X.# % % F .           ",
"  n o.w < = u R O.+.b & @.#.> 0 0 $.p r q r : X.l X             ",
"  6 %.q B % Z &.*.Z u =.-.0 p a ;.M :.>.j G 0 ,.;./             ",
"X N <., g 5 Z 1.2.% @.-.q : >.c n X X 5 u @.k 1 7 o             ",
"F B q ; C X & % / l x r G i o             X b ' u               ",
"* %.r 3.F Z Z % 5 i 9 ,.7 o                   .                 ",
"@.H <.i / 4.^ Z % k q 8 *                                       ",
"5.6.> 4 C 7.8.Z $ 9.r o.&                                       ",
"i < -.m C K 0.v @.G t E .                                       ",
"$ q.=.F o Z Z o b N N O                                         ",
"X 5 X . . X X . . 5 X .                                         ",
"                                                                ",
"                                                                ",
"                                                                ",
"                                                                ",
"                                                                ",
"                                                                "
};
