/* XPM */
static char * image_name[]={
"32 32 95 2",
"  	c #000000",
". 	c #030303",
"X 	c #121212",
"o 	c #292929",
"O 	c #1C1C1C",
"+ 	c #080808",
"@ 	c #0F0F0F",
"# 	c #2E2E2E",
"$ 	c #5E5E5E",
"% 	c #949494",
"& 	c #BDBDBD",
"* 	c #A8A8A8",
"= 	c #0D0D0D",
"- 	c #262626",
"; 	c #525252",
": 	c #878787",
"> 	c #D6D6D6",
", 	c #D1D1D1",
"< 	c #E8E8E8",
"1 	c #F5F5F5",
"2 	c #969696",
"3 	c #141414",
"4 	c #000001",
"5 	c #0A0A0A",
"6 	c #242424",
"7 	c #858585",
"8 	c #B8B8B8",
"9 	c #CFCFCF",
"0 	c #ABABAB",
"q 	c #787878",
"w 	c #636363",
"e 	c #C4C4C4",
"r 	c #EBEBEB",
"t 	c #6B6B6B",
"y 	c #1F1F1F",
"u 	c #454545",
"i 	c #B0B0B0",
"p 	c #D4D4D4",
"a 	c #7D7D7D",
"s 	c #DEDEDE",
"d 	c #3B3B3B",
"f 	c #A3A3A3",
"g 	c #F0F0F0",
"h 	c #A1A1A1",
"j 	c #1A1A1A",
"k 	c #EDEDED",
"l 	c #C2C2C2",
"z 	c #616161",
"x 	c #ADADAD",
"c 	c #737373",
"v 	c #E0E0E0",
"b 	c #050505",
"n 	c #2F2F64",
"m 	c #171717",
"M 	c #0051A7",
"N 	c #006ADB",
"B 	c #0061C8",
"V 	c #0053AC",
"C 	c #1056A1",
"Z 	c #7C98D3",
"A 	c #87CEFA",
"S 	c #6A6A8D",
"D 	c #232375",
"F 	c #0050A5",
"G 	c #005EC2",
"H 	c #0068D8",
"J 	c #0B7AEF",
"K 	c #1E90FF",
"L 	c #0E72DD",
"P 	c #0161C7",
"I 	c #0068D7",
"U 	c #006ADC",
"Y 	c #005BBC",
"T 	c #D9D9D9",
"R 	c #729FFF",
"E 	c #055FC0",
"W 	c #006BDC",
"Q 	c #0079FB",
"! 	c #007CFF",
"~ 	c #007BFF",
"^ 	c #B5B5B5",
"/ 	c #303030",
"( 	c #006EE4",
") 	c #F7F7F7",
"_ 	c #4F4F4F",
"` 	c #424242",
"' 	c #7F7F7F",
"] 	c #007BFE",
"[ 	c #E3E3E3",
"{ 	c #004FA2",
"} 	c #005BBD",
"| 	c #004EA1",
" .	c #707070",
"..	c #9C9C9C",
"X.	c #575757",
"                                                                ",
"                                                                ",
"                                                                ",
"                                                                ",
"                                                                ",
"                                                                ",
"                                                                ",
"                              . X o O +                         ",
"                        . @ # $ % & * $ =                       ",
"                  . = - ; : & > , < 1 2 3                       ",
"            4 5 6 ; 7 8 , 9 0 q w e r t +                       ",
"        + y u q i p p 8 a u y = ; s 9 d                         ",
"      . d f , > 8 7 ; - 5 .   = 7 g h j                         ",
"      5 q k l z o = .         - 8 r t +                         ",
"      y x k c 5     4 4     . ; v 9 d 4                         ",
"    4 u > > u 4   b n n m = 3 : g h j     4       4             ",
"    5 q k x y     @ M N B V C Z A S y y n n n n n n n n O +     ",
"    y x k q 5     5 D F G H J K K L P I N U N N N N U N Y O     ",
"  4 u T T u 4     4 b = 3 n Z R K E W Q ! ~ ~ ! ~ ~ ~ ~ N n     ",
"  5 q g ^ 6       4     4 / e < t m D ( ~ ~ ~ ~ ~ ~ ~ ~ N n 4   ",
"  y x ) i _ ` ` ` ` ` ` u ' < 9 d 4 n N ] ~ ~ ~ ~ ~ ~ ~ N n 4   ",
"  # l ) < > > > > > > > > [ 1 h j   m { Y Y } } Y Y } } | j     ",
"  m  .% 2 % % % % % % % % 2 ..X.+   b @ X X X X X X X X @ b     ",
"  4 = @ @ @ @ @ @ @ @ @ @ @ m =                                 ",
"                                                                ",
"                                                                ",
"                                                                ",
"                                                                ",
"                                                                ",
"                                                                ",
"                                                                ",
"                                                                "
};
