/* XPM */
static char * image_name[]={
"32 32 116 2",
"  	c #000000",
". 	c #030303",
"X 	c #050505",
"o 	c #000001",
"O 	c #080808",
"+ 	c #121212",
"@ 	c #333333",
"# 	c #545454",
"$ 	c #696969",
"% 	c #5E5E5E",
"& 	c #3D3D3D",
"* 	c #1A1A1A",
"= 	c #171717",
"- 	c #363636",
"; 	c #595959",
": 	c #787878",
"> 	c #878787",
", 	c #C7C7C7",
"< 	c #E3E3E3",
"1 	c #EDEDED",
"2 	c #E8E8E8",
"3 	c #D4D4D4",
"4 	c #9C9C9C",
"5 	c #4F4F4F",
"6 	c #999999",
"7 	c #C2C2C2",
"8 	c #C4C4C4",
"9 	c #B6E2CE",
"0 	c #B0E0E6",
"q 	c #BABABA",
"w 	c #F0F0F0",
"e 	c #EBEBEB",
"r 	c #CCCCCC",
"t 	c #BDBDBD",
"y 	c #E0E0E0",
"u 	c #F2F2F2",
"i 	c #6E6E6E",
"p 	c #141414",
"a 	c #1F1F1F",
"s 	c #7A7A7A",
"d 	c #D1D1D1",
"f 	c #8F8F8F",
"g 	c #2C6FB6",
"h 	c #1E90FF",
"j 	c #2C6BAD",
"k 	c #5C5C5C",
"l 	c #DBDBDB",
"z 	c #383838",
"x 	c #F5F5F5",
"c 	c #242424",
"v 	c #2B2B2B",
"b 	c #575757",
"n 	c #A8A8A8",
"m 	c #D9D9D9",
"M 	c #6B6B6B",
"N 	c #7D7D7D",
"B 	c #DCDCDC",
"V 	c #232375",
"C 	c #006CDF",
"Z 	c #007BFF",
"A 	c #0068D7",
"S 	c #2F2F64",
"D 	c #E5E5E5",
"F 	c #666666",
"G 	c #0D0D0D",
"H 	c #2E2E2E",
"J 	c #A1A1A1",
"K 	c #B5B5B5",
"L 	c #CFCFCF",
"P 	c #4D4D4D",
"I 	c #0A0A0A",
"U 	c #0070E7",
"Y 	c #007CFF",
"T 	c #006BDD",
"R 	c #616161",
"E 	c #DEDEDE",
"W 	c #454545",
"Q 	c #949494",
"! 	c #ADADAD",
"~ 	c #1362B7",
"^ 	c #0B7BF2",
"/ 	c #0C7CF3",
"( 	c #125EAF",
") 	c #A6A6A6",
"_ 	c #525252",
"` 	c #8C8C8C",
"' 	c #3B3B3B",
"] 	c #828282",
"[ 	c #B8B8B8",
"{ 	c #96AAC0",
"} 	c #85B2E2",
"| 	c #86B3E3",
" .	c #0F0F0F",
"..	c #969696",
"X.	c #A3A3A3",
"o.	c #424242",
"O.	c #B0B0B0",
"+.	c #8A8A8A",
"@.	c #919191",
"#.	c #4A4A4A",
"$.	c #FAFAFA",
"%.	c #C9C9C9",
"&.	c #212121",
"*.	c #757575",
"=.	c #FFFFFF",
"-.	c #292929",
";.	c #FCFCFC",
":.	c #BFBFBF",
">.	c #F7F7F7",
",.	c #9E9E9E",
"<.	c #D6D6D6",
"1.	c #ABABAB",
"2.	c #B3B3B3",
"3.	c #303030",
"4.	c #1C1C1C",
"5.	c #707070",
"                                                                ",
"                                                                ",
"                                                                ",
"              . X . o                   . . O O X .             ",
"        . + @ # $ % & * .         . = - ; $ : : $ ; - = .       ",
"      O - > , < 1 2 3 4 5 +     + 5 6 7 8 9 0 0 9 8 8 6 5 +     ",
"    O 5 q w e r t 8 y u 3 i p a s d 3 f ; g h h j k 6 l 3 : *   ",
"  . z q x r : z c v b n e m M N < B M * V C Z Z A S a : D y F O ",
"  + > w r # G       X H J u r K w L P I V U Z Y T S G R E w : I ",
"  H 7 e : G           . W 3 e Q ! D t F S ~ ^ / ( S $ , e ) @ . ",
". _ y r -               * n x ` ' ] , d [ { } | { K d , ] H X   ",
". F 1 t c . O  . .O .    ...x X.- o.R N f 4 O.O.4 +.F z + o     ",
". ; 2 , P 5 : @.@.: #.* = 4 $.< 7 %.7 X.i z c &.p G X           ",
"  ' d w r E u $.$.u m 4 *.%.=.$.e y 2 u < J z .                 ",
"  -.[ ;.=.x L t :.d w >.e >.< ,.F #.k @.<.w 1.@ .               ",
"X b m =.=.y s & - _ n x =.x Q &.X   . p k r w f p               ",
"c ! >.< < x 3 ) ..J d $.=.$.J *         G i 2 d & o             ",
"k < 2 : F [ D u x x >.=.=.=.m #..         v t e $ X             ",
"+.>., @ O v ; ] Q @.2.x u u u s I         + 4 u +.G             ",
"Q >.) *     . I  .+ i 1 D < $.@. .        p J x +.G             ",
"Q >.J =           . b D u u $.@. .        v 7 1 $ X             ",
"+.>.7 v             3.7 =.=.u : I       G i 2 L & o             ",
"k D D $ I           G s 1 =.< k O o X * % r w ` p               ",
"-.2.$., P I       o G $ D =.w n F P F ,.B w 1.@ .               ",
"O k m >.8 $ H * 4.- : r $.e D u e y e x < J z X                 ",
"  p 5.m >.D 8 n ! r 1 >.L : % Q K t q ,.R c .                   ",
"    p k ! < x >.>.x < 1._  .X + a c c = X                       ",
"      O c b ] Q Q ] b c X                                       ",
"          . I  . .I .                                           ",
"                                                                ",
"                                                                ",
"                                                                "
};
