/* XPM */
static char * image_name[]={
"32 32 81 2",
"  	c #000000",
". 	c #000001",
"X 	c #050505",
"o 	c #0F0F0F",
"O 	c #1C1C1C",
"+ 	c #2F2F64",
"@ 	c #080808",
"# 	c #232375",
"$ 	c #0055AF",
"% 	c #0065D2",
"& 	c #006ADB",
"* 	c #0066D2",
"= 	c #0055B0",
"- 	c #222298",
"; 	c #030303",
": 	c #141414",
"> 	c #0063CD",
", 	c #0075F2",
"< 	c #007AFD",
"1 	c #007BFF",
"2 	c #007AFC",
"3 	c #0079FC",
"4 	c #007BFE",
"5 	c #1A1A1A",
"6 	c #004FA4",
"7 	c #0072EC",
"8 	c #0076F5",
"9 	c #006CE0",
"0 	c #005EC3",
"q 	c #0050A6",
"w 	c #005EC2",
"e 	c #0077F6",
"r 	c #0076F4",
"t 	c #004691",
"y 	c #262626",
"u 	c #2B2B2B",
"i 	c #2E2E2E",
"p 	c #292929",
"a 	c #004690",
"s 	c #0050A4",
"d 	c #0062CB",
"f 	c #171717",
"g 	c #4D4D4D",
"h 	c #8F8F8F",
"j 	c #B0B0B0",
"k 	c #B8B8B8",
"l 	c #949494",
"z 	c #575757",
"x 	c #0064CE",
"c 	c #121212",
"v 	c #858585",
"b 	c #E3E3E3",
"n 	c #EBEBEB",
"m 	c #DCDCDC",
"M 	c #8A8A8A",
"N 	c #006ADC",
"B 	c #0A0A0A",
"V 	c #363636",
"C 	c #6B6B6B",
"Z 	c #545454",
"A 	c #878787",
"S 	c #D1D1D1",
"D 	c #E5E5E5",
"F 	c #8C8C8C",
"G 	c #CCCCCC",
"H 	c #DEDEDE",
"J 	c #5C5C5C",
"K 	c #0066D3",
"L 	c #828282",
"P 	c #242424",
"I 	c #0D0D0D",
"U 	c #B3B3B3",
"Y 	c #0051A7",
"T 	c #B5B5B5",
"R 	c #737373",
"E 	c #0077F5",
"W 	c #007AFE",
"Q 	c #004590",
"! 	c #0063CE",
"~ 	c #007BFD",
"^ 	c #0054AF",
"                                                                ",
"                                                                ",
"                                                                ",
"                                                                ",
"                                .                               ",
"                      . X o O + + O o X .                       ",
"                  . @ + # $ % & & * = - + @ .                   ",
"                ; : - > , < 1 2 3 4 < , > - : ;                 ",
"              ; 5 6 7 1 8 9 0 q q w 9 e 4 7 6 O ;               ",
"              : 6 r 2 & t # y u i p # a & 2 r s : .             ",
"            @ - 7 2 d # f g h j k l z y # d 2 7 - @             ",
"          . + x 4 & # X c v b b b n m M p # N 4 > + .           ",
"          X # , e t B   ; V C Z Z A S D F p t 8 , - X           ",
"          o = < 9 # .     ; @ ; ; c z G H J # 9 < = o           ",
"          O K 1 0 f                 o L n h P w 4 K O           ",
"          + & 2 q I                 ; Z b U u Y 2 N +           ",
"          + N 2 Y I                 ; g m T i Y 3 & +           ",
"          O K 4 w :                 ; u L R y w 1 % O           ",
"          o $ < 9 # .                 ; o c # 9 < $ o           ",
"          X # , E t B                     B t E , # X           ",
"          . + > W N # X                 X # & 4 x + .           ",
"            @ - 7 3 d # I .         . I # d 2 7 - @             ",
"            . : 6 8 2 N t # : I I f # Q & 3 E 6 : .             ",
"              ; O s 7 W 8 9 0 Y q w 9 e 4 7 6 O ;               ",
"                . : - ! , ~ 1 2 2 1 2 , > - : ;                 ",
"                  . @ + # $ % N & K ^ - + @ .                   ",
"                      . X o O + + O o X .                       ",
"                                                                ",
"                                                                ",
"                                                                ",
"                                                                ",
"                                                                "
};
