/* XPM */
static char * image_name[]={
"32 32 102 2",
"  	c #000000",
". 	c #030303",
"X 	c #050505",
"o 	c #000001",
"O 	c #141414",
"+ 	c #4F4F4F",
"@ 	c #696969",
"# 	c #5E5E5E",
"$ 	c #303030",
"% 	c #3B3B3B",
"& 	c #C7C7C7",
"* 	c #F0F0F0",
"= 	c #E8E8E8",
"- 	c #8F8F8F",
"; 	c #424242",
": 	c #DBDBDB",
"> 	c #FFFFFF",
", 	c #FAFAFA",
"< 	c #969696",
"1 	c #121212",
"2 	c #DCDCDC",
"3 	c #949494",
"4 	c #0F0F0F",
"5 	c #4A4A4A",
"6 	c #DEDEDE",
"7 	c #5C5C5C",
"8 	c #E5E5E5",
"9 	c #F7F7F7",
"0 	c #363636",
"q 	c #B5B5B5",
"w 	c #A6A6A6",
"e 	c #545454",
"r 	c #080808",
"t 	c #242424",
"y 	c #2F2F64",
"u 	c #0D0D0D",
"i 	c #0A0A0A",
"p 	c #1A1A1A",
"a 	c #004EA1",
"s 	c #0067D6",
"d 	c #0064CF",
"f 	c #004288",
"g 	c #4D4D4D",
"h 	c #666666",
"j 	c #828282",
"k 	c #6B6B6B",
"l 	c #1F1F1F",
"z 	c #004187",
"x 	c #0075F2",
"c 	c #007CFF",
"v 	c #016FE5",
"b 	c #232375",
"n 	c #9E9E9E",
"m 	c #B8B8B8",
"M 	c #CFCFCF",
"N 	c #E0E0E0",
"B 	c #EDEDED",
"V 	c #F5F5F5",
"C 	c #D6D6D6",
"Z 	c #575757",
"A 	c #0252A8",
"S 	c #007BFD",
"D 	c #007BFF",
"F 	c #1E90FF",
"G 	c #5F929E",
"H 	c #787878",
"J 	c #BABABA",
"K 	c #FCFCFC",
"L 	c #6E6E6E",
"P 	c #054385",
"I 	c #0074F1",
"U 	c #017CFF",
"Y 	c #B0E2FF",
"T 	c #212121",
"R 	c #1C1C1C",
"E 	c #004D9F",
"W 	c #086CD7",
"Q 	c #729FFF",
"! 	c #F0F8FF",
"~ 	c #171717",
"^ 	c #A1A1A1",
"/ 	c #F2F2F2",
"( 	c #D9D9D9",
") 	c #C2C2C2",
"_ 	c #8A8A8A",
"` 	c #454545",
"' 	c #6A6A8D",
"] 	c #E3E3E3",
"[ 	c #7D7D7D",
"{ 	c #2E2E2E",
"} 	c #D4D4D4",
"| 	c #9C9C9C",
" .	c #7A7A7A",
"..	c #404040",
"X.	c #292929",
"o.	c #D1D1D1",
"O.	c #B3B3B3",
"+.	c #525252",
"@.	c #919191",
"#.	c #A3A3A3",
"$.	c #C9C9C9",
"%.	c #383838",
"                                                                ",
"                                    . X . o                     ",
"                                  O + @ # $ X                   ",
"                                o % & * = - O                   ",
"                                o ; : > , < 1                   ",
"                                  ; 2 > , 3 4                   ",
"                                  ; 2 > , 3 4                   ",
"                                  ; : > , 3 4                   ",
"                                  ; : > , 3 4                   ",
"                                  ; : > , 3 4                   ",
"                                  ; : > , 3 4                   ",
"                                  ; : > , 3 4                   ",
"                                  ; : > , 3 4                   ",
"                                  5 6 > , 3 4                   ",
"                                . 7 8 > 9 - 4                   ",
"                                . 0 3 q w e r                   ",
"                                  X t y y O o                   ",
"                        o X u i . p a s d f 4                   ",
"            o X u O t 0 g h j k l z x c c v b X                 ",
"    o 1 t 0 g h j n m M N B V C Z A S D F F G y u               ",
"    1 H J M N B V K > > > > > B L P I U F Y * & L t .           ",
"    T q > > > > > > > > K 9 B M Z R E W Q ! > K 8 w g 1         ",
"    ~ ^ K > > , / = ( ) w _ @ ` ~ . 4 y ' ] > > > , M [ { r     ",
"    r L } M m |  .7 ..X.~ u X o       o l H o., > > > B O.Z 1   ",
"    o l ` 0 T O r .                       1 +.q / > > > , } h i ",
"      o .                                   r 0 @.N > > > K #.p ",
"                                              . p @ $.9 > * j u ",
"                                                  u 5 w M ^ $ . ",
"                                                    X T %.l .   ",
"                                                        o       ",
"                                                                ",
"                                                                "
};
