/* XPM */
static char * image_name[]={
"32 32 176 2",
"  	c #000000",
". 	c #030303",
"X 	c #0D0D0D",
"o 	c #0F0F0F",
"O 	c #080808",
"+ 	c #262626",
"@ 	c #828282",
"# 	c #949494",
"$ 	c #8C8C8C",
"% 	c #3D3D3D",
"& 	c #404040",
"* 	c #D6D6D6",
"= 	c #EBEBEB",
"- 	c #D9D9D9",
"; 	c #DEDEDE",
": 	c #E5E5E5",
"> 	c #696969",
", 	c #050505",
"< 	c #000001",
"1 	c #171717",
"2 	c #383838",
"3 	c #292929",
"4 	c #424242",
"5 	c #B0B0B0",
"6 	c #545454",
"7 	c #525252",
"8 	c #5C5C5C",
"9 	c #616161",
"0 	c #4D4D4D",
"q 	c #737373",
"w 	c #D4D4D4",
"e 	c #1C1C1C",
"r 	c #858585",
"t 	c #CCCCCC",
"y 	c #B5B5B5",
"u 	c #4A4A4A",
"i 	c #363636",
"p 	c #A3A3A3",
"a 	c #95B4D4",
"s 	c #ABABAB",
"d 	c #999999",
"f 	c #969696",
"g 	c #919191",
"h 	c #575757",
"j 	c #FFFFFF",
"k 	c #FAFAFA",
"l 	c #A1A1A1",
"z 	c #1A1A1A",
"x 	c #ADADAD",
"c 	c #B0E2FF",
"v 	c #B0E0E6",
"b 	c #BABABA",
"n 	c #B3B3B3",
"m 	c #6B6B6B",
"M 	c #9C9C9C",
"N 	c #384B66",
"B 	c #1E90FF",
"V 	c #24568A",
"C 	c #242424",
"Z 	c #141414",
"A 	c #454545",
"S 	c #1F1F1F",
"D 	c #878787",
"F 	c #C9C9C9",
"G 	c #004997",
"H 	c #0062CA",
"J 	c #004B9C",
"K 	c #3B3B3B",
"L 	c #2F2F64",
"P 	c #232375",
"I 	c #0A0A0A",
"U 	c #E8E8E8",
"Y 	c #DCDCDC",
"T 	c #6E6E6E",
"R 	c #96AEC9",
"E 	c #0F58A5",
"W 	c #0065D1",
"Q 	c #0072EC",
"! 	c #0064CF",
"~ 	c #121212",
"^ 	c #F7F7F7",
"/ 	c #FCFCFC",
"( 	c #C7C7C7",
") 	c #2F4F4F",
"_ 	c #4955A5",
"` 	c #E3E3E3",
"' 	c #246AB4",
"] 	c #CFCFCF",
"[ 	c #636363",
"{ 	c #F0F0F0",
"} 	c #E6E6FA",
"| 	c #7C98D3",
" .	c #046BD9",
"..	c #729FFF",
"X.	c #B6E2CE",
"o.	c #B8B8B8",
"O.	c #F2F2F2",
"+.	c #87CEFA",
"@.	c #95BDE8",
"#.	c #95ADC7",
"$.	c #778899",
"%.	c #91D2DE",
"&.	c #0F5FB4",
"*.	c #1057A4",
"=.	c #107BEE",
"-.	c #0F7DF2",
";.	c #0F5DB0",
":.	c #9E9E9E",
">.	c #076DD9",
",.	c #96AEC7",
"<.	c #007CFF",
"1.	c #007BFF",
"2.	c #0075F3",
"3.	c #004A9A",
"4.	c #0055B1",
"5.	c #004185",
"6.	c #333333",
"7.	c #106ACB",
"8.	c #007BFE",
"9.	c #0076F3",
"0.	c #EDEDED",
"q.	c #F5F5F5",
"w.	c #D1D1D1",
"e.	c #595959",
"r.	c #006EE4",
"t.	c #0079FB",
"y.	c #0071E9",
"u.	c #006FE5",
"i.	c #0078F7",
"p.	c #0061C9",
"a.	c #787878",
"s.	c #004894",
"d.	c #0077F7",
"f.	c #0062CC",
"g.	c #005EC4",
"h.	c #005FC4",
"j.	c #C4C4C4",
"k.	c #0564C9",
"l.	c #0076F5",
"z.	c #004288",
"x.	c #0067D5",
"c.	c #0056B1",
"v.	c #DBDBDB",
"b.	c #85B2E3",
"n.	c #0D7CF3",
"m.	c #006CDF",
"M.	c #006FE6",
"N.	c #0075F2",
"B.	c #00448C",
"V.	c #8F8F8F",
"C.	c #077DFC",
"Z.	c #0052A9",
"A.	c #0079FA",
"S.	c #005FC5",
"D.	c #0175F1",
"F.	c #5E5E5E",
"G.	c #5F929E",
"H.	c #036BDB",
"J.	c #004188",
"K.	c #7E7E7E",
"L.	c #BFBFBF",
"P.	c #2E2E2E",
"I.	c #0C57A7",
"U.	c #067DFD",
"Y.	c #2B7ED5",
"T.	c #004EA1",
"R.	c #0078F9",
"E.	c #0059B9",
"W.	c #004084",
"Q.	c #127DEE",
"!.	c #666666",
"~.	c #006DE3",
"^.	c #18589D",
"/.	c #8AA5C1",
"(.	c #0057B4",
").	c #2B2B2B",
"                                                                ",
"                                                                ",
"                                                                ",
"                              . X o o o o o o o o o o o o O     ",
"                              + @ # # # # # # # # # # # $ % .   ",
"                              & * = - * * * * * * * * ; : > ,   ",
"                  < 1 2 3 O   4 * 5 6 7 8 > 9 6 6 7 0 q w > ,   ",
"                  e r t y u , 4 * # i @ p a s d f g h 0 t > ,   ",
"                . 6 ; j k l z 4 * # 4 x c c c v b n m 0 t > ,   ",
"                . 6 ; j k M 1 4 * # z N B B B V 3 C Z A t > ,   ",
"                  S D F 5 u , 4 * # o Z G H J z <     4 t > ,   ",
"              . Z K q D % O   4 * f e L P P 1 .     < 4 t > ,   ",
"        < I C 6 # t U Y T X < A - R E W Q ! P .       4 t > .   ",
"      ~ 2 q n ; ^ j j / ( ) L _ ` c B B B B ' L C C C 8 ] > ,   ",
"    I [ F = { k j j j j } |  ...} } c c c c v X.b o.o.F ` > .   ",
"    Z M { o.$ w j j j O.Y ..B ..v +.+.+.+.+.+.+.+.@.#.d $ % .   ",
"    S o.; 6 A ] j j j F $.B B v %.B B B B &.*.=.B -.;.S o ,     ",
"    C o.] & m = j j k :.L >.B ,...B <.1.2.P z P 3.4.5.I         ",
"    Z T q 6.p k j j k M 3 P P L 7.8.<.<.9.P O , O o X <         ",
"    . X X A * / 0.: q.w.e.~ O P r.t.y.u.i.p.P ,                 ",
"        I a.{ - a.8 n q.( 6 Z s.d.f.P P g.d.h.L .               ",
"        S x k l e , u ( ^ j.[ k.l.z.O , P x.d.c.z <             ",
"      < A - = > O   X 9 v.^ b.n.m.P <   O P M.N.B.I             ",
"      I a.{ ( 6.      1 V.} ..C.c.~       ~ Z.A.S.1             ",
"      S x q.# ~       . 7 v B D.P ,       . P Q M.P .           ",
"    . 0 v.: F..         C G.B H.L <       < e ! l.J.O           ",
"    I K.O.L.P.          o I.U.Y.L           X T.R.E.Z           ",
"    O > Y r o           O W.Q...!.O         . P ~.m.P <         ",
"      C @ u .           < 1 ^./.D Z           o P (.P ,         ",
"      . z o               . Z ).i X           < O 1 Z .         ",
"                            < < . <                 <           ",
"                                                                "
};
