/* XPM */
static char * image_name[]={
"32 32 172 2",
"  	c #000000",
". 	c #000001",
"X 	c #030303",
"o 	c #050505",
"O 	c #1A1A1A",
"+ 	c #5C5C5C",
"@ 	c #696969",
"# 	c #4D4D4D",
"$ 	c #0F0F0F",
"% 	c #3D3D3D",
"& 	c #CCCCCC",
"* 	c #E8E8E8",
"= 	c #E0E0E0",
"- 	c #DEDEDE",
"; 	c #EBEBEB",
": 	c #B0B0B0",
"> 	c #212121",
", 	c #424242",
"< 	c #D9D9D9",
"1 	c #C7C7C7",
"2 	c #8F8F8F",
"3 	c #8C8C8C",
"4 	c #949494",
"5 	c #BDBDBD",
"6 	c #242424",
"7 	c #D6D6D6",
"8 	c #9E9E9E",
"9 	c #C2C2C2",
"0 	c #969696",
"q 	c #C9C9C9",
"w 	c #9C9C9C",
"e 	c #B8B8B8",
"r 	c #919191",
"t 	c #141414",
"y 	c #121212",
"u 	c #454545",
"i 	c #363636",
"p 	c #333333",
"a 	c #2E2E2E",
"s 	c #383838",
"d 	c #232375",
"f 	c #005BBB",
"g 	c #0053AB",
"h 	c #4955A5",
"j 	c #DCDCDC",
"k 	c #ABABAB",
"l 	c #7A7A7A",
"z 	c #545454",
"x 	c #080808",
"c 	c #2F2F64",
"v 	c #0050A7",
"b 	c #006FE6",
"n 	c #007AFD",
"m 	c #0079FA",
"M 	c #729FFF",
"N 	c #E6E6FA",
"B 	c #ADADAD",
"V 	c #878787",
"C 	c #636363",
"Z 	c #0D0D0D",
"A 	c #262626",
"S 	c #171717",
"D 	c #0065D0",
"F 	c #0078F8",
"G 	c #0076F4",
"H 	c #017BFD",
"J 	c #ABBFD5",
"K 	c #7E88AB",
"L 	c #858585",
"P 	c #0057B5",
"I 	c #0073ED",
"U 	c #007AFC",
"Y 	c #0052AA",
"T 	c #004084",
"R 	c #015DBF",
"E 	c #B0E2FF",
"W 	c #89B4E2",
"Q 	c #999999",
"! 	c #828282",
"~ 	c #4F4F4F",
"^ 	c #004EA0",
"/ 	c #006EE3",
"( 	c #007AFB",
") 	c #0063CE",
"_ 	c #1C1C1C",
"` 	c #5470AA",
"' 	c #87CEFA",
"] 	c #B0E0E6",
"[ 	c #292929",
"{ 	c #0064CE",
"} 	c #0078F7",
"| 	c #007CFF",
" .	c #007BFF",
"..	c #0077F6",
"X.	c #3167A1",
"o.	c #384B66",
"O.	c #B6E2CE",
"+.	c #004EA1",
"@.	c #006FE5",
"#.	c #0075F1",
"$.	c #0074EF",
"%.	c #007BFE",
"&.	c #0071EA",
"*.	c #0052A9",
"=.	c #0061C8",
"-.	c #83ADD9",
";.	c #91D2DE",
":.	c #7C98D3",
">.	c #004083",
",.	c #0065D1",
"<.	c #0077F7",
"1.	c #0064CF",
"2.	c #222298",
"3.	c #005DC1",
"4.	c #0076F3",
"5.	c #0079F9",
"6.	c #0070E8",
"7.	c #A6A6A6",
"8.	c #474747",
"9.	c #1E90FF",
"0.	c #0A0A0A",
"q.	c #0074F0",
"w.	c #0075F2",
"e.	c #0058B6",
"r.	c #0078F9",
"t.	c #A3A3A3",
"y.	c #247AD7",
"u.	c #1F1F1F",
"i.	c #0059B8",
"p.	c #0071EB",
"a.	c #00428A",
"s.	c #0063CB",
"d.	c #BBBDC0",
"f.	c #BABABA",
"g.	c #F0F8FF",
"h.	c #0054AD",
"j.	c #007BFD",
"k.	c #0051A7",
"l.	c #004D9E",
"z.	c #006DE3",
"x.	c #0079FB",
"c.	c #005DBF",
"v.	c #004FA4",
"b.	c #0068D6",
"n.	c #80BDFF",
"m.	c #95BDE7",
"M.	c #6E6E6E",
"N.	c #0060C7",
"B.	c #006ADA",
"V.	c #004085",
"C.	c #0056B1",
"Z.	c #0377F3",
"A.	c #107EF4",
"S.	c #1068C6",
"D.	c #004C9D",
"F.	c #006EE4",
"G.	c #004B9B",
"H.	c #00448C",
"J.	c #0072EC",
"K.	c #006BDE",
"L.	c #004793",
"P.	c #005FC6",
"I.	c #0069D9",
"U.	c #00438B",
"Y.	c #004DA0",
"T.	c #0058B5",
"R.	c #0068D7",
"E.	c #0065D2",
"W.	c #0057B3",
"Q.	c #0073EE",
"!.	c #004186",
"~.	c #0067D6",
"                                                                ",
"                                                                ",
"                                                                ",
"                                    . X o X o o o o o o X .     ",
"                                    O + @ @ @ @ @ @ @ @ # $     ",
"                                    % & * = - = = = = ; : >     ",
"                                    , < 1 2 3 2 2 3 4 < 5 6     ",
"                                    , 7 : 8 9 9 9 5 0 q 5 6     ",
"                                    , 7 : w 5 5 5 e r 1 5 6     ",
"                              o t y u 7 w i p a 6 6 s 5 5 6     ",
"                          X y d f g h j k l 3 z x   6 5 5 6     ",
"                      . x c v b n m M N B V w C O Z A 5 5 6     ",
"                    X S d D F m G H M N J K w 2 L C i 5 5 6     ",
"                X $ d P I U b Y T R M N E M W Q ! ~ p 5 5 6     ",
"              x c ^ / ( ( ) d y x _ ` N E ' E ] r [ A 5 5 6     ",
"          X $ d { } |  ...v O X x c ` N E M ' ' M X.o.O.5 6     ",
"      . x c +.@.n #.$.n %.&.*.d d =.M N ] -.;.' ' ' :.7 5 A     ",
"    o O >.,.F <.1.2.d 3.4. .5.6.$.n M N 7.8.~ ` M 9.M E O.c X   ",
". 0.d f q.%.w.*.c x o c e.r. .| | ( M N t.p A o.y.9.M N O.c X   ",
". u.i.}  . .p.a.t X $ d s.U n m %.%.M N = d.f.O.E E N g.f.A     ",
". 0.d h.b j.n b k.d l.z.x.q.c.v.b.r.9.n.' ' ' ' m.7.0 4 M.t     ",
"    X y d N... .5.p.} U B.V.O Z d C.Z.9.9.9.A.S.d _ $ $ 0.X     ",
"        o c D.F.n  . .G G.t . X y H.J. .x.K.L.u.o               ",
"          . $ d P.G %.U I.U.c d Y.F.n $.T.d Z .                 ",
"              o u.H.R.m %.w.E.I.<.F ,.>.S X                     ",
"                . 0.d W.Q. .%.j.b k.c 0..                       ",
"                    X S !.~.Q.P.d y X                           ",
"                      . 0.c d u.o                               ",
"                          . X .                                 ",
"                                                                ",
"                                                                ",
"                                                                "
};
