/* XPM */
static char * image_name[]={
"32 32 120 2",
"  	c #000000",
". 	c #000001",
"X 	c #050505",
"o 	c #080808",
"O 	c #0A0A0A",
"+ 	c #232375",
"@ 	c #004895",
"# 	c #004792",
"$ 	c #121212",
"% 	c #0059B8",
"& 	c #0078FA",
"* 	c #0079FB",
"= 	c #0079FA",
"- 	c #0077F6",
"; 	c #004793",
": 	c #005BBC",
"> 	c #007BFF",
", 	c #007CFF",
"< 	c #005BBD",
"1 	c #004896",
"2 	c #171717",
"3 	c #005FC3",
"4 	c #0079FC",
"5 	c #0076F3",
"6 	c #0074F0",
"7 	c #0073EF",
"8 	c #0478F4",
"9 	c #1E90FF",
"0 	c #067AF6",
"q 	c #0074EF",
"w 	c #0072EB",
"e 	c #00438B",
"r 	c #030303",
"t 	c #004289",
"y 	c #0069D8",
"u 	c #295D93",
"i 	c #7C98D3",
"p 	c #33679D",
"a 	c #1F1F1F",
"s 	c #0D0D0D",
"d 	c #0054AE",
"f 	c #0061C8",
"g 	c #004085",
"h 	c #1A1A1A",
"j 	c #595959",
"k 	c #C4C4C4",
"l 	c #474747",
"z 	c #2F2F64",
"x 	c #141414",
"c 	c #1C1C1C",
"v 	c #00458F",
"b 	c #0060C6",
"n 	c #0052AA",
"m 	c #6E6E6E",
"M 	c #3B3B3B",
"N 	c #0F0F0F",
"B 	c #004D9F",
"V 	c #0060C7",
"C 	c #006ADB",
"Z 	c #0070E7",
"A 	c #0073ED",
"S 	c #006EE4",
"D 	c #0068D7",
"F 	c #005ABB",
"G 	c #004EA1",
"H 	c #005DC1",
"J 	c #8A8A8A",
"K 	c #BABABA",
"L 	c #292929",
"P 	c #006DE1",
"I 	c #007BFE",
"U 	c #0075F1",
"Y 	c #999999",
"T 	c #ADADAD",
"R 	c #006BDF",
"E 	c #0055B0",
"W 	c #006FE6",
"Q 	c #2B2B2B",
"! 	c #828282",
"~ 	c #0051A8",
"^ 	c #0074F1",
"/ 	c #0068D8",
"( 	c #424242",
") 	c #C7C7C7",
"_ 	c #004086",
"` 	c #005EC3",
"' 	c #006FE5",
"] 	c #0078F8",
"[ 	c #0072EC",
"{ 	c #006ADC",
"} 	c #0054AD",
"| 	c #212121",
" .	c #3D3D3D",
"..	c #8F8F8F",
"X.	c #E0E0E0",
"o.	c #404040",
"O.	c #004794",
"+.	c #222298",
"@.	c #757575",
"#.	c #B3B3B3",
"$.	c #D4D4D4",
"%.	c #E8E8E8",
"&.	c #F2F2F2",
"*.	c #FCFCFC",
"=.	c #EDEDED",
"-.	c #363636",
";.	c #A8A8A8",
":.	c #EBEBEB",
">.	c #FFFFFF",
",.	c #878787",
"<.	c #F7F7F7",
"1.	c #969696",
"2.	c #4A4A4A",
"3.	c #C2C2C2",
"4.	c #F5F5F5",
"5.	c #CCCCCC",
"6.	c #F0F0F0",
"7.	c #E5E5E5",
"8.	c #454545",
"9.	c #6B6B6B",
"                                                                ",
"                                                                ",
"                                                                ",
"                                                                ",
"                                                                ",
"                                . X o o o o o o o o o o o o X   ",
"                                O + @ @ @ @ @ @ @ @ @ @ @ # + X ",
"                                $ % & * = = = = * = = = = - ; o ",
"                                $ : > , > , > , , > > > > = @ o ",
"                                $ < > > > , > , > > > > > & @ o ",
"                                $ : > , , > > > > > > , > = 1 o ",
"                                $ : > > > , > > > > , > , = @ o ",
"                              . 2 3 4 5 6 7 8 9 0 6 7 q 7 w e o ",
"                            r 2 t y : + + + u i p + + + + + a r ",
"            . r .       . s + d f g h X r X j k l r r r r r .   ",
"    r O 2 z + + + a x O c v b n + O .     o m k M .             ",
". N + B V C Z A S D F G H b + x r         s J K L               ",
"N e P = > > , > > > I * U e s             $ Y T a               ",
"+ R > > > > > > , > > > * E $             a T Y $               ",
"+ W > > > > > > > , > > I F x             Q K ! O               ",
"x ~ ^ > > , > > > , > * / + o           r ( ) m X               ",
"r h _ ` ' 6 ] = - [ { } + O     . O |  .j ..X.Y o.| O .         ",
"  . o 2 + + t O.+.+ z $ r     r Q @.#.$.%.&.*.=.$.#.@.Q X       ",
"        . r X o X r .       r -.;.:.>.>.>.>.>.>.>.*.:.;.-.r     ",
"                            N ,.&.>.>.>.>.>.>.>.>.>.>.&.J N     ",
"                            N ..<.>.>.>.>.>.>.>.>.>.>.<.1.x     ",
"                            X 2.3.4.>.>.>.>.>.>.>.>.<.k 2.X     ",
"                              O o.1.5.%.6.4.4.6.7.5.Y 8.O       ",
"                                r 2 -.j 9.! ! 9.j -.2 r         ",
"                                      r X s O X r               ",
"                                                                ",
"                                                                "
};
