/* XPM */
static char * image_name[]={
"32 32 168 2",
"  	c #000000",
". 	c #030303",
"X 	c #000001",
"o 	c #050505",
"O 	c #2E2E2E",
"+ 	c #2F4F4F",
"@ 	c #171717",
"# 	c #080808",
"$ 	c #2B2B2B",
"% 	c #5F929E",
"& 	c #1E90FF",
"* 	c #0D4C8E",
"= 	c #121212",
"- 	c #363636",
"; 	c #595959",
": 	c #696969",
"> 	c #787878",
", 	c #0F0F0F",
"< 	c #7A7A7A",
"1 	c #D9D9D9",
"2 	c #729FFF",
"3 	c #0774E8",
"4 	c #00458F",
"5 	c #4F4F4F",
"6 	c #999999",
"7 	c #C2C2C2",
"8 	c #C4C4C4",
"9 	c #B6E2CE",
"0 	c #B0E0E6",
"q 	c #4D4D4D",
"w 	c #CFCFCF",
"e 	c #F0F8FF",
"r 	c #0C6FD9",
"t 	c #006FE6",
"y 	c #004289",
"u 	c #D1D1D1",
"i 	c #D4D4D4",
"p 	c #8F8F8F",
"a 	c #2C6FB6",
"s 	c #2C6BAD",
"d 	c #5C5C5C",
"f 	c #DBDBDB",
"g 	c #1A1A1A",
"h 	c #242424",
"j 	c #A6A6A6",
"k 	c #F7F7F7",
"l 	c #E6E6FA",
"z 	c #397CC5",
"x 	c #232375",
"c 	c #005FC6",
"v 	c #0C72DF",
"b 	c #7E88AB",
"n 	c #E5E5E5",
"m 	c #DCDCDC",
"M 	c #6B6B6B",
"N 	c #006CDF",
"B 	c #007BFF",
"V 	c #0068D7",
"C 	c #2F2F64",
"Z 	c #1F1F1F",
"A 	c #E0E0E0",
"S 	c #666666",
"D 	c #0D0D0D",
"F 	c #6E6E6E",
"G 	c #0B61BD",
"H 	c #1269C5",
"J 	c #89BEF7",
"K 	c #0A0A0A",
"L 	c #0070E7",
"P 	c #007CFF",
"I 	c #006BDD",
"U 	c #616161",
"Y 	c #DEDEDE",
"T 	c #F0F0F0",
"R 	c #3D3D3D",
"E 	c #C7C7C7",
"W 	c #F5F5F5",
"Q 	c #A0B1C3",
"! 	c #217ADA",
"~ 	c #005BBC",
"^ 	c #B0E2FF",
"/ 	c #BDBDBD",
"( 	c #1362B7",
") 	c #0B7BF2",
"_ 	c #0C7CF3",
"` 	c #125EAF",
"' 	c #EBEBEB",
"] 	c #333333",
"[ 	c #949494",
"{ 	c #F2F2F2",
"} 	c #045FC0",
"| 	c #83BEFE",
" .	c #D6D6D6",
"..	c #B8B8B8",
"X.	c #96AAC0",
"o.	c #85B2E2",
"O.	c #86B3E3",
"+.	c #B5B5B5",
"@.	c #828282",
"#.	c #5E5E5E",
"$.	c #212121",
"%.	c #005BBD",
"&.	c #1374DD",
"*.	c #919191",
"=.	c #9C9C9C",
"-.	c #B0B0B0",
";.	c #8A8A8A",
":.	c #383838",
">.	c #303030",
",.	c #ADADAD",
"<.	c #292929",
"1.	c #5773B8",
"2.	c #141414",
"3.	c #575757",
"4.	c #045EBF",
"5.	c #1A4B80",
"6.	c #3077C3",
"7.	c #7C98D3",
"8.	c #9E9E9E",
"9.	c #1176E2",
"0.	c #A8A8A8",
"q.	c #4A4A4A",
"w.	c #135BA8",
"e.	c #0168D6",
"r.	c #737373",
"t.	c #E8E8E8",
"y.	c #BABABA",
"u.	c #E3E3E3",
"i.	c #454545",
"p.	c #004895",
"a.	c #0068D6",
"s.	c #404040",
"d.	c #FCFCFC",
"f.	c #B3BBC4",
"g.	c #80B2E7",
"h.	c #FFFFFF",
"j.	c #FAFAFA",
"k.	c #EDEDED",
"l.	c #6A6A8D",
"z.	c #004996",
"x.	c #707070",
"c.	c #9FB1C4",
"v.	c #0D69CC",
"b.	c #CCCCCC",
"n.	c #545454",
"m.	c #262626",
"M.	c #05478C",
"N.	c #005DC1",
"B.	c #878787",
"V.	c #525252",
"C.	c #006DE2",
"Z.	c #0054AE",
"A.	c #1C1C1C",
"S.	c #0067D6",
"D.	c #B3B3B3",
"F.	c #0C529C",
"G.	c #026FE4",
"H.	c #0053AC",
"J.	c #0353A8",
"K.	c #004896",
"L.	c #474747",
"P.	c #87CEFA",
"I.	c #205EA2",
"U.	c #065AB5",
"Y.	c #096FDC",
"T.	c #80BEFF",
"R.	c #384B66",
"E.	c #0E4C8F",
"                                                                ",
"                                                                ",
"                    . . X                                       ",
"                  o O + @ X             . . # # o .             ",
"                X $ % & * = X     . @ - ; : > > : ; - @ .       ",
"                , < 1 2 3 4 = X = 5 6 7 8 9 0 0 9 8 8 6 5 =     ",
"              o q w e 2 r t y $ < u i p ; a & & s d 6 f i > g   ",
"              h j k l z x c v b n m M g x N B B V C Z > n A S # ",
"            D F n l 2 G @ x H J e w q K x L B P I C D U Y T > K ",
"          . R E W Q ! ~ = o x & ^ l / S C ( ) _ ` C : E ' j ] . ",
"          g [ { w d } ~ =   # x & | l  ...X.o.O.X.+.u E @.O o   ",
"        # #.Y ' < $.~ %.=     K x &.& b *.=.-.-.=.;.S :.= X     ",
"      X >.+.W ,.<.= ~ %.=   . = C 1.& & C @ $.$.2.D o           ",
"      = @.T 1 3.o = %.4.h >.#.[ 8 A 2 & 5.#                     ",
"    o q u T ;.2.o $.6.7.8.8 n W T i 2 9.C .                     ",
"    <.0.W 7 q.] d 6  .l k T  .,.> q.w.e.C X                     ",
"  D r.t.W y.=.8 t.k e u.-.> i.Z K # p.a.C                       ",
". s.E d.d.W W T 1 f.g.7.O K .     # p.a.C X                     ",
"D @.{ h.h.j.u.y.6 *.7.7.C .       # p.V C                       ",
"# F k.h.h.j.' u.n T l ^ l.D       # z.a.C                       ",
"# x.T h.h.h.W u. .8 c.2 v.x o     # p.a.C                       ",
"# d b.{ h.d.m *.n.O m.M.t N.C .   # p.V C                       ",
"  = i.B.E ' { w [ V.Z g 4 C.Z.A.. # p.S.C                       ",
"    . = ] r.D.u.T m 0.S C F.G.H.A.K p.V C                       ",
"          # h d =. .T t./ b & & J.Z K.V C X                     ",
"              . g L.B.E ' T l P.2 I.U.V C                       ",
"                  X = ] r.D.u.W l 0 & Y.C                       ",
"                      X K m.d 8. .l T.2 + .                     ",
"                            o g L.B.7.2 R..                     ",
"                                . 2.R.E.Z .                     ",
"                                  X K K .                       ",
"                                                                "
};
