/* XPM */
static char * image_name[]={
"32 32 103 2",
"  	c #000000",
". 	c #030303",
"X 	c #000001",
"o 	c #0D0D0D",
"O 	c #242424",
"+ 	c #303030",
"@ 	c #171717",
"# 	c #121212",
"$ 	c #384B66",
"% 	c #5470AA",
"& 	c #5C5C5C",
"* 	c #141414",
"= 	c #155190",
"- 	c #7C98D3",
"; 	c #A6A6A6",
": 	c #3B3B3B",
"> 	c #145295",
", 	c #729FFF",
"< 	c #D1D1D1",
"1 	c #6E6E6E",
"2 	c #134F8E",
"3 	c #E0E0E0",
"4 	c #949494",
"5 	c #1F1F1F",
"6 	c #0C4B8F",
"7 	c #E6E6FA",
"8 	c #B0B0B0",
"9 	c #333333",
"0 	c #0A4A8E",
"q 	c #C9C9C9",
"w 	c #4A4A4A",
"e 	c #050505",
"r 	c #0A0A0A",
"t 	c #DBDBDB",
"y 	c #696969",
"u 	c #080808",
"i 	c #232375",
"p 	c #1E90FF",
"a 	c #B0E2FF",
"s 	c #E8E8E8",
"d 	c #828282",
"f 	c #3D3D3D",
"g 	c #424242",
"h 	c #292929",
"j 	c #337FD0",
"k 	c #EDEDED",
"l 	c #969696",
"z 	c #575757",
"x 	c #7E88AB",
"c 	c #ABBFD6",
"v 	c #B6E2CE",
"b 	c #BABDC1",
"n 	c #B3B3B3",
"m 	c #999999",
"M 	c #4D4D4D",
"N 	c #363636",
"B 	c #2F2F64",
"V 	c #206EC1",
"C 	c #87CEFA",
"Z 	c #ABABAB",
"A 	c #3A72AD",
"S 	c #8FBEEF",
"D 	c #DEDEDE",
"F 	c #CFCFCF",
"G 	c #ADADAD",
"H 	c #383838",
"J 	c #0F0F0F",
"K 	c #235C99",
"L 	c #3D7CBF",
"P 	c #83B7EF",
"I 	c #F0F8FF",
"U 	c #D6D6D6",
"Y 	c #185495",
"T 	c #2A6CB3",
"R 	c #225C99",
"E 	c #2B71BC",
"W 	c #1C1C1C",
"Q 	c #0E5096",
"! 	c #86BEFA",
"~ 	c #83B6EC",
"^ 	c #034995",
"/ 	c #2762A1",
"( 	c #004895",
") 	c #0A7EFA",
"_ 	c #0178F6",
"` 	c #D9D9D9",
"' 	c #205A99",
"] 	c #0077F6",
"[ 	c #175FAC",
"{ 	c #A1A1A1",
"} 	c #044C99",
"| 	c #0076F5",
" .	c #2B2B2B",
"..	c #174C85",
"X.	c #737373",
"o.	c #B0E0E6",
"O.	c #2A69AD",
"+.	c #1A1A1A",
"@.	c #666666",
"#.	c #5773B8",
"$.	c #212121",
"%.	c #2F4F4F",
"&.	c #0077F5",
"                                                    . . .       ",
"                                                X o O + @ X     ",
"                                              X # $ % & *       ",
"                                            X * = - ; : .       ",
"                                          X # > , < 1 o         ",
"                                        X # 2 , 3 4 5           ",
"                                      X # 6 , 7 8 9 .           ",
"                                      # 0 , 7 q w e             ",
"                                    r $ , 7 t y o               ",
"  X .                             u i p a s d @                 ",
"  r 5 + f g : h 5 # r e X       e i j a k l O X                 ",
"  e 5 z x c v b n m d y M N 5 # B V C k Z 9 .                   ",
"    . @ $ A - S a 7 7 s D F n m - C 7 G H .                     ",
"      X e J B i K L - P a 7 7 7 7 I U $ u                       ",
"            X . r * B i Y T - - C 7 a R r                       ",
"                    X . u J @ i E a 7 - W X                     ",
"                              u Q ! I ~ i .                     ",
"                              u ^ , 7 a / o                     ",
"                              u ( p a 7 - 5                     ",
"                              u ( ) , 7 ~ i .                   ",
"                              u ( _ - ` a ' r                   ",
"                              u ( ] [ { 7 - @                   ",
"                              u ( ] } & U , i X                 ",
"                              u ( | (  .8 C ..e                 ",
"                              u ( | ( # X.o.O.J                 ",
"                              u ( ] ( u 9 G - +.                ",
"                              u ( | ( u o @.#.B X               ",
"                              u ( | ( u   $.%.W X               ",
"                              u ( &.( u   . J e                 ",
"                              u ( ] ( u                         ",
"                              u ( ] ( u                         ",
"                              u ( | ( u                         "
};
