/* XPM */
static char * image_name[]={
"32 32 114 2",
"  	c #000000",
". 	c #030303",
"X 	c #121212",
"o 	c #292929",
"O 	c #1C1C1C",
"+ 	c #080808",
"@ 	c #0F0F0F",
"# 	c #2E2E2E",
"$ 	c #5E5E5E",
"% 	c #949494",
"& 	c #BDBDBD",
"* 	c #A8A8A8",
"= 	c #0D0D0D",
"- 	c #000001",
"; 	c #262626",
": 	c #525252",
"> 	c #878787",
", 	c #D6D6D6",
"< 	c #D1D1D1",
"1 	c #E8E8E8",
"2 	c #F5F5F5",
"3 	c #969696",
"4 	c #171717",
"5 	c #141414",
"6 	c #050505",
"7 	c #0A0A0A",
"8 	c #242424",
"9 	c #858585",
"0 	c #B8B8B8",
"q 	c #CFCFCF",
"w 	c #ABABAB",
"e 	c #787878",
"r 	c #636363",
"t 	c #C4C4C4",
"y 	c #EBEBEB",
"u 	c #6E6E6E",
"i 	c #2F2F64",
"p 	c #0053AC",
"a 	c #0058B5",
"s 	c #232375",
"d 	c #1F1F1F",
"f 	c #454545",
"g 	c #B0B0B0",
"h 	c #D4D4D4",
"j 	c #7D7D7D",
"k 	c #DEDEDE",
"l 	c #3D3D3D",
"z 	c #0073ED",
"x 	c #0078F8",
"c 	c #0067D5",
"v 	c #004085",
"b 	c #3B3B3B",
"n 	c #A3A3A3",
"m 	c #F0F0F0",
"M 	c #A1A1A1",
"N 	c #004083",
"B 	c #0075F2",
"V 	c #0065D0",
"C 	c #005CBE",
"Z 	c #006CDE",
"A 	c #0057B3",
"S 	c #EDEDED",
"D 	c #C2C2C2",
"F 	c #616161",
"G 	c #6B6B6B",
"H 	c #004894",
"J 	c #0076F5",
"K 	c #004B9B",
"L 	c #0066D3",
"P 	c #ADADAD",
"I 	c #737373",
"U 	c #E0E0E0",
"Y 	c #004895",
"T 	c #0077F5",
"R 	c #006CDF",
"E 	c #1A1A1A",
"W 	c #0076F4",
"Q 	c #00458E",
"! 	c #004998",
"~ 	c #0071EA",
"^ 	c #0068D8",
"/ 	c #BABABA",
"( 	c #0072ED",
") 	c #004EA1",
"_ 	c #006BDF",
"` 	c #5C5C5C",
"' 	c #E3E3E3",
"] 	c #0056B2",
"[ 	c #0074EF",
"{ 	c #0060C6",
"} 	c #0070E7",
"| 	c #D9D9D9",
" .	c #005BBD",
"..	c #0073EF",
"X.	c #004DA0",
"o.	c #006CE0",
"O.	c #0069D9",
"+.	c #004691",
"@.	c #B5B5B5",
"#.	c #303030",
"$.	c #0077F6",
"%.	c #0060C7",
"&.	c #0065D2",
"*.	c #0056B3",
"=.	c #F7F7F7",
"-.	c #4F4F4F",
";.	c #424242",
":.	c #7F7F7F",
">.	c #004FA3",
",.	c #0067D6",
"<.	c #004186",
"1.	c #707070",
"2.	c #9C9C9C",
"3.	c #575757",
"                                                                ",
"                                                                ",
"                                                                ",
"                                                                ",
"                                                                ",
"                                                                ",
"                                                                ",
"                              . X o O +                         ",
"                        . @ # $ % & * $ = -                     ",
"                  . = ; : > & , < 1 2 3 4 5 4 6                 ",
"            - 7 8 : 9 0 < q w e r t y u i p a s 7 -             ",
"        + d f e g h h 0 j f d = : k q l s z x c v 4 .           ",
"      . b n < , 0 9 : ; 7 .   = 9 m M d N B V C Z A s 7         ",
"      7 e S D F o = .         ; 0 y G @ H J K d v L L v 4 .     ",
"      d P S I 7             . : U q b + Y T Y + 7 s A R A s 7 - ",
"    - f , , f -             = > m M E + Y W Q +   . E ! ~ ^ s 7 ",
"    7 e S P d               o / y G + + K ( s .   6 d ) z _ v = ",
"    d P S e 7             . ` ' q b - @ ] [ s . @ s { } C s = - ",
"  - f | | f -             X % 2 M E   X  ...s s X.o.O.+.O 6     ",
"  7 e m @.8       -     - #.t y G +   X  .$.%.&.} *.s = -       ",
"  d P =.g -.;.;.;.;.;.;.f :.1 q b     @ >.$.J ,.<.4 .           ",
"  # D =.1 , , , , , , , , ' 2 M E     . i ) >.s 7 -             ",
"  4 1.% 3 % % % % % % % % 3 2.3.+       . @ @ .                 ",
"  - = @ @ @ @ @ @ @ @ @ @ @ 4 =                                 ",
"                                                                ",
"                                                                ",
"                                                                ",
"                                                                ",
"                                                                ",
"                                                                ",
"                                                                ",
"                                                                "
};
