/* XPM */
static char *shaveClump[] = {
/* width height ncolors chars_per_pixel */
"32 32 240 2",
/* colors */
"   c #7991C6",
" . c #3F68B8",
" X c #A9ACB3",
" o c #2D54A3",
" O c #3F588D",
" + c #9095A1",
" @ c #315293",
" # c #8D939E",
" $ c #2C4F98",
" % c #4672C2",
" & c #33518B",
" * c #4F7FD8",
" = c #7D97CD",
" - c #91A8DA",
" ; c #80A5E7",
" : c #425E93",
" > c #5989E5",
" , c #ACB8D0",
" < c #A1B4D9",
" 1 c #8C9EC1",
" 2 c #C7C6C6",
" 3 c #4D7DD9",
" 4 c #C6C6C5",
" 5 c #6B90DC",
" 6 c #C4C4C3",
" 7 c #6B7790",
" 8 c #4F7CD1",
" 9 c #BAC0CD",
" 0 c #7DA3E7",
" q c #C3C2C2",
" w c #BCBFC5",
" e c #C1C0C0",
" r c #ABADB1",
" t c #BFBEBE",
" y c #BEBEBD",
" u c #4A75C2",
" i c #97AFDC",
" p c #2D5095",
" a c #4E81DD",
" s c #8E929B",
" d c #AEB4C1",
" f c #3E6DCA",
" g c #6E7B96",
" h c #C6C6C8",
" j c #BFC3CB",
" k c #AEB1B7",
" l c #4A79D9",
" z c #415E98",
" x c #507BCB",
" c c #789DE5",
" v c #3B5892",
" b c #2C53A1",
" n c #3662B8",
" m c #6B97EC",
" M c #3E6DCD",
" N c #35528C",
" B c #476EB8",
" V c #2F4C86",
" C c #507DCE",
" Z c #7E95C3",
" A c #8AA1D2",
" S c #BBBCC0",
" D c #5C6B87",
" F c #6994E3",
" G c #C6C5C4",
" H c #B0B2B5",
" J c #C4C3C2",
" K c #999DA5",
" L c #637391",
" P c #B2BCCE",
" I c #3B67B9",
" U c #BEBDBC",
" Y c #2C529D",
" T c #A7A8AC",
" R c #7099E3",
" E c #4D6899",
" W c #C6C7C7",
" Q c #315BAF",
" ! c #2F4E8C",
" ~ c #C5C5C6",
" ^ c #BFC2CA",
" / c #648EE1",
" ( c #96A9D0",
" ) c #C3C3C4",
" _ c #BABEC5",
" ` c #365696",
" ' c #4B76C5",
" ] c #4773CB",
" [ c #406DC4",
" { c #B3B3B4",
" } c #9EA0A6",
" | c #445E93",
".  c #446BB4",
".. c #516182",
".X c #3B5994",
".o c #4374D4",
".O c #3F5A8E",
".+ c #A4B3D0",
".@ c #315DB5",
".# c #757E8E",
".$ c #7C97CD",
".% c #C3C5CA",
".& c #A7AFBF",
".* c #4C7BD6",
".= c #8798BA",
".- c #5486EB",
".; c #7D8699",
".: c #435881",
".> c #33538F",
"., c #A4A5A8",
".< c #3B60A4",
".1 c #C6C6C6",
".2 c #C4C4C4",
".3 c #B9C0CD",
".4 c #3157A4",
".5 c #B7BECB",
".6 c #4069B6",
".7 c #C0C0C0",
".8 c #4F79C8",
".9 c #BABABA",
".0 c #6083C8",
".q c #C5C6C8",
".w c #537FCF",
".e c #5270AD",
".r c #4879D8",
".t c #517DCD",
".y c #3A5B9C",
".u c #A4AAB8",
".i c #ADB9CE",
".p c #B1B8C8",
".a c #4372C9",
".s c #B7B8BA",
".d c #446FC0",
".f c #2E5AB1",
".g c #2B56AE",
".h c #35579A",
".j c #5D7093",
".k c #9198A5",
".l c #2D529C",
".z c #8D94A1",
".x c #3D61A5",
".c c #5E90ED",
".v c #4E7EDA",
".b c #C7C7C6",
".n c #C1C4CA",
".m c #C6C5C5",
".M c #868C9A",
".N c #BBC1CE",
".B c #C4C3C3",
".V c #848A98",
".C c #4D7BCF",
".Z c #C2C1C1",
".A c #BFBFBE",
".S c #AAACB0",
".D c #4E78C6",
".F c #BEBDBD",
".G c #4C76C4",
".H c #BAB9B9",
".J c #325290",
".K c #4772BF",
".L c #C6C7C8",
".P c #8B8F98",
".I c #A0B5DE",
".U c #758DC1",
".Y c #3E588B",
".T c #517FD9",
".R c #B2B3B4",
".E c #BBC0CA",
".W c #B0BCD3",
".Q c #4C78CA",
".! c #335FB8",
".~ c #98AFD9",
".^ c #4D6796",
"./ c #6F94DF",
".( c #C7C6C5",
".) c #517ED2",
"._ c #C5C4C3",
".` c #3865C0",
".' c #ACADB1",
".] c #455C84",
".[ c #355592",
".{ c #C6C6C7",
".} c #7494D3",
".| c #8EA8DC",
"X  c #4B7BD9",
"X. c #3B69C6",
"XX c #2F58AD",
"Xo c #4F7BC9",
"XO c #B1BBD0",
"X+ c #335393",
"X@ c #667BA4",
"X# c #8FAAE0",
"X$ c #294C93",
"X% c #527FCF",
"X& c #8FA7D6",
"X* c #3966BD",
"X= c #AFBBD1",
"X- c #A3B5D9",
"X; c #9DB4DD",
"X: c #A7B6D3",
"X> c #5083E4",
"X, c #4E81E2",
"X< c #6695E9",
"X1 c #9FA3AA",
"X2 c #466EB9",
"X3 c #4168B4",
"X4 c #647EB2",
"X5 c #4674D0",
"X6 c #3761B4",
"X7 c #305396",
"X8 c #A6A8AA",
"X9 c #3D61A6",
"X0 c #2D4F93",
"Xq c #9AADD3",
"Xw c #C7C7C7",
"Xe c #426DC2",
"Xr c #6D7A93",
"Xt c #315BAE",
"Xy c #94AAD7",
"Xu c #C1C4CB",
"Xi c #355CA8",
"Xp c #C5C5C5",
"Xa c #618DE7",
"Xs c #2D4C89",
"Xd c #AEB0B5",
"Xf c #B4BED2",
"Xg c #BDC0C7",
"Xh c #405B95",
"Xj c #BBBEC5",
"Xk c #3B65BB",
"Xl c #BFBFBF",
"Xz c #3F66B5",
"Xx c #4E78C7",
"Xc c #BDBDBD",
"Xv c #BBBBBB",
"Xb c #4972C2",
"Xn c #C4C5C7",
"Xm c #BDC2CA",
"XM c #588CEB",
"XN c None",
/* pixels */
"XpXpXpXpXpXpXpXpXpXpXpXpXpXpXpXpXpXpXpXpXpXpXpXpXpXpXpXpXpXpXpXp",
"XpXpXpXpXpXpXpXpXpXpXpXp 2 4XpXpXpXpXpXpXpXpXpXpXpXpXpXpXpXpXpXp",
"XpXpXpXpXpXpXpXpXpXp e Z / ,XpXpXpXpXpXpXpXpXpXpXpXpXpXpXpXpXpXp",
"XpXpXpXpXpXpXpXpXpXpXc.4 3.-.{XpXpXpXpXpXpXpXpXpXpXpXpXpXpXpXpXp",
"XpXpXpXpXpXpXpXpXpXp 4.O.T.v.|XpXpXpXpXpXpXpXpXpXpXpXpXpXpXpXpXp",
"XpXpXpXpXpXpXpXpXpXp.mXr.C.)X> jXpXpXpXpXpXpXpXpXpXpXpXpXpXpXpXp",
"XpXpXpXpXpXpXpXpXpXpXp #.QX% 8 R 2XpXpXpXpXpXpXpXpXpXpXpXpXpXpXp",
"XpXpXpXpXpXpXpXpXpXpXp.'.K x.t.*X=XpXpXpXpXpXpXpXpXpXpXpXpXpXpXp",
"XpXpXpXpXpXpXpXpXpXpXp.9X3Xo.8 ' > WXpXpXpXpXpXpXpXpXpXpXpXpXpXp",
"XpXpXpXpXpXpXpXpXpXpXp.A.6 B uXx % iXpXpXpXpXpXpXpXpXpXpXpXpXpXp",
"XpXpXpXpXpXpXpXpXpXpXp.ZXz.x.D. X2 *XuXpXpXpXpXpXpXpXpXpXpXpXpXp",
"XpXpXpXpXpXpXpXpXpXpXpXl . ` C.J.w.h 0.1XpXpXpXpXpXpXpXpXpXpXpXp",
"XpXpXpXpXpXpXpXpXpXpXp.FXeX@Xb E.G.X.dXfXpXpXpXpXpXpXpXpXpXpXpXp",
"XpXpXpXpXpXpXpXpXpXpXp.RX5.uX9 1.^.}...cXwXpXpXpXpXpXpXpXpXpXpXp",
"XpXpXpXpXpXpXpXpXpXpXp K l S.yX:.VX< X.<X;XpXpXpXpXpXpXpXpXpXpXp",
"XpXpXpXpXpXpXpXpXpXpXp g 5.B zX-.H [Xm.P a.%XpXpXpXpXpXpXpXpXpXp",
"XpXpXpXpXpXpXpXpXpXp 4 vX& 4 | i 4.[.I G & ;.1XpXpXpXpXpXpXpXpXp",
"XpXpXpXpXpXpXpXpXpXp t Q.5 4 : -Xp 7 F.1X8.a.NXpXpXpXpXpXpXpXpXp",
"XpXpXpXpXpXpXpXpXpXp.z f.{ 4XhXyXp }.r.L 4.] m 2XpXpXpXpXpXpXpXp",
"XpXpXpXpXpXpXpXpXp 4.> =Xp 4 @XqXp yX6.3Xp { I.WXpXpXpXpXpXpXpXp",
"XpXpXpXpXpXpXpXpXp r.!XgXp._.l.iXp 4X+.~Xp 4 DXMXwXpXpXpXpXpXpXp",
"XpXpXpXpXpXpXpXp.( O.0.1XpXlXt.EXp 4 L./.1Xp UXi <XpXpXpXpXpXpXp",
"XpXpXpXpXpXpXpXpX1.@ _XpXp.S.`XnXpXp.MX XwXpXp.#X,.qXpXpXpXpXpXp",
"XpXpXpXpXpXpXp q p.U.1XpXp.; ].bXpXp T M hXpXp JX7X#XpXpXpXpXpXp",
"XpXpXpXpXpXp.1.jXk ~XpXp.1.Y.$.mXpXpXv n ^XpXpXp s.o.nXpXpXpXpXp",
"XpXpXpXpXpXp.kXX dXpXpXp.7 o.pXpXpXp 6 Y PXpXpXp.m V c.1XpXpXpXp",
"XpXpXpXpXpXd b.= 4XpXpXp +X*.1XpXpXp.mX0.+XpXpXpXp.,X. 9XpXpXpXp",
"XpXpXpXp.s $X4 2XpXpXp 4 N  .mXpXpXp 4 ! (XpXpXpXp 4.:Xa 2XpXpXp",
"XpXpXp.2X$.e.1XpXpXpXp H.g wXpXpXpXp 4Xs AXpXpXpXpXp {.fXOXpXpXp",
"XpXpXp.1.&XpXpXpXpXpXp 2Xj.1XpXpXpXp.m ).{XpXpXpXpXp.1 kXwXpXpXp",
"XpXpXpXpXpXpXpXpXpXpXpXpXpXpXpXpXpXpXpXpXpXpXpXpXpXpXpXpXpXpXpXp",
"XpXpXpXpXpXpXpXpXpXpXpXpXpXpXpXpXpXpXpXpXpXpXpXpXpXpXpXpXpXpXpXp"
};
