/* XPM */
static char *shaveBrush[] = {
/* width height ncolors chars_per_pixel */
"32 32 222 2",
/* colors */
"   c #8F8D89",
" . c #8D8B87",
" X c #8C8B86",
" o c #8B8985",
" O c #757676",
" + c #9A9997",
" @ c #8A8784",
" # c #717272",
" $ c #959392",
" % c #84817E",
" & c #83817D",
" * c #6D6E6E",
" = c #B6B4AF",
" - c #5B5A59",
" ; c #807D7A",
" : c #7F7D79",
" > c #8C8B89",
" , c #C1C0BD",
" < c #666667",
" 1 c #555453",
" 2 c #AFACA8",
" 3 c #646465",
" 4 c #AEACA7",
" 5 c #A7A4A0",
" 6 c #C7C6C6",
" 7 c #C6C6C5",
" 8 c #4A4A48",
" 9 c #A4A29D",
" 0 c #A3A09C",
" q c #A19E9A",
" w c #A09E99",
" e c #9F9C98",
" r c #9E9C97",
" t c #9D9A96",
" y c #9C9A95",
" u c #9B9894",
" i c #9A9893",
" p c #AAA8A6",
" a c #999692",
" s c #989691",
" d c #979690",
" f c #706F6D",
" g c #95928E",
" h c #94928D",
" j c #6E6D6B",
" k c #92908B",
" l c #918E8A",
" z c #908E89",
" x c #777777",
" c c #918E8D",
" v c #656565",
" b c #545351",
" n c #ACA9A4",
" m c #504F4D",
" M c #4E4D4B",
" N c #C7C7C5",
" B c #C6C5C4",
" V c #A5A39D",
" C c #C5C5C3",
" Z c #B5B3B0",
" A c #C4C3C2",
" S c #A29F9A",
" D c #C2C1C0",
" F c #A09D98",
" G c #7A7876",
" H c #878686",
" J c #ABA9A6",
" K c #71706D",
" L c #B0AFAE",
" P c #A7A7A5",
" I c #5F5E5B",
" U c #A3A1A1",
" Y c #A1A19F",
" T c #5B5A57",
" R c #8E8D89",
" E c #9E9D9C",
" W c #676666",
" Q c #8B8986",
" ! c #BCBAB6",
" ~ c #504E4C",
" ^ c #858380",
" / c #292929",
" ( c #83817E",
" ) c #C7C6C4",
" _ c #C3C2C0",
" ` c #7D7B78",
" ' c #575656",
" ] c #C1C0BE",
" [ c #1F1F1F",
" { c #BEBCBB",
" } c #BDBCBA",
" | c #B9B8B6",
".  c #A8A6A2",
".. c #C6C6C6",
".X c #B5B4B2",
".o c #6E6D69",
".O c #B4B2B1",
".+ c #B3B2B0",
".@ c #7C7B7A",
".# c #666561",
".$ c #ABAAA8",
".% c #9A9894",
".& c #A9A8A6",
".* c #A7A6A4",
".= c #969490",
".- c #605F5B",
".; c #95948F",
".: c #A5A4A2",
".> c #94928E",
"., c #93928D",
".< c #93908D",
".1 c #363635",
".2 c #8F8E89",
".3 c #8D8A87",
".4 c #8C8A86",
".5 c #747575",
".6 c #888682",
".7 c #949491",
".8 c #5E5D5C",
".9 c #5D5D5B",
".0 c #C5C3C1",
".q c #7F7C79",
".w c #8E8C8B",
".e c #B1AFAA",
".r c #8C8A89",
".t c #565554",
".y c #555553",
".u c #C0BFBC",
".i c #BFBDBB",
".p c #ABA9A4",
".a c #838280",
".s c #4D4D4B",
".d c #B8B7B4",
".f c #C7C7C6",
".g c #A6A39F",
".h c #C6C5C5",
".j c #A5A39E",
".k c #7F7E7C",
".l c #A4A19D",
".z c #A3A19C",
".x c #A2A19B",
".c c #A19F9A",
".v c #9F9D98",
".b c #9C9995",
".n c #9B9994",
".m c #9A9993",
".M c #ABA9A7",
".N c #757472",
".B c #9A9793",
".V c #989591",
".C c #3B3B39",
".Z c #96938F",
".A c #7F807F",
".S c #908D89",
".D c #7A7A7A",
".F c #6A6867",
".G c #787878",
".H c #898782",
".J c #707070",
".K c #B8B6B0",
".L c #585855",
".P c #9E9D9D",
".I c #656465",
".U c #BCBAB7",
".Y c #AAA8A2",
".T c #A9A6A1",
".R c #A8A6A0",
".E c #939392",
".W c #C7C6C5",
".Q c #B6B4B1",
".! c #807F7C",
".~ c #C5C4C3",
".^ c #8E8D8D",
"./ c #C3C2C1",
".( c #A19E99",
".) c #C1C0BF",
"._ c #AFAEAA",
".` c #9F9C97",
".' c #BFBEBD",
".] c #3E3E3B",
".[ c #3E3C3B",
".{ c #A5A4A0",
".} c #6C6B68",
".| c #A1A09C",
"X  c #676563",
"X. c #999894",
"XX c #63615F",
"Xo c #908E8B",
"XO c #575553",
"X+ c #81807C",
"X@ c #8C8C8A",
"X# c #B1AFAB",
"X$ c #797874",
"X% c #BEBDBB",
"X& c #BCBBB9",
"X* c #BBB9B8",
"X= c #73726E",
"X- c #181818",
"X; c #B9B7B6",
"X: c #B8B7B5",
"X> c #B7B5B4",
"X, c #C5C5C5",
"X< c #B5B3B2",
"X1 c #7A7A78",
"X2 c #AEADAB",
"X3 c #686663",
"X4 c #9A9994",
"X5 c #9A9794",
"X6 c #3D3D3C",
"X7 c #A8A7A5",
"X8 c #989592",
"X9 c #979591",
"X0 c #969590",
"Xq c #71706F",
"Xw c #A6A5A3",
"Xe c #95938F",
"Xr c #94938E",
"Xt c #A5A3A2",
"Xy c #A4A3A1",
"Xu c #A3A3A0",
"Xi c #383737",
"Xp c None",
/* pixels */
"X,X,X,X,X,X,X,X,X,X,X,X,X,X,X,X,X,X,X,X,X,X,X,X,X,X,X,X,X,X,X,X,",
"X,X,X,X,X,X,.W.WX,X,X,X,X,X,X,X,X,X,X,X,X,X,X,X,X,X,X,X,X,X,X,X,",
"X,X,X,X,X, ]XO : J )X,X,X,X,X,X,X,X,X,X,X,X,X,X,X,X,X,X,X,X,X,X,",
"X,X,X,X, C.[.-.S.4.6.U.hX,X,X,X,X,X,X,X,X,X,X,X,X,X,X,X,X,X,X,X,",
"X,X,X,X,.M.]X3.2.> z @X#..X,X,X,X,X,X,X,X,X,X,X,X,X,X,X,X,X,X,X,",
"X,X,X, 7 I m.# @ d.Z k o._ 7X,X,X,X,X,X,X,X,X,X,X,X,X,X,X,X,X,X,",
"X,X, 6.y 8.}X  &X8.m.V h . ZX,X,X,X,X,X,X,X,X,X,X,X,X,X,X,X,X,X,",
"X,...9.t.+ bX= %Xr e y.B.;   !X,X,X,X,X,X,X,X,X,X,X,X,X,X,X,X,X,",
"X,XyXt.'Xi.! ( R.= y q r.b s l.uX,X,X,X,X,X,X,X,X,X,X,X,X,X,X,X,",
"X,.. B 1X7 E.1 Q.%X9 w 0.v t s.<.0X,X,X,X,X,X,X,X,X,X,X,X,X,X,X,",
"X,X, B.~.&X-XwXu QX. a.j 9 w.` i.Z BX,X,X,X,X,X,X,X,X,X,X,X,X,X,",
"X,X,X,X2.s.~./ / KX5X0.B.Y.g.c eX4 u NX,X,X,X,X,X,X,X,X,X,X,X,X,",
"X,X, 7 |.. A [.*.) TXo., u 4 5.x.(.n. ..X,X,X,X,X,X,X,X,X,X,X,X,",
"X,X,X,X,.~ M./.h.C.r.{ Q   t.e 5.z q i.iX,X,X,X,X,X,X,X,X,X,X,X,",
"X,X,X,X, 6 6 BX6X< 6.F j.3 o.l.K.T 9 S.v.fX,X,X,X,X,X,X,X,X,X,X,",
"X,X,X,X,X,X,.7./ 6 ' Y B.o ^.H q = n V F ,X,X,X,X,X,X,X,X,X,X,X,",
"X,X,X,X,X,X,X, 7 -X; 7.a.w.| ;X+Xe.p 2.R.QX,X,X,X,X,X,X,X,X,X,X,",
"X,X,X,X,X,X,X,.~ A.. f.:X,X&.L `X$.q X g.dX,X,X,X,X,X,X,X,X,X,X,",
"X,X,X,X,X,X,X,X,X,.kX>X, {.N.~ GXX I ~.8.^ NX,X,X,X,X,X,X,X,X,X,",
"X,X,X,X,X,X,X,X,X,.WX,X*X1 7 + c.W A A U *.E 6X,X,X,X,X,X,X,X,X,",
"X,X,X,X,X,X,X,X,X,X,X, 7.W > EX,X,X,X, 7 $.J.P..X,X,X,X,X,X,X,X,",
"X,X,X,X,X,X,X,X,X,X,X,X, B.OX,X,X,X,X,X,.. H # P 7X,X,X,X,X,X,X,",
"X,X,X,X,X,X,X,X,X,X,X,X,X,X,X,X,X,X,X,X,X,.W.@.5 LX,X,X,X,X,X,X,",
"X,X,X,X,X,X,X,X,X,X,X,X,X,X,X,X,X,X,X,X,X,X, 7Xq OX:X,X,X,X,X,X,",
"X,X,X,X,X,X,X,X,X,X,X,X,X,X,X,X,X,X,X,X,X,X,X,.~ W xX%X,X,X,X,X,",
"X,X,X,X,X,X,X,X,X,X,X,X,X,X,X,X,X,X,X,X,X,X,X,X, D.I.G _X,X,X,X,",
"X,X,X,X,X,X,X,X,X,X,X,X,X,X,X,X,X,X,X,X,X,X,X,X,X, } v.D.~X,X,X,",
"X,X,X,X,X,X,X,X,X,X,X,X,X,X,X,X,X,X,X,X,X,X,X,X,X,X,.X <.A 7X,X,",
"X,X,X,X,X,X,X,X,X,X,X,X,X,X,X,X,X,X,X,X,X,X,X,X,X,X,X,.$ 3X@..X,",
"X,X,X,X,X,X,X,X,X,X,X,X,X,X,X,X,X,X,X,X,X,X,X,X,X,X,X,.h p.&.hX,",
"X,X,X,X,X,X,X,X,X,X,X,X,X,X,X,X,X,X,X,X,X,X,X,X,X,X,X,X,X,X,X,X,",
"X,X,X,X,X,X,X,X,X,X,X,X,X,X,X,X,X,X,X,X,X,X,X,X,X,X,X,X,X,X,X,X,"
};
