/* XPM */
static char * shaveSplit_xpm[] = {
"32 32 161 2",
"  	c #C5C5C5",
". 	c #CACACA",
"+ 	c #D3D3D3",
"@ 	c #D4D4D4",
"# 	c #C9C9C9",
"$ 	c #E5E5E5",
"% 	c #F9F9F9",
"& 	c #FCFCFC",
"* 	c #EFEFEF",
"= 	c #FAFAFA",
"- 	c #DEDEDE",
"; 	c #C6C6C6",
"> 	c #C8C8C8",
", 	c #ECECEC",
"' 	c #FEFEFE",
") 	c #F4F4F4",
"! 	c #FFFFFF",
"~ 	c #E1E1E1",
"{ 	c #C2C3C5",
"] 	c #C3C4C5",
"^ 	c #CFCFCF",
"/ 	c #D8D8D8",
"( 	c #D9D9D9",
"_ 	c #CBCCCD",
": 	c #8598BE",
"< 	c #6E87BB",
"[ 	c #BDC0C4",
"} 	c #C4C5C5",
"| 	c #91A0BF",
"1 	c #6582BA",
"2 	c #B5BAC3",
"3 	c #6380B9",
"4 	c #637FB9",
"5 	c #B0B6C3",
"6 	c #96A4C0",
"7 	c #6984BB",
"8 	c #BCBFC4",
"9 	c #A4AEC1",
"0 	c #BCBEC4",
"a 	c #7B91BD",
"b 	c #5D7CB9",
"c 	c #798FBC",
"d 	c #A1ACC0",
"e 	c #5F7CB9",
"f 	c #738BBC",
"g 	c #C0C1C4",
"h 	c #8B9CBE",
"i 	c #5173B8",
"j 	c #B8BCC4",
"k 	c #6A85BB",
"l 	c #AEB5C2",
"m 	c #BABEC4",
"n 	c #617FBA",
"o 	c #718ABC",
"p 	c #A9B1C2",
"q 	c #A9B2C2",
"r 	c #97A5C0",
"s 	c #8397BE",
"t 	c #6380BA",
"u 	c #B4B9C3",
"v 	c #C4C4C5",
"w 	c #758DBC",
"x 	c #4F72B8",
"y 	c #9AA6C0",
"z 	c #BDBFC4",
"A 	c #728BBC",
"B 	c #5576B8",
"C 	c #ABB2C2",
"D 	c #8195BD",
"E 	c #899BBE",
"F 	c #5778B9",
"G 	c #BEC0C4",
"H 	c #A3ADC1",
"I 	c #ADB4C2",
"J 	c #6783BA",
"K 	c #6B86BB",
"L 	c #A7B0C2",
"M 	c #A0ABC1",
"N 	c #6280BA",
"O 	c #C1C2C5",
"P 	c #6D87BB",
"Q 	c #B8BCC3",
"R 	c #5677B8",
"S 	c #6682BA",
"T 	c #8699BE",
"U 	c #6C86BB",
"V 	c #9AA7C0",
"W 	c #92A1BF",
"X 	c #5274B8",
"Y 	c #8D9DBF",
"Z 	c #8799BE",
"` 	c #BFC1C4",
" .	c #7990BC",
"..	c #6480BA",
"+.	c #5375B8",
"@.	c #8296BD",
"#.	c #C3C3C5",
"$.	c #8C9DBF",
"%.	c #6481BA",
"&.	c #91A1BF",
"*.	c #AFB6C3",
"=.	c #5979B9",
"-.	c #B1B7C3",
";.	c #4C70B7",
">.	c #6F89BB",
",.	c #B9BDC4",
"'.	c #607EBA",
").	c #A4ADC1",
"!.	c #5072B8",
"~.	c #ABB3C2",
"{.	c #90A0BF",
"].	c #8F9FBF",
"^.	c #7F94BD",
"/.	c #8A9BBE",
"(.	c #94A2BF",
"_.	c #5E7CB9",
":.	c #7D92BD",
"<.	c #627FBA",
"[.	c #AFB5C2",
"}.	c #8497BE",
"|.	c #7E93BD",
"1.	c #93A2BF",
"2.	c #889ABE",
"3.	c #748CBC",
"4.	c #768DBC",
"5.	c #9EAAC1",
"6.	c #8D9EBF",
"7.	c #788EBC",
"8.	c #6F88BB",
"9.	c #7A90BD",
"0.	c #B6BAC3",
"a.	c #5475B8",
"b.	c #B9BCC4",
"c.	c #98A6C0",
"d.	c #B7BBC3",
"e.	c #4D71B8",
"f.	c #6B85BB",
"g.	c #95A3C0",
"h.	c #788FBC",
"i.	c #9FAAC1",
"j.	c #6884BB",
"k.	c #8094BD",
"l.	c #A2ACC1",
"m.	c #AAB2C2",
"n.	c #A8B1C2",
"o.	c #8E9EBF",
"p.	c #778EBC",
"q.	c #9DA9C1",
"r.	c #909FBF",
"s.	c #8498BE",
"t.	c #9BA7C0",
"u.	c #8396BE",
"v.	c #A1ACC1",
"w.	c #B2B8C3",
"x.	c #6581BA",
"y.	c #8E9FBF",
"z.	c #6E88BB",
"A.	c #A6AFC1",
"B.	c #ACB3C2",
"C.	c #A5AFC1",
"D.	c #9CA8C0",
"                                                                ",
"                                                                ",
"                                                                ",
"                                                                ",
"                                                                ",
"                                                                ",
"                                                                ",
"                      . +                 @ .                   ",
"                  # $ % & * * * * * * * * & = - ;               ",
"                  > , ' ' ) ) ) ) ) ) ) ) ! ' ~   {             ",
"          ]           ^ / ;             ; ( _   : < {     [ }   ",
"          | 1 2                               3 4 5     6 7 ]   ",
"    8 9   0 a b c 5                       d e f g     h i 9     ",
"    j 7 k l   m h n o p                 q b r       s t u       ",
"      v w x y     z A B C               D E       9 F 0   G H   ",
"          I J K L     M N O           } P L     Q R L   [ S T   ",
"    G U V     W X Y     o Z           8 N `      ...  2 +.@.    ",
"    #.$.S %.&.  *.=.p   -.;.L         9 >.    ,.b -.j '. .      ",
"    }     l b H   ).!.~.  {...{       E @.    ].^.  Z a         ",
"    /.(.    y _.`   :.<.#.  >.[.      $.}.    @.{.  |.1.        ",
"    -.7 L   v =.2.    t 2   3.M       h :     ^.|   4.5.        ",
"      6.7.    A 3.    8.~.  9.r       E Z     :.(.  < ~.        ",
"      0.a.b.  h P     w M   D ].      2.2.    9.c.  J d.        ",
"      G e.l   H f.    a g.  2.E       Z h     h.i.{ j.[         ",
"      G i I   9 f.    k.6.  6.2.      2.Y     9.l.` U `         ",
"      G X m.  n.k     @.o.  $.}.      2.Z     p.q.{ J z         ",
"      ` +.L   ~.7     D r.  Y }.      $.s.     .t.  j.,.        ",
"      g R 9   [.7 }   D {.  6.u.      ].D     a r   7 2         ",
"      O F v.  w.j.v   k.|   o.@.      W |.    :.g.  < I         ",
"      { B q.  u x.]   9.y.  6.^.      g.p.    9.r.  z.v.        ",
"      ] 3.A.  b.w #.  q.L   -.B.      u C.    C.I   D.5         ",
"                                                                "};
