/* XPM */
static char *shaveToggleHairs[] = {
/* width height ncolors chars_per_pixel */
"32 32 475 2",
/* colors */
"   c #000000",
" . c #41332C",
" X c #B6B0AC",
" o c #6C5549",
" O c #6B5548",
" + c #29201B",
" @ c #3F312A",
" # c #554239",
" $ c #948A84",
" % c #3E3129",
" & c #544238",
" * c #6A5347",
" = c #281E1A",
" - c #534237",
" ; c #7F6455",
" : c #3D2F28",
" > c #695146",
" , c #261E18",
" < c #4C413A",
" 1 c #524036",
" 2 c #5B514C",
" 3 c #B0AAA6",
" 4 c #7C6052",
" 5 c #6D6057",
" 6 c #7D706A",
" 7 c #969593",
" 8 c #5C4C43",
" 9 c #443732",
" 0 c #58483F",
" q c #C6C4C2",
" w c #41352F",
" e c #B6B2AF",
" r c #C4C2C0",
" t c #948C87",
" y c #4D433E",
" u c #C2C0BE",
" i c #B2AEAB",
" p c #A29C98",
" a c #A19C97",
" s c #A09A96",
" d c #3A2F28",
" f c #342E2C",
" g c #BEBCBA",
" h c #4E3E35",
" j c #221A17",
" k c #634D43",
" l c #6C6059",
" z c #624D42",
" x c #785E51",
" c c #352923",
" v c #4B3A32",
" b c #9A9490",
" n c #4A3A31",
" m c #604B40",
" M c #765C4F",
" N c #C7C6C6",
" B c #C6C6C5",
" V c #B6B4B2",
" C c #95908B",
" Z c #A99F98",
" A c #B2B0AE",
" S c #827A75",
" D c #8F8A85",
" F c #595350",
" G c #4F4039",
" H c #5D524A",
" J c #9A9693",
" K c #90837C",
" L c #A9A6A5",
" P c #504B47",
" I c #ABA39D",
" U c #7A6D63",
" Y c #5A473D",
" T c #17120F",
" R c #43342D",
" E c #2C231D",
" W c #58453B",
" Q c #6E564A",
" ! c #57453A",
" ~ c #6D5649",
" ^ c #2B211C",
" / c #A09E9C",
" ( c #41322B",
" ) c #564339",
" _ c #857971",
" ` c #140E0C",
" ' c #3F3029",
" ] c #3E3028",
" [ c #534136",
" { c #B1ABA6",
" } c #ADA7A2",
" | c #564C46",
".  c #BBB7B3",
".. c #ABA5A0",
".X c #AAA39F",
".o c #B7B3AF",
".O c #C5C3C0",
".+ c #8E8C8A",
".@ c #A49D99",
".# c #A39D98",
".$ c #C2BFBD",
".% c #87766C",
".& c #908782",
".* c #241D18",
".= c #7F756E",
".- c #4F3F35",
".; c #655044",
".: c #0D0A08",
".> c #BEBBB9",
"., c #AEA9A6",
".< c #68625E",
".1 c #382C25",
".2 c #4E3D34",
".3 c #644E43",
".4 c #4D3D33",
".5 c #736055",
".6 c #634E42",
".7 c #BCB9B7",
".8 c #372A24",
".9 c #785F50",
".0 c #6C5F58",
".q c #4C3B32",
".w c #4B3B31",
".e c #352822",
".r c #A9A5A1",
".t c #C6C5C4",
".y c #C4C3C2",
".u c #C3C3C1",
".i c #7F675A",
".p c #C2C1C0",
".a c #4C443F",
".s c #93867E",
".d c #5C4F48",
".f c #4B3D34",
".g c #AAA7A5",
".h c #4B3B34",
".j c #060404",
".k c #5D4A3F",
".l c #050403",
".z c #1B1512",
".x c #312621",
".c c #A6A3A1",
".v c #95918D",
".b c #72594D",
".n c #5B483D",
".m c #191310",
".M c #45352E",
".N c #8A7C75",
".B c #18130F",
".V c #2E241E",
".C c #44352D",
".Z c #5A463C",
".A c #70574B",
".S c #736B65",
".D c #59463B",
".F c #2D221D",
".G c #A29F9D",
".H c #7D7772",
".J c #9B9996",
".K c #6E5E56",
".L c #7D7068",
".P c #9B928C",
".I c #6B5C53",
".U c #5B4A40",
".Y c #453731",
".T c #93918E",
".R c #99908A",
".E c #605752",
".W c #C5C2BF",
".Q c #6F6964",
".! c #6A5348",
".~ c #938A84",
".^ c #534238",
"./ c #110D0B",
".( c #685346",
".) c #261E19",
"._ c #C1BEBB",
".` c #524037",
".' c #71645C",
".] c #3B2F27",
".[ c #514036",
".{ c #675145",
".} c #665144",
".| c #BFBCB9",
"X  c #3A2D26",
"X. c #503E35",
"XX c #664F44",
"Xo c #8F8680",
"XO c #888583",
"X+ c #9D9691",
"X@ c #5D4E45",
"X# c #A2958C",
"X$ c #8B827C",
"X% c #6B5E56",
"X& c #A9A4A0",
"X* c #C7C6C4",
"X= c #716D69",
"X- c #776A65",
"X; c #C6C4C3",
"X: c #A6A09D",
"X> c #C5C4C2",
"X, c #7B695F",
"X< c #6B574C",
"X1 c #C3C2C0",
"X2 c #6A554B",
"X3 c #4D453F",
"X4 c #918A85",
"X5 c #BDBCBA",
"X6 c #9D9894",
"X7 c #644F45",
"X8 c #7D746E",
"X9 c #827169",
"X0 c #8F8379",
"Xq c #544D49",
"Xw c #604B41",
"Xe c #695E57",
"Xr c #080505",
"Xt c #332922",
"Xy c #594C44",
"Xu c #6F5D53",
"Xi c #755C4F",
"Xp c #745C4E",
"Xa c #483830",
"Xs c #5E493F",
"Xd c #745A4E",
"Xf c #8D7F77",
"Xg c #312720",
"Xh c #5D493E",
"Xj c #735A4D",
"Xk c #766E67",
"Xl c #C6C6C6",
"Xz c #5C493D",
"Xx c #1A1410",
"Xc c #30251F",
"Xv c #46362E",
"Xb c #655A53",
"Xn c #5B473C",
"Xm c #938E8A",
"XM c #736A64",
"XN c #9D9A97",
"XB c #B3ABA6",
"XV c #5D4B41",
"XC c #756E69",
"XZ c #827C79",
"XA c #68574F",
"XS c #817C78",
"XD c #2B211D",
"XF c #826758",
"XG c #29211B",
"XH c #6B5448",
"XJ c #6A5447",
"XK c #281F1A",
"XL c #3E3029",
"XP c #47433F",
"XI c #938983",
"XU c #271F19",
"XY c #3D3028",
"XT c #534137",
"XR c #8C8886",
"XE c #513F35",
"XW c #BFBBB8",
"XQ c #9E9791",
"X! c #ADA7A3",
"X~ c #5D4D44",
"X^ c #ABA5A1",
"X/ c #8B817B",
"X( c #BAB7B3",
"X) c #7A6D67",
"X_ c #A9A39F",
"X` c #897F79",
"X' c #C5C3C1",
"X] c #7C685F",
"X[ c #C3C1BF",
"X{ c #63554D",
"X} c #C1BFBD",
"X| c #B1ADAA",
"o  c #9F9995",
"o. c #8F8782",
"oX c #4F3F36",
"oo c #6E635B",
"oO c #624E42",
"o+ c #0A0806",
"o@ c #201915",
"o# c #BBB9B7",
"o$ c #362A24",
"o% c #4C3B33",
"o& c #624C42",
"o* c #4B3B32",
"o= c #614C41",
"o- c #775D50",
"o; c #1F1714",
"o: c #604C40",
"o> c #4A3931",
"o, c #8F8078",
"o< c #5E4A3E",
"o1 c #B7B5B3",
"o2 c #48372F",
"o3 c #C6C5C5",
"o4 c #C5C5C4",
"o5 c #564740",
"o6 c #948F8A",
"o7 c #B3B1AF",
"o8 c #53453D",
"o9 c #988C84",
"o0 c #47403B",
"oq c #372E28",
"ow c #635046",
"oe c #8B8581",
"or c #342A25",
"ot c #45372F",
"oy c #5A483D",
"ou c #181310",
"oi c #A3A19F",
"op c #938F8C",
"oa c #59463C",
"os c #2D221E",
"od c #6E574A",
"of c #2B221C",
"og c #41332B",
"oh c #57443A",
"oj c #6D5549",
"ok c #564439",
"ol c #6C5548",
"oz c #9F9D9B",
"ox c #40312A",
"oc c #564239",
"ov c #816656",
"ob c #6B5347",
"on c #544237",
"om c #5E534E",
"oM c #B3ACA8",
"oN c #B2ACA7",
"oB c #534036",
"oV c #7C7068",
"oC c #7B6E67",
"oZ c #AAA49F",
"oA c #6A5C53",
"oS c #635B56",
"oD c #877C76",
"oF c #514741",
"oG c #55443B",
"oH c #C2C0BD",
"oJ c #B1ACA9",
"oK c #B0ACA8",
"oL c #665145",
"oP c #231C17",
"oI c #392D26",
"oU c #4F3E35",
"oY c #654F44",
"oT c #4E3E34",
"oR c #644F43",
"oE c #382B25",
"oW c #ADA8A5",
"oQ c #372B24",
"o! c #4D3C33",
"o~ c #9C9691",
"o^ c #634D42",
"o/ c #725F54",
"o( c #624D41",
"o) c #4A3A30",
"o_ c #98928D",
"o` c #5F493E",
"o' c #C7C6C5",
"o] c #574840",
"o[ c #C5C4C3",
"o{ c #C3C2C1",
"o} c #938C88",
"o| c #C1C0BF",
"O  c #968981",
"O. c #AFACAA",
"OX c #746359",
"Oo c #624F44",
"OO c #AAA8A5",
"O+ c #9A9692",
"O@ c #5A4C46",
"O# c #312721",
"O$ c #A6A4A1",
"O% c #1B1412",
"O& c #5C493E",
"O* c #725A4D",
"O= c #2F251F",
"O- c #5B473D",
"O; c #71584C",
"O: c #5A473C",
"O> c #70584B",
"O, c #44342D",
"O< c #2D231D",
"O1 c #625851",
"O2 c #2C211C",
"O3 c #564338",
"O4 c #A29993",
"O5 c #6B645D",
"O6 c #6B625D",
"O7 c #80736B",
"O8 c #888480",
"O9 c #B8B3AF",
"O0 c #A8A19C",
"Oq c #786B63",
"Ow c #B6B1AD",
"Oe c #A69F9A",
"Or c #968D87",
"Ot c #7F7A77",
"Oy c #847972",
"Ou c #4D423C",
"Oi c #534138",
"Op c #695247",
"Oa c #524137",
"Os c #261D19",
"Od c #3C2E28",
"Of c #251D18",
"Og c #3B2E27",
"Oh c #B0ABA7",
"Oj c #A09994",
"Ok c #675045",
"Ol c #3A2E26",
"Oz c #665044",
"Ox c #BFBBB9",
"Oc c #6F615A",
"Ov c #4E3D33",
"Ob c #715C52",
"On c #B9B5B3",
"Om c #B8B5B2",
"OM c #887F79",
"ON c #C6C5C3",
"OB c #B6B3B0",
"OV c #A6A19D",
"OC c #C5C3C2",
"OZ c #C4C3C1",
"OA c #A49F9B",
"OS c #64574F",
"OD c #6A564B",
"OF c #77665B",
"OG c #C0BFBD",
"OH c #696461",
"OJ c #BEBDBB",
"OK c #4E3F36",
"OL c #BCBBB9",
"OP c #624E43",
"OI c #BBB9B8",
"OU c #090806",
"OY c #BAB9B7",
"OT c #AAA7A4",
"OR c #755D4F",
"OE c #1D1713",
"OW c #493931",
"OQ c #5F4A40",
"O! c #483930",
"O~ c #5E4A3F",
"O^ c #745B4E",
"O/ c #322621",
"O( c #5D4A3E",
"O) c #735B4D",
"O_ c #B6B5B3",
"O` c #312620",
"O' c #A6A3A0",
"O] c #47372F",
"O[ c #73594D",
"O{ c #46372E",
"O} c #5C483D",
"O| c #C5C5C5",
"+  c #B4B3B1",
"+. c #2F241E",
"+X c #817B75",
"+o c #B0AFAD",
"+O c #AEADAB",
"++ c #4E3F39",
"+@ c #4C3F37",
"+# c #8B8582",
"+$ c #453E3A",
"+% c #81726B",
"+& c #604E44",
"+* c #78716C",
"+= c #3F3834",
"+- c #5B483F",
"+; c None",
/* pixels */
"O|O|O|O|O|O|O|O|O|O|O|O|O|O|O|O| BXlO|O|O|O|O|O|O|O|O|O|O|O|O|O|",
"O|O|O|O|O|O|O|O|O|O|XlOCo'XlO|O|O|X;o'XlXlO|O|O|O|O|O|O|O|O|O|O|",
"O|O|O|O|O|O|Xlo3X[X'OZO0.R CX* No'OZ eX}ONo3 BO|O|O|O|O|O|O|O|O|",
"O|O|O|O|O|O| NXl gX: $X9OXo]oC 3 aX&.Lo}.S+#.>XlO|O|O|O|O|O|O|O|",
"O|O|O|O|O|O|XlOY L+*XIXEXd !XaXA.eoqX7 8 hXo.r.vo'O|O|O|O|O|O|O|",
"O|O|O|O|O|.yOLopO'Ouon.hO*.`XTO].] :o!ox.UOMXyXmOZO|O|O|O|O|O|O|",
"O|O|O|O|o' 7X= <.d |ox %O*.n (XYOf.V cO=or.Dom.E.PX(X'ONXlO|O|O|",
"O|O|O|Xl / F.HoF.[ &.DXs Eo%oI c.:O%.)./.B vof+@o,oZoHX[o3O|O|O|",
"O|O|.tozOIO_o0o) WXF.`o(o;O<.8XU.jo@ +o+.m +o$X<o9oM.$ NO|O|O|O|",
"O|O|o[o[o7oS doaO)oUOl.Z.q+.O`.xOUXKXUXrXxO2Xco8.5+%o'O|o3O|O|O|",
"O|O|Xl.T.<O5 yO}O-O(o^O{.FOEOs.*  o+OsXg =XG co*X` }. .W NO|O|O|",
"O|o[.J AO++=o*OW.; QO!O/ [.M -.z + jou n.)XvXTXV.%.io/ rXlO|O|O|",
"O|o[OLoiXqO3.Zo=XXXJ )o:o2O#oE.l `oQXD ,XL !O;ov 4.D 5 I qXlO|O|",
" NO$.++ OqX).foYod.2.w #ogX. *X  T ^o:osOa #.[ >X,XC.a bONX[o'O|",
"o4o[O|.7X%oAocO>O*o:.AO&.{OvXv ]XKoPo!o(O- ; xohX]XfX$o1 B BO|O|",
"O|o[.cO6.4OgXt.3.{obO).! OO-O: :oko>.VohO:Op.[O,oB K {.|O|O|O|O|",
"Xl+o.,XBooX +-.(Xs.no=O>Ok z.A !Od 1 j.1o^.6Xa.1++oVOVX^X[O|O|O|",
".uo'._OxXMo`OKOioTXHoOo& W xORo&.^ *.6.`XYO~XnXsX~.Y.#.tX}o'O|O|",
"O| Bo'OOX6X3+..^ k.}.b.- *oR.3.9oY OO[XhO}.CXhoX.No. lOhXlO|O|O|",
"O|O|o{XZO8 fXY 0o*XioLOQO> @.k.bXj .XpO;o:o-O( RO1X#Ow.tX'XlO|O|",
"O|O| u A+$ ].XXko5 zOQO) oXz )O: MoI ~oLOzowObODX/.=.sXlO|o'O|O|",
"O| N.tXOoe.~oZX4XM m+&OPXpoYOoX2.{X.O) &olXwX0oDO X!OjX'O|O|O|O|",
"O|O|XlX1o3XSOt JoGo<XbXuojO(X@ Ho&.[O^ Y.0oy.KXQ X Z BO9 NO|O|O|",
"O|O| B B.p+OXNX8o~X-o6.'X{ wot.IXTOiOF ' _O@.. poKoNo'Xlo'O|O|O|",
"O|O|Xl.tXlX5.@X> V s SO7Oc 2 G U 9O{X+XP 6OSX|X1o{OB.tO|O|O|O|O|",
"O|O|O|O|Xlo1.t BOJOn DO4Oy tXeOr.Q P+XOH.G.&oJo'O| BXlO|O|O|O|O|",
"O|O|O|O|o' Bo3o[.tOC g.oXWoWOAOeO.+oXROT.gOCo o'O|O|O|O|O|O|O|O|",
"O|O|O|O|O|O| Bo[O| N B s.O io_X_X1Xlo#.> Ao' B NO|O|O|O|O|O|O|O|",
"O|O|O|O|O|O|O|O|O|O|o4Om NOGX[OGo| NXlo#o' NO|O|O|O|O|O|O|O|O|O|",
"O|O|O|O|O|O|O|O|O|O| Bo3O| B N No3O|O| BO|o3O|O|O|O|O|O|O|O|O|O|",
"O|O|O|O|O|O|O|O|O|O|O|O|O|O|O|O|O|O|O|O|O|O|O|O|O|O|O|O|O|O|O|O|",
"O|O|O|O|O|O|O|O|O|O|O|O|O|O|O|O|O|O|O|O|O|O|O|O|O|O|O|O|O|O|O|O|"
};
