/* XPM */
static char *shaveStand[] = {
/* width height ncolors chars_per_pixel */
"32 32 235 2",
/* colors */
"   c #A22D82",
" . c #A12D81",
" X c #A12B81",
" o c #A9478C",
" O c #C7BAC0",
" + c #C6B8BF",
" @ c #3763BA",
" # c #C2AEBB",
" $ c #325DB5",
" % c #34518C",
" & c #717D93",
" * c #7589AE",
" = c #6E7990",
" - c #8BA7DE",
" ; c #95A9D4",
" : c #446095",
" > c #97ADD9",
" , c #C7C6C6",
" < c #C6C6C5",
" 1 c #BCA8B8",
" 2 c #C5C4C4",
" 3 c #8BA4D7",
" 4 c #638AD4",
" 5 c #6C8CC9",
" 6 c #6288D3",
" 7 c #93A3C1",
" 8 c #99B1DE",
" 9 c #A0A6B0",
" 0 c #758093",
" q c #BC91AE",
" w c #5E91F0",
" e c #6793E5",
" r c #C6C6C8",
" t c #3A5EA5",
" y c #A22E81",
" u c #A22C81",
" i c #A22A81",
" p c #435D90",
" a c #A12A80",
" s c #A12880",
" d c #B0BBD0",
" f c #A0287F",
" g c #3864BA",
" h c #5D6E8F",
" j c #A6A9AF",
" k c #A63C88",
" l c #566992",
" z c #A53A87",
" x c #4E6894",
" c c #677592",
" v c #415B91",
" b c #3762BC",
" n c #3A63B5",
" m c #6387D0",
" M c #3961B4",
" N c #6E7D9C",
" B c #2F5193",
" V c #98AED9",
" C c #3860A9",
" Z c #C8C5C6",
" A c #7F97C7",
" S c #C6C5C4",
" D c #3159AC",
" F c #B0669B",
" G c #A5B4D5",
" H c #4270CD",
" J c #C4AAB8",
" K c #C6C7C7",
" L c #3B6AC6",
" P c #C3C3C4",
" I c #A22980",
" U c #425C8E",
" Y c #9F277D",
" T c #BDBDBE",
" R c #355695",
" E c #879ECB",
" W c #B9B9BA",
" Q c #6386CC",
" ! c #747F94",
" ~ c #A4B1CD",
" ^ c #A7B0C6",
" / c #C7BCC1",
" ( c #759CE4",
" ) c #335496",
" _ c #5376BC",
" ` c #B8B9BC",
" ' c #315294",
" ] c #B1B6BF",
" [ c #707B93",
" { c #345CAE",
" } c #AB5192",
" | c #96ABD6",
".  c #C8C4C5",
".. c #C1C3C8",
".X c #B7BCC8",
".o c #B77BA4",
".O c #90A2C6",
".+ c #C6C6C6",
".@ c #C5C4C5",
".# c #3967C3",
".$ c #2B4987",
".% c #67738D",
".& c #BE97B1",
".* c #6B4DA5",
".= c #335392",
".- c #B0B6C4",
".; c #A53885",
".: c #567FD2",
".> c #C5C6C8",
"., c #6A7993",
".< c #90A7D6",
".1 c #A22E82",
".2 c #3867C5",
".3 c #A12C81",
".4 c #A12A81",
".5 c #9099AB",
".6 c #A7428A",
".7 c #A2A8B6",
".8 c #C4B3BD",
".9 c #A1B3D6",
".0 c #AF5895",
".q c #C2B1BB",
".w c #758BB8",
".e c #959FB3",
".r c #6A7996",
".t c #C8C3C4",
".y c #678BD5",
".u c #AF5E98",
".i c #3A63B6",
".p c #798194",
".a c #536993",
".s c #727E97",
".d c #B0B5C0",
".f c #757D90",
".g c #C7C7C6",
".h c #B2B4B8",
".j c #5680CE",
".k c #C6C5C5",
".l c #C5C5C4",
".z c #BDC0C6",
".x c #ACAEB2",
".c c #B77EA6",
".v c #627EB2",
".b c #3963B8",
".n c #3863B7",
".m c #819ED7",
".M c #A6A8AC",
".N c #31508F",
".B c #C3C3C5",
".V c #A22D81",
".C c #A32B82",
".Z c #C0A0B5",
".A c #A22B81",
".S c #A12B80",
".D c #7FA1E2",
".F c #A12980",
".G c #7EA1E1",
".H c #A12780",
".J c #A0277F",
".K c #5F7191",
".L c #3B5992",
".P c #BCBDBE",
".I c #576C93",
".U c #768197",
".Y c #9095A0",
".T c #345FB6",
".R c #7595D8",
".E c #B0B4BC",
".W c #C7BCC2",
".Q c #B9BEC8",
".! c #607195",
".~ c #B8BCC7",
".^ c #BBBDC0",
"./ c #365390",
".( c #325FB7",
".) c #91AADC",
"._ c #C8C6C6",
".` c #C7C6C5",
".' c #527ED3",
".] c #3868CA",
".[ c #B0B1B5",
".{ c #C3C2C1",
".} c #415C94",
".| c #4977D4",
"X  c #668CD6",
"X. c #3663BE",
"XX c #A5AAB4",
"Xo c #AAB6D0",
"XO c #4665A6",
"X+ c #6F98E2",
"X@ c #B4B7BC",
"X# c #C6C6C7",
"X$ c #A33081",
"X% c #A32E81",
"X& c #5378C3",
"X* c #BE99B2",
"X= c #5287E3",
"X- c #769DE2",
"X; c #BCBCBD",
"X: c #A1B3D4",
"X> c #305CB1",
"X, c #3969C7",
"X< c #6C788C",
"X1 c #C1C2C5",
"X2 c #38579B",
"X3 c #C6B9C0",
"X4 c #7F92B9",
"X5 c #A7428B",
"X6 c #2D529A",
"X7 c #C8C3C5",
"X8 c #9DACC9",
"X9 c #598CE6",
"X0 c #5B719C",
"Xq c #BEC0C5",
"Xw c #4472CE",
"Xe c #5A82D3",
"Xr c #90ABDD",
"Xt c #C7C7C7",
"Xy c #4E638F",
"Xu c #6E85B5",
"Xi c #C5C5C5",
"Xp c #868C9B",
"Xa c #88A6DF",
"Xs c #BFC2C9",
"Xd c #A52D82",
"Xf c #AEB0B5",
"Xg c #6A7690",
"Xh c #5B719F",
"Xj c #527ACB",
"Xk c #BBBEC5",
"Xl c #B9B9B9",
"Xz c #3E6ECB",
"Xx c #B1B4BB",
"Xc c #87A6E1",
"Xv c None",
/* pixels */
"XiXiXiXiXiXiXiXiXiXiXiXiXiXiXiXiXiXiXiXiXiXiXiXiXiXiXiXiXiXiXiXi",
"XiXiXiXiXiXiXiXiXiXiXiXiXiXiXiXiXiXiXiXiXiXiXiXiXiXiXiXiXiXiXiXi",
"XiXiXi.hXo.+XiXiXiXiXiXiXiXiXiXiXiXiXiXiXiXiXiXiXiXiXiXiXiXiXiXi",
"XiXiXi =X9.gXiXiXiXiXiXiXiXiXiXiXiXiXiXiXiXiXiXiXiXiXiXiXiXiXiXi",
"XiXiXi.U e ,XiXiXiXiXiXiXiXiXiXiXiXiXiXiXiXiXiXiXiXiXiXiXiXiXiXi",
"XiXiXi.sX+ ,XiXiXiXiXiXiXiXiXiXiXiXiXiXiXiXiXiXiXiXiXiXiXiXiXiXi",
"XiXi.k., (.+XiXiXiXiXiXiXiXiXiXiXiXiXiXiXiXiXiXiXiXiXiXiXiXiXiXi",
"XiXi.k.rX-.+XiXiXiXiXiXiXiXiXi.+.E ,XiXiXiXiXiXiXiXiXiXiXiXiXiXi",
"XiXi <.K.D.+XiXiXiXiXiXiXiXiXi.5.].~XiXiXiXiXiXiXiXiXiXiXiXiXiXi",
"XiXi <.!.G.+XiXiXiXiXiXiXiXi 9.2.O.+XiXiXiXiXiXiXiXiXiXiXiXiXiXi",
"XiXi <.IXc.kXiXiXiXiXiXiXiXf b A.+XiXiXiXiXiXiXiXiXiXiXiXiXiXiXi",
"XiXi.+.aXa.kXiXiXiXiXiXiX; { 5 ,.+.W._.+XiXiXiXiXiXiXiXiXiXiXiXi",
"XiXi < x -XiXiXiXiXiXi SX2Xj.+Xi.+ }.A F.& /._.+XiXiXiXiXiXiXiXi",
"XiXi < pXrXiXiXiXiXi < NXzX1XiXiXi q f.4 f.H aX*.kXiXiXiXiXiXiXi",
"XiXi < :.)XiXiXiXiXi.[.( ^XiXiXiXi + s.1.1 X.u ,XiXiXiXiXiXiXiXi",
"XiXi <./ VXiXiXiXi <.L Q.+XiXiXiXi Z.S  .1 u oX7XiXiXiXiXiXiXiXi",
"XiXi < R >XiXiXiXi jX..zXiXiXiXiXi.+.0 f.F y.A.;.tXiXiXiXiXiXiXi",
"XiXi < ).9XiXiXi < l m.+XiXiXiXiXiXi.c.o.8 u.3.4 k. XiXiXiXiXiXi",
"XiXi S B GXiXiXi 2X6 ~XiXiXiXiXiXiXi.t ,XiX3Xd.V.4X5. XiXiXiXiXi",
"XiXi < 'X:XiXiXi W.TXsXiXiXiXiXiXiXiXiXiXiXi 1.4X$.4.6. XiXiXiXi",
"XiXi <.= |XiXiXi.M LX#XiXiXiXiXiXiXiXiXi.B 7.j.* YX% iX5. XiXiXi",
"XiXi <.N |XiXiXi.Y H ,XiXiXiXiXiXiXi.@X4.#.b *X@.q.C.3.4.6. XiXi",
"XiXi < % |XiXiXi.p.' ,XiXiXiXiXiXiXx.i.n.e.lXiXiXiX3 i.V.4X5. Xi",
"XiXi < v.<XiXiXi !Xe ,XiXiXiXiXiXX $.v PXiXiXiXiXiXiX3 a ..F z ,",
"XiXi < U 3XiXiXi & 4.+XiXiXiXi ` D.w ,XiXiXiXiXiXiXiXi O I.J.Z <",
"XiXi.+Xy.mXiXi.k.%.y.+XiXiXi.`.} _ ,XiXiXiXi.+XqX8 ; d r # JXiXi",
"XiXi < h.R.+XiXi [ 6 ,XiXiXi.xX>XkXiXiXiXi.kXuX, M t nX= 8XtXiXi",
"XiXiXiXgX .+XiXi 0.: ,XiXi.k cX& ,XiXiXi.kXO g.7.k <.{Xp C w.>Xi",
"XiXiXiX<.| ,XiXi.fXw.gXiXi <.$ EXiXiXi.+Xh @.^XiXiXiXiXiXlX0 KXi",
"XiXiXi.P.Q.+XiXi T.X.+XiXi.+ ]..XiXiXi.k.-.dXiXiXiXiXiXiXi <XiXi",
"XiXiXiXiXiXiXiXiXiXiXiXiXiXiXiXiXiXiXiXiXiXiXiXiXiXiXiXiXiXiXiXi",
"XiXiXiXiXiXiXiXiXiXiXiXiXiXiXiXiXiXiXiXiXiXiXiXiXiXiXiXiXiXiXiXi"
};
