/* XPM */
static char *shaveDefaultSwatch[] = {
/* columns rows colors chars-per-pixel */
"100 100 29 1",
"  c #1c1c1c",
". c #232323",
"X c #2a2a2a",
"o c #333333",
"O c #3c3c3c",
"+ c #434343",
"@ c #4b4b4b",
"# c #535353",
"$ c #5c5c5c",
"% c #636363",
"& c #6a6a6a",
"* c #747474",
"= c #7c7c7c",
"- c #848484",
"; c #8c8c8c",
": c #949494",
"> c #9c9c9c",
", c #a2a2a2",
"< c #ababab",
"1 c #b2b2b2",
"2 c #bababa",
"3 c #c3c3c3",
"4 c #cbcbcb",
"5 c #d3d3d3",
"6 c #d9d9d9",
"7 c #e3e3e3",
"8 c #ededed",
"9 c #f2f2f2",
"0 c #fefefe",
/* pixels */
"0090799988877877777777777777776777776776776777776776777777776776776776776777776776767776767875878700",
"0988<<>,<<<<<<<<<<<<<<<1<<<<<<1<<<1<<1<1<<1<<<1<<1<1<<<<<<1<<1<11<<1<11<1<<<1<1<<<<<<<1<1<<1<2788800",
"9997<>><><,<<<<11<<2111112112111111111112111111111111111111111112<1112<112111111211111112<1<<<788800",
"8875,>>,,,,<,<<<1<<<<1<1<<1<<1<1<1<1<1<1<1<1<1<1<1<11<11<1<1<1<1<1<11<1<<<1<<1<1<<<1<1<<<1<1<<678800",
"9752,>,><<<,<<,<<<<<<<<<<<1<<<<<1<<<<<<1<<<<<1<<<<<<<1<<<<<<<<<<1<<<1<<<<<<1<<<<<11<<<<11<<1<1787800",
"742,>>>,>>,<,<,<,<<<<<<<1<<<<1<<<<<<1<<<<<<1<<<<<1<<<<<<1<<<<1<1<<<1<<<<<<<<1<<<<<<1<1<<1<<<<<678800",
"64<:>>>>>>,,,,<,<<<<<<<<<<<<<<<<<<<<<<<<<<<<<<<<<<<<<<<<<<<<<<<<<<<<<<<<<<<<<<<<<<<<<<<<<<<111677800",
"62:=>>>>,,>,,<,,,<,,<<<<<<<,<<<<<<<<<<<<<<<<<<<<<<<<<<<<<<<<<<<<,<<<<<<<<<<<<<<<<<<<<<1<<<<1<,678800",
"42;*>>>>>>>,,,,,,<,,<<,<<<,<,<<,,,<,<,<<,<<,<<,<<,,<,<<,,<,<<,<<,<<<,<,<<<<,,<<,<,<<<<<<<<<<<<578800",
"52;*>:>>>>>>>,,,,<,<,,<,,,<<<,<<<<<<<,,<<,,<,<<,,<<<<,<<,<<<,<<,<<,<<,<<,,<<<<,<<<<,<,,<<<<<<,578800",
"52;*>::>>>>>>,,>,,,<<,<<,<<,,<<,<,,,,<,<,,<,<,<,,<<,,<<,,,<,,<,,,,,<,<,,,<<,,,,<,<,<<<<<<<,<<<577800",
"51:*:>>>>>>>>,>,,,,,,,,,,,,,,,,<,,<,<,,,<<,,,,,<,,,,,,,<,<,,,,,<<,,,,,,<,,,,<,,<,,<,,<,<,<,<<<678800",
"52:*>::::>>>>>,>>,,,,,,,,,,,,,,,>,,,,,,,>,,,,,,,,,,,,,,,,,,,,,,,,,,,,,,,,,,,,,,,,,,,<,,,<<<<,<678800",
"42:*:::>>>:>>>>>,,>,,,>,,,,>,,,>,,,,,,,,,,,,,>,,,,,>,,,>,,,,>,,,,,,,,,,,>,,,,,>,,,,<,,<,,<,,,<578800",
"42:*:::>::>:>>>>>>>,>>,,,>>,>,>,>,>,>>,,>,>,,>,>,>,>>,>,>,,>>,>,>,>,>,,>>,>,,,,>,,,,,<,,,,,<<<588800",
"52:*:::::>>>>>>>,>>>>,>,>,>,,>,,,>,>>,,>>,,>>,>,>,>,,>,>,>,>,>,>,>,>,>>,,>,>>,>,,,>,,,,,<<<,,<679800",
"52:=:::::>::>:>>>>>,>,>>,>>>>>>>>>,>>,>>,>,>>>>>>>>>>>>>>>>>>>>,,>>,>>>>>>>>>>>>>>>,,>,,,,,,,<678800",
"52:=:::::>>>>>>::>>>>>>,>>>,,>>,,>>>>>>,>>>>>,>>>,,>,>>,,>>,,>>>>>>>,>>,,>>,>,,>,,>,,,,,,,<<<,679800",
"52:=:>::::>:::>>,>>>>>,>>>>>>,>>>>,>>,>>>>>>,>>,>>>>>>>>>,>>,>>>>>>,>>,>>>>>>>>>>,>,>,,,><,,,,588800",
"52:=::::>::>>>>>>>>>>>,>,>>,>>>>>>>>>>>>,>,>>>>>>>,>,>>,>>>>>>>,,>>>>>>>,>>,>,>>>>,>,,,,><,<,<678800",
"52:=;:::>::::>>>>,>><:>>>>,>>,>,,>,>>,>,>>,>,>>,,>,>>>>>,>,>>,>>>>,>,>>,>>>>>,>,,,>,,,,,,,<,,<689800",
"52>=::::::>>>>:>>:*&<>>>>>>>>>>>>>>>>>>>>>>>>>>>>>>>>,>,>>>>>>>>>>>>>>>>,>,>>>>>>>>,>,,,><<,,<678800",
"52:=:::::>>::>:>>*XX>,>,>,,>>>>>>,>,,>>,>,,>>>>>,>>>>,>>>>>>>>,>>,>>>>>>>>,>>>>,,>,,,,,,><,,<,679800",
"52:=:::::>:>:>>>>=..>>><>>>>>,>>>>>>>>>>>>>>,>>>>>,>>>>>,>,>>,>>>>,>>,>>>>>>>,>>>>,>,>,,,,,<,,688800",
"52:=::::::>:>>>>>-X.>>>,>>>>>>,>>>>>>>>,,,>>><>>>>>,>>>>,>>,>>,>>>,>>,:,>>>>>>>><>>,>>,,><,,<,679800",
"52:=:::::>:>:>:>>=XX,>>>,:>>>>>>,,><>>,,>>>,>>>>>>>>>>>>>>::>>>>>>>>>,>>,:>>><,>>>>,,,,<,,,<,<678800",
"52:=::::::>::>>>>-XX>>>,$%:-%@@$;2;&@+#*>,>>>:*%++@%-><>><>*#O#;;&$><:>>:&@@@%-<>>>,,,,,,<,,,<679800",
"52:=::::>>:>>:>>>-oo,>>>.o%@X...+:$X X.X%,>>-#X..X  O*,>>-@. XX.#XX>>>>-OX.XX.O=,<>>,>,,><,<<,588800",
"52:=:::::::>:>>:>-Oo>>>,X.O@%**Xo+o&-&O.o:<>#.+%=*%o @<>,#.O&-*o. .>>>-OX#**&+.o-,>>,>>,><,,,,579800",
"52>=:::::>>::>>>>-OO>>>>oo#-<<>@XO*>>,-.o=>;+o=>>>>$.X>>=o+=>>>-O.X,>>%X%:,>>>% $><><>>,,,,<<<688800",
"52:=::::::>>>>>>>-+O>>>>++*>>:>*+@>,:>>oX=><=-<>>>>&oo>>*O#>>><>&oX,,:++;,>>><=XX;<><>,<,<,,,<679800",
"52:=::::>::>:>>:>-OO,>>>++=,><>*+$>>,>>OO->,,>>--*%+oO>:$@*,>>>>*+o>>:O@%$$%$#$o.-,>>>,,><,<,,588800",
"52:=::::>::>>>>>>-O+>,>>@@;>>>,*@$,>>,>@+=>,:%+#@#@++O>>#@*>>,,>-+o>>-@@@#@@@+Ooo=<><,,,,<,,,<679800",
"52:=::::::>:::>:>=OO>>>>@@->,>>=@$,>>>>O+-,>%+@$&*=*#O,,%+*>>>>>-@+>>;@@---:;---=>>>,>><>,,<,<678800",
"52:=:::::>:>>>>>,-++>>>>@+->>>>=@$>>>,>@+=>=+#->>>>=#+>>&+%>>:><*@+>>;##;>>>>>>>>>>>,>,,,<,<,<589800",
"52:=::::::>:>:>>>=O+>,>>OO->,>>*O#>>,>>++=>*+$>,>1>&@#><=++=,,>>#@@>,>%@&:<>>,;$*:>,><<>,,,,<,678800",
"52:=::::>>:>:>>:>-++>>:>@+->>>>*+$,>>,,@@=>=@#->>:*$@$:>>$o@->-&@@@>,>=$#*>,>;$X#:<>><<>,<,,,<679800",
"52>=:::::::>>>>>,-OO>>>>Oo=>,>>*o@>>>>>@@;,:#O#&&##&#@->>=+oO+@@$#+>>>>*@@@%$+O@-><>,,<>><,<,,688800",
"52:=:::::>:>>:>:>=@@>>,>OO->,>>=+#>>,>:@#=>,=%@##%->%@=,>,;&@+%**#@>>,,:*#O+++%-,,>,,>,,,,,<<,679800",
"52:=:::::::>:>>>>>>:<:>>>:<>>>,>>:<:>>1:>,>,,>:-;>>,>:>>>,>>>>>>:@#>>>>>>>;-->>>>>><,,<>><,,,<678800",
"52>=:::::>:>>:>>>>>>>>>>>>>>>>>>>>>>>>>>>>>>>>>>>,>>>>,>*#&>>>>>*@$>>>>>>>>>,>>,>>,>,,,,,<,,<,679800",
"52:=:::::>>:>>>:>>>>>>>>,>,>>,>>>>>,>,,>>,>,,>>,>>>,,>>>=@@=>>>-@@*>>>>>>,>>>>>>>,,,>,,,,,,<,,688800",
"52:=::::::>::>>>>>>>>>>>>>>>>>>,>>>>>>>>>>>>>>>>>,>>>>,>>&@@###@@&:,>>>>>,>,>>>>>,>,,,,,>,,<,<579800",
"52:=::::>::>>:>>>>>>>>>>>,>>>,>>,>>,>,>>>>,>,>>,>>>>,>>>,:=&@@$&-:<>>>,>>>>>,>,>>>>,>,,,,<,,,<688800",
"52>=::::>::::>>>>>>>>>>>>,>,>>>>>>>>>,>,,>>>>>>>>>>>>>>>>,<>>>>,>,>>>>>>>>>>>>,>,>,>,,,,,<,<,<679800",
"52:=;::::>>>>>:>>>>>>,>,>>>>>,>>,>,>>>>>>>,>>,>>>,>,>,,>>>>>>,>>>>>>,,>,,>>,>,>>,>>,,,,,>,,<,,678800",
"52:=::::::>::>>>>>>>>>>>,>>,>,>>>>,>>>>,,>>>>,>,>>>>>>>>>>>>>>>,>>>>,>>>>>>>>>>>>>,,>,,,,,,,<,689800",
"52:*:::>>::>:>>>>>>>>>,>>>>>>>>>>>>>>,>>>>,>>>>>>>,>>>>>>>>>>>>>>>,>>>,>,>>,>>>>,>>,,,,,,<<,,<678800",
"52:=::::>:>>>>>>:>>>,:>>>>>>>,>>>>>,>>><>>>,>>>>>>,>>>>>>,,>><>>>,>>,>>,>>>>>>>>,>><>>,>><,,,,579800",
"52:=::::::::::>>>>>>>><>>>><>,>,>,>>,>>>>>>>,>>>,>>>>>>>>>>>>>>,>,>>>,>>>>>>>>,,>>,,>,<,,,<,<<688800",
"52:=:::::>==**>>>>>:>,>***;>>>==->>>>>>>>>>>>,>,,>>>>,>>>>>:=:>>>,>>>>>>,>,,>:>,>>,,,,<>><,<,<679800",
"52>=::::>:+..o;>>>>>>>*o.X%>,>@.&>,,>>>,>>,>>>>>>,>,,>>>><:+.&>>>>>>,>>,>>>>>>>>>,>>><,>,,,<,,678800",
"52:=::::;>+X..*>>:>>>>% X.&><:@.&:>>>>>>>>>>>>>>,>>>>>>,>,:@X&>>>>>,,,>>>>>>>>>,>>>>,<,,,<,,,<589800",
"52:=:::::>@Xo.$>>>>>,:@XOX%>><>>><>:>>,><>>>>,,>>>>>>>>>>>>>>>>>>>,>>>,>,>>>>,>,><,>>>><,,,<<,678800",
"52:=:::::>#O#oo:>>>>>-O@@o&>:>>>>>>>>>>>>>,>>>>>,>>>,,,>,>>,>>>>,>><,>>,>>,>>>>>>>>><<>,>,,<,<679800",
"52:=::::::$@&+.=>>,>>=+&$O&>>>*&->>>=#@+$*>,>>>>*%@+$*:,>,>*&->>-%&:-@O#*:>>,>>,&#+$-:*%,<,,,<588800",
"52:=::::;>$#**X$>>>>>$$:$+*>>>@X&,<$.X.X. @:>>>%.X.XX.@>>>>#X&,>-.o$o X .#>>:<;+..X..@o ,<,,<,679800",
"52:=:::::>%#*-oO>>>>:$$>%+&>>>#X&>=oo%*=&X &,,=oo%==$..&,>>#X&>>*X.+$=*+ o=>>:$X+&=*+. .>,,<,<678800",
"52:=::::::&$*:+X->>>=$*>$+&>>>@o*>&X#>,,:$O%>>*o#:<>:%O%>>,#o&>>-+o&;<,:o *>>-OX=>,,=O.X,<,,,<579800",
"52:=::::::&#*>%o$>>>%$-,$+*>>,#O&>*O@->>>>>>>>*++->>,>:<>>>#o&>,-++->>>,@X&>,&O#>,><>&oX><,<<,688800",
"52:=:::::>&#*,-O+>>;#$>>$+*>>,$+*>:%O+#&=><<,>-$@@@$=>>>,>>#O*>>-+@>>>>>#o&>>$+*,>>,>=Oo,<,,,<679800",
"52>=::::>>%#=>:+O;>=#&>>$+*>>>$+*>>-%@++O+$=>,>-$@@+O+&;,>>$+*>>;@@>>><>#+&>>#@*>><>>;oo>,,<<,678800",
"52:=::::>:&#*>>$O*>%#->>$+*>>,$@*>>,>;&#+Oo#;>>,>-&#Ooo+;>,$@*>>;++>>:>>$+*>>%@*<>>>,;+o,<,,,<589800",
"52:=::::::%#*>,*+#:@#>>>%+*,>>%#*>>>>,>>-*+O*,>>><>>:&+O*>,$@*,>-@+><>>>%+*>>*O%>>><>*+o><,<,,588800",
"52>=::::>:%@*>>>+@&@&>>>%O*>>>%@=>=@*>,>>,#O*>=@&>,>,>$O*>>%+*,>;+o>>>>>%+=>,-OO;<><>$+o,<,,<,688800",
"52:=:::::;$@*>>:%@$@*>>>$+*>>>%+*>-@#->>,-++-,-+$->>>=@O->>%+*>>-+O>>>,>%+=>,:$o@=>:*+oO>,,<,<679800",
"52:=::::::%@*>>>-@@@-<>>$+*>>>%+*>>%@@#%$+O%:<:%+#$%$++$>>>%@*>>;Oo>,>>>$+*>>>=+OoO+##Oo,,,,,,588800",
"52:=::::>:%@&::>;$#%:<>>#@*>>:%+=>>-*#@#@$&:,>,:&$@@##*:,>:%#*>,=++:>>>>%#=>>,,:%@@#=-@o,<,<<<579800",
"52>=:::::>;:>>>>,:>:>,>>,:>,><>>>>>>,>-;::>,>:,,>:--;:><>>,>:>>><>>,>>,>>:>>>>:<,>>>,-O+>,,<,<588800",
"52:=;:::>::>>>:>>>,>>,>>>>><>>>>>>>>>,>>>>>>>>>>,,,,><,>>>>>>>>,>,>>>>,>,,>>:*#%>><>>*+%,<,,<,679800",
"52:=::::>::>>>>>>>>>,,>>>>>>>>>>>,,,>>,>>>>>,,>>>>>>>>>>>>>>>,>>>>>>,>>>>>>>,-@+=:>>-@O*,<<,,,588800",
"52:*:>::::::>:>:>>>>>>>>>>>>>>>>>>>>>>,,>,>>>>>>>>>,>>>>,>,>>,>>>>>>>>>>>>,>>>&@@###$@%,>,,,<<579800",
"52:*;::::>:>:>:>>>>>>,>>>>>>,>>,>,>>,>,>,>,>>>>>>>>>,>>,>,>>>,>,>>>>>,>,>>>>,>>-$##$&->,,<,<,,688800",
"52:=::::::::>:>>>>>>>>>,,>>,>>>>>>>>>>>>>>>>>,>>>>,>>>>>>>>>>>>>>>>>>>>>>>>>>>>:<,>>><,,><,,,<678900",
"52:=;:;:>:>:>>>:>>>>>>>>>,>>,>>>>,,>,>>>>>>>>,>,>>>>>>>,>,,>,>,>>>>>,>>,>>>>><,>>>,,,,>>,<>,,,688900",
"52:=:::::::>::>>>>>>>>>,>>>>>>>,>>>>>>,>,>,>>>>>>,>>,>>>>>>>>>>>>,>>>>>>,>>>>>>>>>>,>,<<,<,<,<578800",
"52:=:::::::>:>>>>>>>>,>>,>>,>,>>>>>>>>,>>>,>,>>,>,,>>>>>>,>,>>>>>,>,>>>>>>,>>>>>,,<>>,,,><,,<,688900",
"52:=::::>::>:>:>>>>>>>>>>>>>>>>>,>,>,>>>>>>>>>>>>>>>,>>,>>>>>>,>>>>>,>,>>>>>>>>>>>,,,>>,,<,,,<678900",
"42:=;::::>::>:>>>>>>>>>>>>>>>>,>>>>>>>,>>,,>>>>>>>>>>>,>>>>>,>,>>>>>>>,>>>>>,>>,,>>>>,><,<,<,<588800",
"52:*:::::::>:>>:>>>>>>,>,>,>>,>>>,>>,>>>>>>>>>>>,>>,>>>>>,>,>>>>>,>,>>>>,>>>>>>>>>>,,,>>,,,,,,678900",
"52:=:::;:::::>>>>>>>>>>>>>>>>>>>>>>>>>>>>>>:>>:>>>>>>>>>>>>>>>>>>>>>>>>>>>>>:>>>>>>>,>,,,>,,<,778900",
"52:=::;:>::>>::::>>:>>:>>>>>>:>>>>>:>>>>>>>>>>>>>>>>>>>>>:>>>>>>>>:>>>>>>>>>>>>>>>>>>,>,,,,,,,689900",
"52:=;:;::::::::>>::>>>>::>>>:>>:>>>>>:>>>>>:>>>>:>>>>:>:>:>>:>:>>:>>:>:>:>>:>>>>>>>>>>>>>>,,,,789900",
"52>=;::;::::::>:::>:::>>>::>>>:>:>:>:>>:::>>:>:>>::>:>>::>:>>:>>:>>:>:>>>:>:>::>>>>>>>>>,>,>>>689900",
"52>=;:;:;::::::::::::>>:>:>::>::>:>::>:>:>>::>>::>:::>:>>:>:>:>:>:>:>::::::>:>:>>:>>>:>>>>,>,,789900",
"52>=:;;::;:;:;:::::::::::::::::>:::::::::::::::::::>>:::::::::::::::::>::>::::::>::>:>:>>>>>>>789000",
"62>=:;;;:;;:::::::::::::::::::::::::::::::::::::::::::::::::::::::::::::::::::::::::>:>>>>,>>>699900",
"62>=;;::;;:;:;::::;:::::::::::::::::::::::::::::::::::::::::::::::::::::::::::::::>::>:>:>,>>>699900",
"62>=;;:;:;;;;:;::;;:;:;::::;::::::;;:::;:::::;:;::;::::;::;:;::;::::;:;:;:::::;:::::>::>:>>>>>799000",
"62>-:::;;:;:;;;:;:;;;:;;;::::;:;::::;::::;:::::::;::;:::::::;:::::::::;::::;:;:::::::::::>>>>>799000",
"62>=;-;-;;;;;;;;:;::::::;;:;;;;;;;;;;:;;;;;;;;;:;;:;;;;;;;;;;:;;;;;;:;;::;;:;;:;:::::::::>::>>890900",
"62>=::::;;;::;;;;;;;;-;;:;;:::;::;:::;;::;:;;::::;;:::;::;:::;:;;::;;;:;;:;::;;:;-;;:;:;::>:>>799000",
"52>-;;;;-;--;-;-;:;;:;;;-;-;--;;;;;;-;-;--;;;;--;-;---;;-;;;-;-;;-;-;;;-;-;-;-;-;;:::::::::>>>790000",
"52>-;;:-;;:;;;;;-;;-;--;:;:;:;:;;;;;:;:;:;:;;;:;:;::;:;;:;;;:;:;;:;:;;;:;::;;:;::;:;::::::::::800000",
"52,-;;;;-;;-;--;;-;;;;;--;;;;--;;;-;-;;;;--;;;;--;;-;-;;-;;;-;;;;;-;;;;-;-;-;;-;;:-:;;;;;:::>>790000",
"72>=*&&%&&&&&&&&&&%&%&&&&&&&&&&&&&&&&&&&&&&&&&&&&&&&&&&&&&&&&&&&&&&&&&&&&&&&&&&&%%%%%$%%%&=>22090000",
"63<:=**********=**=*=***=*=**************************=*****=*=***********************&*&*=;,26900000",
"641>:-------;-;-------------;--;-;;-;-;--;--;--;--;-----;------;--;-;-;--;--;--;--=-=====;>136900000",
"8522<>>>>>>>,>>,>>>>,>>>>>,,>>>>>>>,>>>>,>>>>>,>>,,>,>>>>>,,>>>>>>,>>>>>,>>>>>,>>>>>>>>>><1257990000",
"8653222121212112112121212112112121121121212121121<212121211211212112112121212112121222<1223579900000"
};
