/* XPM */
static char *shaveSelectRotateUp[] = {
/* width height ncolors chars_per_pixel */
"32 32 330 2",
/* colors */
"   c #D1D0CD",
" . c #C6B6BF",
" X c #A05CA4",
" o c #A77AAE",
" O c #CFCECB",
" + c #C195AD",
" @ c #5E5E9B",
" # c #A0B2D5",
" $ c #C3B0BC",
" % c #CACAC6",
" & c #B56F9E",
" * c #BE8BAA",
" = c #BD89A9",
" - c #C7C0C3",
" ; c #B86697",
" : c #C7BEC3",
" > c #C6BEC2",
" , c #B9A4B2",
" < c #645CA4",
" 1 c #CCCCCB",
" 2 c #C9C8C8",
" 3 c #5D5E5E",
" 4 c #C8C8C7",
" 5 c #C7C6C6",
" 6 c #5B5C5C",
" 7 c #BC89AB",
" 8 c #C6C6C5",
" 9 c #C6C4C5",
" 0 c #5A5A5B",
" q c #E1E5F0",
" w c #595A5A",
" e c #C4C4C3",
" r c #C5C2C4",
" t c #6E669D",
" y c #F3F6FB",
" u c #A04893",
" i c #BFBCBE",
" p c #BF99B1",
" a c #B8C6E2",
" s c #C2D5F9",
" d c #8280B7",
" f c #9C3B85",
" g c #C2ABB7",
" h c #FBFBFC",
" j c #E9E9E7",
" k c #DBD3D6",
" l c #708FC6",
" z c #EDF0F8",
" x c #E1E1DF",
" c c #9D8BA3",
" v c #907EB4",
" b c #727372",
" n c #EEEDEF",
" m c #BEC6D7",
" M c #B56C9D",
" N c #9AABCE",
" B c #6B6B6B",
" V c #C8BFC3",
" C c #BB82A6",
" Z c #A74A8C",
" A c #C7BBC2",
" S c #E5DFE6",
" D c #C2CCDE",
" F c #F6F4F0",
" G c #BA7AA5",
" H c #656565",
" J c #F5F4EF",
" K c #646364",
" L c #636363",
" P c #CECDCC",
" I c #CDCDCB",
" U c #616161",
" Y c #CCCBCA",
" T c #CAC9C8",
" R c #FEFCFB",
" E c #D8D9D9",
" W c #C8C7C6",
" Q c #C9D4E8",
" ! c #823599",
" ~ c #C6C5C4",
" ^ c #8D79AA",
" / c #C7C3C5",
" ( c #6C89B1",
" ) c #C5C1C3",
" _ c #585758",
" ` c #EEF6FF",
" ' c #D0B6C4",
" ] c #A8BED8",
" [ c #C4BFC2",
" { c #BFCDE8",
" } c #C2C1C0",
" | c #A74F85",
".  c #C0BFBE",
".. c #C0BDBE",
".X c #8E80B8",
".o c #305397",
".O c #BBBBB9",
".+ c #B9B9B7",
".@ c #AEB5C0",
".# c #B8B7B6",
".$ c #B05391",
".% c #DED6D8",
".& c #8CA1AF",
".* c #6F91CE",
".= c #496AAC",
".- c #BFCAE1",
".; c #D4CCCE",
".: c #A63F87",
".> c #DEDEDB",
"., c #A8A7A6",
".< c #4162A4",
".1 c #DCDAD9",
".2 c #E1E8F5",
".3 c #6F6E6E",
".4 c #CBD5E6",
".5 c #96ABD3",
".6 c #AD4B91",
".7 c #993484",
".8 c #EBE7E1",
".9 c #973482",
".0 c #8CAAD3",
".q c #C6B8C0",
".w c #E5E1DB",
".e c #646463",
".r c #F4F3ED",
".t c #CFCECC",
".y c #CDCCCA",
".u c #E8EDF5",
".i c #AD5994",
".p c #B675A0",
".a c #ECECEF",
".s c #84A3C1",
".d c #5473B3",
".f c #C9C6C6",
".g c #C3C5CA",
".h c #C8C4C5",
".j c #C7C2C4",
".k c #8F8F8D",
".l c #C5BEC2",
".z c #CED1D8",
".x c #89A6D3",
".c c #C4BCC1",
".v c #C3BAC0",
".b c #B6BCC7",
".n c #778EBE",
".m c #BE91AE",
".M c #858383",
".N c #A95593",
".B c #C8C8C8",
".V c #A23C7F",
".C c #E0D1D9",
".Z c #C6C6C6",
".A c #B3CDFC",
".S c #EAE9E6",
".D c #C5C4C5",
".F c #B3B2B0",
".G c #90A7D3",
".H c #B66499",
".J c #C09DB3",
".K c #ACBAD4",
".L c #AFAEAC",
".P c #EDF0F6",
".I c #A23B8C",
".U c #B573A5",
".Y c #B8729E",
".T c #EDEDEC",
".R c #537AAE",
".E c #DBD9D7",
".W c #EAE9E9",
".Q c #D2D1CE",
".! c #C7B7C0",
".~ c #C5B7BE",
".^ c #F2F1F4",
"./ c #846F9C",
".( c #CDC7C9",
".) c #C4C6CA",
"._ c #AFB3BC",
".` c #B46C9D",
".' c #EDEAE5",
".] c #BC86A8",
".[ c #FBF8F6",
".{ c #F9F8F4",
".} c #C6BDC2",
".| c #9E9EC9",
"X  c #CCCBCB",
"X. c #CBCBCA",
"XX c #B574A1",
"Xo c #B670A2",
"XO c #CAC9C9",
"X+ c #D5C0CA",
"X@ c #C8C7C7",
"X# c #C7C7C6",
"X$ c #E9E7EE",
"X% c #B98EA8",
"X& c #C6C7C5",
"X* c #C7C5C6",
"X= c #E9E5EE",
"X- c #DDE5F6",
"X; c #C6C5C5",
"X: c #D0D4DC",
"X> c #EAE8E5",
"X, c #C5C3C4",
"X< c #A94A92",
"X1 c #C5C1C4",
"X2 c #F9F8F7",
"X3 c #E7E6E2",
"X4 c #C2C1C1",
"X5 c #A04993",
"X6 c #565757",
"X7 c #F7F4F5",
"X8 c #BFC1BE",
"X9 c #8293B7",
"X0 c #E2E0DD",
"Xq c #5578B9",
"Xw c #C4AAB9",
"Xe c #DCD6D7",
"Xr c #EAEAE8",
"Xt c #6D7FB6",
"Xy c #BCC0C8",
"Xu c #F0DBE4",
"Xi c #E9E5DD",
"Xp c #D3D0CE",
"Xa c #8B6CA2",
"Xs c #5C94C6",
"Xd c #727272",
"Xf c #EBEEEC",
"Xg c #963B8C",
"Xh c #AB5190",
"Xj c #8AB0D2",
"Xk c #8C74A6",
"Xl c #7066C6",
"Xz c #E7DFDE",
"Xx c #646464",
"Xc c #974390",
"Xv c #626262",
"Xb c #CDCCCB",
"Xn c #CCCCCA",
"Xm c #606060",
"XM c #CBCAC9",
"XN c #5F605F",
"XB c #627AA4",
"XV c #A73A82",
"XC c #6B85BA",
"XZ c #C7C4C5",
"XA c #C1C3C9",
"XS c #C5C4C3",
"XD c #C6C2C4",
"XF c #C4C4C2",
"XG c #BA9FBF",
"XH c #C5C0C3",
"XJ c #A9AEB8",
"XK c #C3C2C1",
"XL c #8D8D8C",
"XP c #F8F7F5",
"XI c #C4BEC2",
"XU c #E6E5E0",
"XY c #E6E3E0",
"XT c #545454",
"XR c #8DA3CE",
"XE c #F5F3F2",
"XW c #BFBEBD",
"XQ c #D9DADD",
"X! c #AB5396",
"X~ c #A475A6",
"X^ c #B1B3B9",
"X/ c #B5B4B3",
"X( c #C3A3B7",
"X) c #3359A7",
"X_ c #E4E3E1",
"X` c #805593",
"X' c #EDF0F7",
"X] c #D2C9CC",
"X[ c #D9DCE0",
"X{ c #DDDBDA",
"X} c #EDE9ED",
"X| c #706F6F",
"o  c #6F6F6E",
"o. c #6EA3C6",
"oX c #F9F6F2",
"oo c #C7B9C1",
"oO c #BB7EA5",
"o+ c #A0498E",
"o@ c #BC7CA6",
"o# c #C5BBBF",
"o$ c #E6E2DC",
"o% c #D1DCEF",
"o& c #CFCDCC",
"o* c #D6C2C9",
"o= c #D6C0C9",
"o- c #B5B6B9",
"o; c #929290",
"o: c #929090",
"o> c #AA4E91",
"o, c #B36A9D",
"o< c #C7D2E5",
"o1 c #C7C1C4",
"o2 c #A99FCB",
"o3 c #C6BFC3",
"o4 c #EFF6FF",
"o5 c #E9E6E2",
"o6 c #A592A6",
"o7 c #C4BDC1",
"o8 c #8A8A88",
"o9 c #6C91C7",
"o0 c #A5408C",
"oq c #A2A7B0",
"ow c #909BC6",
"oe c #858483",
"or c #B6C3DE",
"ot c #C9C9C9",
"oy c #D8D9DB",
"ou c #C7C7C7",
"oi c #C6A6B9",
"op c #81807F",
"oa c #C5C5C5",
"os c #A1357E",
"od c #B1689E",
"of c #9467B3",
"og c #87ABD4",
"oh c #E6E4E2",
"oj c #C09CB3",
"ok c #AFADAC",
"ol c #C09AB3",
"oz c #537BAE",
"ox c #8A78B6",
"oc c #ECE8EB",
"ov c #7796CE",
"ob c #B4C2D5",
"on c #AB4B8E",
"om c None",
/* pixels */
"oaoaoaoaoaoaoaoaoaoaoaoaoaoaoaoaoaoaoaoaoaoaoaoaoaoaoaoaoaoaoaoa",
"oaoaoaX; 5 )o7 roaoaoaoaoaoaoaoaoaoaoaoaoaoaoaou.BX#X#X@ 8oaoaoa",
"oaoa /XXo,.p &ojX1oaoaoaoaoaoaoaoaoaoaoaoaoa 4.1.TX>.S.WXOoaoaoa",
"oaoa >.6X%Xa !Xo.coaoaoaoaoaoaoaoaoaoaoaoaoaXOXrX3.K { h.yoaoaoa",
"oaoa.}o@X8o.Xl Go7oaoaoaoaoaoaoaoaoaoaoaoaoaotXU }Xq.5XEXboaoaoa",
"oaoao3.Ho6Xtof.Y.voaoaoaoaoaoaoaoaoaoaoaoaoaXOo5.b.* moXXboaoaoa",
"oaoa.jXh fXc.I M.voaoaoaoaoaoaoaoaoaoaoaoaoa.BX_.P.2.aXP Yoaoaoa",
"oaoa 8o#Xkox .o1.Doaoaoaoaoaoaoaoaoaoaoaoaoa.Z % #or  Xb 5oaoaoa",
"oaoaoa 8 (.xoaoaoaoaoaoaoaoaoaoaoaoaoaoaoaoa 8 W.@ l.0obouoaoaoa",
"oaoa T xX{ Do%.QX;oaoaoaoaoaoaoaoaoaoaoaoaoa.ZXp.^ zX=ocX]X;oaoa",
"oaoao&X2 Eo< `X0.ZoaoaoaoaoaXWo8 8oaoaoaoaoa.ZXeXQ.no2XuX+XDoaoa",
"oaoa.t Jo-.=.A.wX#oaoaoaoa.Zo:Xv.Foaoaoaoaoa.Z.%.(.oo9.Co*XDoaoa",
"oaoa P FX^.d so$ouoaoaoaoa.O B 6op 8oaoaoaoaoa kXzX9.GX}o=X1oaoa",
"oaoa I Roy Qo4XYouoaoaoa 5XL 3Xm.e.,oaoaoaoaoa.;X7 SX$ h ' roaoa",
"oaoa 4.E.z aX[ O.Zoaoaoa.L UXN K wXdXSoaoaoaoa.fXwX~ ooi Voaoaoa",
"oaoaoaoaXJX).goaoaoaoa 8o; HXx U LX|okoaoaoaoaoaoa.sogoaoaoaoaoa",
"oaoa 5.QXyXRX: O.ZoaoaX;X4.+.3 0oeXK eoaoaoaoa 9 g ^.X $ >oaoaoa",
"oaoaXMXE n.u yohXOoaoaoaoa ~ b _.k.Zoaoaoaoaoa :.:.7X5X<.m )oaoa",
"oaoaXn.{._XC.4.8X oaoaoaoaXFo XT.M.Zoaoaoaoaoaoo.V tow 7 CXIoaoa",
"oaoa Y.roq.<.-Xi 1oaoaoaoaXS bX6op 5oaoaoaoa 8 A |XBXjX( = [oaoa",
"oaoa Y.[XA NX-.'X.oaoaoaoa 8.#X/.  8oaoaoaoaX& AosX` vodoO [oaoa",
"oaoa 2 jXf qX'.>.Boaoaoaoaoaoaoaoaoaoaoaoaoaoao1.`o+XgX!.J roaoa",
"oaoaoaoa ioz ]oaoaoaoaoaoaoaoaoaoaoaoaoaoaoaoaoa...Rov.)oaoa 8 5",
"oaoaoa 9 , @.|.~.loaoaoaoaoaoaoaoaoaoaoaoaoaoa 9 , @.|.~.loaoaoa",
"oaoaoa - Z.9 uo>olX,oaoaoaoaoaoaoaoaoaoaoaoaoa - Z.9 uo>olX,oaoa",
"oaoaoa.qXV./ d.U.]XHoaoaoaoaoaoaoaoaoaoaoaoaoa.qXV./ d.U.]XHoaoa",
"oaoaoa.! ;.&XsXG +XHoaoaoaoaoaoaoaoaoaoaoaoaoa.! ;.&XsXG +XHoaoa",
"oaoaoa.q.$ c < X * )oaoaoaoaoaoaoaoaoaoaoaoaoa.q.$ c < X * )oaoa",
"oaoaoa >on.i.No0 pX,oaoaoaoaoaoaoaoaoaoaoaoaoa >on.i.No0 pX,oaoa",
"oaoaoa 8XZ /.h /X*oaoaoaoaoaoaoaoaoaoaoaoaoaoa 8XZ /.h /X*oaoaoa",
"oaoaoaoaoaoaoaoaoaoaoaoaoaoaoaoaoaoaoaoaoaoaoaoaoaoaoaoaoaoaoaoa",
"oaoaoaoaoaoaoaoaoaoaoaoaoaoaoaoaoaoaoaoaoaoaoaoaoaoaoaoaoaoaoaoa"
};
