/* XPM */
static char * shaveRecomb_xpm[] = {
"32 32 123 2",
"  	c None",
". 	c #C5C5C5",
"+ 	c #C0C0C0",
"@ 	c #9E9E9E",
"# 	c #313131",
"$ 	c #262626",
"% 	c #3D3D3D",
"& 	c #A4A4A4",
"* 	c #A0A0A0",
"= 	c #303030",
"- 	c #191919",
"; 	c #212121",
"> 	c #040404",
", 	c #010101",
"' 	c #505050",
") 	c #B0B0B0",
"! 	c #2E2E2E",
"~ 	c #393939",
"{ 	c #080808",
"] 	c #111111",
"^ 	c #6A6A6A",
"/ 	c #3F3F3F",
"( 	c #020202",
"_ 	c #4A4A4A",
": 	c #BCBCBC",
"< 	c #7B7B7B",
"[ 	c #141414",
"} 	c #1B1B1B",
"| 	c #000000",
"1 	c #2A2A2A",
"2 	c #B5B5B5",
"3 	c #A2A2A2",
"4 	c #6E6E6E",
"5 	c #BDBDBD",
"6 	c #BFBFBF",
"7 	c #B7B7B7",
"8 	c #0E0E0E",
"9 	c #4B4B4B",
"0 	c #161616",
"a 	c #050505",
"b 	c #1E1E1E",
"c 	c #383838",
"d 	c #070707",
"e 	c #565656",
"f 	c #C1C1C1",
"g 	c #A5A5A5",
"h 	c #515151",
"i 	c #323232",
"j 	c #0D0D0D",
"k 	c #B9B9B9",
"l 	c #9B9B9B",
"m 	c #555555",
"n 	c #BABABA",
"o 	c #979797",
"p 	c #464646",
"q 	c #171717",
"r 	c #797979",
"s 	c #C2C2C2",
"t 	c #C3C3C3",
"u 	c #252525",
"v 	c #4F4F4F",
"w 	c #767676",
"x 	c #0C0C0C",
"y 	c #B8B8B8",
"z 	c #6D6D6D",
"A 	c #1C1C1C",
"B 	c #2D2D2D",
"C 	c #101010",
"D 	c #030303",
"E 	c #949494",
"F 	c #999999",
"G 	c #606060",
"H 	c #C4C4C4",
"I 	c #090909",
"J 	c #5A5A5A",
"K 	c #0A0A0A",
"L 	c #A9A9A9",
"M 	c #434343",
"N 	c #444444",
"O 	c #151515",
"P 	c #9F9F9F",
"Q 	c #8B8B8B",
"R 	c #595959",
"S 	c #3E3E3E",
"T 	c #B4B4B4",
"U 	c #636363",
"V 	c #BBBBBB",
"W 	c #5F5F5F",
"X 	c #454545",
"Y 	c #272727",
"Z 	c #363636",
"` 	c #B1B1B1",
" .	c #AEAEAE",
"..	c #8E8E8E",
"+.	c #353535",
"@.	c #535353",
"#.	c #AAAAAA",
"$.	c #7F7F7F",
"%.	c #6C6C6C",
"&.	c #686868",
"*.	c #7A7A7A",
"=.	c #131313",
"-.	c #2C2C2C",
";.	c #8A8A8A",
">.	c #818181",
",.	c #5D5D5D",
"'.	c #1A1A1A",
").	c #484848",
"!.	c #898989",
"~.	c #414141",
"{.	c #1F1F1F",
"].	c #848484",
"^.	c #232323",
"/.	c #969696",
"(.	c #727272",
"_.	c #BEBEBE",
":.	c #0B0B0B",
"<.	c #2B2B2B",
"[.	c #747474",
"}.	c #B2B2B2",
"|.	c #868686",
"1.	c #060606",
"2.	c #A7A7A7",
". . . . . . . . . . . . . . . . . . . . . . . . . . . . . . . . ",
". . . . . . . . . . . . . . . . . . . . . . . . . . . . . . . . ",
". . . . . . . . . . . . . . . . . . . . . . . . . . . . . . . . ",
". . . . . . . . . . . . . . . . . . . + . . . . . . . . . . . . ",
". . . . . . . . . . . . . . . . . @ # $ % & . . . . . . . . . . ",
". . . . . . . . . . . . . . . . * = - ; > , ' ) . . . . . . . . ",
". . . . . . . . . . . . . . . . ! ~ { ] > ^ / ( _ : . . . . . . ",
". . . . . . . . . . . . . . . < [ } ; | 1 2 . 3 4 5 + 6 . . . . ",
". . . . . . . . . . . . . . 7 8 9 0 a b c d e 2 . f g . . . . . ",
". . . . . . . . . . . . . . h i j , a k . l c m n . . . . . . . ",
". . . . . . . . . . . . . o a p j | q r : . . s : . . . . . . . ",
". . . . . . . . . . . . t u v > | } w u x e y . . . . . . . . . ",
". . . . . . . . . . . . z A B C D E . . F G 6 H . . . . . . . . ",
". . . . . . . . . . . ) I J K , D e L . . . H . . . . . . . . . ",
". . . . . . . . . . . M N O [ D < M ( c P . . . . . . . . . . . ",
". . . . . . . . . . Q I R > a S . . 2 ^ T + . . . . . . . . . . ",
". . . . . . . . . + A U I a | [ o . . . . V . . . . . . . . . . ",
". . . . . . . . . W u X Y K Z C ( ~ ` . . . . . . . . . . . . . ",
". . . . . . . . L d 4 d K D  .+ e D ... . . . . . . . . . . . . ",
". . . . . . . . +.' [ a { @.. . . #.s y . . . . . . . . . . . . ",
". . . . . . . $.8 %.O p ( 8 &.k . . . . . . . . . . . . . . . . ",
". . . . . . : O *.=.$.# W Q -.x ;.. . . . . . . . . . . . . . . ",
". . . . . . >./ ,.'.4 8 7 . . o 6 s . . . . . . . . . . . . . . ",
". . . . . . e ).d ).( q !.. . . . . . . . . . . . . . . . . . . ",
". . . . . . ~.{.h ].] U C ^./.. . . . . . . . . . . . . . . . . ",
". . . . . . v d r i (.. _.w 5 . . . . . . . . . . . . . . . . . ",
". . . . . . . :.D , <.[.}.. . . . . . . . . . . . . . . . . . . ",
". . . . . . . _.|.~ a 1.1.H . . . . . . . . . . . . . . . . . . ",
". . . . . . . . . . _.!.2.. . . . . . . . . . . . . . . . . . . ",
". . . . . . . . . . . . . . . . . . . . . . . . . . . . . . . . ",
". . . . . . . . . . . . . . . . . . . . . . . . . . . . . . . . ",
". . . . . . . . . . . . . . . . . . . . . . . . . . . . . . . . "};
