/* XPM */
static char *shaveToggleCollision[] = {
/* width height ncolors chars_per_pixel */
"32 32 419 2",
/* colors */
"   c #8D97B2",
" . c #867969",
" X c #A9B5D4",
" o c #DBD0C3",
" O c #FBF2E9",
" + c #5478BC",
" @ c #837566",
" # c #DEDEDD",
" $ c #BDBAB6",
" % c #8FA0C1",
" & c #929499",
" * c #6E7C9A",
" = c #F7EEE5",
" - c #6D7A99",
" ; c #F6ECE4",
" : c #FFFFFA",
" > c #CAC8C6",
" , c #BEB5AD",
" < c #396AC9",
" 1 c #8C8172",
" 2 c #F2EAE0",
" 3 c #F1E8DF",
" 4 c #F0E6DE",
" 5 c #3359A2",
" 6 c #CEC2B6",
" 7 c #3965BF",
" 8 c #5184E7",
" 9 c #9BA6BC",
" 0 c #D4CFC9",
" q c #4072D3",
" w c #E9E0D7",
" e c #4565A3",
" r c #B1B6C1",
" t c #FFFFFD",
" y c #E4DCD2",
" u c #3B6CCE",
" i c #32518D",
" p c #F9EDE0",
" a c #6F7B94",
" s c #C7C6C6",
" d c #899ABE",
" f c #C6C6C5",
" g c #E6D9CA",
" h c #C5C4C4",
" j c #FFFAF3",
" k c #AAB0BA",
" l c #4B79D7",
" z c #C3C2C2",
" x c #688ED9",
" c c #C2C2C1",
" v c #3865C1",
" b c #3765C0",
" n c #4775D3",
" m c #A39B92",
" M c #F3F3F1",
" N c #D8CEC6",
" B c #4F699C",
" V c #D5CCC3",
" C c #7C8CB1",
" Z c #D1C8BF",
" A c #3D6BC9",
" S c #517ED6",
" D c #8F8271",
" F c #BAB5AF",
" G c #CFC6BD",
" H c #3B69C7",
" J c #4F6188",
" K c #888A95",
" L c #867D72",
" P c #C9C0B7",
" I c #4072D9",
" U c #CDCCD2",
" Y c #30549B",
" T c #4F699F",
" R c #6F7279",
" E c #677BA6",
" W c #C4BAB2",
" Q c #DEDBDC",
" ! c #F8EFE5",
" ~ c #605D5D",
" ^ c #4B7DDD",
" / c #456DC0",
" ( c #A2ADC2",
" ) c #B5B1AD",
" _ c #BAB2A8",
" ` c #B9B0A7",
" ' c #FEF7EE",
" ] c #BDBEC2",
" [ c #30549E",
" { c #FFF4E5",
" } c #3963B4",
" | c #E8DFD5",
".  c #3E6FD0",
".. c #6B89C4",
".X c #98A3B8",
".o c #5E6B89",
".O c #4771C5",
".+ c #869CC4",
".@ c #CEC8C2",
".# c #C8C7C6",
".$ c #C3C4CB",
".% c #2F4E89",
".& c #C6C5C4",
".* c #C0B5A7",
".= c #5F8BE3",
".- c #4F79D0",
".; c #A79E95",
".: c #575557",
".> c #394D75",
"., c #C4BCB8",
".< c #707FA1",
".1 c #514F51",
".2 c #38486A",
".3 c #939295",
".4 c #6785C3",
".5 c #EBECE8",
".6 c #A2ADC8",
".7 c #C5C5C6",
".8 c #A39F9E",
".9 c #5B7CC1",
".0 c #ABAEB3",
".q c #807975",
".w c #404D6B",
".e c #8594B2",
".r c #4F83EA",
".t c #4372D1",
".y c #AEB6CD",
".u c #30539A",
".i c #5476BA",
".p c #B9B9BA",
".a c #CCCAC6",
".s c #426FC6",
".d c #6583C4",
".f c #C5C5C9",
".g c #C9C6C3",
".h c #888076",
".j c #C2C3C6",
".k c #7786A4",
".l c #C4C0BE",
".z c #5C7BBB",
".x c #B3BBCB",
".c c #8494B4",
".v c #B8BCC6",
".b c #4875CF",
".n c #5C88DC",
".m c #FBF2EA",
".M c #847768",
".N c #FAF2E9",
".B c #B4ABA1",
".V c #3461B8",
".C c #FFFFFB",
".Z c #AFB4BD",
".A c #C9C8C6",
".S c #A9B1C1",
".D c #C7C6C4",
".F c #8A7F71",
".G c #C5C4C2",
".H c #FFFAF1",
".J c #BEC1C5",
".K c #485165",
".L c #A29C99",
".P c #5279C8",
".I c #557AC1",
".U c #5884DB",
".Y c #A6A7AA",
".T c #5782DA",
".R c #CEC9C4",
".E c #5774AF",
".W c #B2A698",
".Q c #C7C6C7",
".! c #B7B4B4",
".~ c #C6C6C6",
".^ c #C4C4C4",
"./ c #465F91",
".( c #3967C3",
".) c #7190CF",
"._ c #F0E5D8",
".` c #7D93BD",
".' c #8194B7",
".] c #B8BBC2",
".[ c #3762B7",
".{ c #778296",
".} c #3D70D4",
".| c #717F9A",
"X  c #BABABA",
"X. c #A5A7AC",
"XX c #6285CA",
"Xo c #535A6C",
"XO c #E7DBCF",
"X+ c #586888",
"X@ c #3D6BCA",
"X# c #8F8272",
"X$ c #FFFEF7",
"X% c #ABB2BF",
"X& c #ADA296",
"X* c #CDC4BC",
"X= c #877D74",
"X- c #4376DD",
"X; c #A59F98",
"X: c #5F89DE",
"X> c #857868",
"X, c #A6A9B0",
"X< c #6589D0",
"X1 c #B6B7C3",
"X2 c #5375BB",
"X3 c #748096",
"X4 c #9C978F",
"X5 c #4F6896",
"X6 c #E7DDD2",
"X7 c #807463",
"X8 c #5F76A9",
"X9 c #3C6BCC",
"X0 c #F4EBE2",
"Xq c #5E81C9",
"Xw c #F3E9E1",
"Xe c #CDC6BF",
"Xr c #487BDB",
"Xt c #BCB4AB",
"Xy c #F1E9DF",
"Xu c #628DE4",
"Xi c #C5C3C1",
"Xp c #FFF9F0",
"Xa c #4575D8",
"Xs c #A3AABA",
"Xd c #ECE3DA",
"Xf c #35579A",
"Xg c #EBE3D9",
"Xh c #EAE1D8",
"Xj c #BFBBBB",
"Xk c #4472CD",
"Xl c #6185CF",
"Xz c #5374B4",
"Xx c #E4DBD2",
"Xc c #3F6CC8",
"Xv c #E3D9D1",
"Xb c #C7C7C6",
"Xn c #FFFFF3",
"Xm c #C6C5C5",
"XM c #C5C5C4",
"XN c #C3C3C2",
"XB c #DED5CC",
"XV c #C2C1C1",
"XC c #DCD3CA",
"XZ c #DBD3C9",
"XA c #3B67BA",
"XS c #3664BF",
"XD c #34579C",
"XF c #4F525A",
"XG c #4574D1",
"XH c #314878",
"XJ c #647BAA",
"XK c #A0988F",
"XL c #B0B7C3",
"XP c #5080DF",
"XI c #5A82D5",
"XU c #4F80DE",
"XY c #497DE2",
"XT c #D1C9BF",
"XR c #4B7CDA",
"XE c #6590E3",
"XW c #C4C5C6",
"XQ c #4A7AD9",
"X! c #7792CD",
"X~ c #C1C1C3",
"X^ c #89A3D8",
"X/ c #8C97B0",
"X( c #3664C2",
"X) c #C9C1B7",
"X_ c #BFBDC1",
"X` c #4073D9",
"X' c #4574D4",
"X] c #4474D3",
"X[ c #494F61",
"X{ c #978B7C",
"X} c #C7BDB5",
"X| c #93A4C4",
"o  c #B6BAC2",
"o. c #4D81E9",
"oX c #5075C1",
"oo c #6D7DA2",
"oO c #5A84D8",
"o+ c #8C9FC7",
"o@ c #3E6ECD",
"o# c #8F9EC0",
"o$ c #325DB4",
"o% c #C1B7AF",
"o& c #3C6CCB",
"o* c #FFFFF9",
"o= c #B5B5B7",
"o- c #555A66",
"o; c #4E70B5",
"o: c #3C69C1",
"o> c #3559A3",
"o, c #EFE6DC",
"o< c #CAD0DC",
"o1 c #FEF8EE",
"o2 c #EEE6DB",
"o3 c #FEF6EE",
"o4 c #EEE4DB",
"o5 c #9399A6",
"o6 c #3865BD",
"o7 c #8AA2D2",
"o8 c #BBBDC0",
"o9 c #4272D4",
"o0 c #EAE0D7",
"oq c #A2998D",
"ow c #5A6B8F",
"oe c #B2A9A0",
"or c #93A1BD",
"ot c #3D6ECF",
"oy c #3B6CCD",
"ou c #496FBD",
"oi c #C7C6C5",
"op c #ABA399",
"oa c #5B5A5B",
"os c #9B9186",
"od c #C5C4C3",
"of c #8297C0",
"og c #7993CB",
"oh c #5C729E",
"oj c #F3E7D9",
"ok c #DED4CB",
"ol c #9AA9C7",
"oz c #A79D95",
"ox c #BCBFC4",
"oc c #908A85",
"ov c #557AC2",
"ob c #3663BE",
"on c #BABDC2",
"om c #5984DD",
"oM c #3E70D3",
"oN c #3762B5",
"oB c #A0978E",
"oV c #D5CCC2",
"oC c #9F958D",
"oZ c #FFFFFF",
"oA c #718AB9",
"oS c #6684C2",
"oD c #A8B1C4",
"oF c #3C455A",
"oG c #345BA8",
"oH c #C4C4C5",
"oJ c #C9C5C0",
"oK c #8F9AB2",
"oL c #4879D6",
"oP c #4777D5",
"oI c #384C77",
"oU c #CBCFD9",
"oY c #2F55A3",
"oT c #928980",
"oR c #4672CA",
"oE c #2A519E",
"oW c #A0B1D3",
"oQ c #8A8178",
"o! c #444751",
"o~ c #6382C2",
"o^ c #F3EBDF",
"o/ c #C1C2C5",
"o( c #F1E7DD",
"o) c #93A6D0",
"o_ c #2F57A6",
"o` c #3F598E",
"o' c #FBF3EA",
"o] c #C0BDBA",
"o[ c #D4CEC7",
"o{ c #F9F1E8",
"o} c #4973C6",
"o| c #90A1C3",
"O  c #4270C9",
"O. c #B0B5BE",
"OX c #74706C",
"Oo c #FFFFF1",
"OO c #C6C3C3",
"O+ c #FFF9F1",
"O@ c #5E5853",
"O# c #8196BE",
"O$ c #BEC0C5",
"O% c #ADAEB1",
"O& c #918B85",
"O* c #6B8CD0",
"O= c #8393B6",
"O- c #576077",
"O; c #4071D4",
"O: c #325398",
"O> c #B8BABF",
"O, c #738099",
"O< c #4270CC",
"O1 c #A0968D",
"O2 c #5977B1",
"O3 c #3B6DCF",
"O4 c #5875B0",
"O5 c #4B7DE2",
"O6 c #6E85B5",
"O7 c #C5C5C5",
"O8 c #818BA0",
"O9 c #909BB2",
"O0 c #C4C3C4",
"Oq c #C3C3C3",
"Ow c #DED5CD",
"Oe c #888B93",
"Or c #7A93C4",
"Ot c #6A81B1",
"Oy c #A6A9B7",
"Ou c #698CD1",
"Oi c #7A7678",
"Op c #4A75CD",
"Oa c #BEBDBE",
"Os c #A8AAAF",
"Od c #DCD0C1",
"Of c #BCBBBC",
"Og c #5274B7",
"Oh c #6284CA",
"Oj c #BCB8B2",
"Ok c #CCC8C5",
"Ol c #3D6CCA",
"Oz c #ABA49E",
"Ox c #4579DF",
"Oc c #C2C3C5",
"Ov c None",
/* pixels */
"O7O7O7O7O7O7O7O7O7O7O7O7O7O7O7O7O7O7XmOcO7O7O7O7O7O7O7O7O7O7O7O7",
"O7O7O7O7O7O7O7O7O7O7O7O7O7O7O7O7 fO>ouXQ sO7O7O0XLXmO7O7O7O7O7O7",
"O7O7O7O7O7O7O7O7O7O7O7O7O7O7.~ ]oAO;.b rXmO7o8 /XY.7O7.^.JO7O7O7",
"O7O7O7O7O7O7O7O7O7O7O7 sX~ 9.9. O<or.~O7 s.XX'XRo O7XmXz 8.~O7O7",
"O7O7O7O7O7O7O7O7O7.~ kX2o& HOgoKXN f.~O..IX-..oHO7XmO2.roDXmO7O7",
"O7O7O7O7O7O7O7O7XMXJoy +.<Oe.L.YX/.`.P.}.OX%.~O7Oq.io. (O7O7O7O7",
"O7O7O7O7O7O7O7XM eo9.e.8.W K.EXc u 7o; CXj.a.~.ZoRO5.SO7O7O7O7O7",
"O7O7O7O7O7O7.~ohXaO9.;oqowo: AO4  .fo2o^ UO=o~Ox.-onO7O7O7O7O7O7",
"O7O7O7O7O7O7X,X9 dXKos J <oXXso(Oo #.+XloPX-XkO6 fO7O7O7O7O7O7O7",
"O7O7O7O7O7.~ B.n.3X{O-.(XqOO { 2.co} I.s.z.'.$X6 >O7O7O7O7O7O7O7",
"O7O7O7O7O7 zoN.4.F.qXf.TX_oj 0X8oMOpO#oU MoZ.Co'o[ fO7O7O7O7O7O7",
"O7O7O7O7O7o=.t EX#o-Olo) gXe TX`XXo<oZoZoZoZ.CXpo0.AO7O7O7O7O7O7",
"O7O7O7O7O7OsXr - D.wXPX1Od.oO3.).5oZoZoZoZoZ :O+o,OkO7O7O7O7O7O7",
"O7O7O7O7O7X. ^ * ..>Xu.lOzXDom QXn toZoZoZ tX$o1o4.RO7O7O7O7O7O7",
"O7O7O7O7O7O%oLooX7oIXE., RobX^ p.N jo*.Co*X$.H O |.@O7O7O7O7O7O7",
"O7O7O7O7O7X O Ot @.2.=.!Xoot X._Xwo{o3XpXp '.m 3okoJO7O7O7O7O7O7",
"O7O7O7O7O7 c }oSX>oFXUOy.KO;.yXO w 4X0 = ! ;XyXxoV.gO7O7O7O7O7O7",
"O7O7O7O7O7 hoGOh.Mo!XGo#X[ q.6 oOw y wXgXdXhXv Vo%.#O7O7O7O7O7O7",
"O7O7O7O7O7.& 5O* 1.1XAX!XFX@o+ 6XT NXZXBXBXC ZX} F fO7O7O7O7O7O7",
"O7O7O7O7O7odoYoWOjO@o> x.:.[og.* W PX* G GX) ,op.DO7O7O7O7O7O7O7",
"O7O7O7O7O7Of.V.x foc iX:oa [X<X&.B `Xt , _oeoBo]O7O7O7O7O7O7O7O7",
"O7O7O7O7 f.|o@XWO7 f./.U ~.%XIO&O1 moz.;oCoT $O7O7O7O7O7O7O7O7O7",
"O7O7O7O7.0o$ %O7O7 fX5oOOXXH SOi LoQ.hX=X4XiO7O7O7O7O7O7O7O7O7O7",
"O7O7O7 hO:ov sO7O7 h.uo7oiX+ l &XKX; ).G.~O7O7O7O7O7O7O7O7O7O7O7",
"O7O7O7O8 boxO7O7O7o5XS.vO7.{X].QXmO7O7O7O7O7O7O7O7O7O7O7O7O7O7O7",
"O7O7XVoEOrXmO7O7XN Y.d.~O7 a nXbO7O7O7O7O7O7O7O7O7O7O7O7O7O7O7O7",
"O7O7.~o|.jO7O7XmO, vO$O7 fo`Ou.~O7O7O7O7O7O7O7O7O7O7O7O7O7O7O7O7",
"O7O7O7O7O7O7O7.po_ofO7O7Oao_olO7O7O7O7O7O7O7O7O7O7O7O7O7O7O7O7O7",
"O7O7O7O7O7O7Xm.ko6.7O7O7X3X(.jO7O7O7O7O7O7O7O7O7O7O7O7O7O7O7O7O7",
"O7O7O7O7O7O7O7Xbo/O7O7O7.]X|.~O7O7O7O7O7O7O7O7O7O7O7O7O7O7O7O7O7",
"O7O7O7O7O7O7O7O7O7O7O7O7O7O7O7O7O7O7O7O7O7O7O7O7O7O7O7O7O7O7O7O7",
"O7O7O7O7O7O7O7O7O7O7O7O7O7O7O7O7O7O7O7O7O7O7O7O7O7O7O7O7O7O7O7O7"
};
