/* XPM */
static char *shavePopSelect[] = {
/* width height ncolors chars_per_pixel */
"32 32 407 2",
/* colors */
"   c #AFAFAF",
" . c #B4AEAA",
" X c #81786E",
" o c #FBF2E9",
" O c #7F766C",
" + c #ACB6CD",
" @ c #AF5395",
" # c #AD5593",
" $ c #F6ECE4",
" % c #FFFFFA",
" & c #F5ECE3",
" * c #AEA59A",
" = c #6784BE",
" - c #C3C5C9",
" ; c #A25D88",
" : c #C1C3C7",
" > c #BBB3AA",
" , c #C7C0C3",
" < c #F0E6DE",
" 1 c #FFF8F0",
" 2 c #EEE6DC",
" 3 c #B9BEC9",
" 4 c #4476D7",
" 5 c #BBAEA0",
" 6 c #E8E0D6",
" 7 c #718BC1",
" 8 c #E8DED6",
" 9 c #DDC4C8",
" 0 c #B2B8C2",
" q c #E7DED5",
" w c #B575A1",
" e c #B0A79F",
" r c #E5DCD3",
" t c #FFFFFD",
" y c #9D9389",
" u c #FDFBFB",
" i c #C7C6C6",
" p c #E1DACF",
" a c #C6C6C5",
" s c #E0DACE",
" d c #FFFCF3",
" f c #948E8A",
" g c #FEFAF2",
" h c #5C729F",
" j c #949BAB",
" k c #8A97B5",
" l c #DDD4CB",
" z c #B883A7",
" x c #5C7DC0",
" c c #DCD4CA",
" v c #8FA5D1",
" b c #DBD2C9",
" n c #958B81",
" m c #84796D",
" M c #BF99B1",
" N c #214286",
" B c #687083",
" V c #BD95AF",
" C c #BC8FAE",
" Z c #2A4171",
" A c #D1C8BF",
" S c #477AE0",
" D c #355BAA",
" F c #FFFCF6",
" G c #C4C4C6",
" H c #999EA9",
" J c #C2A3B7",
" K c #988F87",
" L c #C1A3B6",
" P c #BDC1C9",
" I c #DBD4CC",
" U c #A22A81",
" Y c #CBC2B9",
" T c #EBE4DF",
" R c #8795B5",
" E c #A0287F",
" W c #A0267F",
" Q c #82796E",
" ! c #9F247E",
" ~ c #C6B5BE",
" ^ c #C6BCB4",
" / c #C5BCB3",
" ( c #A63C88",
" ) c #8E857D",
" _ c #B3A89E",
" ` c #C2B8B0",
" ' c #C3ABBB",
" ] c #C0B8AE",
" [ c #F6EBE3",
" { c #C0B6AE",
" } c #FFFEF9",
" | c #8C9DBD",
".  c #2F5AB1",
".. c #887F77",
".X c #C3C4C8",
".o c #BDB4AB",
".O c #AB4E90",
".+ c #F2E9DF",
".@ c #4069BB",
".# c #C7BDC2",
".$ c #FEF7EE",
".% c #C6BBC1",
".& c #B980A4",
".* c #B7AEA5",
".= c #3363C2",
".- c #AE6096",
".; c #B5ACA3",
".: c #B2AAA0",
".> c #3C62AD",
"., c #2F4472",
".< c #B1A89F",
".1 c #B0A89E",
".2 c #AEA69C",
".3 c #C8C5C6",
".4 c #ACA49A",
".5 c #4879DD",
".6 c #5972A5",
".7 c #909BB0",
".8 c #FFF9F2",
".9 c #BB82A9",
".0 c #A79E95",
".q c #7F92BD",
".w c #DBD3C8",
".e c #A59C93",
".r c #B9BCC1",
".t c #B8BAC0",
".y c #A1988F",
".u c #5A77B3",
".i c #BC8EAD",
".p c #9B9289",
".a c #9A9288",
".s c #FFFDF5",
".d c #8B9AB8",
".f c #A9AFBB",
".g c #999DA8",
".h c #6E82AC",
".j c #C8C1B5",
".k c #928A80",
".l c #C6BDB3",
".z c #9E217C",
".x c #707179",
".c c #A9398A",
".v c #8E867C",
".b c #858FA8",
".n c #C4AEBB",
".m c #497DE4",
".M c #FFFFF8",
".N c #42547A",
".B c #B9B4B0",
".V c #F3EADF",
".C c #2D59AE",
".Z c #C7BEC1",
".A c #847A72",
".S c #4875CF",
".D c #C071AA",
".F c #B2B9CA",
".G c #EAE0D6",
".H c #7E766C",
".J c #4F75C2",
".K c #F8F4E7",
".L c #7C746A",
".P c #BCBAB6",
".I c #798BB3",
".U c #F5EEE4",
".Y c #FFFFFB",
".T c #7C8CAC",
".R c #CFC7C2",
".E c #C8C6C5",
".W c #C7C6C4",
".Q c #C8C4C5",
".! c #577FCD",
".~ c #B36B9D",
".^ c #FFFCF1",
"./ c #C5C4C2",
".( c #FFFAF1",
".) c #BBC0CC",
"._ c #FEFAF0",
".` c #F3E0E2",
".' c #B4BDCF",
".] c #E9E4D8",
".[ c #D9D0C5",
".{ c #AD859A",
".} c #7A8DB7",
".| c #E7DED6",
"X  c #A1978E",
"X. c #B6B9BD",
"XX c #416FCB",
"Xo c #FFFFFE",
"XO c #284D98",
"X+ c #C6C6C6",
"X@ c #AAB0BB",
"X# c #B4B2B1",
"X$ c #B4B0B1",
"X% c #5B729F",
"X& c #BEC1C8",
"X* c #A6ACB7",
"X= c #8F97A7",
"X- c #FDF3E8",
"X; c #B1ABA4",
"X: c #FCF1E7",
"X> c #91949F",
"X, c #AEA9A1",
"X< c #7E7368",
"X1 c #757E94",
"X2 c #4971C2",
"X3 c #9DA2AE",
"X4 c #BCB5B2",
"X5 c #D29ABE",
"X6 c #BFB6AB",
"X7 c #887F75",
"X8 c #A33083",
"X9 c #A13281",
"X0 c #C1C2C4",
"Xq c #A22C82",
"Xw c #FFF7ED",
"Xe c #A49D97",
"Xr c #C6B7BF",
"Xt c #A7428A",
"Xy c #FBF1E9",
"Xu c #FAF1E8",
"Xi c #BEBBB7",
"Xp c #BA70A3",
"Xa c #405684",
"Xs c #F8EFE6",
"Xd c #C2BAB1",
"Xf c #A43887",
"Xg c #C0B8AF",
"Xh c #D5C9BD",
"Xj c #F4EBE2",
"Xk c #F3EBE1",
"Xl c #787A86",
"Xz c #F1E7DF",
"Xx c #BBB2AA",
"Xc c #F0E7DE",
"Xv c #C9C0BB",
"Xb c #F0E1DE",
"Xn c #ECE5DA",
"Xm c #ECE3DA",
"XM c #7E756E",
"XN c #D1CEC6",
"XB c #D7CDC2",
"XV c #5676B7",
"XC c #EDD3DB",
"XZ c #E5DBD3",
"XA c #C7C7C6",
"XS c #E2D9D0",
"XD c #ACA49B",
"XF c #C6C5C5",
"XG c #FFFDF3",
"XH c #C5C5C4",
"XJ c #3D517A",
"XK c #E0D7CE",
"XL c #999085",
"XP c #DED5CC",
"XI c #CDC3B8",
"XU c #D9D1C7",
"XY c #82786B",
"XT c #D7CFC5",
"XR c #81766A",
"XE c #355FB4",
"XW c #D2C9C0",
"XQ c #FFFFF6",
"X! c #D0C7BE",
"X~ c #C3A6B8",
"X^ c #999088",
"X/ c #CEC5BC",
"X( c #C2C3C4",
"X) c #C1A2B6",
"X_ c #CDC3BB",
"X` c #BDC0C9",
"X' c #527ACD",
"X] c #A22B81",
"X[ c #A8478A",
"X{ c #A0277F",
"X} c #82786E",
"X| c #C7BFB5",
"o  c #EDE2D7",
"o. c #C5B0BD",
"oX c #3D61AB",
"oo c #B2B6BE",
"oO c #497DE5",
"o+ c #788BB0",
"o@ c #C0B7AE",
"o# c #AEA399",
"o$ c #A33185",
"o% c #65779A",
"o& c #A4AEC4",
"o* c #7B95CA",
"o= c #867E75",
"o- c #C1C3C6",
"o; c #FFFCEF",
"o: c #BBB1A9",
"o> c #BAB1A8",
"o, c #C7BEC2",
"o< c #8B97B2",
"o1 c #7791C6",
"o2 c #FDF6ED",
"o3 c #C0BEBB",
"o4 c #DBD0C5",
"o5 c #FAF4EA",
"o6 c #7F766E",
"o7 c #FFFFFC",
"o8 c #AEA59C",
"o9 c #C8C6C6",
"o0 c #3E6BC6",
"oq c #C7C6C5",
"ow c #918F90",
"oe c #B9BECB",
"or c #A79F95",
"ot c #9DA8C0",
"oy c #DBD2C8",
"ou c #A49B92",
"oi c #325499",
"op c #A29990",
"oa c #B7B9BF",
"os c #ABA8A6",
"od c #3660B4",
"of c #FFFFFF",
"og c #D3CAC0",
"oh c #9B9189",
"oj c #999187",
"ok c #A82A86",
"ol c #D1C2BE",
"oz c #667697",
"ox c #C1A3B5",
"oc c #B04491",
"ov c #6180BD",
"ob c #BCBFC7",
"on c #C5C1BC",
"om c #C09DB4",
"oM c #A1267F",
"oN c #9F247D",
"oB c #B15E95",
"oV c #A93E8A",
"oC c #91877F",
"oZ c #9194A0",
"oA c #C8B4B5",
"oS c #999694",
"oD c #C5AFBC",
"oF c #8E857C",
"oG c #8D837B",
"oH c #CCCBC6",
"oJ c #FFFEF8",
"oK c #4478DF",
"oL c #A6A19A",
"oP c #C1C2C5",
"oI c #857B73",
"oU c #FEF7ED",
"oY c #3B4D73",
"oT c #848893",
"oR c #837971",
"oE c #C6BBC0",
"oW c #FDF5EC",
"oQ c #718DC9",
"o! c #80776E",
"o~ c #FBF3EA",
"o^ c #7F776D",
"o/ c #FAF3E9",
"o( c #B976A3",
"o) c #7E756C",
"o_ c #797271",
"o` c #4263A8",
"o' c #AE5895",
"o] c #EAD9D6",
"o[ c #E1DAD7",
"o{ c #5B82D1",
"o} c #C9C7C6",
"o| c #736E6B",
"O  c #ADA49A",
"O. c #C8C5C5",
"OX c #F1EBE0",
"Oo c #C8C3C5",
"OO c #B26A9C",
"O+ c #C7C1C4",
"O@ c #C5C3C2",
"O# c #8495B7",
"O$ c #A1AAB9",
"O% c #D1CFD1",
"O& c #EBE3DA",
"O* c #A59C92",
"O= c #D6A9BF",
"O- c #2D529D",
"O; c #DCC7C8",
"O: c #CA83B0",
"O> c #E3DBD2",
"O, c #C7C7C7",
"O< c #C5C5C5",
"O1 c #8B9AB7",
"O2 c #A82785",
"O3 c #C19CB4",
"O4 c #A5ABB6",
"O5 c #9F9B99",
"O6 c #CEB7BA",
"O7 c #B4ACA7",
"O8 c #CDB7B9",
"O9 c #B55998",
"O0 c #A1A5B2",
"Oq c #BAB7BA",
"Ow c #747072",
"Oe c #C0B7AC",
"Or c #C2AAB8",
"Ot c #FFFFF7",
"Oy c #AFB2B9",
"Ou c #B9B4AF",
"Oi c #C1A4B7",
"Op c #A8AFBC",
"Oa c None",
/* pixels */
"O<O<O<O<O<O<O<O<O<O<O<O<X+ :O<O<O<O<O<O<O<O<O<O<O<O<O<O<O<O<O<O<",
"O<O<O<O<O<O<O<O<O<O<O<O<X* 4X`O<O<O<.Q iO<O<O<O<O<O<O<O<O<O<O<O<",
"O<O<O<O<O<O<O<O<O<O<O<O< jo0 PO<O< ,X] 'O<O<O<O<O<O<O<O<O<O<O<O<",
"O<O<O<O<O<O<O<O<O<O<O<O<X+ov.)O<O<oE W VO<O<O<O<O<O<O<O<O<O<O<O<",
"O<O<O<O<O<O<O<O<O<O<O<O<O<O1 vO<O<OoXf iO<O<O<O<O<O<O<O<O<O<O<O<",
"O<O<O<O<O<O<O<O<O<O<O<O<O<.ro{XAXAOroM MO<O<O<O<O<O<O<O<O<O<O<O<",
"O<O<O< a 0X&O<O<O<O<O<O<.E  o<X4.joB E.z.ZO<O<O<O<X+.io(o9O<O<O<",
"O<O<O<X+oiXX.XO<O<O< i.B.0X6Xh.w.]O= !O9 9XNXAO<O< ~ok @X+O<O<O<",
"O<O<O<O<X..7.@ +X+ iXe.e ]X! l.|.KO:X8.`o; [ Io}O3ocom #Xr iO<O<",
"O<O<O<O<O<O<oo.>o*oS yo> YXT r.+.^X5.D }oJ do5O;Xpo,OioN UO.O<O<",
"O<O<O<O<O<Op x.foToG.4 {X/XPXmXs._ % uofXoo7XQXb.&.OXtOO LO<O<O<",
"O<O<O<O<O<O$ NX%..XL eXgXWXS < o d.YofofofofXoXCoVox i aX+O<O<O<",
"O<O<O<O<O<X+XHX# Xoh.2 `.[o .VXyXG tofofofofo7.8o]oHO<O<O<O<O<O<",
"O<O<O<O<O<O<O<X; m.ao8.lX$O0o[X- g tofofofofo7 d.U.RO.O<O<O<O<O<",
"O<O<O<X+ot 3 ioZXlX^ *O7XJ.  = TXwoJXoofXoo7Ot 1OXO6X9 JO<O<O<O<",
"O<O<XF.d SoO.5oKX' fo#O5 ZXEoXO%X:.$ F.M.M.s.(o~XnoAX9X~O<O<O<O<",
"O<O<O< ao+o&X+X>.x )O*.; BoY.g.G 2 $o/o2oUoWXuXz sXv.QO<O<O<O<O<",
"O<O<O<O< a aO<OuX<o=.pO o:XdXB cXZO&XzXj &XkXcO>O8onO<O<O<O<O<O<",
"O<O<O<O<O<O<X+O@.Lo6oF.y.1.oX| AXUXK r 8 6 q polX[.- , i.QO<O<O<",
"O<O<O<O<O<X+ ho%OwXYoR.kou.<Xx /X_ogo4oy bXUX!o@.{ zXq (o$.3O<O<",
"O<O<O<O<O<oaXOozX3o_ OoI.kopXD.*Oe ..IOqXI ^ >or ;oDOoo'X{X)O<O<",
"O<O<O<O<O<XFX0.6X2 HXRo^.A.voh.e _owO- R 5.:X .P.#.c.9 w.% aO<O<",
"O<O<O<O< ioPO#.J GO<o3o).Lo!X7oCoj KXao`X1 nXiO<O< i.~O2o.O<O<O<",
"O<O<O<O<.t.= 7 iO<O<O<.WoL.HXM QX}o|.,odXV./O<O<O<O<O+ C.nO<O<O<",
"O<O<O<O<O4.qo-O<O<O<O<O<O<oq.T.}X,os.N DobO<O<O<O<O<O<O<O<O<O<O<",
"O<O<O<O<O<O<O<O<O<O<O<O<O<O<o1.'O<O<.b |O<O<O<O<O<O<O<O<O<O<O<O<",
"O<O<O<O<O<O<O<O<O<O<O<O<O< i.! -O<O<Oy.uX+O<O<O<O<O<O<O<O<O<O<O<",
"O<O<O<O<O<O<O<O<O<O<O<O<O<X(.SO,O<O<X=.C.FO<O<O<O<O<O<O<O<O<O<O<",
"O<O<O<O<O<O<O<O<O<O<O<O<X+.h.moeO<O< i k iO<O<O<O<O<O<O<O<O<O<O<",
"O<O<O<O<O<O<O<O<O<O<O<O<O<X@oQ iO<O<O<O<O<O<O<O<O<O<O<O<O<O<O<O<",
"O<O<O<O<O<O<O<O<O<O<O<O<O< i iO<O<O<O<O<O<O<O<O<O<O<O<O<O<O<O<O<",
"O<O<O<O<O<O<O<O<O<O<O<O<O<O<O<O<O<O<O<O<O<O<O<O<O<O<O<O<O<O<O<O<"
};
