/* XPM */
static char *shaveTranslate[] = {
/* width height ncolors chars_per_pixel */
"32 32 333 2",
/* colors */
"   c #A22D82",
" . c #79839B",
" X c #809EDA",
" o c #6B88C2",
" O c #3B61AA",
" + c #305FB3",
" @ c #B5B7B8",
" # c #43619E",
" $ c #64779A",
" % c #A83081",
" & c #C8C2C4",
" * c #C17DAD",
" = c #A72C80",
" - c #C7C0C3",
" ; c #395C9E",
" : c #8049A2",
" > c #3663BC",
" , c #9160AC",
" < c #BA96B3",
" 1 c #6188CF",
" 2 c #849ECD",
" 3 c #315FB7",
" 4 c #9FA4AC",
" 5 c #AB3287",
" 6 c #C7C6C6",
" 7 c #C6C6C5",
" 8 c #B74096",
" 9 c #C5C4C4",
" 0 c #C4C4C3",
" q c #9A9EA7",
" w c #917E9B",
" e c #C3C2C2",
" r c #B43E93",
" t c #B33E92",
" y c #BCBFC5",
" u c #C1C0C0",
" i c #3765C0",
" p c #ABADB1",
" a c #AD368C",
" s c #2E5096",
" d c #345EB3",
" f c #B36FA2",
" g c #A73286",
" h c #3C6DC8",
" j c #C3A7B8",
" k c #C5C6C7",
" l c #2F5AAE",
" z c #C4C4C6",
" x c #3C5D9D",
" c c #C1A3B6",
" v c #A32E82",
" b c #A42C83",
" n c #455F92",
" m c #A22E81",
" M c #A22A81",
" N c #3968BB",
" B c #A12880",
" V c #2E57A3",
" C c #A0287F",
" Z c #4E59B2",
" A c #9C6A95",
" S c #A4A7AD",
" D c #6087CA",
" F c #AE2F86",
" G c #848F9E",
" H c #8CA8DE",
" J c #BEC3CD",
" K c #3669C5",
" L c #4677D8",
" P c #3964BE",
" I c #809FDC",
" U c #A6B6D3",
" Y c #988FA1",
" T c #AF358A",
" R c #A4B4D1",
" E c #8C929F",
" W c #B3AFC2",
" Q c #946090",
" ! c #828D9F",
" ~ c #C6C5C4",
" ^ c #7E899B",
" / c #5A87DE",
" ( c #B0378E",
" ) c #AA3388",
" _ c #3860AC",
" ` c #C7A8BB",
" ' c #A13689",
" ] c #C6C7C7",
" [ c #2A4D91",
" { c #A2AFC8",
" } c #B48BAF",
" | c #C5C5C6",
".  c #3059AE",
".. c #335AA7",
".X c #989DA7",
".o c #8397BA",
".O c #B2BCD1",
".+ c #3B67BC",
".@ c #BABEC5",
".# c #7E9FE0",
".$ c #A9B7D2",
".% c #BBBBBC",
".& c #8A9DC4",
".* c #315BB2",
".= c #A63187",
".- c #AEABC3",
".; c #A22F83",
".: c #487AD9",
".> c #7154AF",
"., c #A12D82",
".< c #BFBBC3",
".1 c #A8B7D4",
".2 c #516999",
".3 c #3C63AC",
".4 c #3B63AB",
".5 c #35538E",
".6 c #416FC8",
".7 c #C8C4C5",
".8 c #B1B3B5",
".9 c #B0B1B4",
".0 c #5587E2",
".q c #749CE6",
".w c #526B9D",
".e c #3F5787",
".r c #98AFDB",
".t c #AB3488",
".y c #C6C6C6",
".u c #9CA0AA",
".i c #C0C3CA",
".p c #A52C82",
".a c #B9C0CD",
".s c #5E8CE4",
".d c #989CA6",
".f c #B2BDD0",
".g c #B13E91",
".h c #B13C91",
".j c #B03C90",
".k c #BFC0BF",
".l c #BABDC4",
".z c #AF3A8F",
".x c #AE3A8E",
".c c #B3BAC7",
".v c #A0227D",
".b c #AD388D",
".n c #BCBCBC",
".m c #AC388C",
".M c #8A93A2",
".N c #AA368A",
".B c #A93489",
".V c #A83488",
".C c #A93289",
".Z c #A73487",
".A c #476FC0",
".S c #A53485",
".D c #A63286",
".F c #C5C6C8",
".G c #A43084",
".H c #4A648E",
".J c #A33083",
".K c #C3C4C6",
".L c #C1A3B7",
".P c #A32E83",
".I c #A22E82",
".U c #B4ACB4",
".Y c #475E8B",
".T c #7C93BF",
".R c #B0BBD1",
".E c #C8B9C1",
".W c #AABAD5",
".Q c #B5398E",
".! c #9398A4",
".~ c #5083E3",
".^ c #3D64AC",
"./ c #B7B8BA",
".( c #A0A3AA",
".) c #6A94E2",
"._ c #3960A8",
".` c #3E6CC4",
".' c #C8C3C4",
".] c #C0C2C6",
".[ c #4679D9",
".{ c #C7BFC3",
".} c #425D93",
".| c #7690C6",
"X  c #B6BBC6",
"X. c #A6B6D4",
"XX c #AC3188",
"Xo c #C7C7C6",
"XO c #304E8B",
"X+ c #C7C5C6",
"X@ c #C6C5C5",
"X# c #A5A5C9",
"X$ c #B63D95",
"X% c #B53D94",
"X& c #B33F92",
"X* c #B43D93",
"X= c #C2C1C1",
"X- c #ACAEB2",
"X; c #B03D8F",
"X: c #6F8DCC",
"X> c #B03B8F",
"X, c #AE398D",
"X< c #73809B",
"X1 c #AC378B",
"X2 c #9DB1D8",
"X3 c #4D80DC",
"X4 c #C3A6B8",
"X5 c #A53184",
"X6 c #C4A4B9",
"X7 c #C2A6B7",
"X8 c #C4C5C6",
"X9 c #A52F84",
"X0 c #A62D85",
"Xq c #A42F83",
"Xw c #4A7AD9",
"Xe c #C1A4B6",
"Xr c #A32F82",
"Xt c #5F749B",
"Xy c #A22981",
"Xu c #A12980",
"Xi c #B85B9D",
"Xp c #A12780",
"Xa c #8BA4D0",
"Xs c #AF3991",
"Xd c #8FA3CA",
"Xf c #4172D0",
"Xg c #2F539A",
"Xh c #A4A6AD",
"Xj c #A2A4AB",
"Xk c #305BB2",
"Xl c #4A7CDC",
"Xz c #C3C5C8",
"Xx c #B3B3B5",
"Xc c #4A51A4",
"Xv c #5C7EC6",
"Xb c #C0C1C5",
"Xn c #586E97",
"Xm c #77839B",
"XM c #92A2C6",
"XN c #B5BAC4",
"XB c #7C459D",
"XV c #4E6797",
"XC c #3F6DC7",
"XZ c #C8C6C6",
"XA c #BA4098",
"XS c #B2B3B7",
"XD c #C8C4C6",
"XF c #2B4C8F",
"XG c #C5C4C3",
"XH c #535892",
"XJ c #345BA5",
"XK c #894E8F",
"XL c #AC368A",
"XP c #5183DF",
"XI c #AD348B",
"XU c #3D6BC8",
"XY c #365DAA",
"XT c #C6C6C7",
"XR c #C5C6C6",
"XE c #BFC3CA",
"XW c #A52C83",
"XQ c #3359A7",
"X! c #C0A1B4",
"X~ c #C09FB4",
"X^ c #B6BECB",
"X/ c #A1287F",
"X( c #B9589D",
"X) c #C7B5BE",
"X_ c #A9B6D2",
"X` c #9659AC",
"X' c #B9B3C4",
"X] c #B9BABA",
"X[ c #325EB3",
"X{ c #375FAE",
"X} c #416EC5",
"X| c #BA8BAE",
"o  c #858D9E",
"o. c #C8BDC2",
"oX c #BF7CA9",
"oo c #5C719A",
"oO c #7C93C0",
"o+ c #7DA0E2",
"o@ c #4277D3",
"o# c #558ADF",
"o$ c #5786E1",
"o% c #77829A",
"o& c #AC3186",
"o* c #C286AF",
"o= c #386DC9",
"o- c #C8C5C5",
"o; c #C2C4C9",
"o: c #415D93",
"o> c #BEC0C5",
"o, c #939AA8",
"o< c #B6BBC7",
"o1 c #A5B6D4",
"o2 c #6C89C7",
"o3 c #8C92A1",
"o4 c #BCB5B9",
"o5 c #6894E4",
"o6 c #4A54A9",
"o7 c #C7C7C7",
"o8 c #C5C5C5",
"o9 c #A72D84",
"o0 c #B54195",
"oq c #C5C1C5",
"ow c #2E57AB",
"oe c #A32B80",
"or c #7C879B",
"ot c #5A7CBF",
"oy c #BBBEC5",
"ou c #BFBFBF",
"oi c #AE3B8E",
"op c #AD3B8D",
"oa c #AE398E",
"os c #AD398D",
"od c #809CD7",
"of c #A8B5D0",
"og c #AC378C",
"oh c #AB378B",
"oj c #2E5197",
"ok c #AA358A",
"ol c #A93589",
"oz c #9EA3AF",
"ox c #3760AD",
"oc c #A83388",
"ov c #A73387",
"ob c #93ACD9",
"on c #A63186",
"om c #A53185",
"oM c #A43184",
"oN c #A42F84",
"oB c None",
/* pixels */
"o8o8o8o8o8o8o8o8o8o8o8o8o8o8o8o8o8o8o8o8o8o8o8o8o8o8o8o8o8o8o8o8",
"o8o8o8o8o8o8o8o8o8o8o8o8o8o8o8o8o8o8o8o8o8o8o8o8o8o8o8o8o8o8o8o8",
"o8o8o8o8o8o8o8o8o8o8o8oz R.yo8./XaXoo8ou 2 ]o8 7.o Jo8o8o8o8o8o8",
"o8o8o8o8o8o8o8o8o8o8 7Xn.q.yo8 E.~o7o8 p.[.Fo8X@ _.Wo8o8o8o8o8o8",
"o8o8o8o8o8o8o8o8o8o8 7 x.ro8o8o%o5 6o8XhX3 ]o8X@.^X.o8o8o8o8o8o8",
"o8o8o8o8o8o8o8o8o8o8 0ox.Oo8 7 $o+.yo8 qXPo7o8X@.3 Uo8o8o8o8o8o8",
"o8o8o8o8o8o8o8o8o8o8X].6.io8 7.w Ho8o8o3.0o7o8X@.4X.o8o8o8o8o8o8",
"o8o8o8o8o8o8o8o8o8o8Xj.:XTo8 7 ;X2o8o8 ^.s 6o8X@ Oo1o8o8o8o8o8o8",
"o8o8o8o8o8o8o8o8o8o8oro$ 6o8XGXY.Ro8o8X<.) 6o8X@._.1o8o8o8o8o8o8",
"o8o8o8o8o8o8o8o8o8.yXV I 7o8.%.`XEo8 7Xt.# 7o8XGX{.fo8o8o8o8o8o8",
"o8o8o8o8o8o8o8o8o8 0..X_o8o8.( LXTo8 7 #obo8o8X=.+.ao8o8o8o8o8o8",
"o8o8o8o8o8o8o8o8o8XxXUo;o8o8 . / 6o8 ~XJ.$o8o8.nXCXEo8o8o8o8o8o8",
"o8o8o8o8o8o8o8o8o8o XwXoo8.y.2 XX@o8 u NX#X)o8 @XfXzo8o8o8o8o8o8",
"o8o8o8o8o8o8o8o8 7.}odX@o8XGXQofo8o8X-o@X' FoX wXl ]o8o8o8o8o8o8",
"o8o8o8o8o8o8o8o8.k +X^o8o8.8o=Xzo8o8 !o#oq T aXsX`X+o8o8o8o8o8o8",
"o8o8 6X~.LXe cX7 AXB }X7X4 Q : < jX!XK ,X|XLX,X;.QX(.E 7o8o8o8o8",
"o8o8.'.vX/ BXu B.p =oeXy Mo9 %XW bX0 5o& )ogosX>.gX*X% *.7o8o8o8",
"o8o8 & C  .I.I.I v.I.PXrXq.J.GX5on.Dov.Vokoh.boi.hX&o0 8XA `X@o8",
"o8o8 -Xp m  .I v.I v v.PXqXqXqX9om g gocoloh.m.x.j t rX$o*XDo8o8",
"o8o8 - C  .IoM m.,.I v.S v.;oN.G.ZX5.=ov.B.NX1op.z (Xio.o8o8o8o8",
"o8o8.yXZXZ 6 Y Z.< 6 6.Uo6 W 6XZo4Xc.- 6.{.CohXIoaX6 6o8o8o8o8o8",
"o8o8o8o8o8 7.H D.yo8o8 G h.yo8o8 4 K ko8 6.tXX fo-o8o8o8o8o8o8o8",
"o8o8o8o8o8.9 lo<o8o8 9 sXdo8o8 7 nX:.yo8XZ '.> zo8o8o8o8o8o8o8o8",
"o8o8o8o8.y.YXv.yo8o8.X >.Ko8o8.%. .co8o8 6XH 1.yo8o8o8o8o8o8o8o8",
"o8o8o8o8.9owX o8o8 7.5.| 7o8o8XmX} 6o8o8 0 V {o8o8o8o8o8o8o8o8o8",
"o8o8o8 7.eot.yo8o8 S.* yo8o8 0XgXMo8o8o8.u i zo8o8o8o8o8o8o8o8o8",
"o8o8o8.d l.@o8o8 7XO o.yo8o8.M PX8o8o8 6o:o2.yo8o8o8o8o8o8o8o8o8",
"o8o8 eXF.TX@o8o8.!X[Xbo8o8 0oj.&o8o8o8XSXkXNo8o8o8o8o8o8o8o8o8o8",
"o8o8Xm d |o8o8X@ [oOo8o8o8o, 3 zo8o8 7oo.A 6o8o8o8o8o8o8o8o8o8o8",
"o8o8 |.lo8o8o8 7o>.yo8o8o8 6oy 7o8o8o8XR.]o8o8o8o8o8o8o8o8o8o8o8",
"o8o8o8o8o8o8o8o8o8o8o8o8o8o8o8o8o8o8o8o8o8o8o8o8o8o8o8o8o8o8o8o8",
"o8o8o8o8o8o8o8o8o8o8o8o8o8o8o8o8o8o8o8o8o8o8o8o8o8o8o8o8o8o8o8o8"
};
