/* XPM */
static char *shaveSelectTip[] = {
/* width height ncolors chars_per_pixel */
"32 32 214 2",
/* colors */
"   c #5570A6",
" . c #5389F0",
" X c #5289EF",
" o c #406AB9",
" O c #96A6C8",
" + c #6C8DCD",
" @ c #C7B6C0",
" # c #588FF8",
" $ c #BB69A4",
" % c #4C7EDF",
" & c #B86BA1",
" * c #4470C0",
" = c #C7C0C3",
" - c #BFC1C5",
" ; c #B7BCC7",
" : c #B9BBBF",
" > c #4F82E5",
" , c #B5B7BB",
" < c #C7C6C6",
" 1 c #C6C6C5",
" 2 c #C5C4C4",
" 3 c #7C94C5",
" 4 c #B34092",
" 5 c #B33E92",
" 6 c #B13C90",
" 7 c #609AFC",
" 8 c #A0A9BA",
" 9 c #5C94F8",
" 0 c #A9B1C6",
" q c #446DBC",
" w c #558CF1",
" e c #538AEF",
" r c #C2C2C4",
" t c #BBBFC7",
" y c #8C98B0",
" u c #95A5C6",
" i c #C7B5BF",
" p c #5385E5",
" a c #97A4BE",
" s c #A551A8",
" d c #AEB6C4",
" f c #BB68A3",
" g c #994CA6",
" h c #446FBF",
" j c #AFB3BB",
" k c #5A8FEF",
" l c #598DEE",
" z c #7994C8",
" x c #4E6CAB",
" c c #96A7CA",
" v c #6B8ECE",
" b c #708DC9",
" n c #5790F9",
" m c #C8C5C6",
" M c #416DBF",
" N c #406BBE",
" B c #4A7AD5",
" V c #8E99AE",
" C c #4878D3",
" Z c #C396B4",
" A c #977096",
" S c #5083E8",
" D c #5D95F8",
" F c #4F75BC",
" G c #AE318C",
" H c #588FF3",
" J c #9E449D",
" K c #C17DA8",
" L c #A7ADB9",
" P c #5287ED",
" I c #5187EC",
" U c #5F99FD",
" Y c #8893AB",
" T c #A0A5B2",
" R c #5C78AE",
" E c #5882D5",
" W c #ACB3C1",
" Q c #548BF2",
" ! c #C0C1C4",
" ~ c #698ED5",
" ^ c #627EB7",
" / c #BCBDC0",
" ( c #4573CC",
" ) c #5276BB",
" _ c #4E80E2",
" ` c #5891F9",
" ' c #588FF9",
" ] c #7096DF",
" [ c #97A0B6",
" { c #96A0B5",
" } c #999FAE",
" | c #8E9BB7",
".  c #5E96F8",
".. c #AE388B",
".X c #5E94F8",
".o c #5D94F7",
".O c #5B92F5",
".+ c #C6C6C6",
".@ c #416CC1",
".# c #C4C4C4",
".$ c #BEBEBE",
".% c #456FBE",
".& c #7895CF",
".* c #558CF2",
".= c #C2C2C5",
".- c #C1C2C4",
".; c #9AA8C2",
".: c #4976CF",
".> c #BDBEC0",
"., c #C7B7C0",
".< c #5287E5",
".1 c #B577A8",
".2 c #5A92FA",
".3 c #4664A1",
".4 c #BB68A4",
".5 c #578BED",
".6 c #8C98B4",
".7 c #5689EC",
".8 c #4978D2",
".9 c #9DA7BE",
".0 c #93A2BE",
".q c #C18CB0",
".w c #ABB2C5",
".e c #568EF9",
".r c #768AB2",
".t c #578DF0",
".y c #C6C5C5",
".u c #629BFE",
".i c #C49AB6",
".p c #5F99FB",
".a c #5085E9",
".s c #4471C6",
".d c #72749A",
".f c #578FF3",
".g c #578DF3",
".h c #496FB7",
".j c #5389EF",
".k c #4875CD",
".l c #7463BD",
".z c #5284E4",
".x c #4466A8",
".c c #5B93FA",
".v c #5A91F9",
".b c #6286CC",
".n c #ADB5C3",
".m c #5A81CE",
".M c #558DF4",
".N c #588CED",
".B c #C8BEC3",
".V c #C0C1C5",
".C c #BEBFC3",
".Z c #79859D",
".A c #B53890",
".S c #BC75A7",
".D c #A1A7B7",
".F c #697897",
".G c #C6A1B7",
".H c #B33891",
".J c #4B76CC",
".K c #B9BBC1",
".L c #4166AB",
".P c #5E79AD",
".I c #B84C99",
".U c #C4C4C5",
".Y c #C1C2C2",
".T c #5388EE",
".R c #5288ED",
".E c #6098FE",
".W c #638AD6",
".Q c #BCBCBD",
".! c #5B92F9",
".~ c #627AD5",
".^ c #588EF6",
"./ c #BB66A2",
".( c #C4C6C8",
".) c #6D93D9",
"._ c #BABFC8",
".` c #B4BCCC",
".' c #BD74A7",
".] c #6589D1",
".[ c #5183E5",
".{ c #A9368D",
".} c #5384DD",
".| c #7E8DAE",
"X  c #7D8DAD",
"X. c #4F7ED9",
"XX c #436DC0",
"Xo c #6B86B9",
"XO c #BEC0C5",
"X+ c #9EA9C0",
"X@ c #5287E9",
"X# c #579AFB",
"X$ c #6C8BC7",
"X% c #5885DB",
"X& c #49699E",
"X* c #4F80DC",
"X= c #C5C5C5",
"X- c #7C88A5",
"X; c #C3C3C3",
"X: c #B23F92",
"X> c #A7ADB8",
"X, c #C1C1C1",
"X< c #B6BFCA",
"X1 c #6099FD",
"X2 c #B9BCC3",
"X3 c #99A5BE",
"X4 c #B7BAC1",
"X5 c #5B93F8",
"X6 c #A6B0C4",
"X7 c #C4C5C7",
"X8 c #7C95C9",
"X9 c #C2C3C5",
"X0 c #4D7BD3",
"Xq c None",
/* pixels */
"X=X=X=X=X=X=X=X=X=X=X=X=X=X=X=X=X=X=X=X=X=X=X=X=X=X=X=X=X=X=X=X=",
"X=X=X=X=X=X=X=X=X=X=X=X=X=X=X=X=X=X=X=X=X=X=X=X=X=X=X=X=X=X=X=X=",
"X=X=X=X=X=X=X=X=X=X=X=X=X=X=X=X= 1.+ <.+ 1X=X=X=X=X=X=X=X=X=X=X=",
"X=X=X=X=X=X=X=X=X=X=X=X=X= <XO.;X8 v.] + 3 a.K 1X=X=X=X=X=X=X=X=",
"X=X=X=X=X=X=X=X=X=X=X= < d.W w.v.* P.a.T.M #.R.J |.yX=X=X=X=X=X=",
"X=X=X=X=X=X=X=X=X=X=.V ~.c.t.s.P yX> j L.6Xo.k.*.^.% /X=X=X=X=X=",
"X=X=X=X= 1.y.yX=.+.w.7.X MX-X,.+X=X=X=X=X=.+X= 8X0.E NX;X=X=X=X=",
"X=X=X= 1 Z.S.' K & J.lX&.QX=X=X=X=X=X=X=X=X=X=X= r E.oX X=X=X=X=",
"X=X=X=.+ $.I.1 g s.A A 1X=X=X=X=X=X=X=X=X=X=X=X=X=.n.p.h 1X=X=X=",
"X=X=X=.+./.G.(X#.~.{.,X=X=X=X=X=X=X=X=X=X=X=X=X=X=X9.O *.yX=X=X=",
"X=X=X=.+ f.iX=X<.d...,X=X=X=X=X=X=X=X=X=X=X=X=X=X= -.  q.yX=X=X=",
"X=X=X=.+.4.q < < = 6 @X=X=X=X=X=X=X=X=X=X=X=X=X=X= u.u R.+X=X=X=",
"X=X=X=.+ f.HX: 5 4 G iX=X=X=X=X=X=X=X=X=X=X=X=X=X2 l.< TX=X=X=X=",
"X=X=X=.y.B @.,., @ i mX=X=X=X=X=X=X=X=X=X=X=.+ W p D  .+X=X=X=X=",
"X=X=X=X=X=X=X=X=X=X=X=X=X=X=X=X=X=X=X=X= <X4X$.g H x 2X=X=X=X=X=",
"X=X=X=X=X=X=X=X=X=X=X=X=X=X=X=X=X=.+ !.0.m e.2 C.| 1X=X=X=X=X=X=",
"X=X=X=X=X=X=X=X=X=X=X=X=X=X=X=X=.9.bX@.v w.:.r.>X=X=X=X=X=X=X=X=",
"X=X=X=X=X=X=X=X=X=X=X=X=X=.+X+X*.!.f B ^.D.#.yX=X=X=X=X=X=X=X=X=",
"X=X=X=X=X=X=X=X=X=X=X=X= < z 9.N ) {.Y.+X=X=X=X=X=X=X=X=X=X=X=X=",
"X=X=X=X=X=X=X=X=X=X=X=X= O 7X0 V 1X=X=X=X=X=X=X=X=X=X=X=X=X=X=X=",
"X=X=X=X=X=X=X=X=X=X=X=.+ k.} }X=X=X=X=X=X=X=X=X=X=X=X=X=X=X=X=X=",
"X=X=X=X=X=X=X=X=X=X=X= tX1.x 1X=X=X=X=X=X=X=X=X=X=X=X=X=X=X=X=X=",
"X=X=X=X=X=X=X=X=X=X=X=._ U.3 1X=X=X=X=X=X=X=X=X=X=X=X=X=X=X=X=X=",
"X=X=X=X=X=X=X=X=X=X=X=X7X5 o.$X=X=X=X=X=X=X=X=X=X=X=X=X=X=X=X=X=",
"X=X=X=X=X=X=X=X=X=X=X=.+ ].5.F.+X=X=X=X=X=X=X=X=X=X=X=X=X=X=X=X=",
"X=X=X=X=X=X=X=X=X=X=X=X= ; `.8.Z.yX=X=X=X=X=X=X=X=X=.+.+X=X=X=X=",
"X=X=X=X=X=X=X=X=X=X=X=X=.y c n.[.L Y ,X;.y 1 1.# : [ F.`X=X=X=X=",
"X=X=X=X=X=X=X=X=X=X=X=X=X= 1 0.z ' X % (.@ hXX ( _ Q.e.).+X=X=X=",
"X=X=X=X=X=X=X=X=X=X=X=X=X=X=X=.+X6.&X% > I ..j SX. bX3.-.yX=X=X=",
"X=X=X=X=X=X=X=X=X=X=X=X=X=X=X=X=X=.+ <X=.=.C !.U.+.+X=X=X=X=X=X=",
"X=X=X=X=X=X=X=X=X=X=X=X=X=X=X=X=X=X=X=X=X=X=X=X=X=X=X=X=X=X=X=X=",
"X=X=X=X=X=X=X=X=X=X=X=X=X=X=X=X=X=X=X=X=X=X=X=X=X=X=X=X=X=X=X=X="
};
