/* XPM */
static char * shaveMerge_xpm[] = {
"32 32 168 2",
"  	c #C5C5C5",
". 	c #CACACA",
"+ 	c #C6C6C6",
"@ 	c #D6D6D6",
"# 	c #C7C7C7",
"$ 	c #DEDEDE",
"% 	c #E1E1E1",
"& 	c #F0F0F0",
"* 	c #F1F1F1",
"= 	c #D5D5D5",
"- 	c #CDCDCD",
"; 	c #EFEFEF",
"> 	c #FFFFFF",
", 	c #EBEBEB",
"' 	c #F6F6F6",
") 	c #FDFDFD",
"! 	c #E5E5E5",
"~ 	c #C9C9C9",
"{ 	c #CBCBCB",
"] 	c #E9E9E9",
"^ 	c #FBFBFB",
"/ 	c #E7E7E7",
"( 	c #E3E3E3",
"_ 	c #C8C8C8",
": 	c #D2D2D2",
"< 	c #CFCFCF",
"[ 	c #C3C4C5",
"} 	c #BFC1C4",
"| 	c #C4C4C5",
"1 	c #C4C5C5",
"2 	c #A9B1C2",
"3 	c #B5BAC3",
"4 	c #C2C3C5",
"5 	c #BEC0C4",
"6 	c #B2B7C3",
"7 	c #4D70B7",
"8 	c #AAB2C2",
"9 	c #5073B8",
"0 	c #8195BD",
"a 	c #899BBE",
"b 	c #466CB7",
"c 	c #B8BCC3",
"d 	c #BBBEC4",
"e 	c #3E66B6",
"f 	c #93A2BF",
"g 	c #4F72B8",
"h 	c #7E93BD",
"i 	c #7D92BD",
"j 	c #3761B5",
"k 	c #B9BCC4",
"l 	c #C3C3C5",
"m 	c #4C70B7",
"n 	c #5173B8",
"o 	c #7B91BD",
"p 	c #BCBFC4",
"q 	c #9DA9C0",
"r 	c #9CA8C0",
"s 	c #607EBA",
"t 	c #788FBC",
"u 	c #3862B5",
"v 	c #BDC0C4",
"w 	c #4369B6",
"x 	c #728BBC",
"y 	c #8E9EBF",
"z 	c #AEB5C2",
"A 	c #7A90BD",
"B 	c #4268B6",
"C 	c #5274B8",
"D 	c #7C92BD",
"E 	c #748CBC",
"F 	c #3C65B6",
"G 	c #436AB6",
"H 	c #BABDC4",
"I 	c #5576B8",
"J 	c #8C9DBF",
"K 	c #ABB3C2",
"L 	c #718ABC",
"M 	c #4067B6",
"N 	c #4168B6",
"O 	c #C1C2C5",
"P 	c #AFB5C2",
"Q 	c #3B64B6",
"R 	c #8396BE",
"S 	c #9BA8C0",
"T 	c #5375B8",
"U 	c #6D87BB",
"V 	c #5879B9",
"W 	c #496EB7",
"X 	c #ACB3C2",
"Y 	c #6A85BB",
"Z 	c #476CB7",
"` 	c #6F89BB",
" .	c #6E87BB",
"..	c #4269B6",
"+.	c #B4B9C3",
"@.	c #99A6C0",
"#.	c #A7B0C2",
"$.	c #3A63B5",
"%.	c #BABEC4",
"&.	c #5475B8",
"*.	c #798FBC",
"=.	c #6682BA",
"-.	c #4B6FB7",
";.	c #3963B5",
">.	c #9DA9C1",
",.	c #3861B5",
"'.	c #9FAAC1",
").	c #456BB7",
"!.	c #446AB7",
"~.	c #6884BB",
"{.	c #788EBC",
"].	c #627FBA",
"^.	c #4E71B8",
"/.	c #A5AFC1",
"(.	c #8498BE",
"_.	c #5F7DB9",
":.	c #778EBC",
"<.	c #3F66B6",
"[.	c #A6AFC2",
"}.	c #5D7CB9",
"|.	c #6984BB",
"1.	c #ADB4C2",
"2.	c #3D65B6",
"3.	c #5E7CB9",
"4.	c #5777B9",
"5.	c #758DBC",
"6.	c #5B7AB9",
"7.	c #B0B6C3",
"8.	c #A8B1C2",
"9.	c #4A6EB7",
"0.	c #8296BD",
"a.	c #5C7BB9",
"b.	c #7F94BD",
"c.	c #B7BBC3",
"d.	c #A0ABC1",
"e.	c #5677B9",
"f.	c #5878B9",
"g.	c #95A3C0",
"h.	c #8094BD",
"i.	c #4068B6",
"j.	c #98A6C0",
"k.	c #5979B9",
"l.	c #BDBFC4",
"m.	c #5072B8",
"n.	c #91A0BF",
"o.	c #5A79B9",
"p.	c #5778B9",
"q.	c #738BBC",
"r.	c #4D71B8",
"s.	c #6480BA",
"t.	c #A5AEC1",
"u.	c #5677B8",
"v.	c #6783BA",
"w.	c #B3B8C3",
"x.	c #6B86BB",
"y.	c #5A7AB9",
"z.	c #6C87BB",
"A.	c #A3ADC1",
"B.	c #9BA7C0",
"C.	c #3962B5",
"D.	c #8799BE",
"E.	c #6582BA",
"F.	c #768DBC",
"G.	c #8497BE",
"H.	c #96A4C0",
"I.	c #BCBEC4",
"J.	c #B2B8C3",
"K.	c #8B9CBE",
"                                                                ",
"                                                                ",
"                                                                ",
"                                                                ",
"                  . +                         @ #               ",
"    + $ % % % % % & * = +                 - ; > * & & & & , #   ",
"    # ' ) ) ) ) ) > > ! ~                 { ] ^ ] / / / / ( #   ",
"      _ _ _ _ _ _ = :                         <                 ",
"                                                                ",
"                                                                ",
"                  [ } |     1 2 3       4 5 1                   ",
"                  6 7 8     [ 9 0       a b c                   ",
"                  d e f     [ g h       i j k                   ",
"                  l m 0     | n h       o j p       q r         ",
"                    s s     | n h       t u v     d w x         ",
"        [ y z       A B v   1 C D       E F 5     h G H         ",
"        4 I I 4     J u K   1 C D       L M }   d N a     } O   ",
"          P Q R     r j S   1 T A       U G }   J e H   } V o   ",
"            A W 4   X j J     T A       Y Z 4 l C `   [  ...K   ",
"    +.@.    #.$.8   %.u o     &.*.      =.-.  P ;.>.  8 ,.'.    ",
"    r j f   O ).0   O !.~.    I {.      ].^.  6 e /.  (.Z l     ",
"      t Z H   R -.k 1 9 _.    I :.      _.C   6 <.[.  }.|.      ",
"      H <.r   1.2.1.  T 3.    4.5.      6.I   7.<.8.  9.0.      ",
"      } !.J   7.<.#.  I a.    4.5.      V V   z <.8 | Z J       ",
"      4 m b.  c.<.d.  e.6.    f.E     1 I a.  1.<.X O ..g.      ",
"      [ 9 h.  p i.j.  f.k.    k.E     | n s   K <.z l.<.r       ",
"      [ m.h.  5 ).n.  o.p.    o.q.    4 r.s.  8 <.7.3 <.t.      ",
"      [ m.h.  O 9.a   6.u.    6.L     O W v.  8.<.w.1.<.X       ",
"      [ m.h.  l ^.0.  }.T     6.L     O ).x.  [.<.3 t.e +.      ",
"      [ 7 h     n t   y.m 1   k.z.    } ;.|.  A.u c.B.C.H       ",
"      [ a.D.    E.i   0 F.1   5.G.    4 o H.  P Y I.J.K.O       ",
"                                                                "};
