/* XPM */
static char *shaveUnlock[] = {
/* width height ncolors chars_per_pixel */
"32 32 271 2",
/* colors */
"   c #000000",
" . c #A69E99",
" X c #9E7863",
" o c #B1ACA7",
" O c #856C5E",
" + c #755A4B",
" @ c #C4C2C0",
" # c #B18972",
" $ c #C69A80",
" % c #9A7662",
" & c #B08771",
" * c #AF8770",
" = c #C5987F",
" - c #836352",
" ; c #C4987E",
" : c #826351",
" > c #C3967D",
" , c #97725F",
" < c #95725D",
" 1 c #0C0908",
" 2 c #93705B",
" 3 c #BF9279",
" 4 c #A87F69",
" 5 c #C7C6C6",
" 6 c #C6C6C5",
" 7 c #5B473B",
" 8 c #6C5445",
" 9 c #AB856F",
" 0 c #BE947B",
" q c #A8816C",
" w c #9F958E",
" e c #BB9078",
" r c #BA8E77",
" t c #8D6C58",
" y c #8C6A57",
" u c #B58A72",
" i c #2B211C",
" p c #14100C",
" a c #B2ABA7",
" s c #EBBA9D",
" d c #785D4D",
" f c #968D88",
" g c #B79E8E",
" h c #C99B82",
" j c #B28A72",
" k c #C89B81",
" l c #866654",
" z c #B28872",
" x c #B18871",
" c c #C79980",
" v c #856453",
" b c #C1BFBC",
" n c #AE846E",
" m c #A79588",
" M c #C6C5C4",
" N c #705748",
" B c #826453",
" V c #CBA894",
" C c #C0957C",
" Z c #D6A68B",
" A c #7E604F",
" S c #A9826C",
" D c #BF937B",
" F c #BE937A",
" G c #BD9179",
" H c #A07F6D",
" J c #A17A64",
" K c #B3ACA7",
" L c #B1AAA5",
" P c #BDB8B4",
" I c #E5B396",
" U c #A27E68",
" Y c #A9A29D",
" T c #99908A",
" R c #B78D76",
" E c #CD9E85",
" W c #B68D75",
" Q c #A07A66",
" ! c #978E88",
" ~ c #896956",
" ^ c #B48B73",
" / c #886755",
" ( c #A59E99",
" ) c #9D7863",
" _ c #A29C96",
" ` c #B0876F",
" ' c #B4998A",
" ] c #99745F",
" [ c #C5967D",
" { c #CEA489",
" } c #958072",
" | c #AF8771",
".  c #D9A98D",
".. c #AD856F",
".X c #AC856E",
".o c #C2967D",
".O c #806150",
".+ c #A58471",
".@ c #C0947B",
".# c #94705D",
".$ c #A9816B",
".% c #926E5B",
".& c #1C1612",
".* c #C6C6C6",
".= c #A27B64",
".- c #CE9D82",
".; c #F2C0A2",
".: c #B4ADA7",
".> c #D7A98E",
"., c #7E6151",
".< c #7D6150",
".1 c #A38472",
".2 c #D1A388",
".3 c #BDB7B3",
".4 c #A57F6A",
".5 c #9C938C",
".6 c #BA9078",
".7 c #B98E77",
".8 c #BAB5B0",
".9 c #B88E76",
".0 c #B78E75",
".q c #988F88",
".w c #8A6856",
".e c #B58A73",
".r c #A59D98",
".t c #B1ABA7",
".y c #BDB9B6",
".u c #E6B699",
".i c #614A3E",
".p c #6F5A4F",
".a c #CB9F85",
".s c #C5C3C1",
".d c #958D88",
".f c #DEAC91",
".g c #C3C1BF",
".h c #938B86",
".j c #928B85",
".k c #B08871",
".l c #C69980",
".z c #AD9B8F",
".x c #836452",
".c c #AF8670",
".v c #C5977F",
".b c #987560",
".n c #AE866F",
".m c #816250",
".M c #AD846E",
".N c #0D0A09",
".B c #80604F",
".V c #C0937A",
".C c #BF9379",
".Z c #BBB9B7",
".A c #A0948C",
".S c #926F5A",
".D c #C6C5C5",
".F c #C59B82",
".G c #978A83",
".H c #BE937B",
".J c #D4A48A",
".K c #BD937A",
".L c #D3A489",
".P c #E8B597",
".I c #BC9179",
".U c #BB9178",
".Y c #8F6D5A",
".T c #BB8F78",
".R c #BA8F77",
".E c #B98F76",
".W c #A37C67",
".Q c #B88D75",
".! c #604739",
".~ c #A07A64",
".^ c #B3ACA8",
"./ c #B2ACA7",
".( c #B1AAA6",
".) c #AFA8A4",
"._ c #7A5E4F",
".` c #8C6B5A",
".' c #968E88",
".] c #B48B74",
".[ c #E0AD92",
".{ c #886756",
".} c #B38B73",
".| c #C99C82",
"X  c #9D7864",
"X. c #B4B0AC",
"XX c #B28972",
"Xo c #856553",
"XO c #BDBAB8",
"X+ c #E2B597",
"X@ c #B8B6B3",
"X# c #745A4C",
"X$ c #C7C6C5",
"X% c #826553",
"X& c #BBACA2",
"X* c #C2967E",
"X= c #C1967D",
"X- c #95725F",
"X; c #AA836D",
"X: c #C0947C",
"X> c #BF947B",
"X, c #BD9279",
"X< c #916E5B",
"X1 c #906E5A",
"X2 c #BC9078",
"X3 c #8F6C59",
"X4 c #A57D68",
"X5 c #B88C74",
"X6 c #BDB0A7",
"X7 c #B58A71",
"X8 c #B4ADA8",
"X9 c #7B5F4F",
"X0 c #CFA187",
"Xq c #CE9F86",
"Xw c #B78E76",
"Xe c #988F89",
"Xr c #B68C75",
"Xt c #CC9D84",
"Xy c #978F88",
"Xu c #B58C74",
"Xi c #CB9D83",
"Xp c #896856",
"Xa c #9F7965",
"Xs c #A69F9A",
"Xd c #968D87",
"Xf c #876654",
"Xg c #A49D98",
"Xh c #B18870",
"Xj c #9B7561",
"Xk c #C3957B",
"Xl c #A6836F",
"Xz c #C19379",
"Xx c #A2968C",
"Xc c #C09178",
"Xv c #C7C5C4",
"Xb c #C5C3C2",
"Xn c #C3C1C0",
"Xm c #9A7763",
"XM c #DAAA8E",
"XN c #AE8670",
"XB c #C4977F",
"XV c #AD866F",
"XC c #AC846E",
"XZ c #AB846D",
"XA c #C1957C",
"XS c #8B6E5E",
"XD c #070604",
"XF c #A77E69",
"XG c #C5C5C5",
"XH c #B98D74",
"XJ c #BFB1A8",
"XK c #42332A",
"XL c #EEBB9E",
"XP c #B4ACA7",
"XI c #B3ACA6",
"XU c #544035",
"XY c #A29892",
"XT c #D4A48B",
"XR c #D2A489",
"XE c #A5806A",
"XW c #785C4B",
"XQ c #BA8F78",
"X! c #E5B395",
"X~ c #B98F77",
"X^ c #B88F76",
"X/ c #B88D76",
"X( c #B78D75",
"X) c #CD9E84",
"X_ c #CC9E83",
"X` c #8A6956",
"X' c None",
/* pixels */
"XGXGXGXGXGXGXGXGXGXGXGXGXGXGXGXGXGXGXGXGXGXGXGXGXGXGXGXGXGXGXGXG",
"XGXGXGXGXGXGXGXGXGXGXGXGXGXGXGXGXGXGXGXGXGXGXGXGXGXGXGXGXGXGXGXG",
"XGXGXGXGXGXGXGXGXGXGXGXGXG MX. w w.t.sXGXGXGXGXGXGXGXGXGXGXGXGXG",
"XGXGXGXGXGXGXGXGXGXGXG.*Xs BX4X7Xz.C Q.AX$XGXGXGXGXGXGXGXGXGXGXG",
"XGXGXGXGXGXGXGXGXGXG.*.G.=Xk x ' g.F.PXR }X$XGXGXGXGXGXGXGXGXGXG",
"XGXGXGXGXGXGXGXGXGXG.( J 3.zXv.* 6X$XJX+.>XxXGXGXGXGXGXGXGXGXGXG",
"XGXGXGXGXGXGXGXGXGX$XS [ m.*XGXGXGXGXGX6X! 9XbXGXGXGXGXGXGXGXGXG",
"XGXGXGXGXGXGXGXGXG b 4Xh.sXGXGXGXGXGXGX$.I.- LXGXGXGXGXGXGXGXGXG",
"XGXGXGXGXGXGXGXGXG.y uXlX$XGXGXGXGXGXG 6X& V.:XGXGXGXGXGXGXGXGXG",
"XGXGXGXGXGXGXGXGXG PX5.+X$XGXGXGXGXGXGXG 6.* 6XGXGXGXGXGXGXGXGXG",
"XGXGXGXGXGXGXGXGXG.8XH HX$XGXGXGXGXGXGXGXGXGXGXGXGXGXGXGXGXGXGXG",
"XGXGXGXGXGXGXGXGXG.3Xc.1 5XGXGXGXGXGXGXGXGXGXGXGXGXGXGXGXGXGXGXG",
"XGXGXGXGXGXGXGXGX$XY.Y OXOXn.g.g.g.g.g.g.g.g.gX$XGXGXGXGXGXGXGXG",
"XGXGXGXGXGXGXG M.pXWX9.< A A.O.m -.xXo l.{ ~.wX# @XGXGXGXGXGXGXG",
"XGXGXGXGXGXGXG a.S * #X/.HX* $XtX0.J. .f IXL.;Xa.5XGXGXGXGXGXGXG",
"XGXGXGXGXGXGXGXI XX( RX~.I.KX:X=XB.l hXiXq.LXT.b.qXGXGXGXGXGXGXG",
"XGXGXGXGXGXGXGXP.~XQ.9.9.E.RX>.o.o D 0X:X=.v.oX< TXGXGXGXGXGXGXG",
"XGXGXGXGXGXGXG.:XFXA e.EX/.UX- 7.,Xw.RX^.7X~X/ tXeXGXGXGXGXGXGXG",
"XGXGXGXGXGXGXG.^.$ =X, r.I.`XD    .i.UXrXuXr ^ yXeXGXGXGXGXGXGXG",
"XGXGXGXGXGXGXGX8 n.| D.6 DXK      .& | W.].}XXX` !XGXGXGXGXGXGXG",
"XGXGXGXGXGXGXGX8 ` E.@ e FXU       i j.] j z *XpXyXGXGXGXGXGXGXG",
"XGXGXGXGXGXGXG.:.e.2 >.I GXm 1     8.RXX z.kXN / fXGXGXGXGXGXGXG",
"XGXGXGXGXGXGXG K.Q Z ; G.U.4 p     +.9 x.k.c.XXf.'XGXGXGXGXGXGXG",
"XGXGXGXGXGXGXGX8X2XM c F.I U.N     N.9.k &XVXC lXdXGXGXGXGXGXGXG",
"XGXGXGXGXGXGXGX8.V.[ k DX~ xX%._ dX XX |.nXCX; v.dXGXGXGXGXGXGXG",
"XGXGXGXGXGXGXG K.a.uX) C.7.0.TX~.7 j.c.n..X; q :.hXGXGXGXGXGXGXG",
"XGXGXGXGXGXGXG.: { sX_X:X~ R ^XX.k *XV.MXZ SXE.B.jXGXGXGXGXGXGXG",
"XGXGXGXGXGXGXG.s %Xh.W )Xj ] , <.# 2.%X1X3 yXp.!X@XGXGXGXGXGXGXG",
"XGXGXGXGXGXGXGXG.g.)././ o o Y.r . (Xs ( (Xg _.Z.DXGXGXGXGXGXGXG",
"XGXGXGXGXGXGXGXGXGXGXGXGXGXGXGXGXGXGXGXGXGXGXGXGXGXGXGXGXGXGXGXG",
"XGXGXGXGXGXGXGXGXGXGXGXGXGXGXGXGXGXGXGXGXGXGXGXGXGXGXGXGXGXGXGXG",
"XGXGXGXGXGXGXGXGXGXGXGXGXGXGXGXGXGXGXGXGXGXGXGXGXGXGXGXGXGXGXGXG"
};
