/* XPM */
static char *shaveSelectUnHide[] = {
/* width height ncolors chars_per_pixel */
"32 32 320 2",
/* colors */
"   c #000000",
" . c #3158A7",
" X c #3965BC",
" o c #4A75D0",
" O c #9C9B99",
" + c #989795",
" @ c #2B2B2A",
" # c #6A7896",
" $ c #817F7B",
" % c #232322",
" & c #3459A3",
" * c #BFC1C5",
" = c #88A3DB",
" - c #7390CD",
" ; c #201F1F",
" : c #1D1D1C",
" > c #4070D3",
" , c #325497",
" < c #1B1B1A",
" 1 c #191918",
" 2 c #5F84CD",
" 3 c #A4B0C8",
" 4 c #B7B6B3",
" 5 c #C7C6C6",
" 6 c #C6C6C5",
" 7 c #98AAD0",
" 8 c #C5C4C4",
" 9 c #C4C4C3",
" 0 c #4A79D6",
" q c #C3C2C2",
" w c #464644",
" e c #969AA3",
" r c #B0AEAC",
" t c #3B588F",
" y c #3660B5",
" u c #5081DF",
" i c #3E6FCA",
" p c #72716F",
" a c #979490",
" s c #6E7B96",
" d c #3B3A39",
" f c #C6C6C8",
" g c #3C6BC8",
" h c #6D6B6A",
" j c #353433",
" k c #2E2E2C",
" l c #BABABC",
" z c #C4C6C9",
" x c #5D5B5A",
" c c #385CA6",
" v c #7B96CA",
" b c #5A5957",
" n c #8E8C8A",
" m c #607295",
" M c #698ACC",
" N c #3861B3",
" B c #697CA1",
" V c #CCCBCA",
" C c #B7B8BC",
" Z c #416EC9",
" A c #C6C5C4",
" S c #3C6AC4",
" D c #3B68C3",
" F c #C4C3C2",
" G c #547CCB",
" H c #A8ADB7",
" J c #C2C1C0",
" K c #8BA3D6",
" L c #B3BCCF",
" P c #B7BDC9",
" I c #B0AFAB",
" U c #545554",
" Y c #1D1E1E",
" T c #2E549F",
" R c #A9AAAE",
" E c #4170CC",
" W c #4F4F4F",
" Q c #3D3B3A",
" ! c #161617",
" ~ c #C6C7C7",
" ^ c #4A4B4A",
" / c #6F6E6B",
" ( c #4B7AD9",
" ) c #383735",
" _ c #C3C3C4",
" ` c #BDC0C8",
" ' c #425C8E",
" ] c #8C94A5",
" [ c #BABBBB",
" { c #707E9A",
" } c #737272",
" | c #345FB5",
".  c #EEEEEE",
".. c #335FB4",
".X c #5B81CE",
".o c #7996D1",
".O c #3968C7",
".+ c #95A9D2",
".@ c #5B5A57",
".# c #3C69C0",
".$ c #3058A7",
".% c #E5E6E5",
".& c #303130",
".* c #8B8986",
".= c #53524F",
".- c #A8B4CA",
".; c #4C6394",
".: c #9CA0A7",
".> c #B6B4B0",
"., c #3058AA",
".< c #3E5D9A",
".1 c #617398",
".2 c #202120",
".3 c #BFBEBC",
".4 c #1E1D1E",
".5 c #BDBCBA",
".6 c #737F99",
".7 c #BAB8B7",
".8 c #7998D7",
".9 c #FFFFFE",
".0 c #819ACB",
".q c #B7B6B4",
".w c #304F8C",
".e c #C6C6C6",
".r c #141514",
".t c #C0C3CA",
".y c #9CABCB",
".u c #6C6B67",
".i c #464645",
".p c #C0C0C0",
".a c #AFAEAC",
".s c #B5BCC9",
".d c #BEBEBE",
".f c #787776",
".g c #3B5890",
".h c #0B0B0B",
".j c #BCBCBC",
".k c #8DA0C6",
".l c #BABABA",
".z c #747E93",
".x c #A3A5AA",
".c c #727170",
".v c #3F6DCC",
".b c #55678F",
".n c #4E7FDE",
".m c #496597",
".M c #A5A4A2",
".N c #3C6BC9",
".B c #393A38",
".V c #C5C6C8",
".C c #6E91D9",
".Z c #3969C6",
".A c #ADAFB7",
".S c #82899A",
".D c #4575D5",
".F c #686766",
".G c #3864BB",
".H c #A9B8D4",
".J c #9B9A98",
".K c #656563",
".L c #3560B8",
".P c #B9BABC",
".I c #406FD0",
".U c #7D9BD7",
".Y c #809AD0",
".T c #605F5E",
".R c #262625",
".E c #94AAD3",
".W c #D5D5D4",
".Q c #7F7C79",
".! c #667592",
".~ c #9E9E9E",
".^ c #2E57A7",
"./ c #7D7A77",
".( c #565554",
".) c #555553",
"._ c #1F1E1E",
".` c #A6B1CA",
".' c #314E8C",
".] c #C7C7C6",
".[ c #151414",
".{ c #C6C5C5",
".} c #C5C5C4",
".| c #BFC2C8",
"X  c #3A68C3",
"X. c #3866C1",
"XX c #828896",
"Xo c #B0AFAC",
"XO c #4776D3",
"X+ c #7A7877",
"X@ c #0E0E0D",
"X# c #B5BBC8",
"X$ c #AEADAA",
"X% c #A8AAAE",
"X& c #41413F",
"X* c #7A90B9",
"X= c #BCBBBB",
"X- c #3A558E",
"X; c #4364A4",
"X: c #979590",
"X> c #31508F",
"X, c #30508E",
"X< c #393937",
"X1 c #030202",
"X2 c #6B7893",
"X3 c #969BA6",
"X4 c #333331",
"X5 c #4571CA",
"X6 c #35518C",
"X7 c #9DAED1",
"X8 c #B4B5B6",
"X9 c #D6D6D4",
"X0 c #98AACC",
"Xq c #93A7D1",
"Xw c #8F8D8B",
"Xe c #3B67C0",
"Xr c #222120",
"Xt c #A4A8B0",
"Xy c #9FB0D6",
"Xu c #C7C6C5",
"Xi c #4B79D6",
"Xp c #232324",
"Xa c #C3C2C1",
"Xs c #4476D9",
"Xd c #979AA3",
"Xf c #434240",
"Xg c #41403E",
"Xh c #767572",
"Xj c #2750A2",
"Xk c #19191A",
"Xl c #FFFFFF",
"Xz c #304F8D",
"Xx c #C6C6C7",
"Xc c #3C6BC7",
"Xv c #131314",
"Xb c #FAF9FA",
"Xn c #C4C4C5",
"Xm c #454445",
"XM c #0F0F10",
"XN c #A3A8B5",
"XB c #4373D1",
"XV c #9B9A96",
"XC c #ABAAA9",
"XZ c #646360",
"XA c #8DA0C7",
"XS c #989693",
"XD c #556990",
"XF c #040505",
"XG c #EAEBEA",
"XH c #C3C4C7",
"XJ c #C2C4C6",
"XK c #333233",
"XL c #5986E3",
"XP c #313031",
"XI c #9096A2",
"XU c #2E2E2E",
"XY c #A8B3CA",
"XT c #ACB4C4",
"XR c #7095DF",
"XE c #949492",
"XW c #6994E2",
"XQ c #2B4D8E",
"X! c #99ABCF",
"X~ c #8AA6DE",
"X^ c #677794",
"X/ c #7E7C79",
"X( c #999DA4",
"X) c #3A66C1",
"X_ c #27498A",
"X` c #BEC0C5",
"X' c #C2C1BF",
"X] c #202020",
"X[ c #3156A1",
"X{ c #B7BDC8",
"X} c #C0BFBD",
"X| c #3664BD",
"o  c #536C9E",
"o. c #6E8DC9",
"oX c #B0B8CB",
"oo c #BEBDBB",
"oO c #888886",
"o+ c #1A1A1A",
"o@ c #CBCBCB",
"o# c #2A509A",
"o$ c #BAB9B7",
"o% c #181818",
"o& c #A1B0D0",
"o* c #B9B7B6",
"o= c #4D4D4C",
"o- c #C7C7C7",
"o; c #B2B4B9",
"o: c #325BAF",
"o> c #80807E",
"o, c #151415",
"o< c #141414",
"o1 c #C0C4CA",
"o2 c #C5C5C5",
"o3 c #818BA0",
"o4 c #B4B3B1",
"o5 c #838A98",
"o6 c #111011",
"o7 c #C1C1C1",
"o8 c #929AAA",
"o9 c #696864",
"o0 c #BEBDBE",
"oq c #8BA2CE",
"ow c #BDBDBD",
"oe c #5C86D8",
"or c #BBBBBB",
"ot c #080808",
"oy c #A6A5A3",
"ou c #050405",
"oi c #315BB1",
"op c #A5A3A2",
"oa c #A4A3A1",
"os c #C4C5C7",
"od c #858C9D",
"of c #BEC2CB",
"og c #B2B1B2",
"oh c None",
/* pixels */
"o2o2o2o2o2o2o2o2o2o2o2o2o2o2o2o2o2o2o2o2o2o2o2o2o2o2o2o2o2o2o2o2",
"o2o2o2o2o2o2o2o2o2o2o2o2o2o2o2o2o2o2o2o2o2o2o2o2o2o2o2o2o2o2o2o2",
"o2o2o2o2 8X* zo2o2o2o2o2o2o2 6XN.Vo2o2o2o2o2o2o2o2o2o2o2o2o2o2o2",
"o2o2o2o2X8 io1o2o2o2o2o2o2o2 lX.o&o2o2o2o2o2o2o2o2o2o2o2o2o2o2o2",
"o2o2o2o2 e.n ~o2o2o2o2o2o2 6o XL 5o2o2o2o2o2o2o2o2o2o2o2o2o2o2o2",
"o2o2o2o2 sXW 5o2o2o2o2o2o2Xt > Po2o2o2o2o2o2o2o2o2o2o2o2o2o2o2o2",
"o2o2o2 6.mX~o2o2o2o2o2o2.} c.8.eo2o2o2o2o2 H `o2o2o2o2o2o2o2o2o2",
"o2o2o2.} &.Ho2o2o2o2o2o2o3XsXHo2o2o2o2o2.A.N.0 6o2o2o2o2o2o2o2o2",
"o2o2o2X=.#ofo2o2o2o2o2o0 yX!o2o2o2o2o2o; S - 5o2o2o2o2o2o2o2o2o2",
"o2o2o2.x.D fo2o2o2o2 6.1 ( 5o2o2o2o2 C X M 5o2o2o2o2o2o2o2o2o2o2",
"o2o2o2.S u.]o2o2o2o2 [.LXYo2o2o2o2.p N 2.eo2o2o2o2o2o2o2o2o2o2o2",
"o2o2 6X^XR.eo2o2o2 6 m 0 5o2o2o2.{X; o.eo2o2o2o2o2o2o2o2o2o2o2o2",
"o2o2 6.; =o2o2o2o2ow...-o2o2o2.e B.I *o2o2o2o2o2o2o2o2o2o2o2o2o2",
"o2o2 6 ,Xyo2o2o2o2.6XO 5o2o2o2o8.OXTo2o2o2o2o2o2o2o2o2o2o2o2o2o2",
"o2o2 F . Lo2o2o2 9X[X0o2o2o2.P |.k.{o2o2o2o2o2o2o2o2o2o2o2o2o2o2",
"o2o2.l.G.to2o2o2X3 goso2o2 6.< G 5o2o2o2o2o2o2o2o2o2o2o2o2o2o2o2",
"o2o2X%.v.Vo2o2 6.g.o 6o2o2 ].ZX`o2o2o2o2 6 Ao2o2o2o2o2o2o2o2o2o2",
"o2o2XdXBo-o2o2.joi Po2o2o7.$XAo2o2 6o2o2ooX]Xuo2 6oa.eo2o2o2o2o2",
"o2o2o5Xi.]o2o2od E 5o2.{ { Z.eo2.}o% Fo2o$Xk 6o2XoXv Ao2o2o2o2o2",
"o2o2.zoe 5o2 6 t.Yo2o2.d., 3o2o2 Ao<.qo2 ro+ F 6.co=.eo2o2o2o2o2",
"o2 6.!.C.eo2.d.,.so2 6 #X5 _ 6o2 6.i.)Xw w.4Xh.* <X+o2o2 +o*o2o2",
"o2.eXD.U 6o2.:X Xxo2 q T.` 4XkX'.q :XU.u Q YX/o9o6XZ.>.MXM.qo2o2",
"o2Xu ' Ko2o2X2.X 5o2XIX)Xx 6.KXpX4Xr @.Q.@.RX:./.2 a $o,oOo2o2o2",
"o2 6.'.Eo2 6X6oqo2 6X- v.{o2X'XF jX<._X& d kXg b O I x.ro4o2o2o2",
"o2 6.w.Eo2 Fo#oXo2.d.^X#o2o2.aXmo@XP           !XGXl.%.~ /.eo2o2",
"o2 6Xz.+o2oro:.|o2XIXe.eo2o2X$.WXl W          .&XbXlXl.9XS 5o2o2",
"o2 6X,Xqo2 RX|Xx 6.bo..eo2o2X}opXlo@.h        ogXlXlXlo*XVo2o2o2",
"o2 6X> 7o2X( Do- 6XQ.yo2o2o2.e.( }X9ow UXK ^.pXl.  V n.=Xao2o2o2",
"o2.{X_X7o2XXXc.] JXjX{o2o2o2o2.} %X1.B.T.F.fo> h.@Xf ).7o2o2o2o2",
"o2 6Xno-o2 6os 6.eXJ.]o2o2o2o2o2 6XEot  ouX@.[ 1 ; p Fo2o2o2o2o2",
"o2o2o2o2o2o2o2o2o2o2o2o2o2o2o2o2o2o2 6.3XC.Joy.5.}o2o2o2o2o2o2o2",
"o2o2o2o2o2o2o2o2o2o2o2o2o2o2o2o2o2o2o2o2o2o2o2o2o2o2o2o2o2o2o2o2"
};
