/* XPM */
static char *shaveLock[] = {
/* width height ncolors chars_per_pixel */
"32 32 284 2",
/* colors */
"   c #000000",
" . c #A69E99",
" X c #9E7863",
" o c #B1ACA7",
" O c #856C5E",
" + c #755A4B",
" @ c #8A6B59",
" # c #896958",
" $ c #C4C2C0",
" % c #B18972",
" & c #C69A80",
" * c #B49B8C",
" = c #9A7662",
" - c #B08771",
" ; c #AF8770",
" : c #C5987F",
" > c #836352",
" , c #C4987E",
" < c #826351",
" 1 c #C3967D",
" 2 c #97725F",
" 3 c #95725D",
" 4 c #0C0908",
" 5 c #93705B",
" 6 c #BF9279",
" 7 c #A87F69",
" 8 c #C7C6C6",
" 9 c #C6C6C5",
" 0 c #8B7D74",
" q c #5B473B",
" w c #6C5445",
" e c #A69B95",
" r c #AB856F",
" t c #BE947B",
" y c #A8816C",
" u c #9F958E",
" i c #BB9078",
" p c #BA8E77",
" a c #8D6C58",
" s c #8C6A57",
" d c #B58A72",
" f c #2B211C",
" g c #14100C",
" h c #B2ABA7",
" j c #EBBA9D",
" k c #785D4D",
" l c #968D88",
" z c #B79E8E",
" x c #C99B82",
" c c #B28A72",
" v c #C89B81",
" b c #866654",
" n c #B28872",
" m c #B18871",
" M c #C79980",
" N c #856453",
" B c #C1BFBC",
" V c #AE846E",
" C c #A79588",
" Z c #BF9178",
" A c #C6C5C4",
" S c #705748",
" D c #826453",
" F c #C0957C",
" G c #D6A68B",
" H c #7E604F",
" J c #A9826C",
" K c #BF937B",
" L c #BE937A",
" P c #BD9179",
" I c #A07F6D",
" U c #A17A64",
" Y c #B3ACA7",
" T c #BDB8B4",
" R c #E5B396",
" E c #A27E68",
" W c #8C6B59",
" Q c #A9A29D",
" ! c #99908A",
" ~ c #B78D76",
" ^ c #CD9E85",
" / c #B68D75",
" ( c #A07A66",
" ) c #978E88",
" _ c #B48B73",
" ` c #886755",
" ' c #A59E99",
" ] c #9D7863",
" [ c #A29C96",
" { c #B0876F",
" } c #B4998A",
" | c #99745F",
".  c #C5967D",
".. c #C09278",
".X c #CEA489",
".o c #958072",
".O c #AF8771",
".+ c #A69B93",
".@ c #D9A98D",
".# c #AD856F",
".$ c #AC856E",
".% c #C2967D",
".& c #806150",
".* c #A58471",
".= c #C0947B",
".- c #94705D",
".; c #A9816B",
".: c #926E5B",
".> c #AEA59E",
"., c #1C1612",
".< c #C6C6C6",
".1 c #A27B64",
".2 c #F2C0A2",
".3 c #B4ADA7",
".4 c #D7A98E",
".5 c #7E6151",
".6 c #7D6150",
".7 c #A38472",
".8 c #D1A388",
".9 c #BDB7B3",
".0 c #A57F6A",
".q c #9C938C",
".w c #BA9078",
".e c #B98E77",
".r c #BAB5B0",
".t c #B88E76",
".y c #B78E75",
".u c #988F88",
".i c #B58A73",
".p c #A59D98",
".a c #B1ABA7",
".s c #BC947D",
".d c #BDB9B6",
".f c #E6B699",
".g c #614A3E",
".h c #6F5A4F",
".j c #CB9F85",
".k c #C5C3C1",
".l c #958D88",
".z c #DEAC91",
".x c #C3C1BF",
".c c #938B86",
".v c #928B85",
".b c #B08871",
".n c #C69980",
".m c #AD9B8F",
".M c #C1BFBD",
".N c #836452",
".B c #AF8670",
".V c #C5977F",
".C c #987560",
".Z c #AE866F",
".A c #816250",
".S c #AD846E",
".D c #0D0A09",
".F c #80604F",
".G c #C0937A",
".H c #BF9379",
".J c #BBB9B7",
".K c #A0948C",
".L c #926F5A",
".P c #C6C5C5",
".I c #C59B82",
".U c #978A83",
".Y c #BE937B",
".T c #D4A48A",
".R c #BD937A",
".E c #D3A489",
".W c #E8B597",
".Q c #BC9179",
".! c #BB9178",
".~ c #8F6D5A",
".^ c #BB8F78",
"./ c #BA8F77",
".( c #B98F76",
".) c #A37C67",
"._ c #B88D75",
".` c #604739",
".' c #CD9E83",
".] c #A07A64",
".[ c #B3ACA8",
".{ c #B2ACA7",
".} c #C6967C",
".| c #C5967B",
"X  c #B1AAA6",
"X. c #AFA8A4",
"XX c #7A5E4F",
"Xo c #8C6B5A",
"XO c #968E88",
"X+ c #B48B74",
"X@ c #E0AD92",
"X# c #B38B73",
"X$ c #C99C82",
"X% c #9D7864",
"X& c #B4B0AC",
"X* c #866754",
"X= c #B28972",
"X- c #856553",
"X; c #B49B8B",
"X: c #BDBAB8",
"X> c #E2B597",
"X, c #958073",
"X< c #B8B6B3",
"X1 c #745A4C",
"X2 c #C7C6C5",
"X3 c #B39B8D",
"X4 c #826553",
"X5 c #C2967E",
"X6 c #C1967D",
"X7 c #95725F",
"X8 c #AA836D",
"X9 c #C0947C",
"X0 c #BF947B",
"Xq c #BD9279",
"Xw c #916E5B",
"Xe c #906E5A",
"Xr c #BC9078",
"Xt c #8F6C59",
"Xy c #A57D68",
"Xu c #B88C74",
"Xi c #BDB0A7",
"Xp c #B58A71",
"Xa c #B4ADA8",
"Xs c #7B5F4F",
"Xd c #CFA187",
"Xf c #CE9F86",
"Xg c #B78E76",
"Xh c #988F89",
"Xj c #B68C75",
"Xk c #CC9D84",
"Xl c #978F88",
"Xz c #B58C74",
"Xx c #CB9D83",
"Xc c #896856",
"Xv c #9F7965",
"Xb c #A69F9A",
"Xn c #968D87",
"Xm c #876654",
"XM c #A49D98",
"XN c #B18870",
"XB c #9B7561",
"XV c #C3957B",
"XC c #A6836F",
"XZ c #C19379",
"XA c #A2968C",
"XS c #C09178",
"XD c #C7C5C4",
"XF c #B79E90",
"XG c #C3C1C0",
"XH c #9A7763",
"XJ c #DAAA8E",
"XK c #AE8670",
"XL c #C4977F",
"XP c #AD866F",
"XI c #AC846E",
"XU c #AB846D",
"XY c #C1957C",
"XT c #A2968F",
"XR c #8B6E5E",
"XE c #070604",
"XW c #A77E69",
"XQ c #C5C5C5",
"X! c #B98D74",
"X~ c #BFB1A8",
"X^ c #42332A",
"X/ c #EEBB9E",
"X( c #B4ACA7",
"X) c #B3ACA6",
"X_ c #544035",
"X` c #A29892",
"X' c #D4A48B",
"X] c #D2A489",
"X[ c #A5806A",
"X{ c #785C4B",
"X} c #BA8F78",
"X| c #E5B395",
"o  c #B98F77",
"o. c #B88F76",
"oX c #B88D76",
"oo c #B78D75",
"oO c #CD9E84",
"o+ c #CC9E83",
"o@ c #8A6956",
"o# c None",
/* pixels */
"XQXQXQXQXQXQXQXQXQXQXQXQXQXQXQXQXQXQXQXQXQXQXQXQXQXQXQXQXQXQXQXQ",
"XQXQXQXQXQXQXQXQXQXQXQXQXQXQXQXQXQXQXQXQXQXQXQXQXQXQXQXQXQXQXQXQ",
"XQXQXQXQXQXQXQXQXQXQXQXQXQ AX& u u.a.kXQXQXQXQXQXQXQXQXQXQXQXQXQ",
"XQXQXQXQXQXQXQXQXQXQXQ.<Xb DXyXpXZ.H (.KX2XQXQXQXQXQXQXQXQXQXQXQ",
"XQXQXQXQXQXQXQXQXQXQ.<.U.1XV m } z.I.WX].oX2XQXQXQXQXQXQXQXQXQXQ",
"XQXQXQXQXQXQXQXQXQXQX  U 6.mXD.< 9X2X~X>.4XAXQXQXQXQXQXQXQXQXQXQ",
"XQXQXQXQXQXQXQXQXQX2XR.  C.<XQXQXQXQXQXiX| r.kXQXQXQXQXQXQXQXQXQ",
"XQXQXQXQXQXQXQXQXQ B 7XN.kXQXQXQXQXQXQX2.s.'XaXQXQXQXQXQXQXQXQXQ",
"XQXQXQXQXQXQXQXQXQ.d dXCX2XQXQXQXQXQXQ 9X;.}.>XQXQXQXQXQXQXQXQXQ",
"XQXQXQXQXQXQXQXQXQ TXu.*X2XQXQXQXQXQXQ 9 *.. eXQXQXQXQXQXQXQXQXQ",
"XQXQXQXQXQXQXQXQXQ.rX! IX2XQXQXQXQXQXQ 9X3 ZXTXQXQXQXQXQXQXQXQXQ",
"XQXQXQXQXQXQXQXQXQ.9XS.7 8XQXQXQXQXQXQXQXF.|.+XQXQXQXQXQXQXQXQXQ",
"XQXQXQXQXQXQXQXQX2X`.~ OX:XG.x.x.x.x.x.MX,.- 0X2XQXQXQXQXQXQXQXQ",
"XQXQXQXQXQXQXQ A.hX{Xs.6 H H.&.A >.NX-X* # @ WX1 $XQXQXQXQXQXQXQ",
"XQXQXQXQXQXQXQ h.L ; %oX.YX5 &XkXd.T.@.z RX/.2Xv.qXQXQXQXQXQXQXQ",
"XQXQXQXQXQXQXQX) Xoo ~o .Q.RX9X6XL.n xXxXf.EX'.C.uXQXQXQXQXQXQXQ",
"XQXQXQXQXQXQXQX(.]X}.t.t.(./X0.%.% K tX9X6.V.%Xw !XQXQXQXQXQXQXQ",
"XQXQXQXQXQXQXQ.3XWXY i.(oX.!X7 q.5Xg./o..eo oX aXhXQXQXQXQXQXQXQ",
"XQXQXQXQXQXQXQ.[.; :Xq p.QXoXE    .g.!XjXzXj _ sXhXQXQXQXQXQXQXQ",
"XQXQXQXQXQXQXQXa VX$ K.w KX^      .,.O /X+X#X=o@ )XQXQXQXQXQXQXQ",
"XQXQXQXQXQXQXQXa { ^.= i LX_       f cX+ c n ;XcXlXQXQXQXQXQXQXQ",
"XQXQXQXQXQXQXQ.3.i.8 1.Q PXH 4     w./X= n.bXK ` lXQXQXQXQXQXQXQ",
"XQXQXQXQXQXQXQ Y._ G , P.!.0 g     +.t m.b.B.$XmXOXQXQXQXQXQXQXQ",
"XQXQXQXQXQXQXQXaXrXJ M L.Q E.D     S.t.b -XPXI bXnXQXQXQXQXQXQXQ",
"XQXQXQXQXQXQXQXa.GX@ v Ko  mX4XX kX%X=.O.ZXIX8 N.lXQXQXQXQXQXQXQ",
"XQXQXQXQXQXQXQ Y.j.foO F.e.y.^o .e c.B.Z.#X8 y <.cXQXQXQXQXQXQXQ",
"XQXQXQXQXQXQXQ.3.X jo+X9o  ~ _X=.b ;XP.SXU JX[.F.vXQXQXQXQXQXQXQ",
"XQXQXQXQXQXQXQ.k =XN.) ]XB | 2 3.- 5.:XeXt sXc.`X<XQXQXQXQXQXQXQ",
"XQXQXQXQXQXQXQXQ.xX..{.{ o o Q.p . 'Xb ' 'XM [.J.PXQXQXQXQXQXQXQ",
"XQXQXQXQXQXQXQXQXQXQXQXQXQXQXQXQXQXQXQXQXQXQXQXQXQXQXQXQXQXQXQXQ",
"XQXQXQXQXQXQXQXQXQXQXQXQXQXQXQXQXQXQXQXQXQXQXQXQXQXQXQXQXQXQXQXQ",
"XQXQXQXQXQXQXQXQXQXQXQXQXQXQXQXQXQXQXQXQXQXQXQXQXQXQXQXQXQXQXQXQ"
};
