/* XPM */
static char *shaveUndo[] = {
/* width height ncolors chars_per_pixel */
"32 32 103 2",
/* colors */
"   c #9B9998",
" . c #908F8D",
" X c #636464",
" o c #BCBAB8",
" O c #5F6060",
" + c #5C5C5D",
" @ c #C7C6C6",
" # c #5B5C5C",
" $ c #C6C6C5",
" % c #666766",
" & c #9A9A99",
" * c #646364",
" = c #636363",
" - c #626362",
" ; c #626162",
" : c #616161",
" > c #606160",
" , c #605F60",
" < c #5F5F5F",
" 1 c #5C5D5C",
" 2 c #C6C5C4",
" 3 c #C5C5C3",
" 4 c #C4C3C2",
" 5 c #C3C3C1",
" 6 c #868685",
" 7 c #B6B5B4",
" 8 c #6F6E6E",
" 9 c #6A6A69",
" 0 c #9B9B99",
" q c #646463",
" w c #636262",
" e c #929190",
" r c #C3C2C0",
" t c #8A8988",
" y c #BFBEBC",
" u c #898987",
" i c #878785",
" p c #BBBAB8",
" a c #858583",
" s c #B9B8B6",
" d c #B7B6B4",
" f c #C6C6C6",
" g c #AFAEAC",
" h c #797977",
" j c #ACACA9",
" k c #AAA8A7",
" l c #71716F",
" z c #A6A6A3",
" x c #A3A2A0",
" c c #989695",
" v c #636364",
" b c #626363",
" n c #616162",
" m c #606161",
" M c #5F5F60",
" N c #5E5F5F",
" B c #C7C7C6",
" V c #C6C5C5",
" C c #B1AFAD",
" Z c #747474",
" A c #676867",
" S c #676667",
" D c #666666",
" F c #646464",
" G c #636463",
" H c #636263",
" J c #626262",
" K c #616261",
" L c #616061",
" P c #606060",
" I c #5F605F",
" U c #939392",
" Y c #5D5E5D",
" T c #C7C6C5",
" R c #C6C6C4",
" E c #C5C4C3",
" W c #C4C4C2",
" Q c #C3C2C1",
" ! c #BFBEBD",
" ~ c #858584",
" ^ c #B9B8B7",
" / c #838382",
" ( c #B7B6B5",
" ) c #ABAAA9",
" _ c #A5A4A3",
" ` c #6E6D6D",
" ' c #646363",
" ] c #636362",
" [ c #979695",
" { c #959493",
" } c #949492",
" | c #C2C1BF",
".  c #C0BFBD",
".. c #BFBDBC",
".X c #BDBBBA",
".o c #81807F",
".O c #B6B5B3",
".+ c #C5C5C5",
".@ c #B4B3B1",
".# c #B2B1AF",
".$ c #777675",
".% c #ABA9A8",
".& c None",
/* pixels */
".+.+.+.+.+.+.+.+.+.+.+.+.+.+.+.+.+.+.+.+.+.+.+.+.+.+.+.+.+.+.+.+",
".+.+.+.+.+.+.+.+.+.+.+.+.+.+.+.+.+.+.+.+.+.+.+.+.+.+.+.+.+.+.+.+",
".+.+.+.+.+.+.+.+.+.+.+.+.+.+.+.+.+.+.+.+.+.+.+.+.+.+.+.+.+.+.+.+",
".+.+.+.+.+.+.+.+.+.+.+.+.+.+.+.+.+.+.+.+.+.+.+.+.+.+.+.+.+.+.+.+",
".+.+.+.+.+.+.+.+.+.+.+.+.+.+.+.+.+.+.+.+.+.+.+.+.+.+.+.+.+.+.+.+",
".+.+.+.+.+.+.+.+.+.+.+.+.+.+.+.+.+.+.+.+.+.+.+.+.+.+.+.+.+.+.+.+",
".+.+.+.+.+.+.+.+.+.+.+.+.+.+.+.+.+.+.+.+.+.+.+.+.+.+.+.+.+.+.+.+",
".+.+.+.+.+.+.+.+.+.+.+.+.+ 3 7 g _ 0 e ) 2 $.+.+.+.+.+.+.+.+.+.+",
".+.+.+.+.+.+.+.+.+.+.+ E c K , O P P L O : u ^ T.+.+.+.+.+.+.+.+",
".+.+.+.+.+.+.+.+.+ E } L P = G * G * G * G : < D x @.+.+.+.+.+.+",
".+.+.+.+.+.+.+.+ | J P G * G * G * G * G * G * = <.o $.+.+.+.+.+",
".+.+.+.+.+.+.+ ! K J G ' = * J , O , I , J * G * G L A E.+.+.+.+",
".+.+.+.+.+.+ W m H G * X J <.$.#.  | E.O ` < = G * q L / f.+.+.+",
".+ f @.+.+ f 6 L G * G L Z.X @.+.+.+.+.+ @ C % J G * G < o.+.+.+",
".+ @ ~.@ @ s , G * G L i @.+.+.+.+.+.+.+.+.+ Q J H G * - 8 B.+.+",
".+.+ U + A S = ' = ; h @.+.+.+.+.+.+.+.+.+.+.+ o > = G * N d.+.+",
".+.+ ^ O = = * G * : 4.+.+.+.+.+.+.+.+.+.+.+.+.+   > * G : . V.+",
".+.+ R n = * G * G H j T.+.+.+.+.+.+.+.+.+.+.+.+ r M G * ] D T.+",
".+.+ f a ; G * G * G P N.% $.+.+.+.+.+.+.+.+.+.+ @ h J G H #...+",
".+.+.+ ) O v G * G : : k @.+.+.+.+.+.+.+.+.+.+.+.+ [ Y < 9 & 2.+",
".+.+.+ 5 , G * b < ~ E.+.+.+.+.+.+.+.+.+.+.+.+.+.+ z t y @.+.+.+",
".+.+.+ @ l w P F ( f.+.+.+.+.+.+.+.+.+.+.+.+.+.+.+ @ V.+.+.+.+.+",
".+.+.+.+ c 1 { T.+.+.+.+.+.+.+.+.+.+.+.+.+.+.+.+.+.+.+.+.+.+.+.+",
".+.+.+.+ y p V.+.+.+.+.+.+.+.+.+.+.+.+.+.+.+.+.+.+.+.+.+.+.+.+.+",
".+.+.+.+.+.+.+.+.+.+.+.+.+.+.+.+.+.+.+.+.+.+.+.+.+.+.+.+.+.+.+.+",
".+.+.+.+.+.+.+.+.+.+.+.+.+.+.+.+.+.+.+.+.+.+.+.+.+.+.+.+.+.+.+.+",
".+.+.+.+.+.+.+.+.+.+.+.+.+.+.+.+.+.+.+.+.+.+.+.+.+.+.+.+.+.+.+.+",
".+.+.+.+.+.+.+.+.+.+.+.+.+.+.+.+.+.+.+.+.+.+.+.+.+.+.+.+.+.+.+.+",
".+.+.+.+.+.+.+.+.+.+.+.+.+.+.+.+.+.+.+.+.+.+.+.+.+.+.+.+.+.+.+.+",
".+.+.+.+.+.+.+.+.+.+.+.+.+.+.+.+.+.+.+.+.+.+.+.+.+.+.+.+.+.+.+.+",
".+.+.+.+.+.+.+.+.+.+.+.+.+.+.+.+.+.+.+.+.+.+.+.+.+.+.+.+.+.+.+.+",
".+.+.+.+.+.+.+.+.+.+.+.+.+.+.+.+.+.+.+.+.+.+.+.+.+.+.+.+.+.+.+.+"
};
