/* XPM */
static char *shavePopZeroSized[] = {
/* width height ncolors chars_per_pixel */
"32 32 407 2",
/* colors */
"   c #AFAFAF",
" . c #B4AEAA",
" X c #EEE4D9",
" o c #B8BCC5",
" O c #81786E",
" + c #FBF2E9",
" @ c #7F766C",
" # c #ACB6CD",
" $ c #94A1BC",
" % c #E1DBD6",
" & c #F6ECE4",
" * c #FFFFFA",
" = c #F5ECE3",
" - c #AEA59A",
" ; c #6784BE",
" : c #C3C5C9",
" > c #C1C3C7",
" , c #F0E6DE",
" < c #FFF8F0",
" 1 c #EEE6DC",
" 2 c #B9BEC9",
" 3 c #4476D7",
" 4 c #BBAEA0",
" 5 c #D1CED0",
" 6 c #E8E0D6",
" 7 c #718BC1",
" 8 c #E8DED6",
" 9 c #B2B8C2",
" 0 c #E7DED5",
" q c #B0A79F",
" w c #E5DCD3",
" e c #FFFFFD",
" r c #9D9389",
" t c #C7C6C6",
" y c #C6C6C5",
" u c #A2AEC6",
" i c #FFFCF3",
" p c #677696",
" a c #948E8A",
" s c #FEFAF2",
" d c #5C729F",
" f c #949BAB",
" g c #8A97B5",
" h c #DDD4CB",
" j c #5C7DC0",
" k c #DCD4CA",
" l c #8FA5D1",
" z c #DBD2C9",
" x c #958B81",
" c c #84796D",
" v c #A5AAB5",
" b c #214286",
" n c #687083",
" m c #2A4171",
" M c #D1C8BF",
" N c #477AE0",
" B c #355BAA",
" V c #FAFBFB",
" C c #FFFCF6",
" Z c #C4C4C6",
" A c #999EA9",
" S c #988F87",
" D c #BDC1C9",
" F c #3D68BF",
" G c #DBD4CC",
" H c #CBC2B9",
" J c #C5C1BD",
" K c #EBE4DF",
" L c #8795B5",
" P c #AAABB3",
" I c #E9E2DD",
" U c #82796E",
" Y c #C6BCB4",
" T c #C5BCB3",
" R c #8E857D",
" E c #3961B1",
" W c #B3A89E",
" Q c #BDB9B5",
" ! c #C2B8B0",
" ~ c #828EA6",
" ^ c #C0B8AE",
" / c #C0B6AE",
" ( c #8C9DBD",
" ) c #BFB6AD",
" _ c #2F5AB1",
" ` c #E3D9CD",
" ' c #887F77",
" ] c #C3C4C8",
" [ c #BDB4AB",
" { c #F2E9DF",
" } c #4069BB",
" | c #FEF7EE",
".  c #B7AEA5",
".. c #3363C2",
".X c #B5ACA3",
".o c #B2AAA0",
".O c #3C62AD",
".+ c #2F4472",
".@ c #B1A89F",
".# c #B0A89E",
".$ c #AEA69C",
".% c #C8C7C6",
".& c #E2D9CF",
".* c #ACA49A",
".= c #CCC6C0",
".- c #4879DD",
".; c #5972A5",
".: c #909BB0",
".> c #7084AB",
"., c #A79E95",
".< c #7F92BD",
".1 c #DBD3C8",
".2 c #A59C93",
".3 c #B9BCC1",
".4 c #B8BAC0",
".5 c #A1988F",
".6 c #5A77B3",
".7 c #9B9289",
".8 c #9A9288",
".9 c #FFFDF5",
".0 c #8B9AB8",
".q c #A9AFBB",
".w c #999DA8",
".e c #C1C1C2",
".r c #C2BFC3",
".t c #878993",
".y c #6E82AC",
".u c #395899",
".i c #BABEC5",
".p c #505F7E",
".a c #928A80",
".s c #B2B9C7",
".d c #C6BDB3",
".f c #707179",
".g c #8E867C",
".h c #D9DBE0",
".j c #858FA8",
".k c #497DE4",
".l c #45619E",
".z c #FFFFF8",
".x c #42547A",
".c c #909DB6",
".v c #B9B4B0",
".b c #F3EADF",
".n c #2D59AE",
".m c #E8E6E8",
".M c #FFFAEE",
".N c #847A72",
".B c #EEE4DA",
".V c #A89D92",
".C c #4875CF",
".Z c #B2B9CA",
".A c #EAE0D6",
".S c #7E766C",
".D c #4F75C2",
".F c #7C746A",
".G c #838FA9",
".H c #BCB8B6",
".J c #798BB3",
".K c #FFFFFB",
".L c #7C8CAC",
".P c #C8C6C5",
".I c #C7C6C4",
".U c #577FCD",
".Y c #C5C4C2",
".T c #FFFAF1",
".R c #BBC0CC",
".E c #FEFAF0",
".W c #B4BDCF",
".Q c #839FD7",
".! c #D9D0C5",
".~ c #7A8DB7",
".^ c #E7DED6",
"./ c #A1978E",
".( c #B6B9BD",
".) c #416FCB",
"._ c #FFFFFE",
".` c #284D98",
".' c #55678C",
".] c #C6C6C6",
".[ c #AAB0BB",
".{ c #C4C4C4",
".} c #B4B2B1",
".| c #FEFAF3",
"X  c #B4B0B1",
"X. c #5B729F",
"XX c #BEC1C8",
"Xo c #203A6F",
"XO c #A6ACB7",
"X+ c #34569D",
"X@ c #8F97A7",
"X# c #516B9F",
"X$ c #A3A8B4",
"X% c #FDF3E8",
"X& c #B1ABA4",
"X* c #FCF1E7",
"X= c #91949F",
"X- c #AEA9A1",
"X; c #7E7368",
"X: c #757E94",
"X> c #4971C2",
"X, c #2D5096",
"X< c #9DA2AE",
"X1 c #BCB5B2",
"X2 c #BFB6AB",
"X3 c #959FB0",
"X4 c #887F75",
"X5 c #C1C2C4",
"X6 c #A6ACBA",
"X7 c #FFF7ED",
"X8 c #A49D97",
"X9 c #6689D1",
"X0 c #ACB7CD",
"Xq c #FBF1E9",
"Xw c #FAF1E8",
"Xe c #BEBBB7",
"Xr c #405684",
"Xt c #F8EFE6",
"Xy c #C2BAB1",
"Xu c #C0B8AF",
"Xi c #CBC7C7",
"Xp c #D5C9BD",
"Xa c #F5EBE3",
"Xs c #F4EBE2",
"Xd c #F3EBE1",
"Xf c #787A86",
"Xg c #F1E7DF",
"Xh c #BBB2AA",
"Xj c #C0C2C6",
"Xk c #F0E7DE",
"Xl c #BFC0C5",
"Xz c #C7C0B9",
"Xx c #ECE3DA",
"Xc c #C0BBBC",
"Xv c #7E756E",
"Xb c #D2CEC7",
"Xn c #D7CDC2",
"Xm c #5676B7",
"XM c #E5DBD3",
"XN c #E4DBD2",
"XB c #4970BE",
"XV c #345DB0",
"XC c #C7C7C6",
"XZ c #E2D9D0",
"XA c #ACA49B",
"XS c #C6C5C5",
"XD c #FFFDF3",
"XF c #C5C5C4",
"XG c #3D517A",
"XH c #E0D7CE",
"XJ c #999085",
"XK c #DED5CC",
"XL c #436AB8",
"XP c #CDC3B8",
"XI c #4168B6",
"XU c #D9D1C7",
"XY c #82786B",
"XT c #D7CFC5",
"XR c #81766A",
"XE c #355FB4",
"XW c #D2C9C0",
"XQ c #FFFFF6",
"X! c #D0C7BE",
"X~ c #999088",
"X^ c #CEC5BC",
"X/ c #C2C3C4",
"X( c #CDC3BB",
"X) c #BDC0C9",
"X_ c #527ACD",
"X` c #C0C1C2",
"X' c #57627C",
"X] c #B6BDCC",
"X[ c #82786E",
"X{ c #C7BFB5",
"X} c #EDE2D7",
"X| c #4867A2",
"o  c #3D61AB",
"o. c #B2B6BE",
"oX c #546890",
"oo c #F7EEE4",
"oO c #497DE5",
"o+ c #788BB0",
"o@ c #4679E2",
"o# c #AEA399",
"o$ c #65779A",
"o% c #A4AEC4",
"o& c #7B95CA",
"o* c #C2C3C7",
"o= c #BCB3AA",
"o- c #867E75",
"o; c #C1C3C6",
"o: c #A2ACC2",
"o> c #BBB1A9",
"o, c #BAB1A8",
"o< c #8B97B2",
"o1 c #7791C6",
"o2 c #FDF6ED",
"o3 c #B2BBCB",
"o4 c #BCBDC1",
"o5 c #C0BEBB",
"o6 c #DBD0C5",
"o7 c #7F766E",
"o8 c #234484",
"o9 c #FFFFFC",
"o0 c #AEA59C",
"oq c #3E6BC6",
"ow c #C7C6C5",
"oe c #918F90",
"or c #618EE5",
"ot c #CAC3BE",
"oy c #80889D",
"ou c #B9BECB",
"oi c #506CA6",
"op c #4C78CD",
"oa c #9DA8C0",
"os c #DBD2C8",
"od c #A49B92",
"of c #325499",
"og c #A29990",
"oh c #B7B9BF",
"oj c #ABA8A6",
"ok c #3660B4",
"ol c #FFFFFF",
"oz c #FEFFFE",
"ox c #D3CAC0",
"oc c #798AAD",
"ov c #2B4C92",
"ob c #C6C6C7",
"on c #9B9189",
"om c #999187",
"oM c #667697",
"oN c #C4C4C5",
"oB c #6180BD",
"oV c #BCBFC7",
"oC c #9CA8C2",
"oZ c #FCF3E8",
"oA c #91877F",
"oS c #9194A0",
"oD c #999694",
"oF c #8E857C",
"oG c #8D837B",
"oH c #A9B3C8",
"oJ c #7088BB",
"oK c #FFFEF8",
"oL c #91A9D8",
"oP c #4478DF",
"oI c #A6A19A",
"oU c #C1C2C5",
"oY c #857B73",
"oT c #B6BECE",
"oR c #BFC0C3",
"oE c #FEF7ED",
"oW c #A9ADB4",
"oQ c #3B4D73",
"o! c #848893",
"o~ c #837971",
"o^ c #FDF5EC",
"o/ c #718DC9",
"o( c #2C53A3",
"o) c #80776E",
"o_ c #BBBCBF",
"o` c #FBF3EA",
"o' c #4271D3",
"o] c #7F776D",
"o[ c #FAF3E9",
"o{ c #7E756C",
"o} c #797271",
"o| c #4263A8",
"O  c #193162",
"O. c #E1DAD7",
"OX c #5B82D1",
"Oo c #7289B6",
"OO c #736E6B",
"O+ c #6C86BA",
"O@ c #ADA49A",
"O# c #FFFBF1",
"O$ c #C5C3C2",
"O% c #8495B7",
"O& c #A1AAB9",
"O* c #D1CFD1",
"O= c #EBE3DA",
"O- c #A59C92",
"O; c #2D529D",
"O: c #ABB4C6",
"O> c #4262A1",
"O, c #C7C7C7",
"O< c #C5C5C5",
"O1 c #8B9AB7",
"O2 c #CAC1B6",
"O3 c #A5ABB6",
"O4 c #9F9B99",
"O5 c #B4ACA7",
"O6 c #2B477D",
"O7 c #FDF4E8",
"O8 c #849DD1",
"O9 c #A1A5B2",
"O0 c #BAB7BA",
"Oq c #747072",
"Ow c #CDCAC6",
"Oe c #C0B7AC",
"Or c #FFFFF7",
"Ot c #A2AFCA",
"Oy c #AFB2B9",
"Ou c #F4EADF",
"Oi c #B9B4AF",
"Op c #A8AFBC",
"Oa c None",
/* pixels */
"O<O<O<O<O<O<O<O<O<O<O<O<.] >O<O<O<O<O<O<O<O<O<O<O<O<O<O<O<O<O<O<",
"O<O<O<O<O<O<O<O<O<O<O<O<XO 3X)O<O<O<O< tO<O<O<O<O<O<O<O<O<O<O<O<",
"O<O<O<O<O<O<O<O<O<O<O<O< foq DO<O<X` Eo3O<O<O<O<O<O<O<O<O<O<O<O<",
"O<O<O<O<O<O<O<O<O<O<O<O<.]oB.RO<O<o_XVoCO<O<O<O<O<O<O<O<O<O<O<O<",
"O<O<O<O<O<O<O<O<O<O<O<O<O<O1 lO<O<oNXB tO<O<O<O<O<O<O<O<O<O<O<O<",
"O<O<O<O<O<O<O<O<O<O<O<O<O<.3OXXCXCoWovOtO<O<O<O<O<O<O<O<O<O<O<O<",
"O<O<O< y 9XXO<O<O<O<O<O<.P  o<X1O2X'Xoo(oRO<O<O<O<.].cO8obO<O<O<",
"O<O<O<.]of.) ]O<O<O< t.v.,X2Xp.1 X PO .'XiXbXCO<O< oo'X9.]O<O<O<",
"O<O<O<O<.(.: } #.] tX8.2 ^X! h.^O7oyO6.m.MXa G.% uoro:oX.iXCO<O<",
"O<O<O<O<O<O<o..Oo&oD ro, HXT w {O#X3.> *oK ioZ 5.QXj vo8 FobO<O<",
"O<O<O<O<O<Op j.qo!oG.* /X^XKXxXt.E * Volozo9XQ I.GX#X| pX$O<O<O<",
"O<O<O<O<O<O& bX. 'XJ qXuXWXZ , + i.Kolololol e.h.lX6 t y.]O<O<O<",
"O<O<O<O<O<.]XF.} Oon.$ !.!X}.bXqXD eololololo9.| %OwO<O<O<O<O<O<",
"O<O<O<O<O<O<O<X& c.8o0.dX O9O.X% s eololololo9 ioo.=.]O<O<O<O<O<",
"O<O<O<.]oa 2 toSXfX~ -O5XG _ ; KX7oK._ol._o9Or <OuXcXLX0O<O<O<O<",
"O<O<XS.0 NoO.-oPX_ ao#O4 mXEo O*X* | C.z.z.9.To`.B.H.uO:O<O<O<O<",
"O<O<O< yo+o%.]X=.f RO-.X noQ.w.A 1 &o[o2oEo^XwXg `Xz.{O<O<O<O<O<",
"O<O<O<O< y yO<OiX;o-.7O@o>XyXn kXMO=XgXs =XdXkXN.r JO<O<O<O<O<O<",
"O<O<O<O<O<O<.]O$.Fo7oF.5.# [X{ MXUXH w 8 6 0.&otoiO+o* tO<O<O<O<",
"O<O<O<O<O<.] do$OqXYo~.aod.@Xh TX(oxo6os zXUX! ).t ~X+O>XIobO<O<",
"O<O<O<O<O<oh.`oMX<o} @oY.aogXA. Oe ..JO0XP Yo=.VoJX].{.pX,oHO<O<",
"O<O<O<O<O<XSX5.;X> AXRo].N.gon.2 WoeO; L 4.o./ QXlopoLoco4 yO<O<",
"O<O<O<O< toUO%.D ZO<o5o{.Fo)X4oAom SXro|X: xXeO<O<.]Ooo@oTO<O<O<",
"O<O<O<O<.4.. 7 tO<O<O<.IoI.SXv UX[OO.+okXm.YO<O<O<O<.e $.sO<O<O<",
"O<O<O<O<O3.<o;O<O<O<O<O<O<ow.L.~X-oj.x BoVO<O<O<O<O<O<O<O<O<O<O<",
"O<O<O<O<O<O<O<O<O<O<O<O<O<O<o1.WO<O<.j (O<O<O<O<O<O<O<O<O<O<O<O<",
"O<O<O<O<O<O<O<O<O<O<O<O<O< t.U :O<O<Oy.6.]O<O<O<O<O<O<O<O<O<O<O<",
"O<O<O<O<O<O<O<O<O<O<O<O<O<X/.CO,O<O<X@.n.ZO<O<O<O<O<O<O<O<O<O<O<",
"O<O<O<O<O<O<O<O<O<O<O<O<.].y.kouO<O< t g tO<O<O<O<O<O<O<O<O<O<O<",
"O<O<O<O<O<O<O<O<O<O<O<O<O<.[o/ tO<O<O<O<O<O<O<O<O<O<O<O<O<O<O<O<",
"O<O<O<O<O<O<O<O<O<O<O<O<O< t tO<O<O<O<O<O<O<O<O<O<O<O<O<O<O<O<O<",
"O<O<O<O<O<O<O<O<O<O<O<O<O<O<O<O<O<O<O<O<O<O<O<O<O<O<O<O<O<O<O<O<"
};
