/* XPM */
static char *shaveSQSelectRoot[] = {
/* width height ncolors chars_per_pixel */
"32 32 300 2",
/* colors */
"   c #000000",
" . c #5389F0",
" X c #CABAC3",
" o c #CCDDFD",
" O c #5A89E3",
" + c #96A6C8",
" @ c #C7B6C0",
" # c #C0489C",
" $ c #5895F8",
" % c #EEEEF0",
" & c #658FF1",
" * c #BB69A4",
" = c #B86BA1",
" - c #9A98B8",
" ; c #C954A8",
" : c #BB3E97",
" > c #C7C0C3",
" , c #BD9CB6",
" < c #4577CE",
" 1 c #B9BBBF",
" 2 c #4F82E5",
" 3 c #4271CB",
" 4 c #B94298",
" 5 c #C8A3BA",
" 6 c #C7C6C6",
" 7 c #B94098",
" 8 c #C6C6C5",
" 9 c #6F93D6",
" 0 c #C15AA3",
" q c #B34092",
" w c #3C6CBB",
" e c #B33E92",
" r c #6283B2",
" t c #B13C90",
" y c #B681A5",
" u c #A0A9BA",
" i c #A354AD",
" p c #4E82E7",
" a c #5C94F8",
" s c #8370CC",
" d c #C984B1",
" f c #EEEDEC",
" g c #B74899",
" h c #C162A6",
" j c #C04198",
" k c #EDEBEB",
" l c #C67CAE",
" z c #BDA2BC",
" x c #C2C2C4",
" c c #C7B5BF",
" v c #A551A8",
" b c #C1479C",
" n c #526EC3",
" m c #AEB6C4",
" M c #CED6EA",
" N c #BB68A3",
" B c #BB66A3",
" V c #994CA6",
" C c #446FBF",
" Z c #A5B1C5",
" A c #C67EB1",
" S c #C857A6",
" D c #7994C8",
" F c #C84BA6",
" G c #8D4C9A",
" H c #D2D1D0",
" J c #9372CE",
" K c #BDB8C2",
" L c #BE459C",
" P c #C8C7C6",
" I c #B0AFBF",
" U c #C8C5C6",
" Y c #7399CF",
" T c #C7C5C5",
" R c #A14A9D",
" E c #416DBF",
" W c #406BBE",
" Q c #4F8EF1",
" ! c #C159A2",
" ~ c #4A7AD5",
" ^ c #8F99AF",
" / c #C396B4",
" ( c #EAF0FB",
" ) c #977096",
" _ c #C08EB1",
" ` c #AE318C",
" ' c #CA85B1",
" ] c #C7A8BB",
" [ c #4071C1",
" { c #FCFCFC",
" } c #CD50A7",
" | c #AA4895",
".  c #9E449D",
".. c #C17DA8",
".X c #5187EC",
".o c #6B7FDE",
".O c #6B7DDE",
".+ c #B360B8",
".@ c #B248A0",
".# c #90408F",
".$ c #5882D5",
".% c #BD4497",
".& c #C9BEC3",
".* c #A04798",
".= c #D5D4D2",
".- c #C0C1C4",
".; c #698ED5",
".: c #627EB7",
".> c #755F95",
"., c #D2D0CF",
".< c #D1D0CE",
".1 c #BCBDC0",
".2 c #CFCECC",
".3 c #4573CC",
".4 c #5276BB",
".5 c #B86FA2",
".6 c #4C7EE0",
".7 c #96A0B5",
".8 c #8757AA",
".9 c #C285AF",
".0 c #675291",
".q c #BA4097",
".w c #C8C4C5",
".e c #8E9BB7",
".r c #BEA6B8",
".t c #518DF2",
".y c #C554A5",
".u c #4F8BF0",
".i c #4D8DEE",
".p c #608DD9",
".a c #AE388B",
".s c #5E94F8",
".d c #5D94F7",
".f c #B4B7BB",
".g c #9D94BF",
".h c #C6C6C6",
".j c #416CC1",
".k c #C15AA4",
".l c #C4C4C4",
".z c #7F64C6",
".x c #BE5AA1",
".c c #5F9AFC",
".v c #EBEBEA",
".b c #456FBE",
".n c #7895CF",
".m c #558CF2",
".M c #C2C4C5",
".N c #C2C2C5",
".B c #CBBBC4",
".V c #CABBC3",
".C c #CAB9C3",
".Z c #7477B4",
".A c #C7B7C0",
".S c #B577A8",
".D c #8B75BA",
".F c #BB68A4",
".G c #BC4398",
".H c #9AA0AE",
".J c #C9C5C5",
".K c #BB3D97",
".L c #C853A7",
".P c #5689EC",
".I c #AE63A1",
".U c #BC7AA8",
".Y c #9DA7BE",
".T c #937CBB",
".R c #606AC1",
".E c #BF479E",
".W c #B471AA",
".Q c #DDDDDF",
".! c #93A2BE",
".~ c #C18CB0",
".^ c #ABB2C5",
"./ c #AD47A0",
".( c #EDECE8",
".) c #C7C7C6",
"._ c #B84397",
".` c #C6C5C5",
".' c #F6F9FE",
".] c #C49AB6",
".[ c #A557AF",
".{ c #5F99FB",
".} c #B9BCC2",
".| c #CC87B4",
"X  c #B460B7",
"X. c #72749A",
"XX c #C6A6BB",
"Xo c #C3D3F0",
"XO c #578FF3",
"X+ c #BD4295",
"X@ c #496FB7",
"X# c #BB84AD",
"X$ c #5389EF",
"X% c #7C66BB",
"X& c #B4BBCA",
"X* c #7463BD",
"X= c #5B93FA",
"X- c #5A91F9",
"X; c #6286CC",
"X: c #ADB5C3",
"X> c #BE4299",
"X, c #DADAD8",
"X< c #BC4297",
"X1 c #C67DB1",
"X2 c #588CED",
"X3 c #AF66A1",
"X4 c #C8BEC3",
"X5 c #598FE4",
"X6 c #C0C1C5",
"X7 c #6D7FE4",
"X8 c #5686EB",
"X9 c #BEBFC3",
"X0 c #B53890",
"Xq c #D1D0CF",
"Xw c #5B88DC",
"Xe c #BC75A7",
"Xr c #A1A7B7",
"Xt c #5385DE",
"Xy c #CBCAC9",
"Xu c #C9C8C7",
"Xi c #5293F4",
"Xp c #C8C6C6",
"Xa c #C6A1B7",
"Xs c #8F5095",
"Xd c #ECF3FD",
"Xf c #B33891",
"Xg c #4B76CC",
"Xh c #8A90AA",
"Xj c #798CEC",
"Xk c #B84C99",
"Xl c #C8ABBC",
"Xz c #FFFFFF",
"Xx c #5792F2",
"Xc c #C8A3BC",
"Xv c #806CC8",
"Xb c #C552A9",
"Xn c #C4C4C5",
"Xm c #E9E7E6",
"XM c #C49FB8",
"XN c #BD5CA1",
"XB c #BCA0BA",
"XV c #C1C2C2",
"XC c #A356AF",
"XZ c #6098FE",
"XA c #AF52A7",
"XS c #B9529D",
"XD c #BCBCBD",
"XF c #BF6EA6",
"XG c #5B92F9",
"XH c #C982B3",
"XJ c #627AD5",
"XK c #BC6AA3",
"XL c #B9B2BA",
"XP c #588EF6",
"XI c #BB66A2",
"XU c #C4C6C8",
"XY c #538EF1",
"XT c #745AA8",
"XR c #C9BDC3",
"XE c #71859E",
"XW c #E1E1E1",
"XQ c #BD74A7",
"X! c #CECDCB",
"X~ c #5798F8",
"X^ c #A9368D",
"X/ c #8E6CC8",
"X( c #7D8DAD",
"X) c #818EA7",
"X_ c #C1ABBB",
"X` c #BB4198",
"X' c #436DC0",
"X] c #BB3D98",
"X[ c #A6A6BE",
"X{ c #9EA9C0",
"X} c #5287E9",
"X| c #579AFB",
"o  c #5885DB",
"o. c #49699E",
"oX c #4F80DC",
"oo c #EBE8E7",
"oO c #C5C5C5",
"o+ c #FAFAF9",
"o@ c #6986E5",
"o# c #C3C3C3",
"o$ c #6B94D3",
"o% c #B23F92",
"o& c #C24FA5",
"o* c #C94CA2",
"o= c #B6BFCA",
"o- c #C0C1C0",
"o; c #C3489C",
"o: c #BF6FA5",
"o> c #CB83B4",
"o, c #5582D1",
"o< c #BE4097",
"o1 c #EBEAEA",
"o2 c #6A86E9",
"o3 c #528FEF",
"o4 c #4D7BD3",
"o5 c None",
/* pixels */
"                                                                ",
"  oOoOoOoOoOoOoOoOoOoOoOXp h.k 0 !.xXNXpoOoOoOoOoOoOoOoOoOoOoO  ",
"  oOoOoOoOoOoOoOoOoOoOoOXp.E _X_.rX# 4XpoOoOoOoOoOoOoOoOoOoOoO  ",
"  oOoOoOoOoOoOoOoOoOoO.h K b.T Yo$.DX< -.} 8oOoOoOoOoOoOoOoOoO  ",
"  oOoOoOoOoOoOoOoO 6 m.p.Oo; s Q.iXvX+X7.uXg.e.`oOoOoOoOoOoOoO  ",
"  oOoOoOoOoOoOoOX6.;X=XY.R # G.0.>Xs.G.Z <.mXP.b.1oOoOoOoOoOoO  ",
"  oO 8.`.`oO.h.^.P.s EX)XL LX> jo< :._ ToO uo4XZ Wo#oOoOoOoOoO  ",
"   8 /XeXQ.. =. X*o.XDoOoO UXp UXpXpXpoOoOoO x.$.dX(oOoOoOoOoO  ",
"  .h *Xk.S V vX0 ) 8oOoOoOoOoOoOoOoOoOoOoOoOoOX:.{X@ 8oOoOoOoO  ",
"  .hXIXaXUX|XJX^.AoOoOoOoOoOoOoOoOoOoOoOoOoOoO.M $ [.`oOoOoOoO  ",
"  .h N.]oOo=X..a.AoOoOoOoOoOoOoOoOoOoOXp.C.C.V z JXT.`oOoOoOoO  ",
"  .h.F.~ 6 6 > t @oOoOoOoOoOoOoOoOoOoO.C F.L So&o*XK 6oOoOoOoO  ",
"  .h NXfo% e q ` coOoOoOoOoOoOoOoOoOoO X ;.J Io@X  d.`oOoOoOoO  ",
"  .`X4 @.A.A @ c UoOoOoOoOoOoOoOoOoOoO.B.LX[X5X~XC '.`oOoOoOoO  ",
"  oOoOoOoOoOoOoOoOoOoOoOoOoOoOoOoOoO.hXBXbo2Xi r.IXH.`oOoOoOoO  ",
"  oOoOoOoOoOoOoOoOoOoOoOoOoOoO.h.-.!o,X/ }.+ iX3.y A.`oOoOoOoO  ",
"  oOoOoOoOoOoOoOoOoOoOoOoOoO.YX;X}X-.tX% l.|.|o>X1XcoOoOoOoOoO  ",
"  oOoOoOoOoOoOoOoOoOoO.hX{oXXGXO ~.:Xr.l.hoO.`.`.`oOoOoOoOoOoO  ",
"  oOoOoOoOoOoOoOoOoO 6 D aX2.4.7XV.hoOoOoOoOoOoOoOoOoOoOoOoOoO  ",
"  oOoOoOoOoOoOoOoOoO +.co4 ^ 8oOoOoOoOoOoOoOoOoOoOoOoOoOoOoOoO  ",
"  oOoOoOoOoOoOoOoO.hXxXt.HoOoOoOoOoOoOoOoOoOoOoOoOoOoOoOoOoOoO  ",
"  oOoOoOoOoOoOoO.w.W.[ R.5.9XM 8oOoOoOoOoOoOoOoOoOoOoOoOoOoOoO  ",
"  oOoOoOoOoOoOoOXR.KXA.*.U g N.hoOoOoOoOoOoOoOoOoOoOoOoOoOoOoO  ",
"  oOoOoOoOoOoOoO.& 7Xj wo- 5 B.hoOoOoOoOoOoOoO.2.= HXq.<.,XuoO  ",
"  oOoOoOoOoOoOoO.&.q.oo3XE yXF.hoOoOoOoOoOoO.`.vXzo+ {XzXz.,oO  ",
"  oOoOoOoOoOoOoOXR.%.g & n.#o: 8oOoOoOoOoOoOoO f.Q.).)XyXz.<oO  ",
"  oOoOoOoOoOoOoOXRX]XS./.@X` |Xh.fo#.` 8 8.l 1 %XoX&oO PXzXqoO  ",
"  oOoOoOoOoOoOoO UXX ]Xl ,.8.zX8.6.3.j CX' 3 OXd o 9oO.)Xz.<oO  ",
"  oOoOoOoOoOoOoOoOoOoOoOoO.h Z.no  2.X .X$ pXw (.' MXWXmXz.,oO  ",
"  oOoOoOoOoOoOoOoOoOoOoOoOoOoO.h 6oO.NX9.-Xn 6X,oo.( ko1.vX!oO  ",
"  oOoOoOoOoOoOoOoOoOoOoOoOoOoOoOoOoOoOoOoOoOoOoOoO.`.`.`.`oOoO  ",
"                                                                "
};
