/* XPM */
static char *shaveScale[] = {
/* width height ncolors chars_per_pixel */
"32 32 288 2",
/* colors */
"   c #B5BDCC",
" . c #B7579D",
" X c #4F82E2",
" o c #556A92",
" O c #BA6BA3",
" + c #B4B5B7",
" @ c #C3C5C9",
" # c #BF81AB",
" $ c #B0B1B3",
" % c #4576D8",
" & c #8BA4D4",
" * c #9097A4",
" = c #6087D8",
" - c #839FD6",
" ; c #5A86DC",
" : c #748199",
" > c #788293",
" , c #5383DF",
" < c #3E6DC7",
" 1 c #C7C6C6",
" 2 c #C6C6C5",
" 3 c #6C7991",
" 4 c #C0C3C9",
" 5 c #3A67C3",
" 6 c #C3C2C2",
" 7 c #B53C94",
" 8 c #C0C0BF",
" 9 c #B03C8F",
" 0 c #B03A8F",
" q c #B13890",
" w c #AF388E",
" e c #AF368E",
" r c #AE368D",
" t c #AC368B",
" y c #AD348C",
" u c #AC348B",
" i c #9CB0D7",
" p c #AB328A",
" a c #A93488",
" s c #737C91",
" d c #A73086",
" f c #C5C6C7",
" g c #A72E86",
" h c #3A69C6",
" j c #C2A3B7",
" k c #3E6AC0",
" l c #4777D6",
" z c #808797",
" x c #759BE2",
" c c #3D6DCC",
" v c #B5B6B7",
" b c #A0A3A9",
" n c #7494D7",
" m c #6A7795",
" M c #838B9D",
" N c #C8BFC3",
" B c #C8BDC3",
" V c #BE7CA9",
" C c #7F8799",
" Z c #4373D5",
" A c #668BD3",
" S c #707C94",
" D c #4C6495",
" F c #547FD5",
" G c #C8C5C6",
" H c #BF84AD",
" J c #C0C2C8",
" K c #476090",
" L c #C4C3C2",
" P c #80899D",
" I c #405D93",
" U c #4876D3",
" Y c #B1BACD",
" T c #8993A9",
" R c #BF92B0",
" E c #BF90B0",
" W c #AE318C",
" Q c #AD318B",
" ! c #AB2F89",
" ~ c #3C61A6",
" ^ c #375EAB",
" / c #69799A",
" ( c #A92F87",
" ) c #C6C7C7",
" _ c #A82D86",
" ` c #C0C4CB",
" ' c #818BA1",
" ] c #4372D1",
" [ c #AA3B8B",
" { c #A9378A",
" } c #5984D6",
" | c #747F94",
".  c #3E6ECC",
".. c #A0A2A8",
".X c #C4C5C8",
".o c #B1B1B2",
".O c #5F8ADF",
".+ c #C7BAC1",
".@ c #C7B8C1",
".# c #4773CE",
".$ c #B66DA0",
".% c #3A6ACB",
".& c #3E6BC5",
".* c #C8C4C5",
".= c #9A9EA5",
".- c #2D56A7",
".; c #5D8AE0",
".: c #678CD6",
".> c #3765BE",
"., c #AAABAE",
".< c #56698D",
".1 c #BD8DAD",
".2 c #BE8BAE",
".3 c #4E7DDB",
".4 c #C7C6C7",
".5 c #C6C6C6",
".6 c #9CA0AA",
".7 c #B9C0CD",
".8 c #B24092",
".9 c #B13C91",
".0 c #AF3C8F",
".q c #BEBEBE",
".w c #AD388D",
".e c #BCBCBC",
".r c #AC388C",
".t c #AB388B",
".y c #AC368C",
".u c #4171CE",
".i c #AB368B",
".p c #C6AFBC",
".a c #AA368A",
".s c #3D6BCA",
".d c #B14894",
".f c #C2A5B8",
".g c #497BD9",
".h c #BDC1CA",
".j c #B6BECD",
".k c #B65A9C",
".l c #C7B7C0",
".z c #9096A1",
".x c #5A85D9",
".c c #BB6EA4",
".v c #C2C4C8",
".b c #9C9FA6",
".n c #C8C1C4",
".m c #8AA6DD",
".M c #37599C",
".N c #6C7B9B",
".B c #6F95E0",
".V c #9FA3AC",
".C c #C7C7C6",
".Z c #BD88AC",
".A c #4D7CD9",
".S c #C6C5C5",
".D c #C5C5C4",
".F c #648EDF",
".G c #6E90D5",
".H c #C3C3C2",
".J c #C39CB5",
".K c #ACAEB2",
".L c #B33B92",
".P c #B23B91",
".I c #C19AB3",
".U c #B03B8F",
".Y c #AAACB0",
".T c #AF3B8E",
".R c #B0398F",
".E c #AE398D",
".W c #3863B7",
".Q c #AE378D",
".! c #AE358D",
".~ c #A6A8AC",
".^ c #AD358C",
"./ c #7F9CD5",
".( c #AC358B",
".) c #315EBA",
"._ c #AB358A",
".` c #7E9AD4",
".' c #AB318A",
".] c #A92F88",
".[ c #A82F87",
".{ c #C5C5C7",
".} c #C4C5C6",
".| c #AE4390",
"X  c #969BA6",
"X. c #698CD3",
"XX c #C7B6BF",
"Xo c #A4B6D8",
"XO c #C7B4BF",
"X+ c #B35998",
"X@ c #C6B4BE",
"X# c #C5B2BD",
"X$ c #8F959F",
"X% c #6B7DA0",
"X& c #757F96",
"X* c #B15196",
"X= c #B7B7B9",
"X- c #B5B5B7",
"X; c #C4C5C9",
"X: c #B7639F",
"X> c #B1B1B3",
"X, c #C8C0C3",
"X< c #C8BEC3",
"X1 c #668AD3",
"X2 c #77839B",
"X3 c #A7B7D4",
"X4 c #758199",
"X5 c #768EBB",
"X6 c #6B7A99",
"X7 c #C8C6C6",
"X8 c #C7C6C5",
"X9 c #C8C4C6",
"X0 c #BE83AC",
"Xq c #C5C4C3",
"Xw c #B5BFD1",
"Xe c #3A67C2",
"Xr c #969AA2",
"Xt c #6D7FA8",
"Xy c #4475CF",
"Xu c #74819B",
"Xi c #AE348C",
"Xp c #5C85D6",
"Xa c #4F7FDD",
"Xs c #AB2E89",
"Xd c #C6C6C7",
"Xf c #4B7DD9",
"Xg c #89A7E1",
"Xh c #828998",
"Xj c #4877D6",
"Xk c #4575D3",
"Xl c #617DB3",
"Xz c #4473D2",
"Xx c #526A97",
"Xc c #90949F",
"Xv c #6A92E0",
"Xb c #BEC3CC",
"Xn c #B6669D",
"Xm c #AC4890",
"XM c #637497",
"XN c #3767C5",
"XB c #B5609C",
"XV c #C8BBC2",
"XC c #526DA4",
"XZ c #C7B9C1",
"XA c #C6B9C0",
"XS c #C6B7C0",
"XD c #77829A",
"XF c #8B909D",
"XG c #8A909C",
"XH c #B76CA1",
"XJ c #507EDA",
"XK c #557FD5",
"XL c #C186AE",
"XP c #6B7998",
"XI c #C2C4C9",
"XU c #C8C3C5",
"XY c #B3649D",
"XT c #688DD7",
"XR c #588AE5",
"XE c #BA7CA7",
"XW c #ACB9D1",
"XQ c #4674D0",
"X! c #7A8396",
"X~ c #798395",
"X^ c #788194",
"X/ c #546995",
"X( c #C7C7C7",
"X) c #365EA9",
"X_ c #4C7CD9",
"X` c #C5C5C5",
"X' c #557ECE",
"X] c #6A7690",
"X[ c #B13F91",
"X{ c #828897",
"X} c #88A1D5",
"X| c #AE398E",
"o  c #AD398D",
"o. c #AC378C",
"oX c #C6AEBC",
"oo c #5A82D6",
"oO c #5E83D0",
"o+ c #C5AABB",
"o@ c #A2A4A9",
"o# c #C4AABA",
"o$ c #C4A8BA",
"o% c #C4C5C7",
"o& c #4B7ADB",
"o* c None",
/* pixels */
"X`X`X`X`X`X`X`X`X`X`X`X`X`X`X`X`X`X`X`X`X`X`X`X`X`X`X`X`X`X`X`X`",
"X`X`X`X` 2X`X`X`X`X`X`X`X`X`X`X`X`X`X`X`X`X`X`X`X`X`X`X`X`X`X`X`",
"X`X`X` 2 TX3 2X`X`.*.@.p BX`X`X`X`X`X`X`XU.+.nX7X`X`X`X` 2X5 `X`",
"X`X`X` 2 IXgX`X`X` E ! W HX`X`X`X`X`X`X`.IXs Q #X`X`X`X` 8 <.7X`",
"X`X`X`.S.MXoX`X`X`o$ y w V.SX`X`X`X`X`X`.2 u e.JX`X`X`X` +Xf @X`",
"X`X`X` LX)XwX`X`X`XX.^.R O.5X`X`X`X`X`X`XE.^ ro+X`X`X`X`.V X )X`",
"X`X`X`.e kXbX`X`X`X< y 0 . 1X`X`X`X`X`.5XH.y e.lX`X`X`X` 'XR.CX`",
"X`X`X` $XyX;X`X`X`.* u 0.8 1X`X`X`X`X` 1X+.y r NX`X`X` 2X% x.5X`",
"X`X`X`.~ lXdX`X` 2XU.Q 9.PXOXV GX` 1XAXS.|.r.!X,X`X`X`.5XC.mX`X`",
"X`X`X`.b.gX(X` 1.$X*o .UX[.L 7X9X` 1Xm _.ao.o .k.cXUX` 2 ~ iX`X`",
"X`X`X`X$XaX(X`X` j.]o .T.9.PXLX`X`X`o# g.a.t.EXiX0 2X`.D ^XWX`X`",
"X`X`X`Xh ,.CX`X`.5Xn._X|.0 q NX`X`X`X7 { a.i t.dX7X`X`.H.W.jX`X`",
"X`X`X`X^.; 1X`X`X`XU.(o  wX:.5X`X`X`X`.1.[.a pXZX`X`X`.q.&.hX`X`",
"X`X`X` SXv 1X`X`X`X`.f.' yoXX`X`X`X`X`.n d (.ZX`X`X`X`X=.uXIX`X`",
"X`X`.SX].B.5X`X`X`X` 1XB.wX7X`X`X`X`X` 2XY [X7X`X`X`X`.K Z fX`X`",
"X`X`X`X&.F 1X`X`X`X`X`X, RX`X`X`X`X`X`X`X#X@X`X`X`X`X`.6 %XdX`X`",
"X`X`X` |.O 1X`X`X`X`X`X` 1X`X`X`X`X`X`X` 2 2X`X`X`X`X` *o& 1X`X`",
"X`X`X`X! ;.CX`X`X`X`X`X`.SX`X`X`X`X`X`X` 2X`X`X`X`X`X` MX_ 1X`X`",
"X`X`X` z.3.CX`X`X`X`X` 2Xt  X`X`X`X`X`XqXl 4X`X`X`X`X` PXJ 1X`X`",
"X`X`X`X{.A.CX`X`X`X`X` 6.- YX`X`X`X`X` vXN JX`X`X`X`X`X2.x 1X`X`",
"X`X`X`.zXjX(X`X`X`X`X`X-Xe.vX`X`X`X`X`X Xz.4X`X`X`X`X`Xu = 1X`X`",
"X`X`X`XcXkX(X`X`X`X`X` b. XdX`X`X`X`X`X4Xp 1X`X`X`X`.SXPXT.5X`X`",
"X`X`X`.= ]X(X`X`X`X`X`XF U.CX`X`X`X` 2XM n.5X`X`X`X` 2 /.G.5X`X`",
"X`X`X`.. c )X`X`X`X`X` CXK 1X`X`X`X` 2X/./.SX`X`X`X`.S.NX..5X`X`",
"X`X`X`o@.s )X`X`X`X`X`X~oo 1X`X`X`X`.5Xx -X`X`X`X`X`.SX6X1.5X`X`",
"X`X`X`.Y h fX`X`X`X`X` s } 1X`X`X`X` 2 D &X`X`X`X`X`X` m A.5X`X`",
"X`X`X`., 5 fX`X`X`X`X` > F.CX`X`X`X` 2 KX}X`X`X`X`X`X` :oO 1X`X`",
"X`X`X`X>.>.XX`X`X`X`X`XGXQX(X`X`X`X`.5 o.` 2X`X`X`X`X`XDX' 1X`X`",
"X`X`X`.o.).vX`X`X`X`X`Xr.%XdX`X`X`X` 2.<.:.5X`X`X`X`X` 3.# 1X`X`",
"X`X`X` 1.}.5X`X`X`X`X`X8.{ 2X`X`X`X`X`.SXdX`X`X`X`X`X`X`o% 2X`X`",
"X`X`X`X`X`X`X`X`X`X`X`X`X`X`X`X`X`X`X`X`X`X`X`X`X`X`X`X`X`X`X`X`",
"X`X`X`X`X`X`X`X`X`X`X`X`X`X`X`X`X`X`X`X`X`X`X`X`X`X`X`X`X`X`X`X`"
};
