/* XPM */
static char *shaveSelectHide[] = {
/* width height ncolors chars_per_pixel */
"32 32 179 2",
/* colors */
"   c #A8ADBC",
" . c #A7ADBB",
" X c #C1C1C4",
" o c #C0C1C3",
" O c #9E9D9B",
" + c #9D9B9A",
" @ c #2D2D2C",
" # c #2C2B2B",
" $ c #85837F",
" % c #5F5E5D",
" & c #83817D",
" * c #5C5A5A",
" = c #C4C2C0",
" - c #C3C2BF",
" ; c #A5ABBC",
" : c #8D8B8A",
" > c #BDBDC3",
" , c #BCBDC2",
" < c #545452",
" 1 c #1D1D1C",
" 2 c #BCBCB8",
" 3 c #AEB2BE",
" 4 c #ADB2BD",
" 5 c #C7C6C6",
" 6 c #C6C6C5",
" 7 c #4A4A48",
" 8 c #ACB0BC",
" 9 c #9F9C98",
" 0 c #9E9C97",
" q c #9D9A96",
" w c #9C9A95",
" e c #B8B9C1",
" r c #B7B9C0",
" t c #9B9894",
" y c #9A9893",
" u c #999892",
" i c #999692",
" p c #989691",
" a c #92908B",
" s c #A9AEBC",
" d c #A8AEBB",
" f c #C2C2C4",
" g c #B4B7C0",
" h c #93928F",
" j c #91908D",
" k c #A6ACBC",
" l c #BFC0C4",
" z c #BEBEC3",
" x c #BDBEC2",
" c c #BBB9B6",
" v c #C8C7C6",
" b c #C7C7C5",
" n c #B6B5B1",
" m c #C6C5C4",
" M c #C2C1C0",
" N c #C0BFBE",
" B c #BABCC2",
" V c #1D1E1E",
" C c #BDBDBB",
" Z c #B9BAC1",
" A c #171818",
" S c #B4B3B2",
" D c #6E6C6A",
" F c #C3C3C4",
" G c #A2A19D",
" H c #B5B8C0",
" J c #A7ADBC",
" K c #A6ADBB",
" L c #BFC1C3",
" P c #BFBFC3",
" I c #BEBCB8",
" U c #B0B4BE",
" Y c #282928",
" T c #4C4A48",
" R c #C3C2C0",
" E c #BCBDC3",
" W c #8B8989",
" Q c #1F1F1F",
" ! c #BBBDC2",
" ~ c #BABBC1",
" ^ c #AAA8A4",
" / c #74736F",
" ( c #BAB8B7",
" ) c #A9A6A3",
" _ c #A8A6A2",
" ` c #C6C6C6",
" ' c #C6C4C6",
" ] c #C5C4C5",
" [ c #C4C4C4",
" { c #ABAEBC",
" } c #A2A29C",
" | c #9B9A95",
".  c #B7B9C1",
".. c #B6B9C0",
".X c #999893",
".o c #979691",
".O c #979491",
".+ c #5F5D5A",
".@ c #A8AEBC",
".# c #C1C2C4",
".$ c #A8ACBC",
".% c #8E8C88",
".& c #9E9C9B",
".* c #898683",
".= c #B3B5C0",
".- c #B2B5BF",
".; c #2A2A29",
".: c #242423",
".> c #7D7C77",
"., c #C3C1BF",
".< c #C2C1BE",
".1 c #7C7A76",
".2 c #858482",
".3 c #C8C7C7",
".4 c #ADB3BD",
".5 c #C7C7C6",
".6 c #ADB1BD",
".7 c #ACB1BC",
".8 c #C6C5C5",
".9 c #4A4948",
".0 c #A19F9A",
".q c #9F9D98",
".w c #9E9D97",
".e c #9E9B97",
".r c #9D9B96",
".t c #9B9994",
".y c #9A9793",
".u c #999792",
".i c #989591",
".p c #979590",
".a c #3C3B3A",
".s c #3B3B39",
".d c #95938E",
".f c #3A3938",
".g c #A9ADBC",
".h c #918F8A",
".j c #323130",
".k c #8C8985",
".l c #2B2B29",
".z c #5F5E5C",
".x c #A6ADBC",
".c c #A6ABBC",
".v c #A5ABBB",
".b c #BFBFC4",
".n c #BEBFC3",
".m c #BDBFC2",
".M c #BDBDC2",
".N c #C0BEBB",
".B c #51504E",
".V c #AFB2BE",
".C c #4C4A49",
".Z c #B6B4B1",
".A c #464643",
".S c #B9BBC1",
".D c #141515",
".F c #C4C4C5",
".G c #B4B7BF",
".H c #A3A2A1",
".J c #A7ACBC",
".K c #A6ACBB",
".L c #BFC0C3",
".P c #B2B5C0",
".I c #B9B7B3",
".U c #282828",
".Y c #C8C7C5",
".T c #262626",
".R c #C7C5C4",
".E c #191819",
".W c #C6C5C6",
".Q c #ABB1BC",
".! c #C5C5C5",
".~ c #B4B3B1",
".^ c #ABAFBC",
"./ c #C4C3C4",
".( c #999793",
".) c #A8A7A5",
"._ c #979591",
".` c #93918D",
".' c None",
/* pixels */
".!.!.!.!.!.!.!.!.!.!.!.!.!.!.!.!.!.!.!.!.!.!.!.!.!.!.!.!.!.!.!.!",
".!.!.!.! v e v.!.!.!.!.!.!.! 6 f v.!.!.!.!.!.!.!.!.!.!.!.!.!.!.!",
".!.!.!.!.W.v 5.!.!.!.!.!.!.! 5.v l.!.!.!.!.!.!.!.!.!.!.!.!.!.!.!",
".!.!.!.! X.$ v.!.!.!.!.!.! 5 U.^.5.!.!.!.!.!.!.!.!.!.!.!.!.!.!.!",
".!.!.!.! e 4 5.!.!.!.!.!.! F.c.8.!.!.!.!.!.!.!.!.!.!.!.!.!.!.!.!",
".!.!.! 5.4 Z.!.!.!.!.!.! v.g.G `.!.!.!.!.!./ 6.!.!.!.!.!.!.!.!.!",
".!.!.! v.J.#.!.!.!.!.!.! , . v.!.!.!.!.!.F.K Z 6.!.!.!.!.!.!.!.!",
".!.!.!.5.K 5.!.!.!.!.!.5 ..n.!.!.!.!.!.W J g.5.!.!.!.!.!.!.!.!.!",
".!.!.! F.J v.!.!.!.! `.G.g v.!.!.!.! ` ..P.5.!.!.!.!.!.!.!.!.!.!",
".!.!.! > s.5.!.!.!.! 5.J f.!.!.!.! v J.V v.!.!.!.!.!.!.!.!.!.!.!",
".!.! 6...- `.!.!.! 6 g.@.5.!.!.! v.7 s v.!.!.!.!.!.!.!.!.!.!.!.!",
".!.! 5 3 Z.!.!.!.!.5 k f.!.!.! `...J.5.!.!.!.!.!.!.!.!.!.!.!.!.!",
".!.! v d P.!.!.!.!.S.g v.!.!.!.L.c F.!.!.!.!.!.!.!.!.!.!.!.!.!.!",
".!.! v.J.F.!.!.! v  .n.!.!.! 5.J ! 6.!.!.!.!.!.!.!.!.!.!.!.!.!.!",
".!.! 5.K 5.!.!.! X.K v.!.!.5 8.6.5.!.!.!.!.!.!.!.!.!.!.!.!.!.!.!",
".!.!.F.J v.!.!.5 8 H 6.!.!.n.x 5.!.!.!.!.!.!.!.!.!.!.!.!.!.!.!.!",
".!.! X . v.!.!.5.c.W.!.! v . ,.!.!.!.!.!.!.!.!.!.!.!.!.!.!.!.!.!",
".!.! x s.5.!.! z.@ v.!.8 Z   v.!.!.!.5 = c.Z.I.< b `.!.!.!.!.!.!",
".!.! ~ 4.5.!.5.Q. .!.!.5.J o.!.!.5 n.y.p.i.o.i._.i ^.R.!.!.!.!.!",
".! 6. .= `.! v.J ].! 6 e s v.!.Y.0.i.u.y y.y.X.y u i p R.!.!.!.!",
".! `.P.. 6.! f K v.!.3 . l.! 5 }.i.u.y.u.y.u.y.u.y.u.u p b.!.!.!",
".!.5 4 ~.!.!.  3 5.!.L.J v.!.,.O.X.y u.y.X.y u.y.X.y.X.i 2.!.!.!",
".!.5 s ,.!.5 { B.!.5 8 r.!.! _.t.(.u.y.u.y.u.y.u.y.u.y.t ) 6.!.!",
".!.5 s >.! v.x [.!.5 k '.! 6 j.`.q.e | t u.y.X t w 9.w.k.2 6.!.!",
".!.5 s.M.!.5.J 5.! L.J v.!.!.&.l.+.>.%.d q 0.y.h.* /.B 1.).!.!.!",
".!.5 s E.!.F.K v 6.=.G `.! M A D.1 #.;.C.s.j.A T.:.f & % V m.!.!",
".!.5.g.m.! f.J.5.5 . P.!.! N W ` - @.a.r.9 Q $ a.T <.Y `.H 6.!.!",
".! v J.b.! z J.5 v ;.W.!.!.!.!.! m.E h I.z.U G.N 7 *.!.!.!.!.!.!",
".! 6 v.5.! v v 6 ` v.5.!.!.!.!.! S.D 6.! O Y 5.! ( +.!.!.!.!.!.!",
".!.!.!.!.!.!.!.!.!.!.!.!.!.!.!.!.8.~.!.! C :.!.!.!.!.!.!.!.!.!.!",
".!.!.!.!.!.!.!.!.!.!.!.!.!.!.!.!.!.!.!.!.!.!.!.!.!.!.!.!.!.!.!.!",
".!.!.!.!.!.!.!.!.!.!.!.!.!.!.!.!.!.!.!.!.!.!.!.!.!.!.!.!.!.!.!.!"
};
