/* XPM */
static char *shavePuffRoots[] = {
/* width height ncolors chars_per_pixel */
"32 32 266 2",
/* colors */
"   c #A22D82",
" . c #A12B81",
" X c #A02980",
" o c #5E6F91",
" O c #A7418A",
" + c #AF5995",
" @ c #2C4F98",
" # c #4B7EDE",
" $ c #C8C2C4",
" % c #527BC7",
" & c #B06399",
" * c #95989F",
" = c #657187",
" - c #B677A2",
" ; c #4772C6",
" : c #3F6DC8",
" > c #9EA2AB",
" , c #C7C6C6",
" < c #C6C6C5",
" 1 c #6090E5",
" 2 c #3B6BC4",
" 3 c #C5C4C4",
" 4 c #B0B1B6",
" 5 c #C4C4C3",
" 6 c #C3C2C2",
" 7 c #3765C0",
" 8 c #BEBEBD",
" 9 c #7A8498",
" 0 c #2F5297",
" q c #8B93A2",
" w c #7998D9",
" e c #A3B0CA",
" r c #C5C6C7",
" t c #395EA4",
" y c #4B7BDA",
" u c #A23081",
" i c #A22E81",
" p c #A22C81",
" a c #4779D6",
" s c #A22A81",
" d c #BBBFC7",
" f c #A12880",
" g c #3D5A94",
" h c #5587E7",
" j c #A0287F",
" k c #B9BDC5",
" l c #A0267F",
" z c #7B91BD",
" x c #5385E5",
" c c #BCBCBE",
" v c #BBBCBD",
" b c #4D679D",
" n c #7D9BD6",
" m c #96AFDE",
" M c #A53A87",
" N c #315CB3",
" B c #868FA0",
" V c #6277A1",
" C c #7D98CC",
" Z c #AA4A8F",
" A c #7C88A0",
" S c #83A3DF",
" D c #3864BD",
" F c #678BD4",
" G c #A6B1C9",
" H c #466199",
" J c #C8C5C6",
" K c #C6C5C4",
" L c #9B9FA7",
" P c #BBC1CD",
" I c #BA84A8",
" U c #5688E4",
" Y c #365FB4",
" T c #A0A5AF",
" R c #3F6ECA",
" E c #9EA3AD",
" W c #C6C7C7",
" Q c #BAC1CF",
" ! c #80A1E2",
" ~ c #A22980",
" ^ c #A1297F",
" / c #AAACB2",
" ( c #A1277F",
" ) c #7D9FDF",
" _ c #B4BBC9",
" ` c #2D54A1",
" ' c #A5B6D8",
" ] c #5084E1",
" [ c #B9B9BA",
" { c #4162A4",
" } c #C4C5C8",
" | c #3A6AC8",
".  c #BDC2CB",
".. c #527CCF",
".X c #AB498F",
".o c #BFC1C3",
".O c #5B7099",
".+ c #ABB6CD",
".@ c #3860B2",
".# c #AC5193",
".$ c #C2C5C9",
".% c #C7C2C4",
".& c #B2699C",
".* c #B0B1B4",
".= c #3663BD",
".- c #728DC3",
".; c #8A94A9",
".: c #5D85D6",
".> c #546A95",
"., c #B5B7BC",
".< c #345EB1",
".1 c #A4B0C9",
".2 c #B2B5B9",
".3 c #C6C6C6",
".4 c #315AAE",
".5 c #516588",
".6 c #9CABCB",
".7 c #7F8A9E",
".8 c #60739A",
".9 c #A52A82",
".0 c #4C6DAE",
".q c #A8ABAF",
".w c #9F267C",
".e c #4C7DDC",
".r c #416CC4",
".t c #C5C6C8",
".y c #C2A7B8",
".u c #AAB0BE",
".i c #335BA9",
".p c #BEC3CB",
".a c #BDC1CA",
".s c #A22E82",
".d c #3C68BF",
".f c #A12C81",
".g c #3057A6",
".h c #C6B7BF",
".j c #A5A9AF",
".k c #C5B3BE",
".l c #4470CA",
".z c #B7B8BA",
".x c #735DB3",
".c c #ABB2C2",
".v c #AB5091",
".b c #C8C3C4",
".n c #C0C2C6",
".m c #C7BFC3",
".M c #A9ADB6",
".N c #5A6F9A",
".B c #2D529C",
".V c #B676A2",
".C c #C7C7C6",
".Z c #C1C4CA",
".A c #C6C5C5",
".S c #62769B",
".D c #C5C5C4",
".F c #2F59AB",
".G c #ACAEB2",
".H c #4778D3",
".J c #C0BFBF",
".K c #3664BF",
".L c #A6B8D7",
".P c #BEBDBD",
".I c #3462BD",
".U c #BCBBBB",
".Y c #3260BB",
".T c #BAB9B9",
".R c #5082DF",
".E c #6F97E3",
".W c #BC92AE",
".Q c #3C5686",
".! c #325DB1",
".~ c #94AAD9",
".^ c #355CAA",
"./ c #793F94",
".( c #5271AC",
".) c #3E6BC0",
"._ c #C1A2B6",
".` c #A12B80",
".' c #A12980",
".] c #5C7098",
".[ c #A0277F",
".{ c #769AE3",
".} c #6D7FA2",
".| c #BBBBBD",
"X  c #335FB5",
"X. c #416FC6",
"XX c #3C6CCB",
"Xo c #C2C3C7",
"XO c #B7BFD0",
"X+ c #C0C1C5",
"X@ c #5386E8",
"X# c #A2B4D9",
"X$ c #8F5188",
"X% c #B573A0",
"X& c #8690A3",
"X* c #66799E",
"X= c #5774AD",
"X- c #7E8BA5",
"X; c #C7C6C5",
"X: c #C1C3C9",
"X> c #B0699B",
"X, c #3E5B9B",
"X< c #BEC1C6",
"X1 c #C3C2C1",
"X2 c #A52A80",
"X3 c #B881A6",
"X4 c #7A92C2",
"X5 c #526B9E",
"X6 c #6084D0",
"X7 c #9BAED5",
"X8 c #C6C6C7",
"X9 c #C4C4C5",
"X0 c #365AA0",
"Xq c #6A8FD3",
"Xw c #AB468C",
"Xe c #A8ABB0",
"Xr c #BCBCBD",
"Xt c #BABABB",
"Xy c #335EB4",
"Xu c #A43685",
"Xi c #A33484",
"Xp c #C4C6C8",
"Xa c #BEC3CC",
"Xs c #3969C7",
"Xd c #445F93",
"Xf c #32569F",
"Xg c #AEB9D0",
"Xh c #C4B9BE",
"Xj c #C5B7BF",
"Xk c #3A65B4",
"Xl c #4171D2",
"Xz c #A3A7AE",
"Xx c #3F6FD0",
"Xc c #B5B6B9",
"Xv c #C8C5C5",
"Xb c #B36C9D",
"Xn c #608FE3",
"Xm c #84A5E2",
"XM c #BEC0C5",
"XN c #B0669A",
"XB c #4475D8",
"XV c #BABCC1",
"XC c #7081A0",
"XZ c #747D90",
"XA c #C7C7C7",
"XS c #A8AEC3",
"XD c #C5C5C5",
"XF c #BFC2C9",
"XG c #C3C3C3",
"XH c #C1C1C1",
"XJ c #9DA9C2",
"XK c #ABAEB2",
"XL c #BFBFBF",
"XP c #BEBDBE",
"XI c #A4B6D6",
"XU c #9F217C",
"XY c #BBBBBB",
"XT c #B0B7C4",
"XR c #B9B9B9",
"XE c #335FB3",
"XW c #3C6AC9",
"XQ c #C4C5C7",
"X! c #335AA9",
"X~ c #325AA8",
"X^ c #516FAC",
"X/ c None",
/* pixels */
"XDXDXDXDXDXDXDXDXDXDXDXDXDXDXDXDXDXDXDXDXDXDXDXDXDXDXDXDXDXDXDXD",
"XDXDXDXDXDXDXDXDXDXDXDXDXD.3 WXDXDXDXD.3X:.CXDXDXDXDXD.A.3XDXDXD",
"XDXDXDXDXDXDXDXDXDXDXDXDXD.;X@XAXDXDXDXY 2XaXDXDXDXDXD vXq.tXDXD",
"XDXDXDXDXDXDXDXDXDXDXDXDXDXR.^X#XDXDXD K t.LXDXDXDXDXD / #.tXDXD",
"XDXDXDXDXDXDXDXDXDXDXDXDXDXDXZ xXAXDXD.3.>Xm <XDXDXDXD > ]X8XDXD",
"XDXDXDXDXDXDXDXDXDXDXDXDXDXD.PXkXOXDXDXD 9 1 ,XDXDXDXD q UXAXDXD",
"XDXDXDXDXDXDXDXDXDXDXDXDXDXD < g mXDXDXD L.RXAXDXDXDXD AXn ,XDXD",
"XDXDXDXDXDXDXDXDXDXDXDXDXDXD <.8 !.3XDXD.*.HXpXDXDXDXDXC.E.3XDXD",
"XDXDXDXDXDXDXDXDXDXDXDXDXDXD <.N S <XDXDXYX..ZXDXDXD < V ).3XDXD",
"XDXDXDXDXDXDXDXDXDXDXDXDXDXD.AX0X7XDXDXD.J.).pXDXDXD < {.~XDXDXD",
"XDXDXDXDXDXDXDXDXDXDXDXDXDXDXKXWXFXDXDXDXL.d. XDXDXD 3.@XgXDXDXD",
"XDXDXDXDXDXDXDXDXDXDXDXDXD <X, F.3XDXDXDXt :.ZXDXDXDXr R.aXDXDXD",
"XDXDXDXDXDXDXDXDXDXDXDXD ,.}XXX<XDXDXDXD.GXl.tXDXDXDXeXB rXDXDXD",
"XDXDXDXDXDXD.3X9XM.nX+.u.0 7.cXDXDXDXDXD B y.CXDXDXDX&.e.CXDXDXD",
"XDXDXDXDXD.,.(Xy.!XyX .4X=XVXDXDXDXDXD.3 H n <XDXD.3X5 w <XDXDXD",
"XDXDXDXD E.FX^.M.|.| cXG.3XDXDXDXDXDXD.z.= _XDXDXD 6 Y.+XDXDXDXD",
"XDXDXDXr ` z ,XDXDXDXDXDXDXDXDXDXDXDX; b.. ,XDXDXDXzXxXQXDXDXDXD",
"XDXD < o ;.3XDXDXDXDXDXDXDXDXDXDXD <X-Xs kXDXDXD <X*.:.3XDXDXDXD",
"XDXD 5 @ eXD.b.%Xv , ,.3XDXDXDXDXD T.IXJXDXDXDXD 3X!.6XDXDXDXDXD",
"XDXD.UXEXFXD.kXU.' M.vXNXb $XDXDXHX~X4.3XDXDXDXD.j |XoXDXDXDXDXD",
"XDXD [ D.$XD , Z.` p . lX3.AXD.3.].r.3XDXDXDXD.3.OX6.3XDXDXDXDXD",
"XDXD 8.< PXDXD._ (.s.s.`.V ,XDXc NXTXDXDXDXDXD 5.g.1XDXDXDXDXDXD",
"XDXD.D 0XIXDXDXv i p.`   X.XXh.S % ,XDXDXDXDXD 4.KXoXDXDXDXDXDXD",
"XDXD.3.5.{.3XDXD I.[ +.f p p.w./XSXDXDXDXDXDXD.7.l ,XDXDXDXDXDXD",
"XDXDXD * a.tXDXD.mX%.3XjXi.'.sX2X> JXDXDXDXD.3Xd CXDXDXDXDXDXDXD",
"XDXDXDX1Xf 'XDXD.3 ,XDXDXv.&.9 u ~Xu.hXDXDXD.D.B GXDXDXDXDXDXDXD",
"XDXDXD < = hXAXDXDXDXDXDXD ,X$ s p p j.W ,XDXP.4 dXDXDXDXDXDXDXD",
"XDXDXDXD.T.i QXDXDXDXDXDXD <.Q.xXw ^   j.# ,.q.YXQXDXDXDXDXDXDXD",
"XDXDXDXD.3XG.3XDXDXDXDXDXD <.o } , -.[ f &.3.2.- ,XDXDXDXDXDXDXD",
"XDXDXDXDXDXDXDXDXDXDXDXDXDXDXDXDXD <.y OXvXDXD <XDXDXDXDXDXDXDXD",
"XDXDXDXDXDXDXDXDXDXDXDXDXDXDXDXDXDXDXD ,XDXDXDXDXDXDXDXDXDXDXDXD",
"XDXDXDXDXDXDXDXDXDXDXDXDXDXDXDXDXDXDXDXDXDXDXDXDXDXDXDXDXDXDXDXD"
};
