/* XPM */
static char *shaveAttenuate[] = {
/* width height ncolors chars_per_pixel */
"32 32 323 2",
/* colors */
"   c #A8ADBC",
" . c #A7ADBB",
" X c #C1C1C4",
" o c #B5BDCC",
" O c #8B97B0",
" + c #96A6C8",
" @ c #8193BA",
" # c #4374D3",
" $ c #B3B8C0",
" % c #B3B6C0",
" & c #B2B6BF",
" * c #5C83D1",
" = c #355EAE",
" - c #6B7A97",
" ; c #697895",
" : c #3157A0",
" > c #BDBDC3",
" , c #4274D5",
" < c #A6AAB3",
" 1 c #ABB6CF",
" 2 c #819DD4",
" 3 c #C8C8C7",
" 4 c #AEB2BE",
" 5 c #ADB2BD",
" 6 c #C7C6C6",
" 7 c #7193D8",
" 8 c #C6C6C5",
" 9 c #C0C3C9",
" 0 c #C4C4C3",
" q c #989CA5",
" w c #C0C0BF",
" e c #AAABB0",
" r c #A5B5D6",
" t c #BDBCBC",
" y c #5886DD",
" u c #BCBCBB",
" i c #B8B9C1",
" p c #768094",
" a c #7998D9",
" s c #6E96E2",
" d c #53678C",
" f c #68789A",
" g c #3C6BC8",
" h c #C5C6C7",
" j c #6A7792",
" k c #A9AEBC",
" l c #C2C2C4",
" z c #627494",
" x c #B7BECD",
" c c #C0C0C2",
" v c #3964BB",
" b c #778298",
" n c #3560B7",
" m c #ABB5CB",
" M c #37548E",
" N c #B4B7C0",
" B c #B3B7BF",
" V c #7B99D4",
" C c #B2B5BE",
" Z c #4A7DDC",
" A c #96AAD4",
" S c #C3C4C8",
" D c #95AAD3",
" F c #A5ACBB",
" G c #BEBEC3",
" H c #BDBEC2",
" J c #3363C2",
" K c #678BD4",
" L c #B0B8C9",
" P c #516A9A",
" I c #6F7F9D",
" U c #737E97",
" Y c #4270CA",
" T c #49659C",
" R c #C8C7C6",
" E c #C6C5C4",
" W c #3C6AC4",
" Q c #C4C3C2",
" ! c #3A68C2",
" ~ c #B9BFCB",
" ^ c #37599E",
" / c #C2C1C0",
" ( c #4E6BA4",
" ) c #B9BAC1",
" _ c #3761B5",
" ` c #717E98",
" ' c #506792",
" ] c #31508E",
" [ c #ABAFBD",
" { c #BFC2CA",
" } c #AAAFBC",
" | c #C3C3C4",
".  c #648BD7",
".. c #B0BACF",
".X c #5284E3",
".o c #3661B7",
".O c #B5B8C0",
".+ c #B4B8BF",
".@ c #B9B9BA",
".# c #757F95",
".$ c #B7B7B8",
".% c #B6B7B7",
".& c #A1A4A9",
".* c #C4C5C8",
".= c #6E92DA",
".- c #96ABD3",
".; c #A7ADBC",
".: c #C0C1C4",
".> c #BFBFC3",
"., c #3763BB",
".< c #4172D2",
".1 c #4070D1",
".2 c #4C689E",
".3 c #3F70D0",
".4 c #556A93",
".5 c #3E6ECF",
".6 c #96A0B5",
".7 c #B0B4BE",
".8 c #AEB2BC",
".9 c #95ABD5",
".0 c #8BA7DF",
".q c #2C59B0",
".w c #B0B1B4",
".e c #BBC0CC",
".r c #3965C0",
".t c #688CD7",
".y c #8E98AD",
".u c #9299A7",
".i c #ACADB0",
".p c #BCBDC3",
".a c #BBBDC2",
".s c #2F559F",
".d c #BABBC1",
".f c #A5B5D4",
".g c #426FCC",
".h c #8D9EC3",
".j c #3E6DC8",
".k c #335CB0",
".l c #C6C6C6",
".z c #567FCF",
".x c #ACB0BD",
".c c #C0C3CA",
".v c #C5C4C5",
".b c #3A69C4",
".n c #ADAFB4",
".m c #B8BECC",
".M c #C0C0C0",
".N c #2A54A7",
".B c #A9ABB0",
".V c #B7B9C1",
".C c #B6B9C0",
".Z c #747E93",
".A c #7696D7",
".S c #C5C6C8",
".D c #3B69C8",
".F c #A8AEBC",
".G c #C1C2C4",
".H c #536FA4",
".J c #5A85D9",
".K c #B7B8BA",
".L c #B2B5BF",
".P c #517EDA",
".I c #7496D8",
".U c #345DAD",
".Y c #9BADD0",
".T c #B3B4B6",
".R c #838D9E",
".E c #C2C4C8",
".W c #B2B2B5",
".Q c #93A8D2",
".! c #8DA5D6",
".~ c #5C719C",
".^ c #9EA9BF",
"./ c #7483A3",
".( c #5E7094",
".) c #668BD4",
"._ c #9CAFD4",
".` c #345DB0",
".' c #C8C7C7",
".] c #C7C7C6",
".[ c #AEB1BE",
".{ c #ADB1BD",
".} c #3D6AC6",
".| c #2F4E8A",
"X  c #C6C5C5",
"X. c #C5C5C4",
"XX c #BFC2C8",
"Xo c #848A98",
"XO c #81A3E1",
"X+ c #688DD9",
"X@ c #C2C1C1",
"X# c #AAACB0",
"X$ c #BEBDBD",
"X% c #BDBDBC",
"X& c #A8AAAE",
"X* c #B8BAC1",
"X= c #3B64B0",
"X- c #809CD6",
"X; c #B6B8BF",
"X: c #88909F",
"X> c #4D7CDC",
"X, c #3C6AC8",
"X< c #567ED1",
"X1 c #3B6AC7",
"X2 c #848C9B",
"X3 c #3A68C6",
"X4 c #A9ADBC",
"X5 c #617193",
"X6 c #778198",
"X7 c #A5A8AE",
"X8 c #4170D0",
"X9 c #5A84D8",
"X0 c #566A92",
"Xq c #B8B9BA",
"Xw c #3F6ECE",
"Xe c #5982D7",
"Xr c #B7B7B9",
"Xt c #99AFD7",
"Xy c #B6B7B8",
"Xu c #3C6CCB",
"Xi c #C3C5C8",
"Xp c #375DA5",
"Xa c #B2B3B4",
"Xs c #B1B1B3",
"Xd c #9DABC7",
"Xf c #4676D8",
"Xg c #BEBFC3",
"Xh c #355699",
"Xj c #6089D7",
"Xk c #3663BB",
"Xl c #B6BAC5",
"Xz c #4172D3",
"Xx c #6A93E4",
"Xc c #C8C8C6",
"Xv c #AEB2BD",
"Xb c #7293D8",
"Xn c #9AACD1",
"Xm c #AFB1B4",
"XM c #4B79D6",
"XN c #3A67C2",
"XB c #C3C2C1",
"XV c #AEAFB3",
"XC c #8A97B4",
"XZ c #3865C0",
"XA c #7B8498",
"XS c #B9BBC1",
"XD c #B8B9C0",
"XF c #B7B9BF",
"XG c #A3B3D3",
"XH c #727F99",
"XJ c #304F8D",
"XK c #4F6491",
"XL c #C6C6C7",
"XP c #4C7BDA",
"XI c #3B69C6",
"XU c #C4C4C5",
"XY c #3A69C5",
"XT c #AAAEBC",
"XR c #B9C0CE",
"XE c #BEC1C9",
"XW c #617092",
"XQ c #798499",
"X! c #BBBCBC",
"X~ c #3660B7",
"X^ c #5F86D2",
"X/ c #406FCE",
"X( c #B4B7BF",
"X) c #B8B8B9",
"X_ c #A3A5AB",
"X` c #9EAFD1",
"X' c #B6B6B7",
"X] c #3A5EA7",
"X[ c #6C7996",
"X{ c #C4C6C8",
"X} c #8BA6DC",
"X| c #828B9B",
"o  c #A7ACBC",
"o. c #A6ACBB",
"oX c #C0C0C4",
"oo c #BFC0C3",
"oO c #AEB9D0",
"o+ c #2C53A3",
"o@ c #BABCBE",
"o# c #4171D2",
"o$ c #3F6FD0",
"o% c #3E6FCF",
"o& c #B2B5C0",
"o* c #B0B3BE",
"o= c #6B7998",
"o- c #6F7A92",
"o; c #C2C4C9",
"o: c #929DB1",
"o> c #C0C2C7",
"o, c #AFB0B3",
"o< c #3966C0",
"o1 c #ACAEB0",
"o2 c #5F7096",
"o3 c #678BD6",
"o4 c #BBBCC2",
"o5 c #839ED7",
"o6 c #819ED5",
"o7 c #7897D6",
"o8 c #95ACD8",
"o9 c #C7C7C7",
"o0 c #C6C5C6",
"oq c #C5C5C5",
"ow c #B0B2B7",
"oe c #ACAFBD",
"or c #3B6AC5",
"ot c #A6AEC1",
"oy c #BFC2C9",
"ou c #AEB0B5",
"oi c #B8BFCC",
"op c #A8ADB9",
"oa c #24478A",
"os c #9599A3",
"od c #BDBDBD",
"of c #A8AAAF",
"og c #BBBBBB",
"oh c #C5C5C8",
"oj c #C4C5C7",
"ok c #2D4C8C",
"ol c None",
/* pixels */
"oqoqoqoqoqoqoqoqoqoqoqoqoqoqoqoqoqoqoqoqoqoqoqoqoqoqoqoqoqoqoqoq",
"oqoqoqoqoqoqoqoqoqoqoqoqoqoqoqoqoqoqoqoqoqoqoqoqoqoqoqoqoqoqoqoq",
"oqoqoqoqoqoqoqoqoqoqoqoqoqoqoqoqoqoqoqoqoqoqoqoqoqoqoqoqoqoqoqoq",
"oqoqoqoqoqoqoqoqoqoqoqoqoqoqoqoqoqoqoqoqoqoqoqoqoqoqoqoq.loqoqoq",
"oqoqoq R.d.]oqoq R.'oqoq.l R.]oqoq.' 6 8oq R 6oq.] iXcoq.yXt.loq",
"oqoqoq 6   Roqoq > B 8oq R.; 6oqoqooo*.loq Ho&oq R F 3 8 (XOX oq",
"oqoqoq.l k.]oqoqo4 )oqoq Ro  Roqoq.dXSoqoq.O Hoq.]  .]X X=.foqoq",
"oqoqoq.loe.]oqoq )o4oqoq.].F Roq 8X(.:oq 6 5.voq.l.8 6 w Y.eoqoq",
"oqoqoq.v.{.]oqX .C GoqoqXUXv 6oq 6 5XUoq Ro  Roqo@ot 8.n Zohoqoq",
"oqoqoqXU 4 6oq.l %.Goqoq.>.+ 8oq.]  .]oq R.; RoqX: y 6.u.X 6oqoq",
"oqoqoq |o* 6oq 6.7 |oqoqXDo4oqoq Ro  Roqoq.x 6oq IXx 6./ s.loqoq",
"oqoqoq l.L.loq 6.[oqoq.lo& loqoq 6.F.]oq XXFoq.l.2.0 8.HX}oqoqoq",
"oqoqoq X &.loq.]XT.loq.] }.loqoqXUXv 6oqo: Loq EXp r 8X]._oqoqoq",
"oqoqoqoo N 8oq.]X4.]oq Ro  RoqoqoXX;oq 8 ^o8oq.M _XR E =oOoqoqoq",
"oqoqoqXg.CX oq R . Roq R . RoqoqopXloq 0.U..oqXr W.c Q voioqoqoq",
"oqoqoq.a.Voqoq Ro  Roq.l [.]oq 8 T.9oqX!.}oyoqX&X/X{od.j 9oqoqoq",
"oqoqoqo4X*oqoq Ro. Roq.G.L.loqX  :XGoqX7 ,XLoqosXzXLXqX8Xioqoqoq",
"oqoqoqXS.doqoq.]   Roqo4 ioqoqXB.` xoq.RX> 6oqX2Xfo9.T.<.*oqoqoq",
"oqoqoq ).aoqoq 6 k.]oqX* coqoq.@ !o;oq f.=.loqXAXP 6o,.1 hoqoqoq",
"oqoqX .C.poqoq.l.x 6 6 Oo>oqoq eXwXL 8 Po5oqoqXQ.P 6o,.3.Soqoqoq",
"oqoqX .O.>oqoqo0 C.l Qo+ ooqoq q #o9 8Xh.-oqoqX6.J.lXmo$ hoqoqoq",
"oqoq.l $oXoqoqow.^ 8X$.o {oqoqX|XM.] E.s 1oqoqXHX9.l.Bo%XLoqoqoq",
"oqoq.l.L loqoqo- *.l.$XNXioqoq UXj.l w.k ~oqX X[. .lX_.5XLoqoqoq",
"oqoq.l.~Xnoq 8X5XbX Xaorohoq 8 z 7 8og., 9oqX  -.t.lX#XuXLoqoqoq",
"oqoq 8 M.!oq 8.(.AX o1X, hoq 8o2o7oq.%.r Soqoqo=.).lXV.D hoqoqoq",
"oqoq 8.| Aoq 8.( aoq.i g.Soq.l.4X-oq.w.bohoqX  ; K.l.WXYojoqoqoq",
"oqoq 8XJ Doq 8XW.IX XsXI.Soq.lXKo6oqof.DXLoqoq `X^.lXyXZ Soqoqoq",
"oqoq 8 ].QoqX  jX+.lX'o<.*oq.l ' 2oq.&X1XLoqoq bX<.lX)Xk.Eoqoqoq",
"oqoq 8ok.Yoqoq.ZXe.l uX~ 9oq.lX0 VoqX#X3XLoqoq.#.z.lX% nXXoqoqoq",
"oqoq EoaX`oqoqXoo#o9 /.N.moq 8 do3 8.i J.*oqoq p.g 6 t.qXEoqoqoq",
"oqoq 8.6XEoqoq.KXd.l 8XC.*oqoq < mX X@.ho9oqoqou +.lX. @ojoqoqoq",
"oqoqoqoqoqoqoqoqoqoqoqoqoqoqoqoqoqoqoqoqoqoqoqoqoqoqoqoqoqoqoqoq"
};
