/* XPM */
static char *shaveReplaceRest[] = {
/* width height ncolors chars_per_pixel */
"32 32 58 1",
/* colors */
"  c #B0AFB0",
". c #ADADAD",
"X c #AAA9AA",
"o c #A7A7A7",
"O c #A5A5A5",
"+ c #A1A1A1",
"@ c #9F9F9F",
"# c #9E9D9E",
"$ c #9B9B9B",
"% c #959595",
"& c #939393",
"* c #929192",
"= c #908F90",
"- c #8C8B8C",
"; c #8A898A",
": c #868586",
"> c #807F80",
", c #7E7D7E",
"< c #7B7B7B",
"1 c #7A797A",
"2 c #787778",
"3 c #747374",
"4 c #6F6F6F",
"5 c #6A696A",
"6 c #626162",
"7 c #605F60",
"8 c #C4C4C4",
"9 c #BEBEBE",
"0 c #B2B2B2",
"q c #AEAEAE",
"w c #ACACAC",
"e c #A8A8A8",
"r c #A3A2A3",
"t c #A0A0A0",
"y c #9A9A9A",
"u c #979697",
"i c #8E8E8E",
"p c #8B8A8B",
"a c #888888",
"s c #858485",
"d c #828282",
"f c #7F7E7F",
"g c #797879",
"h c #717071",
"j c #6D6C6D",
"k c #6B6A6B",
"l c #676667",
"z c #656465",
"x c #616061",
"c c #C5C5C5",
"v c #C3C3C3",
"b c #C1C1C1",
"n c #BFBFBF",
"m c #BBBBBB",
"M c #B9B9B9",
"N c #B7B7B7",
"B c #B6B5B6",
"V c None",
/* pixels */
"cccccccccccccccccccccccccccccccc",
"cccccccccccccccccccccccccccccccc",
"cccccccccccccraaNccccccccccccccc",
"ccccccccccccc=77eccccccccccccccc",
"ccccccccccccc=77occccccccccccccc",
"ccccccccccccc=77occccccccccccccc",
"ccccccccccccc&77Occccccccccccccc",
"ccccccccccccc%77+ccccccccccccccc",
"ccccccccccccc%77+ccccccccccccccc",
"ccccccccccccc%77tccccccccccccccc",
"cccccccccccccy77$ccccccccccccccc",
"ccccccccccccc$77$cccc98ccccccccc",
"cccccccc;+ccc$77$ccn*scccccccccc",
"ccccccccX74@v$77%bul7 cccccccccc",
"ccccccccc177k>77g577<ccccccccccc",
"cccccccccq7777777777wccccccccccc",
"ccccccccccf777777772cccccccccccc",
"cccccccccc077777777ecccccccccccc",
"cccccccccccd7777773ccccccccccccc",
"cccccccccccBx77777Occccccccccccc",
"cccccccccccc:7777h8ccccccccccccc",
"ccccccccccccM6777+cccccccccccccc",
"cccccccccccccp77j8cccccccccccccc",
"cccccccccccccmz7#ccccccccccccccc",
"ccccccccccccccikvccccccccccccccc",
"ccccccco77777777777777,ccccccccc",
"ccccccco77777777777777,ccccccccc",
"ccccccc.33333333333333-ccccccccc",
"cccccccccccccccccccccccccccccccc",
"cccccccccccccccccccccccccccccccc",
"cccccccccccccccccccccccccccccccc",
"cccccccccccccccccccccccccccccccc"
};
