/* XPM */
static char *shaveSQSelectTip[] = {
/* width height ncolors chars_per_pixel */
"32 32 215 2",
/* colors */
"   c #000000",
" . c #5570A6",
" X c #5389F0",
" o c #5289EF",
" O c #406AB9",
" + c #96A6C8",
" @ c #6C8DCD",
" # c #C7B6C0",
" $ c #588FF8",
" % c #BB69A4",
" & c #4C7EDF",
" * c #B86BA1",
" = c #4470C0",
" - c #C7C0C3",
" ; c #BFC1C5",
" : c #B7BCC7",
" > c #B9BBBF",
" , c #4F82E5",
" < c #B5B7BB",
" 1 c #C7C6C6",
" 2 c #C6C6C5",
" 3 c #C5C4C4",
" 4 c #7C94C5",
" 5 c #B34092",
" 6 c #B33E92",
" 7 c #B13C90",
" 8 c #609AFC",
" 9 c #A0A9BA",
" 0 c #5C94F8",
" q c #A9B1C6",
" w c #446DBC",
" e c #558CF1",
" r c #538AEF",
" t c #C2C2C4",
" y c #BBBFC7",
" u c #8C98B0",
" i c #95A5C6",
" p c #C7B5BF",
" a c #5385E5",
" s c #97A4BE",
" d c #A551A8",
" f c #AEB6C4",
" g c #BB68A3",
" h c #994CA6",
" j c #446FBF",
" k c #AFB3BB",
" l c #5A8FEF",
" z c #598DEE",
" x c #7994C8",
" c c #4E6CAB",
" v c #96A7CA",
" b c #6B8ECE",
" n c #708DC9",
" m c #5790F9",
" M c #C8C5C6",
" N c #416DBF",
" B c #406BBE",
" V c #4A7AD5",
" C c #8E99AE",
" Z c #4878D3",
" A c #C396B4",
" S c #977096",
" D c #5083E8",
" F c #5D95F8",
" G c #4F75BC",
" H c #AE318C",
" J c #588FF3",
" K c #9E449D",
" L c #C17DA8",
" P c #A7ADB9",
" I c #5287ED",
" U c #5187EC",
" Y c #5F99FD",
" T c #8893AB",
" R c #A0A5B2",
" E c #5C78AE",
" W c #5882D5",
" Q c #ACB3C1",
" ! c #548BF2",
" ~ c #C0C1C4",
" ^ c #698ED5",
" / c #627EB7",
" ( c #BCBDC0",
" ) c #4573CC",
" _ c #5276BB",
" ` c #4E80E2",
" ' c #5891F9",
" ] c #588FF9",
" [ c #7096DF",
" { c #97A0B6",
" } c #96A0B5",
" | c #999FAE",
".  c #8E9BB7",
".. c #5E96F8",
".X c #AE388B",
".o c #5E94F8",
".O c #5D94F7",
".+ c #5B92F5",
".@ c #C6C6C6",
".# c #416CC1",
".$ c #C4C4C4",
".% c #BEBEBE",
".& c #456FBE",
".* c #7895CF",
".= c #558CF2",
".- c #C2C2C5",
".; c #C1C2C4",
".: c #9AA8C2",
".> c #4976CF",
"., c #BDBEC0",
".< c #C7B7C0",
".1 c #5287E5",
".2 c #B577A8",
".3 c #5A92FA",
".4 c #4664A1",
".5 c #BB68A4",
".6 c #578BED",
".7 c #8C98B4",
".8 c #5689EC",
".9 c #4978D2",
".0 c #9DA7BE",
".q c #93A2BE",
".w c #C18CB0",
".e c #ABB2C5",
".r c #568EF9",
".t c #768AB2",
".y c #578DF0",
".u c #C6C5C5",
".i c #629BFE",
".p c #C49AB6",
".a c #5F99FB",
".s c #5085E9",
".d c #4471C6",
".f c #72749A",
".g c #578FF3",
".h c #578DF3",
".j c #496FB7",
".k c #5389EF",
".l c #4875CD",
".z c #7463BD",
".x c #5284E4",
".c c #4466A8",
".v c #5B93FA",
".b c #5A91F9",
".n c #6286CC",
".m c #ADB5C3",
".M c #5A81CE",
".N c #558DF4",
".B c #588CED",
".V c #C8BEC3",
".C c #C0C1C5",
".Z c #BEBFC3",
".A c #79859D",
".S c #B53890",
".D c #BC75A7",
".F c #A1A7B7",
".G c #697897",
".H c #C6A1B7",
".J c #B33891",
".K c #4B76CC",
".L c #B9BBC1",
".P c #4166AB",
".I c #5E79AD",
".U c #B84C99",
".Y c #C4C4C5",
".T c #C1C2C2",
".R c #5388EE",
".E c #5288ED",
".W c #6098FE",
".Q c #638AD6",
".! c #BCBCBD",
".~ c #5B92F9",
".^ c #627AD5",
"./ c #588EF6",
".( c #BB66A2",
".) c #C4C6C8",
"._ c #6D93D9",
".` c #BABFC8",
".' c #B4BCCC",
".] c #BD74A7",
".[ c #6589D1",
".{ c #5183E5",
".} c #A9368D",
".| c #5384DD",
"X  c #7E8DAE",
"X. c #7D8DAD",
"XX c #4F7ED9",
"Xo c #436DC0",
"XO c #6B86B9",
"X+ c #BEC0C5",
"X@ c #9EA9C0",
"X# c #5287E9",
"X$ c #579AFB",
"X% c #6C8BC7",
"X& c #5885DB",
"X* c #49699E",
"X= c #4F80DC",
"X- c #C5C5C5",
"X; c #7C88A5",
"X: c #C3C3C3",
"X> c #B23F92",
"X, c #A7ADB8",
"X< c #C1C1C1",
"X1 c #B6BFCA",
"X2 c #6099FD",
"X3 c #B9BCC3",
"X4 c #99A5BE",
"X5 c #B7BAC1",
"X6 c #5B93F8",
"X7 c #A6B0C4",
"X8 c #C4C5C7",
"X9 c #7C95C9",
"X0 c #C2C3C5",
"Xq c #4D7BD3",
"Xw c None",
/* pixels */
"                                                                ",
"  X-X-X-X-X-X-X-X-X-X-X-X-X-X-X-X-X-X-X-X-X-X-X-X-X-X-X-X-X-X-  ",
"  X-X-X-X-X-X-X-X-X-X-X-X-X-X-X- 2.@ 1.@ 2X-X-X-X-X-X-X-X-X-X-  ",
"  X-X-X-X-X-X-X-X-X-X-X-X- 1X+.:X9 b.[ @ 4 s.L 2X-X-X-X-X-X-X-  ",
"  X-X-X-X-X-X-X-X-X-X- 1 f.Q e.b.= I.s.R.N $.E.K. .uX-X-X-X-X-  ",
"  X-X-X-X-X-X-X-X-X-.C ^.v.y.d.I uX, k P.7XO.l.=./.& (X-X-X-X-  ",
"  X-X-X- 2.u.uX-.@.e.8.o NX;X<.@X-X-X-X-X-.@X- 9Xq.W BX:X-X-X-  ",
"  X-X- 2 A.D.] L * K.zX*.!X-X-X-X-X-X-X-X-X-X-X- t W.OX.X-X-X-  ",
"  X-X-.@ %.U.2 h d.S S 2X-X-X-X-X-X-X-X-X-X-X-X-X-.m.a.j 2X-X-  ",
"  X-X-.@.(.H.)X$.^.}.<X-X-X-X-X-X-X-X-X-X-X-X-X-X-X0.+ =.uX-X-  ",
"  X-X-.@ g.pX-X1.f.X.<X-X-X-X-X-X-X-X-X-X-X-X-X-X- ;.. w.uX-X-  ",
"  X-X-.@.5.w 1 1 - 7 #X-X-X-X-X-X-X-X-X-X-X-X-X-X- i.i E.@X-X-  ",
"  X-X-.@ g.JX> 6 5 H pX-X-X-X-X-X-X-X-X-X-X-X-X-X3 z.1 RX-X-X-  ",
"  X-X-.u.V #.<.< # p MX-X-X-X-X-X-X-X-X-X-X-.@ Q a F ..@X-X-X-  ",
"  X-X-X-X-X-X-X-X-X-X-X-X-X-X-X-X-X-X-X- 1X5X%.h J c 3X-X-X-X-  ",
"  X-X-X-X-X-X-X-X-X-X-X-X-X-X-X-X-.@ ~.q.M r.3 ZX  2X-X-X-X-X-  ",
"  X-X-X-X-X-X-X-X-X-X-X-X-X-X-X-.0.nX#.b e.>.t.,X-X-X-X-X-X-X-  ",
"  X-X-X-X-X-X-X-X-X-X-X-X-.@X@X=.~.g V /.F.$.uX-X-X-X-X-X-X-X-  ",
"  X-X-X-X-X-X-X-X-X-X-X- 1 x 0.B _ }.T.@X-X-X-X-X-X-X-X-X-X-X-  ",
"  X-X-X-X-X-X-X-X-X-X-X- + 8Xq C 2X-X-X-X-X-X-X-X-X-X-X-X-X-X-  ",
"  X-X-X-X-X-X-X-X-X-X-.@ l.| |X-X-X-X-X-X-X-X-X-X-X-X-X-X-X-X-  ",
"  X-X-X-X-X-X-X-X-X-X- yX2.c 2X-X-X-X-X-X-X-X-X-X-X-X-X-X-X-X-  ",
"  X-X-X-X-X-X-X-X-X-X-.` Y.4 2X-X-X-X-X-X-X-X-X-X-X-X-X-X-X-X-  ",
"  X-X-X-X-X-X-X-X-X-X-X8X6 O.%X-X-X-X-X-X-X-X-X-X-X-X-X-X-X-X-  ",
"  X-X-X-X-X-X-X-X-X-X-.@ [.6.G.@X-X-X-X-X-X-X-X-X-X-X-X-X-X-X-  ",
"  X-X-X-X-X-X-X-X-X-X-X- : '.9.A.uX-X-X-X-X-X-X-X-X-.@.@X-X-X-  ",
"  X-X-X-X-X-X-X-X-X-X-X-.u v m.{.P T <X:.u 2 2.$ > { G.'X-X-X-  ",
"  X-X-X-X-X-X-X-X-X-X-X-X- 2 q.x ] o & ).# jXo ) ` !.r._.@X-X-  ",
"  X-X-X-X-X-X-X-X-X-X-X-X-X-X-.@X7.*X& , U X.k DXX nX4.;.uX-X-  ",
"  X-X-X-X-X-X-X-X-X-X-X-X-X-X-X-X-.@ 1X-.-.Z ~.Y.@.@X-X-X-X-X-  ",
"  X-X-X-X-X-X-X-X-X-X-X-X-X-X-X-X-X-X-X-X-X-X-X-X-X-X-X-X-X-X-  ",
"                                                                "
};
