/* XPM */
static char *shaveSelectGrow[] = {
/* width height ncolors chars_per_pixel */
"32 32 91 1",
/* colors */
"  c #A7A7A7",
". c #A6A5A6",
"X c #3E6BC4",
"o c #9F9F9F",
"O c #748FC4",
"+ c #959595",
"@ c #908F90",
"# c #7B94C4",
"$ c #8C8B8C",
"% c #B2B8C5",
"& c #3660B5",
"* c #8DA0C5",
"= c #426EC4",
"- c #787778",
"; c #767576",
": c #6E8BC4",
"> c #747374",
", c #6F88BB",
"< c #6E6D6E",
"1 c #3F6CC4",
"2 c #6D6D6D",
"3 c #C0C2C5",
"4 c #686768",
"5 c #646364",
"6 c #91A3C5",
"7 c #626162",
"8 c #6B89C4",
"9 c #605F60",
"0 c #6182C4",
"q c #BDC0C5",
"w c #8EA1C5",
"e c #FAFAFA",
"r c #F8F8F8",
"t c #7993C4",
"y c #F4F4F4",
"u c #B0B7C5",
"i c #EEEEEE",
"p c #E6E6E6",
"a c #C0C1C4",
"s c #E4E4E4",
"d c #D8D8D8",
"f c #D6D6D6",
"g c #BDBFC4",
"h c #CCCCCC",
"j c #CACACA",
"k c #AAB3C5",
"l c #C6C6C6",
"z c #BABABA",
"x c #B4B4B4",
"c c #5C7FC4",
"v c #A8A8A8",
"b c #AEB6C5",
"n c #B2B9C5",
"m c #5D80C4",
"M c #9EABC5",
"N c #797879",
"B c #5379C4",
"V c #737273",
"C c #717071",
"Z c #6485C4",
"A c #FFFFFF",
"S c #FDFDFD",
"D c #FBFBFB",
"F c #F7F7F7",
"G c #F5F5F5",
"H c #F3F3F3",
"J c #F1F1F1",
"K c #EFEFEF",
"L c #EDEDED",
"P c #8097C4",
"I c #E3E3E3",
"U c #DDDDDD",
"Y c #4771C4",
"T c #DBDBDB",
"R c #8C9DBF",
"E c #D9D9D9",
"W c #D7D7D7",
"Q c #D5D5D5",
"! c #D3D3D3",
"~ c #99A8C5",
"^ c #D1D1D1",
"/ c #CDCDCD",
"( c #CBCBCB",
") c #C9C9C9",
"_ c #C5C5C5",
"` c #C3C3C3",
"' c #BFBFBF",
"] c #BBBBBB",
"[ c #B3B3B3",
"{ c #C2C3C5",
"} c None",
/* pixels */
"________________________________",
"________________________________",
"________________________________",
"__{R{_AA_____{_______________!__",
"__g&g_AA____uYq___fG__r!____^S(_",
"__g&g_AA____::____fG__r!____Kp__",
"__g&g_AA___u1u____fG__r!___^S(__",
"__g&g_AA___::_____fG__r!___Kp___",
"__g&g_AA__n=u_____fG__r!__^Sj___",
"__g&g_AA__wm______fG__r!__yL____",
"__g&g_AA__Ot______fG__r!__HE____",
"__g&g_AA__c6______fG__r!__FQ____",
"__g&g_AA__=k______fG__r!__D^____",
"__g&g_AA_%X3_ $z__fG__r!_lA/____",
"__g&g_AA_~B___V7-[fG__r!_jA)____",
"__g&g_AA_P8___v999;^__r!_WA_____",
"__g&g_AA_0#_v>4999992.r!_IH_____",
"__g&g_AA_Z*_+9999999Nxr!_Ui_____",
"__g&g_AA_Z*___]599;Q__r!_UK_____",
"__g&g_AA_Z*___@9< fG__r!_TJ_____",
"__g&g_AA_Z*__'Co__fG__r!_EJ_____",
"__g&g_AA_Z*__]`___fG__r!_EG_____",
"__g&g_AA_Z*_______fG__r!_fG_____",
"__g&g_AA_Z*_______fG__r!_fF_____",
"__g&g_AA_Z*_______fG__r!_Qr_____",
"__g&g_AA_Z*_______fG__r!_!e_____",
"__g&g_AA_Z*_______fG__r!_/p_____",
"__a,a_AA_Mb_______hd__s/________",
"________________________________",
"________________________________",
"________________________________",
"________________________________"
};
