/* XPM */
static char *shaveSQSelectVert[] = {
/* width height ncolors chars_per_pixel */
"32 32 230 2",
/* colors */
"   c #000000",
" . c #5389F0",
" X c #5289EF",
" o c #406AB9",
" O c #CABAC3",
" + c #96A6C8",
" @ c #C0489C",
" # c #5895F8",
" $ c #4B669C",
" % c #4C7EDF",
" & c #9A98B8",
" * c #C954A8",
" = c #BB3E97",
" - c #C9C2C5",
" ; c #C1C3C7",
" : c #B7BCC7",
" > c #4577CE",
" , c #B9BBBF",
" < c #4F82E5",
" 1 c #B5B7BB",
" 2 c #B94298",
" 3 c #C7C6C6",
" 4 c #C6C6C5",
" 5 c #C15AA3",
" 6 c #6283B2",
" 7 c #609AFC",
" 8 c #A0A9BA",
" 9 c #A354AD",
" 0 c #5C94F8",
" q c #8370CC",
" w c #C984B1",
" e c #C162A6",
" r c #C04198",
" t c #A9B1C6",
" y c #C67CAE",
" u c #BDA2BC",
" i c #C2C2C4",
" p c #7D889E",
" a c #BBBFC7",
" s c #C1479C",
" d c #AEB6C4",
" f c #446FBF",
" g c #C67EB1",
" h c #5A8FEF",
" j c #C857A6",
" k c #7994C8",
" l c #C84BA6",
" z c #96A7CA",
" x c #8D4C9A",
" c c #9372CE",
" v c #708DC9",
" b c #BDB8C2",
" n c #BE459C",
" m c #5790F9",
" M c #6C7B9A",
" N c #B0AFBF",
" B c #C8C5C6",
" V c #7399CF",
" C c #C7C5C5",
" Z c #416DBF",
" A c #406BBE",
" S c #4F8EF1",
" D c #C159A2",
" F c #4A7AD5",
" G c #8E99AE",
" H c #5083E8",
" J c #C08EB1",
" K c #4F75BC",
" L c #CA85B1",
" P c #4071C1",
" I c #CD50A7",
" U c #5187EC",
" Y c #5F99FD",
" T c #6B7DDE",
" R c #8893AB",
" E c #B360B8",
" W c #5882D5",
" Q c #548BF2",
" ! c #C0C1C4",
" ~ c #698ED5",
" ^ c #627EB7",
" / c #755F95",
" ( c #B3BBCB",
" ) c #BCBDC0",
" _ c #4573CC",
" ` c #5276BB",
" ' c #4E80E2",
" ] c #5891F9",
" [ c #588FF9",
" { c #7096DF",
" } c #97A0B6",
" | c #96A0B5",
".  c #675291",
".. c #999FAE",
".X c #8E9BB7",
".o c #BEA6B8",
".O c #518DF2",
".+ c #C554A5",
".@ c #4F8BF0",
".# c #4D8DEE",
".$ c #608DD9",
".% c #5E94F8",
".& c #5D94F7",
".* c #C6C6C6",
".= c #416CC1",
".- c #C15AA4",
".; c #C4C4C4",
".: c #BE5AA1",
".> c #BEBEBE",
"., c #456FBE",
".< c #7895CF",
".1 c #558CF2",
".2 c #C2C4C5",
".3 c #C2C2C5",
".4 c #C1C2C4",
".5 c #CBBBC4",
".6 c #CABBC3",
".7 c #CAB9C3",
".8 c #7477B4",
".9 c #4664A1",
".0 c #8B75BA",
".q c #BC4398",
".w c #C9C5C5",
".e c #C853A7",
".r c #4D7CD6",
".t c #578BED",
".y c #7B88A0",
".u c #4A7AD3",
".i c #AE63A1",
".p c #96A7CB",
".a c #4978D2",
".s c #9DA7BE",
".d c #937CBB",
".f c #606AC1",
".g c #BF479E",
".h c #93A2BE",
".j c #568EF9",
".k c #B84397",
".l c #C6C5C5",
".z c #5F99FB",
".x c #B9BCC2",
".c c #CC87B4",
".v c #B460B7",
".b c #A9B2C6",
".n c #578FF3",
".m c #BD4295",
".M c #496FB7",
".N c #BB84AD",
".B c #5389EF",
".V c #98A8C9",
".C c #7C66BB",
".Z c #5284E4",
".A c #4466A8",
".S c #5B93FA",
".D c #5A91F9",
".F c #6286CC",
".G c #ADB5C3",
".H c #BE4299",
".J c #BC4297",
".K c #C67DB1",
".L c #588CED",
".P c #AF66A1",
".I c #598FE4",
".U c #C0C1C5",
".Y c #6D7FE4",
".T c #BEBFC3",
".R c #79859D",
".E c #A1A7B7",
".W c #5293F4",
".Q c #C8C6C6",
".! c #697897",
".~ c #568CEE",
".^ c #8F5095",
"./ c #4B76CC",
".( c #4166AB",
".) c #C8A3BC",
"._ c #806CC8",
".` c #C552A9",
".' c #C4C4C5",
".] c #BD5CA1",
".[ c #BCA0BA",
".{ c #C1C2C2",
".} c #A356AF",
".| c #6098FE",
"X  c #5F98FD",
"X. c #5487E5",
"XX c #BCBCBD",
"Xo c #5B92F9",
"XO c #C982B3",
"X+ c #BC6AA3",
"X@ c #B9B2BA",
"X# c #588EF6",
"X$ c #6D93D9",
"X% c #538EF1",
"X& c #745AA8",
"X* c #BABFC8",
"X= c #B4BCCC",
"X- c #5183E5",
"X; c #5798F8",
"X: c #5384DD",
"X> c #8E6CC8",
"X, c #7D8DAD",
"X< c #818EA7",
"X1 c #C1ABBB",
"X2 c #4F7ED9",
"X3 c #436DC0",
"X4 c #A6A6BE",
"X5 c #9EA9C0",
"X6 c #5287E9",
"X7 c #5885DB",
"X8 c #4F80DC",
"X9 c #C5C5C5",
"X0 c #6986E5",
"Xq c #C3C3C3",
"Xw c #6B94D3",
"Xe c #C24FA5",
"Xr c #C94CA2",
"Xt c #6099FD",
"Xy c #99A5BE",
"Xu c #C3489C",
"Xi c #5C95F9",
"Xp c #5B93F8",
"Xa c #CB83B4",
"Xs c #5582D1",
"Xd c #BE4097",
"Xf c #A6B0C4",
"Xg c #C4C5C7",
"Xh c #6A86E9",
"Xj c #4D7BD3",
"Xk c None",
/* pixels */
"                                                                ",
"  X9X9X9X9X9X9X9X9X9X9X9.* - - - - - -.*X9X9X9X9X9X9X9X9X9X9X9  ",
"  X9X9X9X9X9X9X9X9X9X9X9.Q e.- 5 D.:.].QX9X9X9X9X9X9X9X9X9X9X9  ",
"  X9X9X9X9X9X9X9X9X9X9X9.Q.g JX1.o.N 2.QX9X9X9X9X9X9X9X9X9X9X9  ",
"  X9X9X9X9X9X9X9X9X9X9.* b s.d VXw.0.J &.x 4X9X9X9X9X9X9X9X9X9  ",
"  X9X9X9X9X9X9X9X9 3 d.$ TXu q S.#._.m.Y.@./.X.lX9X9X9X9X9X9X9  ",
"  X9X9X9X9X9X9X9.U ~.SX%.f @ x.  /.^.q.8 >.1X#., )X9X9X9X9X9X9  ",
"  X9X9X9X9X9X9.b.~.% ZX<X@ n.H rXd =.k CX9 8Xj.| AXqX9X9X9X9X9  ",
"  X9X9X9X9.*.VXiX. $XXX9X9 B.Q B.Q.Q.QX9X9X9 i W.&X,X9X9X9X9X9  ",
"  X9X9X9.*.pX .r M 4X9X9X9X9X9X9X9X9X9X9X9X9X9.G.z.M 4X9X9X9X9  ",
"  X9X9X9 ;Xi.u p.*X9X9X9X9X9X9X9X9X9X9X9X9X9X9.2 # P.lX9X9X9X9  ",
"  X9X9X9X9 (.y.*X9X9X9X9X9X9X9X9X9X9X9.Q.7.7.6 u cX&.lX9X9X9X9  ",
"  X9X9X9X9X9 4X9X9X9X9X9X9X9X9X9X9X9X9.7 l.e jXeXrX+ 3X9X9X9X9  ",
"  X9X9X9X9X9X9X9X9X9X9X9X9X9X9X9X9X9X9 O *.w NX0.v w.lX9X9X9X9  ",
"  X9X9X9X9X9X9X9X9X9X9X9X9X9X9X9X9X9X9.5.eX4.IX;.} L.lX9X9X9X9  ",
"  X9X9X9X9X9X9X9X9X9X9X9X9X9X9X9X9X9.*.[.`Xh.W 6.iXO.lX9X9X9X9  ",
"  X9X9X9X9X9X9X9X9X9X9X9X9X9X9.* !.hXsX> I E 9.P.+ g.lX9X9X9X9  ",
"  X9X9X9X9X9X9X9X9X9X9X9X9X9.s.FX6.D.O.C y.c.cXa.K.)X9X9X9X9X9  ",
"  X9X9X9X9X9X9X9X9X9X9.*X5X8Xo.n F ^.E.;.*X9.l.l.lX9X9X9X9X9X9  ",
"  X9X9X9X9X9X9X9X9X9 3 k 0.L ` |.{.*X9X9X9X9X9X9X9X9X9X9X9X9X9  ",
"  X9X9X9X9X9X9X9X9X9 + 7Xj G 4X9X9X9X9X9X9X9X9X9X9X9X9X9X9X9X9  ",
"  X9X9X9X9X9X9X9X9.* hX:..X9X9X9X9X9X9X9X9X9X9X9X9X9X9X9X9X9X9  ",
"  X9X9X9X9X9X9X9X9 aXt.A 4X9X9X9X9X9X9X9X9X9X9X9X9X9X9X9X9X9X9  ",
"  X9X9X9X9X9X9X9X9X* Y.9 4X9X9X9X9X9X9X9X9X9X9X9X9X9X9X9X9X9X9  ",
"  X9X9X9X9X9X9X9X9XgXp o.>X9X9X9X9X9X9X9X9X9X9X9X9X9X9X9X9X9X9  ",
"  X9X9X9X9X9X9X9X9.* {.t.!.*X9X9X9X9X9X9X9X9X9X9X9X9X9X9X9X9X9  ",
"  X9X9X9X9X9X9X9X9X9 : ].a.R.lX9X9X9X9X9X9X9X9X9.*.*X9X9X9X9X9  ",
"  X9X9X9X9X9X9X9X9X9.l z mX-.( R 1Xq.l 4 4.; , } KX=X9X9X9X9X9  ",
"  X9X9X9X9X9X9X9X9X9X9 4 t.Z [ X % _.= fX3 _ ' Q.jX$.*X9X9X9X9  ",
"  X9X9X9X9X9X9X9X9X9X9X9X9.*Xf.<X7 < U ..B HX2 vXy.4.lX9X9X9X9  ",
"  X9X9X9X9X9X9X9X9X9X9X9X9X9X9.* 3X9.3.T !.'.*.*X9X9X9X9X9X9X9  ",
"                                                                "
};
