/* XPM */
static char *shaveCut[] = {
/* width height ncolors chars_per_pixel */
"32 32 220 2",
/* colors */
"   c #353534",
" . c #959BA6",
" X c #9F9D9C",
" o c #A7AAB1",
" O c #949391",
" + c #B4B5B7",
" @ c #93A9D2",
" # c #6089D8",
" $ c #888785",
" % c #829ACB",
" & c #294D98",
" * c #4D4C4B",
" = c #547ED6",
" - c #C7C6C6",
" ; c #C6C6C5",
" : c #6F6D69",
" > c #C0C3C9",
" , c #C4C4C3",
" < c #B4B2B0",
" 1 c #607199",
" 2 c #88A4D4",
" 3 c #8894A9",
" 4 c #A3B3D4",
" 5 c #8C93A3",
" 6 c #7599DF",
" 7 c #6084D1",
" 8 c #A9B1C6",
" 9 c #C4C4C6",
" 0 c #3969C5",
" q c #BFC0C1",
" w c #32569D",
" e c #A8ABB1",
" r c #79849A",
" t c #2F2E2D",
" y c #7C8089",
" u c #6793E8",
" i c #67789C",
" p c #305AB2",
" a c #C3C4C8",
" s c #C2C4C7",
" d c #3B5B9F",
" f c #C1C2C6",
" g c #BEC0C3",
" h c #292A2A",
" j c #6B7B99",
" k c #C6C5C4",
" l c #C2C1C0",
" z c #ADAEB2",
" x c #888887",
" c c #322F2C",
" v c #90A3C7",
" b c #BCBBBA",
" n c #181819",
" m c #303741",
" M c #3968C4",
" N c #375BA1",
" B c #B2B1B0",
" V c #5C7097",
" C c #33579D",
" Z c #ACABAA",
" A c #89A0CD",
" S c #B0B7C5",
" D c #4070CE",
" F c #6D7176",
" G c #426FC6",
" H c #393939",
" J c #BDC2CB",
" K c #979DA9",
" L c #353535",
" P c #658DDB",
" I c #3357A0",
" U c #A2A6AD",
" Y c #4C6594",
" T c #B4B5B8",
" R c #272727",
" E c #20242A",
" W c #C0C3C7",
" Q c #B0B1B4",
" ! c #BEC1C5",
" ~ c #212121",
" ^ c #C2C0BF",
" / c #979AA2",
" ( c #555654",
" ) c #BDBCBA",
" _ c #3F3E3B",
" ` c #416FCB",
" ' c #B9B8B6",
" ] c #B7B6B4",
" [ c #C6C6C6",
" { c #B5B4B2",
" } c #C0C3CA",
" | c #494848",
".  c #3765C1",
".. c #C0C0C0",
".X c #ABADB2",
".o c #AFAEAC",
".O c #ADACAA",
".+ c #B3BAC7",
".@ c #ABAAA8",
".# c #747372",
".$ c #3560B5",
".% c #B0B6C4",
".& c #A9A8A6",
".* c #A8A8A5",
".= c #707D99",
".- c #A8A6A5",
".; c #A7A6A4",
".: c #A5A4A2",
".> c #A3A2A0",
"., c #7693CD",
".< c #C1C2C4",
".1 c #A09E9D",
".2 c #8EA5D4",
".3 c #9F9E9C",
".4 c #3C5A94",
".5 c #A8ABB2",
".6 c #3864BB",
".7 c #243862",
".8 c #708DC7",
".9 c #9B9A98",
".0 c #4273D2",
".q c #999896",
".w c #979694",
".e c #A8B3C9",
".r c #4A6291",
".t c #3159AA",
".y c #595957",
".u c #3256A1",
".i c #6F7F9E",
".p c #BCBBB8",
".a c #838280",
".s c #C6C5C5",
".d c #C5C5C4",
".f c #B5B3B1",
".g c #294B8E",
".h c #4A78D6",
".j c #95A9CD",
".k c #C1C1C0",
".l c #BEBDBD",
".z c #777674",
".x c #9DB1D8",
".c c #8990A0",
".v c #3C6AC8",
".b c #A4A3A0",
".n c #3968C5",
".m c #4776D6",
".M c #8E96A8",
".N c #31559C",
".B c #546890",
".V c #A1A4AA",
".C c #557ED3",
".Z c #3A5794",
".A c #758199",
".S c #A0A4AC",
".D c #C7C6C5",
".F c #C5C4C3",
".G c #BAC0CC",
".H c #C3C2C1",
".J c #BFBEBD",
".K c #96A5C3",
".L c #BDBCBB",
".P c #3361BB",
".I c #1A191B",
".U c #171718",
".Y c #888F9E",
".T c #C6C6C7",
".R c #3C6BC7",
".E c #C5C6C6",
".W c #3E68BF",
".Q c #33569D",
".! c #ACACAA",
".~ c #798299",
".^ c #767575",
"./ c #9196A0",
".( c #1E1C18",
".) c #4E7FDF",
"._ c #4161A4",
".` c #C3C4C7",
".' c #7693CE",
".] c #3259A9",
".[ c #3D68C1",
".{ c #4A6DB0",
".} c #374C79",
".| c #345597",
"X  c #646363",
"X. c #636362",
"XX c #2D2E2D",
"Xo c #4270C9",
"XO c #8791A3",
"X+ c #2A2A2A",
"X@ c #262626",
"X# c #5B5B5A",
"X$ c #222222",
"X% c #3866BF",
"X& c #405B92",
"X* c #C0BFBD",
"X= c #8A8A88",
"X- c #B6BBC7",
"X; c #898887",
"X: c #BEBDBB",
"X> c #B8BABF",
"X, c #BCBBB9",
"X< c #C7C7C7",
"X1 c #B6B5B3",
"X2 c #9DACCC",
"X3 c #C5C5C5",
"X4 c #B4B3B1",
"X5 c #345AA7",
"X6 c #3966C3",
"X7 c #3766C1",
"X8 c #8AA3D7",
"X9 c #424141",
"X0 c #ACABA9",
"Xq c #767674",
"Xw c #BCBBBC",
"Xe c #AAA9A7",
"Xr c #282A2E",
"Xt c #C4C5C7",
"Xy c #A2A19F",
"Xu c None",
/* pixels */
"X3X3X3X3X3X3X3X3X3X3X3.s - ; ;X3X3X3X3X3X3X3X3X3X3X3X3X3X3X3X3X3",
"X3X3X3X3X3X3X3X3X3X3X3.d d.G.X 2 -X3X3X3X3X3X3X3X3X3X3X3X3X3X3X3",
"X3X3X3X3X3X3X3X3X3X3X3XwX%X-.i u -X3X3X3X3X3X3X3X3X3X3X3X3X3X3X3",
"X3X3X3X3X3X3X3X3X3X3X3.V.mX>._.xX3X3X3X3X3X3X3X3X3X3X3X3X3X3X3X3",
"X3X3X3X3X3X3X3X3X3X3X3.~ P.5 G JX3X3X3X3X3X3X3X3X3X3X3X3X3X3X3X3",
"X3X3X3X3X3X3X3X3X3X3 [ YX8.Y.).TX3X3X3X3X3X3X3X3X3X3X3X3X3X3X3X3",
"X3X3X3X3X3X3X3X3X3X3 ,X5.K i 6 [X3X3X3X3X3X3X3X3X3X3X3X3X3X3X3X3",
"X3X3X3X3X3X3X3X3X3X3 z `.M N 4X3X3X3X3X3X3X3X3X3X3X3X3X3X3X3X3X3",
"X3X3X3X3X3X3X3X3X3X3 r # U.[ >X3X3X3X3X3X3X3X3X3X3X3X3X3X3X3X3X3",
"X3X3X3X3X3X3X3X3X3 ;.Z @./ D gX3X3X3X3X3X3X3X3X3X3X3X3X3X3X3X3X3",
"X3X3X3X3X3X3X3X3X3.l.$.%.A.W F [X3X3X3X3X3X3X3X3X3X3X3X3X3X3X3X3",
"X3X3X3X3X3X3X3X3X3.c.h q.r.{ t.pX3X3X3X3X3X3X3X3X3X3X3X3X3X3X3X3",
"X3X3X3X3X3X3X3X3 ;.4.2.H.g 8 :X  [X3X3X3X3X3X3X3X3X3X3X3X3X3X3X3",
"X3X3X3X3X3X3 k k +X7 }.L & a.f hX*X3X3X3X3X3X3X3X3X3X3X3X3X3X3X3",
"X3X3X3X3X3X3 [.qXr.}.d /.6X< ;X$ xX3X3X3X3X3X3X3X3X3X3X3X3X3X3X3",
"X3X3X3X3X3X3X3 ,.7 E c m.B -X3X= L.DX3X3X3X3X3X3X3X3X3X3X3X3X3X3",
"X3X3X3X3X3X3X3 5.0.<.9.I.( |X0Xe ~ {X3X3X3X3X3X3X3X3X3X3X3X3X3X3",
"X3X3X3X3X3X3.s C AX3 T.N y _.UX@X+Xq [X3X3X3X3X3X3 [.sX3X3X3X3X3",
"X3X3X3X3X3X3.S.n.`X3.= = - [ '.#XX R.y XX,.H l.@ O.;.& bX3X3X3X3",
"X3X3X3X3X3 ;.|.,X3 ;.Q.jX3X3X3X3 ^  .oX4Xy ( n L kX3X3 ) BX3X3X3",
"X3X3X3X3X3 K 0 fX3 Q.  WX3X3X3X3 ;.^ -X3X3 ;.b * [X3X3X3.O.DX3X3",
"X3X3X3X3.d I %X3X3 j.C -X3X3X3X3X3.a kX3X3X3X3.* Z ;X3X3.-.DX3X3",
"X3X3X3X3XO.v 9X3.d.uX2X3X3X3X3X3X3X; BX3X3X3X3X3.L.: <.> 'X3X3X3",
"X3X3X3.k.] vX3X3 e M sX3X3X3X3X3X3.z H.FX3X3X3X3X3 ; ;.DX3X3X3X3",
"X3X3 [ 1Xo [X3 ; V 7 [X3X3X3X3X3.DX9X.X#.FX3X3X3X3X3X3X3X3X3X3X3",
"X3X3 o.P SX3X3.H.t.eX3X3X3X3X3X3.J.!X3 ; $ [X3X3X3X3X3X3X3X3X3X3",
"X3 , w.8 [X3X3 ..R.EX3X3X3X3X3X3 ] kX3X3 ).LX3X3X3X3X3X3X3X3X3X3",
"X3 3X6 9X3X3 ;X&.' ;X3X3X3X3X3X3.J.JX3X3 ;.@X3X3X3X3X3X3X3X3X3X3",
"X3 - !X3X3X3.. p.+X3X3X3X3X3X3X3 [.w -X3X:X1X3X3X3X3X3X3X3X3X3X3",
"X3X3X3X3X3X3 [Xt -X3X3X3X3X3X3X3X3.s.3.;.1 [X3X3X3X3X3X3X3X3X3X3",
"X3X3X3X3X3X3X3X3X3X3X3X3X3X3X3X3X3X3.s.DX3X3X3X3X3X3X3X3X3X3X3X3",
"X3X3X3X3X3X3X3X3X3X3X3X3X3X3X3X3X3X3X3X3X3X3X3X3X3X3X3X3X3X3X3X3"
};
