/* XPM */
static char *shaveSelectInverse[] = {
/* width height ncolors chars_per_pixel */
"32 32 400 2",
/* colors */
"   c #D1D0CD",
" . c #C6B6BF",
" X c #A05CA4",
" o c #CFCECB",
" O c #C195AD",
" + c #5E5E9B",
" @ c #A0B2D5",
" # c #C3B0BC",
" $ c #CACAC6",
" % c #B56F9E",
" & c #BE8BAA",
" * c #BD89A9",
" = c #C7C0C3",
" - c #B86697",
" ; c #C7BEC3",
" : c #C6BEC2",
" > c #5582C0",
" , c #B9A4B2",
" < c #645CA4",
" 1 c #94498E",
" 2 c #CCCCCB",
" 3 c #606061",
" 4 c #C9C8C8",
" 5 c #5D5E5E",
" 6 c #C8C8C7",
" 7 c #C7C6C6",
" 8 c #5B5C5C",
" 9 c #BC89AB",
" 0 c #C6C6C5",
" q c #C6C4C5",
" w c #5A5A5B",
" e c #E1E5F0",
" r c #C5C4C4",
" t c #595A5A",
" y c #C4C4C3",
" u c #C5C2C4",
" i c #7695C9",
" p c #6E669D",
" a c #F3F6FB",
" s c #A04893",
" d c #8B8B8B",
" f c #BFBCBE",
" g c #BF99B1",
" h c #6393CA",
" j c #A43D8D",
" k c #BE95B0",
" l c #B8C6E2",
" z c #858585",
" x c #C2D5F9",
" c c #A73A86",
" v c #8280B7",
" b c #FCFDFD",
" n c #9C3B85",
" m c #C2ABB7",
" M c #FBFBFC",
" N c #E9E9E7",
" B c #A12E80",
" V c #708FC6",
" C c #EDF0F8",
" Z c #E1E1DF",
" A c #9D8BA3",
" S c #EEEFEF",
" D c #907EB4",
" F c #727372",
" G c #A1398D",
" H c #EEEDEF",
" J c #BEC6D7",
" K c #9DAFD1",
" L c #B56C9D",
" P c #9AABCE",
" I c #6B6B6B",
" U c #BB82A6",
" Y c #A74A8C",
" T c #C7BBC2",
" R c #C2CCDE",
" E c #F6F4F0",
" W c #BA7AA5",
" Q c #656565",
" ! c #F5F4EF",
" ~ c #646564",
" ^ c #646364",
" / c #636363",
" ( c #CECDCC",
" ) c #CDCDCB",
" _ c #616161",
" ` c #CCCBCA",
" ' c #605F60",
" ] c #CAC9C8",
" [ c #BE8CAC",
" { c #955B9B",
" } c #FEFCFB",
" | c #D8D9D9",
".  c #C8C7C6",
".. c #C9D4E8",
".X c #823599",
".o c #C6C5C4",
".O c #8D79AA",
".+ c #C7C3C5",
".@ c #6C89B1",
".# c #C4C3C2",
".$ c #C5C1C3",
".% c #585758",
".& c #EEF6FF",
".* c #E8E6E2",
".= c #A8BED8",
".- c #C4BFC2",
".; c #BFCDE8",
".: c #C2C1C0",
".> c #A74F85",
"., c #98A6C5",
".< c #C0BFBE",
".1 c #BEBDBC",
".2 c #8E80B8",
".3 c #BBBBB9",
".4 c #B9B9B7",
".5 c #AEB5C0",
".6 c #B8B7B6",
".7 c #B05391",
".8 c #B7B7B5",
".9 c #9E5B93",
".0 c #8CA1AF",
".q c #6F91CE",
".w c #B0AFAE",
".e c #496AAC",
".r c #BFCAE1",
".t c #767675",
".y c #975FA3",
".u c #A63F87",
".i c #DEDEDB",
".p c #A8A7A6",
".a c #4162A4",
".s c #DCDAD9",
".d c #70706F",
".f c #DBDAD8",
".g c #E1E8F5",
".h c #6F6E6E",
".j c #CBD5E6",
".k c #96ABD3",
".l c #AD4B91",
".z c #993484",
".x c #6B6A6A",
".c c #EBE7E1",
".v c #973482",
".b c #A09F9E",
".n c #9F9F9D",
".m c #C7BCC1",
".M c #C6B8C0",
".N c #E7E3DD",
".B c #9C9B9A",
".V c #C6B6C0",
".C c #E5E1DB",
".Z c #646463",
".A c #F4F3ED",
".S c #CFCECC",
".D c #CDCCCA",
".F c #E8EDF5",
".G c #AD5994",
".H c #B675A0",
".J c #ECECEF",
".K c #CBCAC8",
".L c #9DA1B2",
".P c #84A3C1",
".I c #5473B3",
".U c #B1548E",
".Y c #C3C5CA",
".T c #BD89AA",
".R c #C8C4C5",
".E c #C7C2C4",
".W c #8F8F8D",
".Q c #C5BEC2",
".! c #CED1D8",
".~ c #B76297",
".^ c #C2C0BF",
"./ c #89A6D3",
".( c #C4BCC1",
".) c #CCCFD6",
"._ c #C3BAC0",
".` c #B6BCC7",
".' c #C0BEBD",
".] c #778EBE",
".[ c #BE91AE",
".{ c #858383",
".} c #BAB8B7",
".| c #A95593",
"X  c #C8C8C8",
"X. c #A23C7F",
"XX c #C6C6C6",
"Xo c #BB89AB",
"XO c #B3CDFC",
"X+ c #EAE9E6",
"X@ c #C5C4C5",
"X# c #B3B2B0",
"X$ c #B66499",
"X% c #C09DB3",
"X& c #ACBAD4",
"X* c #AFAEAC",
"X= c #EDF0F6",
"X- c #A23B8C",
"X; c #B573A5",
"X: c #A9A8A6",
"X> c #B8729E",
"X, c #B18DB8",
"X< c #EDEDEC",
"X1 c #DCDBD8",
"X2 c #DBD9D7",
"X3 c #EAE9E9",
"X4 c #D8D7D4",
"X5 c #D2D1CE",
"X6 c #C7B7C0",
"X7 c #C5B7BE",
"X8 c #F2F1F4",
"X9 c #C6B5BF",
"X0 c #C192AD",
"Xq c #846F9C",
"Xw c #EAEBEC",
"Xe c #C4C6CA",
"Xr c #AFB3BC",
"Xt c #B46C9D",
"Xy c #EDEAE5",
"Xu c #BC86A8",
"Xi c #8899BA",
"Xp c #FBF8F6",
"Xa c #8F8E8C",
"Xs c #F9F8F4",
"Xd c #C6BDC2",
"Xf c #9E9EC9",
"Xg c #335598",
"Xh c #616162",
"Xj c #CCCBCB",
"Xk c #606161",
"Xl c #CBCBCA",
"Xz c #B574A1",
"Xx c #B670A2",
"Xc c #CAC9C9",
"Xv c #C9C9C8",
"Xb c #5D5D5E",
"Xn c #C8C7C7",
"Xm c #C7C7C6",
"XM c #B98EA8",
"XN c #C6C7C5",
"XB c #C7C5C6",
"XV c #DDE5F6",
"XC c #C6C5C5",
"XZ c #C5C5C4",
"XA c #D0D4DC",
"XS c #EAE8E5",
"XD c #C5C3C4",
"XF c #59595A",
"XG c #A94A92",
"XH c #C5C1C4",
"XJ c #F9F8F7",
"XK c #E7E6E2",
"XL c #C2C1C1",
"XP c #A04993",
"XI c #565757",
"XU c #BFC1BE",
"XY c #E2E0DD",
"XT c #5578B9",
"XR c #EEEEEC",
"XE c #AF769E",
"XW c #EAEAE8",
"XQ c #6D7FB6",
"X! c #BCC0C8",
"X~ c #E9E5DD",
"X^ c #C6B6BE",
"X/ c #8B6CA2",
"X( c #C395AE",
"X) c #F6F1ED",
"X_ c #4760AB",
"X` c #5C94C6",
"X' c #727272",
"X] c #EBEEEC",
"X[ c #707070",
"X{ c #963B8C",
"X} c #AB5190",
"X| c #8AB0D2",
"o  c #8C74A6",
"o. c #8E4D9B",
"oX c #686868",
"oo c #D3D2D1",
"oO c #7066C6",
"o+ c #666666",
"o@ c #656665",
"o# c #656465",
"o$ c #646464",
"o% c #974390",
"o& c #A4B7D1",
"o* c #626262",
"o= c #CDCCCB",
"o- c #EDEEF1",
"o; c #CCCCCA",
"o: c #858DAC",
"o> c #ECEEF0",
"o, c #606060",
"o< c #CBCAC9",
"o1 c #5F605F",
"o2 c #627AA4",
"o3 c #A73A82",
"o4 c #939392",
"o5 c #6B85BA",
"o6 c #C7C4C5",
"o7 c #C1C3C9",
"o8 c #C5C4C3",
"o9 c #C4C4C2",
"o0 c #BA9FBF",
"oq c #C5C0C3",
"ow c #A9AEB8",
"oe c #C3C2C1",
"or c #8D8D8C",
"ot c #F8F7F5",
"oy c #C4BEC2",
"ou c #E6E5E0",
"oi c #E6E3E0",
"op c #545454",
"oa c #8DA3CE",
"os c #F5F3F2",
"od c #BFBEBD",
"of c #BEBEBC",
"og c #BDBCBB",
"oh c #BBBAB9",
"oj c #B88EB3",
"ok c #B9B8B7",
"ol c #838382",
"oz c #D9DADD",
"ox c #AB5396",
"oc c #B1B3B9",
"ov c #B5B4B3",
"ob c #C3A3B7",
"on c #3359A7",
"om c #E4E3E1",
"oM c #805593",
"oN c #EDF0F7",
"oB c #D9DCE0",
"oV c #727171",
"oC c #DDDBDA",
"oZ c #706F6F",
"oA c #6F6F6E",
"oS c #6D6D6C",
"oD c #6EA3C6",
"oF c #A0A09E",
"oG c #D4D3D1",
"oH c #F9F6F2",
"oJ c #C7B9C1",
"oK c #BB7EA5",
"oL c #A0498E",
"oP c #9D9C9B",
"oI c #BC7CA6",
"oU c #C5BBBF",
"oY c #D2D1CF",
"oT c #E6E2DC",
"oR c #D1DCEF",
"oE c #CFCDCC",
"oW c #B5B6B9",
"oQ c #94A1B3",
"o! c #929290",
"o~ c #929090",
"o^ c #AA4E91",
"o/ c #B36A9D",
"o( c #C7D2E5",
"o) c #C7C1C4",
"o_ c #C6BFC3",
"o` c #EFF6FF",
"o' c #E9E6E2",
"o] c #A592A6",
"o[ c #C4BDC1",
"o{ c #8A8A88",
"o} c #C1BBBE",
"o| c #A5408C",
"O  c #A2A7B0",
"O. c #858483",
"OX c #909BC6",
"Oo c #B6C3DE",
"OO c #C9C9C9",
"O+ c #BAC4D8",
"O@ c #96579E",
"O# c #D8D9DB",
"O$ c #C7C7C7",
"O% c #81807F",
"O& c #B5B5B2",
"O* c #C5C5C5",
"O= c #A1357E",
"O- c #B1689E",
"O; c #9467B3",
"O: c #F8F8F7",
"O> c #87ABD4",
"O, c #E6E4E2",
"O< c #BF9EB2",
"O1 c #C09CB3",
"O2 c #AFADAC",
"O3 c #C09AB3",
"O4 c #AEADAB",
"O5 c #844496",
"O6 c #DEDCDA",
"O7 c #537BAE",
"O8 c #A670AA",
"O9 c #8A78B6",
"O0 c #D8D6D4",
"Oq c #D7D6D3",
"Ow c #AB4B8E",
"Oe c None",
/* pixels */
"O*O*O*O*O*O*O*O*O*O*O*O*O*O*O*O*O*O*O*O*O*O*O*O*O*O*O*O*O*O*O*O*",
"O*O*O*O*XC 7.$o[ uO*O*O*O*O*O*O*O*O*O*O*O*O*O*O*O$X XmXmXn 0O*O*",
"O*O*O*.+Xzo/.H %O1XHO*O*O*O*O*O*O*O*O*O*O*O*O* 6.sX<XSX+X3XcO*O*",
"O*O*O* :.lXMX/.XXx.(O*O*O*O*O*O*O*O*O*O*O*O*O*XcXWXKX&.; M.DO*O*",
"O*O*O*XdoIXUoDoO Wo[O*O*O*O*O*O*O*O*O*O*O*O*O*OOou.:XT.koso=O*O*",
"O*O*O*o_X$o]XQO;X>._O*O*O*O*O*O*O*O*O*O*O*O*O*Xco'.`.q JoHo=O*O*",
"O*O*O*.EX} no%X- L._O*O*O*O*O*XC.#O*O*O*O*O*O*X omX=.g.Jot `O*O*",
"O*O*O* 0oUo O9 .o)X@O*O*O*XXog dO&O*O*O*O*O*O*XX $ @Oo  o= 7O*O*",
"O*O*O*O* 0.@./O*O*O*O*O*.^.BoVXFo4ohok.8of 0O*O*o} >o&O*O*O*O*O*",
"O*O* ] ZoC RoRX5XCO*.#.B.d 3Xko+.xX[ FoZXaXX.EXoXEO5O8X^O*O*O*O*",
"O*O*oEXJ |o(.&XYXXO*.}oSXb 'o#oX ~ / ^XholXXoJ c.9o. G [ uO*O*O*",
"O*O*.S !oW.eXO.CXmO*XZ rX:.to$ 8 z.boF.n.w 0.V.~oQ hX,X(.$O*O*O*",
"O*O* ( Eoc.I xoTO$O*O*O*O* yoPo@O4O*O*O*O*O*X9.Uo: iojX0.$O*O*O*",
"O*O* ) }O#..o`oiO$O*O*O*O*O*O*.'.1O*O*O*O*O*.M B 1O@ j.T uO*O*O*",
"O*O* 6X2.! loB oXXO*O*O*O*O*O*O*O*O*O*O*O*O*XBO< {.y k.mO*O*O*O*",
"O*O*O*O*owon.YO*O*O*O*O*O*O*O*O*O*O*O*O*O*O*O*O*.PO>O*O*O*O*O*O*",
"O*O* 7X5X!oaXA oXXO*O*O*O*O*XC 0O*O*O*O*O*O* q m.O.2 # :O*O*O*O*",
"O*O*o<os H.F aO,XcO*O*O*O*O*XLo!X* 7O*O*O*O* ;.u.zXPXG.[.$O*O*O*",
"O*O*o;XsXro5.j.cXjO* 0o8o9.o.4 Q _or.3XXO*O*oJX. pOX 9 UoyO*O*O*",
"O*O* `.AO .a.rX~ 2O*.6 FoA F.ho$o1 5 Io~od 0 T.>o2X|ob *.-O*O*O*",
"O*O* `Xpo7 PXVXyXlO*ovXIop.% w _ ^o, 8o*o{XN TO=oM DO-oK.-O*O*O*",
"O*O* 4 NX] eoN.iX O*.<O%.{.WO. / t.ZO%X# 0O*o)XtoLX{oxX% uO*O*O*",
"O*O*O*O* fO7.=O*O*O* 0 7XXXXoeoZX'.p 0O*O*O*O* 0.LX_XeO*O*O*O*O*",
"O*O*O* q , +XfX7.QO*O*O*O*O* yO2o8O*O*O*O*O*O*. .5 V.) (O$O*O*O*",
"O*O*O* = Y.v so^O3XDO*O*O*O*O*O*O*O*O*O*O*O*O*oYX8 Co-XRoYO*O*O*",
"O*O*O*.Mo3Xq vX;XuoqO*O*O*O*O*O*O*O*O*O*O*O*O*X1oz.]O+X)X4 0O*O*",
"O*O*O*X6 -.0X`o0 OoqO*O*O*O*O*O*O*O*O*O*O*O*O*O6 (Xg.,.NOq 0O*O*",
"O*O*O*.M.7 A < X &.$O*O*O*O*O*O*O*O*O*O*O*O*O*.f.*Xi K SO0 0O*O*",
"O*O*O* :Ow.G.|o| gXDO*O*O*O*O*O*O*O*O*O*O*O*O*ooO:Xwo> boGO*O*O*",
"O*O*O* 0o6.+.R.+XBO*O*O*O*O*O*O*O*O*O*O*O*O*O* 7Xv ].Ko<XmO*O*O*",
"O*O*O*O*O*O*O*O*O*O*O*O*O*O*O*O*O*O*O*O*O*O*O*O*O*O*O*O*O*O*O*O*",
"O*O*O*O*O*O*O*O*O*O*O*O*O*O*O*O*O*O*O*O*O*O*O*O*O*O*O*O*O*O*O*O*"
};
