/* XPM */
static char *shaveSelectVert[] = {
/* width height ncolors chars_per_pixel */
"32 32 229 2",
/* colors */
"   c #5389F0",
" . c #5289EF",
" X c #406AB9",
" o c #CABAC3",
" O c #96A6C8",
" + c #C0489C",
" @ c #5895F8",
" # c #4B669C",
" $ c #4C7EDF",
" % c #9A98B8",
" & c #C954A8",
" * c #BB3E97",
" = c #C9C2C5",
" - c #C1C3C7",
" ; c #B7BCC7",
" : c #4577CE",
" > c #B9BBBF",
" , c #4F82E5",
" < c #B5B7BB",
" 1 c #B94298",
" 2 c #C7C6C6",
" 3 c #C6C6C5",
" 4 c #C15AA3",
" 5 c #6283B2",
" 6 c #609AFC",
" 7 c #A0A9BA",
" 8 c #A354AD",
" 9 c #5C94F8",
" 0 c #8370CC",
" q c #C984B1",
" w c #C162A6",
" e c #C04198",
" r c #A9B1C6",
" t c #C67CAE",
" y c #BDA2BC",
" u c #C2C2C4",
" i c #7D889E",
" p c #BBBFC7",
" a c #C1479C",
" s c #AEB6C4",
" d c #446FBF",
" f c #C67EB1",
" g c #5A8FEF",
" h c #C857A6",
" j c #7994C8",
" k c #C84BA6",
" l c #96A7CA",
" z c #8D4C9A",
" x c #9372CE",
" c c #708DC9",
" v c #BDB8C2",
" b c #BE459C",
" n c #5790F9",
" m c #6C7B9A",
" M c #B0AFBF",
" N c #C8C5C6",
" B c #7399CF",
" V c #C7C5C5",
" C c #416DBF",
" Z c #406BBE",
" A c #4F8EF1",
" S c #C159A2",
" D c #4A7AD5",
" F c #8E99AE",
" G c #5083E8",
" H c #C08EB1",
" J c #4F75BC",
" K c #CA85B1",
" L c #4071C1",
" P c #CD50A7",
" I c #5187EC",
" U c #5F99FD",
" Y c #6B7DDE",
" T c #8893AB",
" R c #B360B8",
" E c #5882D5",
" W c #548BF2",
" Q c #C0C1C4",
" ! c #698ED5",
" ~ c #627EB7",
" ^ c #755F95",
" / c #B3BBCB",
" ( c #BCBDC0",
" ) c #4573CC",
" _ c #5276BB",
" ` c #4E80E2",
" ' c #5891F9",
" ] c #588FF9",
" [ c #7096DF",
" { c #97A0B6",
" } c #96A0B5",
" | c #675291",
".  c #999FAE",
".. c #8E9BB7",
".X c #BEA6B8",
".o c #518DF2",
".O c #C554A5",
".+ c #4F8BF0",
".@ c #4D8DEE",
".# c #608DD9",
".$ c #5E94F8",
".% c #5D94F7",
".& c #C6C6C6",
".* c #416CC1",
".= c #C15AA4",
".- c #C4C4C4",
".; c #BE5AA1",
".: c #BEBEBE",
".> c #456FBE",
"., c #7895CF",
".< c #558CF2",
".1 c #C2C4C5",
".2 c #C2C2C5",
".3 c #C1C2C4",
".4 c #CBBBC4",
".5 c #CABBC3",
".6 c #CAB9C3",
".7 c #7477B4",
".8 c #4664A1",
".9 c #8B75BA",
".0 c #BC4398",
".q c #C9C5C5",
".w c #C853A7",
".e c #4D7CD6",
".r c #578BED",
".t c #7B88A0",
".y c #4A7AD3",
".u c #AE63A1",
".i c #96A7CB",
".p c #4978D2",
".a c #9DA7BE",
".s c #937CBB",
".d c #606AC1",
".f c #BF479E",
".g c #93A2BE",
".h c #568EF9",
".j c #B84397",
".k c #C6C5C5",
".l c #5F99FB",
".z c #B9BCC2",
".x c #CC87B4",
".c c #B460B7",
".v c #A9B2C6",
".b c #578FF3",
".n c #BD4295",
".m c #496FB7",
".M c #BB84AD",
".N c #5389EF",
".B c #98A8C9",
".V c #7C66BB",
".C c #5284E4",
".Z c #4466A8",
".A c #5B93FA",
".S c #5A91F9",
".D c #6286CC",
".F c #ADB5C3",
".G c #BE4299",
".H c #BC4297",
".J c #C67DB1",
".K c #588CED",
".L c #AF66A1",
".P c #598FE4",
".I c #C0C1C5",
".U c #6D7FE4",
".Y c #BEBFC3",
".T c #79859D",
".R c #A1A7B7",
".E c #5293F4",
".W c #C8C6C6",
".Q c #697897",
".! c #568CEE",
".~ c #8F5095",
".^ c #4B76CC",
"./ c #4166AB",
".( c #C8A3BC",
".) c #806CC8",
"._ c #C552A9",
".` c #C4C4C5",
".' c #BD5CA1",
".] c #BCA0BA",
".[ c #C1C2C2",
".{ c #A356AF",
".} c #6098FE",
".| c #5F98FD",
"X  c #5487E5",
"X. c #BCBCBD",
"XX c #5B92F9",
"Xo c #C982B3",
"XO c #BC6AA3",
"X+ c #B9B2BA",
"X@ c #588EF6",
"X# c #6D93D9",
"X$ c #538EF1",
"X% c #745AA8",
"X& c #BABFC8",
"X* c #B4BCCC",
"X= c #5183E5",
"X- c #5798F8",
"X; c #5384DD",
"X: c #8E6CC8",
"X> c #7D8DAD",
"X, c #818EA7",
"X< c #C1ABBB",
"X1 c #4F7ED9",
"X2 c #436DC0",
"X3 c #A6A6BE",
"X4 c #9EA9C0",
"X5 c #5287E9",
"X6 c #5885DB",
"X7 c #4F80DC",
"X8 c #C5C5C5",
"X9 c #6986E5",
"X0 c #C3C3C3",
"Xq c #6B94D3",
"Xw c #C24FA5",
"Xe c #C94CA2",
"Xr c #6099FD",
"Xt c #99A5BE",
"Xy c #C3489C",
"Xu c #5C95F9",
"Xi c #5B93F8",
"Xp c #CB83B4",
"Xa c #5582D1",
"Xs c #BE4097",
"Xd c #A6B0C4",
"Xf c #C4C5C7",
"Xg c #6A86E9",
"Xh c #4D7BD3",
"Xj c None",
/* pixels */
"X8X8X8X8X8X8X8X8X8X8X8X8X8X8X8X8X8X8X8X8X8X8X8X8X8X8X8X8X8X8X8X8",
"X8X8X8X8X8X8X8X8X8X8X8X8.& = = = = = =.&X8X8X8X8X8X8X8X8X8X8X8X8",
"X8X8X8X8X8X8X8X8X8X8X8X8.W w.= 4 S.;.'.WX8X8X8X8X8X8X8X8X8X8X8X8",
"X8X8X8X8X8X8X8X8X8X8X8X8.W.f HX<.X.M 1.WX8X8X8X8X8X8X8X8X8X8X8X8",
"X8X8X8X8X8X8X8X8X8X8X8.& v a.s BXq.9.H %.z 3X8X8X8X8X8X8X8X8X8X8",
"X8X8X8X8X8X8X8X8X8 2 s.# YXy 0 A.@.).n.U.+.^...kX8X8X8X8X8X8X8X8",
"X8X8X8X8X8X8X8X8.I !.AX$.d + z | ^.~.0.7 :.<X@.> (X8X8X8X8X8X8X8",
"X8X8X8X8X8X8X8.v.!.$ CX,X+ b.G eXs *.j VX8 7Xh.} ZX0X8X8X8X8X8X8",
"X8X8X8X8X8.&.BXuX  #X.X8X8 N.W N.W.W.WX8X8X8 u E.%X>X8X8X8X8X8X8",
"X8X8X8X8.&.i.|.e m 3X8X8X8X8X8X8X8X8X8X8X8X8X8.F.l.m 3X8X8X8X8X8",
"X8X8X8X8 -Xu.y i.&X8X8X8X8X8X8X8X8X8X8X8X8X8X8.1 @ L.kX8X8X8X8X8",
"X8X8X8X8X8 /.t.&X8X8X8X8X8X8X8X8X8X8X8.W.6.6.5 y xX%.kX8X8X8X8X8",
"X8X8X8X8X8X8 3X8X8X8X8X8X8X8X8X8X8X8X8.6 k.w hXwXeXO 2X8X8X8X8X8",
"X8X8X8X8X8X8X8X8X8X8X8X8X8X8X8X8X8X8X8 o &.q MX9.c q.kX8X8X8X8X8",
"X8X8X8X8X8X8X8X8X8X8X8X8X8X8X8X8X8X8X8.4.wX3.PX-.{ K.kX8X8X8X8X8",
"X8X8X8X8X8X8X8X8X8X8X8X8X8X8X8X8X8X8.&.]._Xg.E 5.uXo.kX8X8X8X8X8",
"X8X8X8X8X8X8X8X8X8X8X8X8X8X8X8.& Q.gXaX: P R 8.L.O f.kX8X8X8X8X8",
"X8X8X8X8X8X8X8X8X8X8X8X8X8X8.a.DX5.S.o.V t.x.xXp.J.(X8X8X8X8X8X8",
"X8X8X8X8X8X8X8X8X8X8X8.&X4X7XX.b D ~.R.-.&X8.k.k.kX8X8X8X8X8X8X8",
"X8X8X8X8X8X8X8X8X8X8 2 j 9.K _ }.[.&X8X8X8X8X8X8X8X8X8X8X8X8X8X8",
"X8X8X8X8X8X8X8X8X8X8 O 6Xh F 3X8X8X8X8X8X8X8X8X8X8X8X8X8X8X8X8X8",
"X8X8X8X8X8X8X8X8X8.& gX;. X8X8X8X8X8X8X8X8X8X8X8X8X8X8X8X8X8X8X8",
"X8X8X8X8X8X8X8X8X8 pXr.Z 3X8X8X8X8X8X8X8X8X8X8X8X8X8X8X8X8X8X8X8",
"X8X8X8X8X8X8X8X8X8X& U.8 3X8X8X8X8X8X8X8X8X8X8X8X8X8X8X8X8X8X8X8",
"X8X8X8X8X8X8X8X8X8XfXi X.:X8X8X8X8X8X8X8X8X8X8X8X8X8X8X8X8X8X8X8",
"X8X8X8X8X8X8X8X8X8.& [.r.Q.&X8X8X8X8X8X8X8X8X8X8X8X8X8X8X8X8X8X8",
"X8X8X8X8X8X8X8X8X8X8 ; '.p.T.kX8X8X8X8X8X8X8X8X8.&.&X8X8X8X8X8X8",
"X8X8X8X8X8X8X8X8X8X8.k l nX=./ T <X0.k 3 3.- > { JX*X8X8X8X8X8X8",
"X8X8X8X8X8X8X8X8X8X8X8 3 r.C ] . $ ).* dX2 ) ` W.hX#.&X8X8X8X8X8",
"X8X8X8X8X8X8X8X8X8X8X8X8X8.&Xd.,X6 , I  .N GX1 cXt.3.kX8X8X8X8X8",
"X8X8X8X8X8X8X8X8X8X8X8X8X8X8X8.& 2X8.2.Y Q.`.&.&X8X8X8X8X8X8X8X8",
"X8X8X8X8X8X8X8X8X8X8X8X8X8X8X8X8X8X8X8X8X8X8X8X8X8X8X8X8X8X8X8X8"
};
