/* XPM */
static char *shaveRotate[] = {
/* width height ncolors chars_per_pixel */
"32 32 275 2",
/* colors */
"   c #A22D82",
" . c #BCC0C9",
" X c #AA478D",
" o c #B6BDCD",
" O c #A7B5D2",
" + c #4070D0",
" @ c #6A7DA0",
" # c #B3B8C0",
" $ c #3F6ECF",
" % c #3F5783",
" & c #3E6ECE",
" * c #4C73BE",
" = c #4C80DF",
" - c #2A4D96",
" ; c #A9B1C0",
" : c #C8C2C4",
" > c #5971A3",
" , c #2F58A8",
" < c #BFC1C5",
" 1 c #3D68B9",
" 2 c #3765BD",
" 3 c #B06199",
" 4 c #BBBDC1",
" 5 c #335FB9",
" 6 c #2C519B",
" 7 c #C7C6C6",
" 8 c #C6C6C5",
" 9 c #C5C4C4",
" 0 c #C4C4C3",
" q c #B983A8",
" w c #ABADB1",
" e c #C19BB3",
" r c #3563BE",
" t c #B8BBC1",
" y c #3A568E",
" u c #BD95AF",
" i c #C6ADBB",
" p c #99A1B3",
" a c #A93288",
" s c #AA3089",
" d c #A63285",
" f c #6081C7",
" g c #A63085",
" h c #51658A",
" j c #A53084",
" k c #A62E85",
" l c #C2A5B7",
" z c #C4C4C6",
" x c #C3C4C5",
" c c #A42E83",
" v c #9E9FA4",
" b c #A23081",
" n c #2C4B8A",
" m c #A32E82",
" M c #A42C83",
" N c #A22E81",
" B c #A32C82",
" V c #C1C2C3",
" C c #A32A82",
" Z c #627494",
" A c #A22A81",
" S c #A12880",
" D c #A0287F",
" F c #BDBEBF",
" G c #BCBCBE",
" H c #C6B5BE",
" J c #C4B1BC",
" K c #A53A87",
" L c #A53887",
" P c #3D6DCC",
" I c #B05095",
" U c #2B4E96",
" Y c #C3C4C8",
" T c #3D6AC2",
" R c #C8BFC3",
" E c #C6BBC1",
" W c #3562BA",
" Q c #B874A3",
" ! c #B7B8BC",
" ~ c #C8C5C6",
" ^ c #C4C3C2",
" / c #3358A4",
" ( c #4068B4",
" ) c #33559A",
" _ c #2C529D",
" ` c #BD90AE",
" ' c #9EA3AD",
" ] c #6C86BE",
" [ c #3D6CC8",
" { c #878E9D",
" } c #44619A",
" | c #3B6AC6",
".  c #456CBC",
".. c #AF4390",
".X c #A1277F",
".o c #7E9FE0",
".O c #30539A",
".+ c #B9B9BA",
".@ c #345FB5",
".# c #4B7CDC",
".$ c #ACB0B7",
".% c #3459A1",
".& c #C7BAC1",
".* c #C6BAC0",
".= c #779CE6",
".- c #ACB6CE",
".; c #9BB1DB",
".: c #A8B4CA",
".> c #96ABD6",
"., c #C8C4C5",
".< c #C1C3C8",
".1 c #C7C2C4",
".2 c #3965C0",
".3 c #7B92C2",
".4 c #3865BF",
".5 c #90A2C6",
".6 c #B577A2",
".7 c #4C6597",
".8 c #3D6BC7",
".9 c #C6C6C6",
".0 c #C5C4C5",
".q c #C4C4C4",
".w c #C0C0C0",
".e c #B1BBCF",
".r c #3663C0",
".t c #BABDC4",
".y c #2D53A0",
".u c #BD97B0",
".i c #6888C6",
".p c #AA348A",
".a c #A93489",
".s c #A83488",
".d c #A73287",
".f c #365DAC",
".g c #788AAE",
".h c #A63286",
".j c #A53285",
".k c #385CA4",
".l c #C1A5B7",
".z c #A32E83",
".x c #A22E82",
".c c #99A9CB",
".v c #A22C82",
".b c #4169BA",
".n c #A12C81",
".m c #949AA5",
".M c #A9B8D4",
".N c #C6B7BF",
".B c #A7428A",
".V c #B25A98",
".C c #C5B5BE",
".Z c #768298",
".A c #C4B3BD",
".S c #4470CA",
".D c #98A1B6",
".F c #B5B6B8",
".G c #C2C4C8",
".H c #B5689E",
".J c #C8C1C4",
".K c #C7BFC3",
".L c #BABFCA",
".P c #5E89E0",
".I c #B576A1",
".U c #9EB1D6",
".Y c #C7C7C6",
".T c #98A0AF",
".R c #BD86AC",
".E c #C6C5C5",
".W c #C5C5C4",
".Q c #C4C3C3",
".! c #C3C3C2",
".~ c #C2C1C1",
".^ c #BBBEC4",
"./ c #B0BACD",
".( c #BCBBBB",
".) c #BD94AF",
"._ c #A93788",
".` c #BC92AE",
".' c #A83387",
".] c #A92F88",
".[ c #6692E4",
".{ c #A62D85",
".} c #A42F83",
".| c #4C6EB0",
"X  c #A32D82",
"X. c #A22B81",
"XX c #C0C1C2",
"Xo c #A22981",
"XO c #A12980",
"X+ c #A0297F",
"X@ c #A0277F",
"X# c #A0257F",
"X$ c #9F257E",
"X% c #A7AAB0",
"X& c #C4B0BC",
"X* c #2B4F96",
"X= c #305091",
"X- c #345CAC",
"X; c #C4C5C9",
"X: c #A4B0C4",
"X> c #5772AA",
"X, c #878B97",
"X< c #B7BFD0",
"X1 c #4678D8",
"X2 c #AA478F",
"X3 c #B1B9CA",
"X4 c #88A0D0",
"X5 c #556A94",
"X6 c #325FB7",
"X7 c #355EB0",
"X8 c #B4B5B9",
"X9 c #335CAE",
"X0 c #C8C6C6",
"Xq c #C7C6C5",
"Xw c #B2B3B7",
"Xe c #C5C4C3",
"Xr c #9CABC9",
"Xt c #B3BDCF",
"Xy c #A0A9B9",
"Xu c #5171B4",
"Xi c #C6C6C7",
"Xp c #C5C6C6",
"Xa c #677698",
"Xs c #A52C83",
"Xd c #5E8CE5",
"Xf c #7591CA",
"Xg c #C09FB4",
"Xh c #A42682",
"Xj c #C0C0C1",
"Xk c #A7A9AF",
"Xl c #9F227D",
"Xz c #BABABB",
"Xx c #406FCE",
"Xc c #7A8CB1",
"Xv c #C3C4C7",
"Xb c #C2C4C6",
"Xn c #C7BBC1",
"Xm c #BBBCBF",
"XM c #7A9CDF",
"XN c #AD5694",
"XB c #C8C5C5",
"XV c #496291",
"XC c #3159AB",
"XZ c #B3BCCE",
"XA c #3562BC",
"XS c #4766A6",
"XD c #8E94A3",
"XF c #738099",
"XG c #B576A2",
"XH c #B6B8BD",
"XJ c #C7C7C7",
"XK c #BB8AAB",
"XL c #C5C5C5",
"XP c #395DA2",
"XI c #2F59AC",
"XU c #C1C1C1",
"XY c #BFBFBF",
"XT c #A83388",
"XR c #A8B2C6",
"XE c #ADB3C1",
"XW c #A73387",
"XQ c #A83188",
"X! c #A53585",
"X~ c #C6C7C9",
"X^ c #A63186",
"X/ c #A53185",
"X( c #4B7CDB",
"X) c #3B6AC8",
"X_ c #C4C5C7",
"X` c #C1A6B7",
"X' c #A42F84",
"X] c #C1A4B7",
"X[ c #A32F83",
"X{ c #3D69C0",
"X} c None",
/* pixels */
"XLXLXLXLXLXLXLXLXLXLXLXLXLXLXLXLXLXLXLXLXLXLXLXLXLXLXLXLXLXLXLXL",
"XLXLXLXLXLXLXLXLXLXLXLXLXL 7 EXLXLXLXLXLXLXLXLXLXLXLXLXLXLXLXLXL",
"XLXLXLXLXLXLXLXLXLXLXLXLXL 7 c lXLXLXLXLXLXLXLXLXLXLXLXLXLXLXLXL",
"XLXLXLXLXLXLXLXLXLXLXLXLXL 7 M C `.9XLXLXLXLXLXLXLXLXLXLXLXLXLXL",
"XLXLXLXLXLXLXLXLXL.9.JX&X` qX'X^Xs Q 7XLXLXLXLXLXLXLXLXLXLXLXLXL",
"XLXLXLXLXLXLXLXBXgXN SXOXo BX/ d.d k.V ~XLXLXLXLXLXLXLXLXLXLXLXL",
"XLXLXLXLXLXL.NX!X@X..x.zX[ j.j.hXW.a a.. RXLXLXLXLXLXLXLXLXLXLXL",
"XLXLXLXL.9.`.X.n.x.x m.xX .}X^.hXT._.p s.R.9XLXLXLXLXLXLXLXLXLXL",
"XLXLXLXL.)X#.x m.x.v S.v XX2.h.'.s.] I.&.EXLXLXLXLXLXLXLXLXLXLXL",
"XLXLXL.A.X N.x N S.BX]., 7 H.{ gXQ e 7XLXLXLXLXLXLXLXLXLXLXLXLXL",
"XLXL 7 L.n.x.xXOXG 7XLXLXL.NXh.H :XLXLXLXLXLXLXLXLXLXLXLXLXLXLXL",
"XLXL JX@.x bXO.I.9XLXLXLXLXn i.EXLXLXLXLXLXLXLXLXLXLXLXLXLXLXLXL",
"XL.9 3 A.x.v KX0XLXLXLXLXL.E.^X:.5.cX3 Y 7XLXLXLXLXLXLXLXLXLXLXL",
"XL., S N  X+ uXLXLXLXL.9.D 1XAX-.k.%X9 P.P OXiXLXLXLXLXLXLXLXLXL",
"XL.K D.x.x S.1XLXLXLXUXS WXcXm.E 8 8.Q w Z.@./XLXLXLXLXLXLXLXLXL",
"XL.CXl DX@X$ ~XLXL F /.b 4XLXLXLXLXLXLXLXL.~.9XLXLXLXLXLXLXLXLXL",
"XL.*.6XK.u.l 7XL 0 ) *XLXLXLXLXLXLXL.9.9Xb.<X_XJ 8XLXLXLXLXLXLXL",
"XLXLXLXLXLXLXL 8Xa T xXLXLXLXLXL 8 t ].8X) | $.#.oXtXJXLXLXLXLXL",
"XLXLXLXLXLXLXLXzXIXRXLXLXLXLXL 8.g.r.| p ! GXwXD.7X{.[ 7XLXLXLXL",
"XLXLXLXLXLXLXL.Z.S 7XLXLXLXLXq >.4Xy 7XLXLXLXLXL 8.+.$XLXLXLXLXL",
"XLXLXLXLXLXL 8 yX4XLXLXLXL.9 @.2 #XLXLXLXLXLXLXLXLXLXLXLXLXLXLXL",
"XLXLXLXLXLXL.WX*.-XLXLXLXL ' 5 ;XLXLXLXLXLXLXLXLXLXLXLXLXLXLXLXL",
"XLXLXLXLXLXL.!.y oXLXLXL 9.O.3 8XLXLXLXLXL.9.9Xv.GXi 7XLXLXLXLXL",
"XLXLXLXLXLXLXe 6.eXLXLXL.m 2 zXLXLXLXL.9XE.iXx & +X1Xd.;X;.EXLXL",
"XLXLXLXLXLXL 8X=.UXLXL.9XVXf 8XLXLXLXXXu rX>.TX8.FXkXFXP =.MXLXL",
"XLXLXLXLXLXL 8 hXM.9XL.W U.:XLXLXLXj.f (XH.9XLXLXLXLXLXe { <XLXL",
"XLXLXLXLXLXLXLX,X(XJXL.w ,.LXLXLXq }. .0XLXLXLXLXLXLXLXLXLXLXLXL",
"XLXLXLXLXLXLXL.(X7X<XLXYXC .XLXLX%X6.tXLXLXLXLXLXLXLXLXLXLXLXLXL",
"XLXLXLXLXLXLXL 8 %.= 8 ^ _XZXL.9X5 f.9XLXLXLXLXLXLXLXLXLXLXLXLXL",
"XLXLXLXLXLXLXLXL v [X~ 8 n.>XL.E -XrXLXLXLXLXLXLXLXLXLXLXLXLXLXL",
"XLXLXLXLXLXLXLXL 8 V 8XL.q.YXL 8Xp 7XLXLXLXLXLXLXLXLXLXLXLXLXLXL",
"XLXLXLXLXLXLXLXLXLXLXLXLXLXLXLXLXLXLXLXLXLXLXLXLXLXLXLXLXLXLXLXL"
};
