/* XPM */
static char *TEX_xpm[]={
"32 32 192 2",
"      c #FFFFFF",
" 0    c #FEFEFE",
" 1    c #FCFCFC",
" 2    c #FDFDFD",
" 3    c #E7E7E7",
" 4    c #C9C9C9",
" 5    c #EEEEEE",
" 6    c #E6E6E6",
" 7    c #EDEDED",
" 8    c #A4A4A4",
" 9    c #3E3E3E",
" a    c #444444",
" b    c #494949",
" c    c #525252",
" d    c #9D9D9D",
" e    c #C5C5C5",
" f    c #171717",
" g    c #0C0C0C",
" h    c #E1E1E1",
" i    c #F0F0F0",
" j    c #E2E2E2",
" k    c #F1F1F1",
" l    c #000000",
" m    c #3B3B3B",
" n    c #9E9E9E",
" o    c #6B6B6B",
" p    c #353535",
" q    c #8B8B8B",
" r    c #F6F6F6",
" s    c #E3E3E3",
" t    c #464646",
" u    c #0F0F0F",
" v    c #707070",
" w    c #F3F3F3",
" x    c #424242",
" y    c #C3C3C3",
" z    c #FBFBFB",
" A    c #FAFAFA",
" B    c #989898",
" C    c #020202",
" D    c #242424",
" E    c #E0E0E0",
" F    c #DEDEDE",
" G    c #898989",
" H    c #A5A5A5",
" I    c #ACACAC",
" J    c #BBBBBB",
" K    c #F7F7F7",
" L    c #858585",
" M    c #3C3C3C",
" N    c #C1C1C1",
" O    c #767676",
" P    c #F8F8F8",
" Q    c #010101",
" R    c #949494",
" S    c #CECECE",
" T    c #BCBCBC",
" U    c #B4B4B4",
" V    c #050505",
" W    c #ADADAD",
" X    c #A1A1A1",
" Y    c #D9D9D9",
" Z    c #DADADA",
" &    c #131313",
"0     c #151515",
"00    c #B3B3B3",
"01    c #030303",
"02    c #414141",
"03    c #090909",
"04    c #979797",
"05    c #636363",
"06    c #B0B0B0",
"07    c #ECECEC",
"08    c #7C7C7C",
"09    c #EBEBEB",
"0a    c #F2F2F2",
"0b    c #232323",
"0c    c #101010",
"0d    c #565656",
"0e    c #C7C7C7",
"0f    c #4C4C4C",
"0g    c #CCCCCC",
"0h    c #DBDBDB",
"0i    c #5D5D5D",
"0j    c #2D2D2D",
"0k    c #BDBDBD",
"0l    c #C2C2C2",
"0m    c #7A7A7A",
"0n    c #F5F5F5",
"0o    c #F4F4F4",
"0p    c #7F7F7F",
"0q    c #8E8E8E",
"0r    c #DFDFDF",
"0s    c #646464",
"0t    c #E4E4E4",
"0u    c #DDDDDD",
"0v    c #E8E8E8",
"0w    c #676767",
"0x    c #3D3D3D",
"0y    c #848484",
"0z    c #070707",
"0A    c #4D4D4D",
"0B    c #B6B6B6",
"0C    c #2B2B2B",
"0D    c #909090",
"0E    c #F9F9F9",
"0F    c #D8D8D8",
"0G    c #B1B1B1",
"0H    c #4A4A4A",
"0I    c #D0D0D0",
"0J    c #EAEAEA",
"0K    c #717171",
"0L    c #5B5B5B",
"0M    c #D7D7D7",
"0N    c #202020",
"0O    c #BEBEBE",
"0P    c #CDCDCD",
"0Q    c #040404",
"0R    c #AAAAAA",
"0S    c #303030",
"0T    c #A3A3A3",
"0U    c #828282",
"0V    c #B5B5B5",
"0W    c #656565",
"0X    c #626262",
"0Y    c #555555",
"0Z    c #919191",
"0&    c #9F9F9F",
"1     c #535353",
"10    c #9B9B9B",
"11    c #C8C8C8",
"12    c #BABABA",
"13    c #686868",
"14    c #A6A6A6",
"15    c #1E1E1E",
"16    c #373737",
"17    c #999999",
"18    c #222222",
"19    c #B7B7B7",
"1a    c #969696",
"1b    c #0A0A0A",
"1c    c #080808",
"1d    c #EFEFEF",
"1e    c #282828",
"1f    c #252525",
"1g    c #ABABAB",
"1h    c #C6C6C6",
"1i    c #D5D5D5",
"1j    c #B8B8B8",
"1k    c #7D7D7D",
"1l    c #D1D1D1",
"1m    c #7B7B7B",
"1n    c #E9E9E9",
"1o    c #1D1D1D",
"1p    c #343434",
"1q    c #5F5F5F",
"1r    c #A2A2A2",
"1s    c #A9A9A9",
"1t    c #BFBFBF",
"1u    c #727272",
"1v    c #CFCFCF",
"1w    c #8D8D8D",
"1x    c #D3D3D3",
"1y    c #505050",
"1z    c #8C8C8C",
"1A    c #AFAFAF",
"1B    c #515151",
"1C    c #121212",
"1D    c #0E0E0E",
"1E    c #383838",
"1F    c #393939",
"1G    c #939393",
"1H    c #868686",
"1I    c #E5E5E5",
"1J    c #9A9A9A",
"1K    c #DCDCDC",
"1L    c #595959",
"1M    c #262626",
"1N    c #474747",
"1O    c #B9B9B9",
"1P    c #A0A0A0",
"1Q    c #787878",
"1R    c #AEAEAE",
"1S    c #9C9C9C",
"1T    c #5A5A5A",
"1U    c #585858",
"1V    c #CACACA",
"1W    c #B2B2B2",
"1X    c #272727",
"1Y    c #D2D2D2",
"1Z    c #D4D4D4",
"1&    c #696969",
"         0 0         0 0 0                           0 0 0      ",
"   0 0 0 0 0 0 0 1 1     2   0 1 1             1 0 0 0 0 0 0 0 0",
" 0 2 2 2 0 0 0 0 1   3 4 5 6 7 1 8 9 a b c d 7 2 0 0 0 0 0 0 0 0",
" 0 0 0 0           e f g h i j k e l l l m n o   2 0           0",
" 0 0 0 0 0 0     1 p l l q   r s r t u v 8 w x y   z A     0 0 0",
" 0 0 0 0 0 0     B l C l D E z A F G H I J K L M N O P 0 0 0 0 0",
" 0 0 0 0 0 0     c l Q Q l R S T U V W X Y 5 Z &0  U   0 0 0 0 0",
" 0 0 0 0 0 0   000 l l l01020304   m050607 k w08 N   0 0 0 0 0 0",
" 0 0 0 0 0  090a  0b0c0d0e e0f 0  0g0b I  0h0i0j07 0 0 0 0 0 0 0",
" 0 0 0 0 0 00k0l G0m0e 5  0n 7    0o D0p0q & l010r       0 0 0 0",
" 0 0 0 0 0 0 j0s l0b0t0u0v 0   0 50w0x0y0z l l0A         0 0 0 0",
" 0 0 0 0 0 0    0B0C0D0e K 0 0 0 A0a z0E0F0e0G E  0e0H0I   0 0 0",
" 0 0 0     2 K K  0o T k   0 0 2 0            0J e0K l0L   0 0 0",
"    070M w  0s0N D j   K 0             0    0O00000P f0Q S   2 0",
" 0 2 2 50h  0R010S0B     0 0 0 0 0 0 0 0 z0T0R0M0U0V0W l0X   2 2",
" 0 2   Y d0X0Y0k w h K 0 0 0 0 2 2 0 0 0 0 40u S H0D0Z a0&0a   0",
" 0 0 11  & l l10   r0o             0 0 0 0 111 e0t12 m1314 S   0",
" 0   21 150N0Q160n 0 A   0 0 0 0 0 0 0 2 2   70B1718 l0S W190n  ",
" 0    1a0c M1b l14 0 5 7 1 0 0 0 0 0 0 0 0 0  0Z l l l1c H191d  ",
" 0 0 00r1e0S1f a1g 0 2 r 1 0 0 0 0 0 0 0 0 2 0 7 D l l l b R r  ",
" 0 2 2 Y0V1h1i w   2             2 0 0  0o z 0  0G l l0i1j q A  ",
" 0 1  0e1k0J0t0J0a w S0g0l000e 6 A 2 0  1l0n      1m d1n X S   0",
" 0 2 0  0s140t1n   2 b1o1p1q1r c A 0  0Z1s i0o1t1u1v0t1w X   0 0",
" 0 0 0  1x1y0F 4 U1z0K1i w   2 G w  1i l1m1A1B0Q l0Z0B0p 6   0 0",
" 0 0 0 0   T1q1C1D l f w     61i0E z1B1E1z0Q l l l1F W1A   0 0 0",
"            1G l1C C l1H     k0I 01I1J Y1K0C l l l1C1L0k   0    ",
"       0 2 21K0N l l l1M S1j131N 2 70u1O1P1Q l V0Y1R1S09        ",
" 0 0 0 0 0   r1T0j1U O1j0K l l0N 1   h0e0n1V0s1g1W U w   0 0 0 0",
" 0 0 0 0 0 0  141W h1I S1i03 Q1X z   K000L f0s1Y111Z   0 0 0 0 0",
" 0       0 0 0 0 3 k k0v P1l0g1i 2 0  1A l0B1v 6 5     0 0 0 0 0",
" 0 0 0 0 0 0 0                   0 0    1& 6       0 0 0 0 0 0 0",
" 0 0 0 0 0 0 0 0 0 0 0 0 0 0 0 0 0 0 0  1n i   0 0 0 0 0 0 0 0 0"};
